<svg height="512pt" viewBox="0 0 512 512" width="512pt" xmlns="http://www.w3.org/2000/svg"><path d="m276.96875 426.667969c0 38.832031-31.480469 70.3125-70.3125 70.3125s-70.316406-31.480469-70.316406-70.3125c0-38.835938 31.484375-70.316407 70.316406-70.316407s70.3125 31.480469 70.3125 70.316407zm0 0" fill="#ffa000"/><path d="m385.472656 372.375c-28.820312-25.046875-45.355468-61.675781-45.355468-100.480469v-54.65625c0-75.691406-59.882813-137.257812-133.460938-137.257812s-133.460938 61.566406-133.460938 137.257812v54.65625c0 38.804688-16.535156 75.433594-45.527343 100.628907-7.421875 6.527343-11.667969 16.042968-11.667969 26.070312 0 18.921875 14.976562 34.300781 33.367188 34.300781h314.601562c18.386719 0 33.363281-15.402343 33.363281-34.300781 0-10.007812-4.265625-19.523438-11.859375-26.21875zm0 0" fill="#ffc107"/><path d="m512 138.667969c0 76.582031-62.082031 138.664062-138.667969 138.664062-76.582031 0-138.664062-62.082031-138.664062-138.664062 0-76.585938 62.082031-138.667969 138.664062-138.667969 76.585938 0 138.667969 62.082031 138.667969 138.667969zm0 0" fill="#4caf50"/><path d="m213.332031 512c-44.117187 0-80-35.882812-80-80 0-8.832031 7.167969-16 16-16s16 7.167969 16 16c0 26.476562 21.527344 48 48 48 26.476563 0 48-21.523438 48-48 0-8.832031 7.167969-16 16-16s16 7.167969 16 16c0 44.117188-35.882812 80-80 80zm0 0"/><path d="m389.332031 448h-352c-20.585937 0-37.332031-16.746094-37.332031-37.332031 0-10.925781 4.757812-21.269531 13.054688-28.375.511718-.449219 1.066406-.851563 1.644531-1.214844 31.359375-27.351563 49.300781-66.6875 49.300781-108.226563v-59.519531c0-69.480469 47.082031-129.128906 114.515625-145.066406 8.515625-2.046875 17.21875 3.285156 19.246094 11.90625 2.023437 8.597656-3.285157 17.214844-11.90625 19.242187-52.90625 12.5-89.855469 59.347657-89.855469 113.917969v59.519531c0 51.542969-22.59375 100.3125-61.953125 133.78125-.277344.238282-.574219.472657-.875.683594-.597656.746094-1.171875 1.855469-1.171875 3.351563 0 2.898437 2.433594 5.332031 5.332031 5.332031h352c2.902344 0 5.335938-2.433594 5.335938-5.332031 0-1.515625-.578125-2.625-1.175781-3.328125-.296876-.234375-.597657-.449219-.875-.707032-19.070313-16.253906-34.152344-35.921874-44.839844-58.453124-3.777344-8-.386719-17.535157 7.59375-21.308594 8.019531-3.777344 17.535156-.363282 21.3125 7.59375 8.46875 17.875 20.351562 33.578125 35.328125 46.65625.554687.363281 1.066406.746094 1.578125 1.171875 8.320312 7.105469 13.078125 17.449219 13.078125 28.375 0 20.585937-16.746094 37.332031-37.335938 37.332031zm0 0"/><path d="m373.332031 277.332031c-76.457031 0-138.664062-62.207031-138.664062-138.664062 0-76.460938 62.207031-138.667969 138.664062-138.667969 76.460938 0 138.667969 62.207031 138.667969 138.667969 0 76.457031-62.207031 138.664062-138.667969 138.664062zm0-245.332031c-58.816406 0-106.664062 47.851562-106.664062 106.667969 0 58.816406 47.847656 106.664062 106.664062 106.664062 58.816407 0 106.667969-47.847656 106.667969-106.664062 0-58.816407-47.851562-106.667969-106.667969-106.667969zm0 0"/><path d="m432 154.667969h-117.332031c-8.832031 0-16-7.167969-16-16s7.167969-16 16-16h117.332031c8.832031 0 16 7.167969 16 16s-7.167969 16-16 16zm0 0"/><path d="m373.332031 213.332031c-8.832031 0-16-7.167969-16-16v-117.332031c0-8.832031 7.167969-16 16-16s16 7.167969 16 16v117.332031c0 8.832031-7.167969 16-16 16zm0 0"/></svg>