<?xml version="1.0"?>
<svg xmlns="http://www.w3.org/2000/svg" id="Layer_1" enable-background="new 0 0 496 496" height="512px" viewBox="0 0 496 496" width="512px" class=""><g><path d="m480 94.5v344c0 17.67-14.33 32-32 32h-400c-17.67 0-32-14.33-32-32v-344c0-17.67 14.33-32 32-32h400c17.67 0 32 14.33 32 32z" fill="#e8f8fc" data-original="#E8F8FC" class="active-path" style="fill:#FFFFFF" data-old_color="#e8f8fc"/><path d="m479.82 91.17h-396.49c-17.673 0-32 14.334-32 32.007 0 210.587-.029 293.035-.003 325.536.012 14.797-18.559 21.605-27.977 10.192-4.83-5.854-7.35-12.998-7.35-20.405v-344c0-17.673 14.327-32 32-32h400c16.55 0 30.16 12.56 31.82 28.67z" fill="#f1fafc" data-original="#F1FAFC" class="" style="fill:#F1FAFC"/><path d="m448 62.5c17.67 0 32 14.33 32 32v87h-464v-87c0-17.67 14.33-32 32-32z" fill="#fe4f60" data-original="#FE4F60" class="" style="fill:#FFB229" data-old_color="#fe4f60"/><g fill="#ff6d7a"><path d="m324 91.17h60v-28.67h-120z" data-original="#FF6D7A" class="" style="fill:#FFDE03" data-old_color="#FF6D7A"/><path d="m204 91.17h60v-28.67h-120z" data-original="#FF6D7A" class="" style="fill:#FFDE03" data-old_color="#FF6D7A"/><path d="m16 94.5v87h35.33v-58.33c0-17.67 14.33-32 32-32h60.67v-28.67h-96c-17.67 0-32 14.33-32 32z" data-original="#FF6D7A" class="" style="fill:#FFDE03" data-old_color="#FF6D7A"/><path d="m384 62.5 60 28.67h4.525c18.446 0 19.443-27.759 1.018-28.633-1.123-.054 3.483-.037-65.543-.037z" data-original="#FF6D7A" class="" style="fill:#FFDE03" data-old_color="#FF6D7A"/></g><path d="m448 46.5h-64v-21c0-8.836-7.164-16-16-16s-16 7.164-16 16v21h-88v-21c0-8.836-7.164-16-16-16s-16 7.164-16 16v21h-88v-21c0-8.836-7.164-16-16-16s-16 7.164-16 16v21h-64c-26.467 0-48 21.533-48 48v344c0 26.467 21.533 48 48 48h400c26.467 0 48-21.533 48-48v-344c0-26.467-21.533-48-48-48zm16 392c0 8.822-7.178 16-16 16h-400c-8.822 0-16-7.178-16-16v-241h362c8.836 0 16-7.164 16-16s-7.164-16-16-16h-362v-71c0-8.822 7.178-16 16-16h64v21c0 8.836 7.164 16 16 16s16-7.164 16-16v-21h88v21c0 8.836 7.164 16 16 16s16-7.164 16-16v-21h88v21c0 8.836 7.164 16 16 16s16-7.164 16-16v-21h64c8.822 0 16 7.178 16 16zm-238-76.693v10.693h60c8.836 0 16 7.164 16 16s-7.164 16-16 16h-76c-8.836 0-16-7.164-16-16v-26.693c0-22.844 15.479-42.668 37.641-48.209l24.958-6.239c7.891-1.973 13.402-9.031 13.402-17.165 0-9.756-7.937-17.693-17.693-17.693h-42.308c-8.836 0-16-7.164-16-16s7.164-16 16-16h42.307c27.401 0 49.693 22.292 49.693 49.693 0 22.844-15.479 42.668-37.641 48.209l-24.958 6.239c-7.89 1.973-13.401 9.031-13.401 17.165z" fill="#4c3546" data-original="#4C3546" class="" style="fill:#000000" data-old_color="#4c3546"/></g> </svg>
