<?xml version="1.0"?>
<svg xmlns="http://www.w3.org/2000/svg" xmlns:xlink="http://www.w3.org/1999/xlink" version="1.1" id="Capa_1" x="0px" y="0px" viewBox="0 0 512 512" style="enable-background:new 0 0 512 512;" xml:space="preserve" width="512px" height="512px" class=""><g><path style="fill:#10375C" d="M288,479.997c-17.92,0-35.36-2.08-51.904-6.208c-8.576-2.144-13.792-10.848-11.616-19.392  c2.112-8.608,10.816-13.76,19.392-11.648c13.984,3.456,28.832,5.248,44.128,5.248c105.888,0,192-86.112,192-192s-86.112-192-192-192  c-15.264,0-30.08,1.792-44.096,5.28c-8.544,2.112-17.248-3.04-19.424-11.616c-2.144-8.576,3.072-17.28,11.616-19.392  c16.576-4.192,34.016-6.272,51.904-6.272c123.488,0,224,100.48,224,224C512,379.485,411.488,479.997,288,479.997z" data-original="#2196F3" class="" data-old_color="#2196F3"/><g>
	<path style="fill:#FFFFFF" d="M240,255.997c26.464,0,48-21.536,48-48s-21.536-48-48-48h-32c-8.832,0-16,7.168-16,16   s7.168,16,16,16h32c8.832,0,16,7.168,16,16s-7.168,16-16,16c-26.464,0-48,21.536-48,48v32c0,8.832,7.168,16,16,16h64   c8.832,0,16-7.168,16-16s-7.168-16-16-16h-48v-16C224,263.165,231.168,255.997,240,255.997z" data-original="#FFC107" class="active-path" data-old_color="#FFC107"/>
	<path style="fill:#FFFFFF" d="M400,159.997c-8.832,0-16,7.168-16,16v48h-27.488l11.04-44.128   c2.112-8.576-3.072-17.248-11.648-19.392c-8.704-2.24-17.28,3.072-19.392,11.648l-16,64c-1.184,4.768-0.128,9.856,2.912,13.728   c2.976,3.872,7.648,6.144,12.576,6.144h48v48c0,8.832,7.168,16,16,16s16-7.168,16-16v-128C416,167.165,408.832,159.997,400,159.997   z" data-original="#FFC107" class="active-path" data-old_color="#FFC107"/>
</g><path style="fill:#10375C" d="M124.48,339.453c-1.216-4.128-4.032-7.584-7.84-9.6c-3.808-2.048-8.256-2.4-12.352-1.12  l-45.536,14.496C51.84,314.813,48,285.565,48,255.997s3.84-58.816,10.752-87.232l45.536,14.464c4.096,1.312,8.544,0.864,12.352-1.12  c3.808-2.016,6.624-5.472,7.84-9.6c10.176-34.432,26.784-66.304,49.344-94.72c5.376-6.752,4.384-16.576-2.208-22.144l-61.12-51.84  c-3.264-2.816-7.52-4.096-11.84-3.744c-4.32,0.416-8.256,2.56-10.976,5.92C31.136,76.221,0,165.021,0,255.997  s31.136,179.776,87.68,250.016c2.688,3.36,6.656,5.504,10.944,5.92c0.512,0.032,1.024,0.064,1.536,0.064  c3.776,0,7.456-1.344,10.336-3.808l61.12-51.84c6.592-5.568,7.552-15.36,2.176-22.112  C151.232,405.757,134.656,373.885,124.48,339.453z" data-original="#2196F3" class="" data-old_color="#2196F3"/></g> </svg>
