<svg height="513pt" viewBox="-75 0 513 513.00267" width="513pt" xmlns="http://www.w3.org/2000/svg"><path d="m211.136719 104.511719c0 48.871093-39.617188 88.492187-88.488281 88.492187-48.875 0-88.492188-39.621094-88.492188-88.492187 0-48.871094 39.617188-88.492188 88.492188-88.492188 48.871093 0 88.488281 39.621094 88.488281 88.492188zm0 0" fill="#4caf50"/><path d="m351.980469 278.335938v128c0 58.878906-47.785157 106.667968-106.667969 106.667968h-102.183594c-50.347656 0-132.695312-37.335937-132.480468-150.402344 0-34.558593 30.933593-62.292968 64-62.933593h1.066406c13.652344 0 20.265625 10.667969 20.265625 10.667969v-192c0-17.707032 14.292969-32 32-32 8.320312 0 15.785156 3.199218 21.332031 8.320312 6.613281 5.757812 10.667969 14.292969 10.667969 23.679688v117.332031c0-9.386719 4.054687-17.917969 10.667969-23.679688 5.546874-5.117187 13.011718-8.320312 21.332031-8.320312 8.320312 0 15.785156 3.203125 21.332031 8.320312 6.613281 5.761719 10.667969 14.292969 10.667969 23.679688v21.335937c0-9.386718 4.054687-17.921875 10.667969-23.679687 5.546874-5.121094 13.011718-8.320313 21.332031-8.320313 8.320312 0 15.785156 3.199219 21.332031 8.320313 6.613281 5.757812 10.667969 14.292969 10.667969 23.679687v21.332032c0-9.386719 4.054687-17.921876 10.667969-23.679688 5.546874-5.121094 13.011718-8.320312 21.332031-8.320312 17.707031 0 32 14.292968 32 32zm0 0" fill="#ffcc80"/><path d="m90.648438 363.667969c-8.832032 0-16-7.167969-16-16v-234.664063c0-26.453125 21.546874-48 48-48 26.453124 0 48 21.546875 48 48v213.332032c0 8.832031-7.167969 16-16 16-8.832032 0-16-7.167969-16-16v-213.332032c0-8.8125-7.191407-16-16-16-8.8125 0-16 7.1875-16 16v234.664063c0 8.832031-7.167969 16-16 16zm0 0"/><path d="m218.648438 342.335938c-8.832032 0-16-7.167969-16-16v-85.332032c0-8.8125-7.191407-16-16-16-8.8125 0-16 7.1875-16 16v21.332032c0 8.832031-7.167969 16-16 16-8.832032 0-16-7.167969-16-16v-21.332032c0-26.453125 21.546874-48 48-48 26.453124 0 48 21.546875 48 48v85.332032c0 8.832031-7.167969 16-16 16zm0 0"/><path d="m282.648438 342.335938c-8.832032 0-16-7.167969-16-16v-64c0-8.8125-7.191407-16-16-16-8.8125 0-16 7.1875-16 16v16c0 8.832031-7.167969 16-16 16-8.832032 0-16-7.167969-16-16v-16c0-26.453126 21.546874-48 48-48 26.453124 0 48 21.546874 48 48v64c0 8.832031-7.167969 16-16 16zm0 0"/><path d="m261.3125 513.003906h-118.121094c-69.035156 0-142.914062-40.640625-143.191406-154.753906-.0625-22.953125 8.769531-44.5 24.875-60.648438 15.832031-15.875 36.867188-24.597656 59.203125-24.597656h6.570313c8.832031 0 16 7.167969 16 16 0 8.832032-7.167969 16-16 16h-6.570313c-13.78125 0-26.773437 5.394532-36.546875 15.1875-10.066406 10.113282-15.570312 23.574219-15.550781 37.972656.296875 113.984376 85.183593 122.839844 111.210937 122.839844h118.121094c38.230469 0 69.335938-31.105468 69.335938-69.335937v-128c0-8.808594-7.191407-16-16-16-8.8125 0-16 7.191406-16 16v16c0 8.832031-7.167969 16-16 16-8.832032 0-16-7.167969-16-16v-16c0-26.453125 21.546874-48 48-48 26.453124 0 48 21.546875 48 48v128c0 55.875-45.460938 101.335937-101.335938 101.335937zm0 0"/><path d="m213.3125 122.667969c-8.832031 0-16-7.167969-16-16 0-41.175781-33.492188-74.667969-74.664062-74.667969-41.175782 0-74.667969 33.492188-74.667969 74.667969 0 8.832031-7.167969 16-16 16s-16-7.167969-16-16c0-58.816407 47.851562-106.667969 106.667969-106.667969 58.816406 0 106.664062 47.851562 106.664062 106.667969 0 8.832031-7.167969 16-16 16zm0 0"/></svg>