<svg height="512pt" viewBox="0 -43 512.02133 512" width="512pt" xmlns="http://www.w3.org/2000/svg"><path d="m496.179688 182.859375-94.058594-154.667969c-10.558594-17.386718-29.78125-28.1796872-50.132813-28.1796872h-192c-20.351562 0-39.550781 10.7929692-50.132812 28.1796872l-94.058594 154.667969c-11.433594 18.792969-11.433594 42.152344 0 60.949219l94.058594 154.667968c10.558593 17.386719 29.78125 28.179688 50.132812 28.179688h192.023438c20.351562 0 39.550781-10.792969 50.132812-28.179688l94.058594-154.667968c11.414063-18.796875 11.414063-42.15625-.023437-60.949219zm0 0" fill="#607d8b"/><path d="m176.585938 308.320312c-4.09375 0-8.191407-1.558593-11.304688-4.695312-6.25-6.25-6.25-16.382812 0-22.632812l158.398438-158.398438c6.25-6.253906 16.382812-6.253906 22.636718 0 6.25 6.25 6.25 16.382812 0 22.632812l-158.402344 158.398438c-3.15625 3.136719-7.253906 4.695312-11.328124 4.695312zm0 0"/><path d="m334.964844 308.320312c-4.09375 0-8.191406-1.558593-11.304688-4.695312l-158.402344-158.398438c-6.25-6.25-6.25-16.382812 0-22.632812 6.25-6.253906 16.386719-6.253906 22.636719 0l158.398438 158.398438c6.25 6.25 6.25 16.382812 0 22.632812-3.136719 3.136719-7.230469 4.695312-11.328125 4.695312zm0 0"/><path d="m375.988281 426.675781h-240c-5.589843 0-10.773437-2.921875-13.671875-7.679687l-119.980468-197.351563c-3.113282-5.101562-3.113282-11.523437 0-16.621093l120-197.332032c2.902343-4.78125 8.085937-7.6796872 13.675781-7.6796872h240c5.589843 0 10.773437 2.9218752 13.671875 7.6796872l120 197.332032c3.117187 5.097656 3.117187 11.519531 0 16.621093l-120 197.332031c-2.921875 4.777344-8.105469 7.699219-13.695313 7.699219zm-230.996093-32h221.996093l110.269531-181.332031-110.269531-181.332031h-221.996093l-110.273438 181.332031zm0 0"/></svg>