<svg height="512pt" viewBox="-64 0 512 512" width="512pt" xmlns="http://www.w3.org/2000/svg"><path d="m300.734375 308.332031c25.816406 23.230469 40.597656 56.445313 40.597656 91.175781v85.824219c0 8.832031-7.167969 16-16 16h-266.664062c-8.832031 0-16-7.167969-16-16v-85.824219c0-34.730468 14.78125-67.964843 40.597656-91.175781l36.117187-32.492187c5.695313-5.140625 8.832032-12.179688 8.832032-19.839844s-3.136719-14.699219-8.832032-19.820312l-36.117187-32.511719c-25.816406-23.230469-40.597656-56.445313-40.597656-91.175781v-85.824219c0-8.832031 7.167969-16 16-16h266.664062c8.832031 0 16 7.167969 16 16v85.824219c0 34.730468-14.78125 67.964843-40.597656 91.175781l-36.117187 32.492187c-5.695313 5.140625-8.832032 12.179688-8.832032 19.839844s3.136719 14.699219 8.832032 19.820312zm0 0" fill="#eceff1"/><path d="m106.667969 496v-94.316406c0-15.679688 6.101562-30.398438 17.195312-41.492188l56.828125-56.832031c3.117188-3.136719 7.210938-4.691406 11.308594-4.691406s8.191406 1.554687 11.308594 4.691406l56.828125 56.832031c11.09375 11.09375 17.195312 25.8125 17.195312 41.492188v94.316406zm0 0" fill="#ffc107"/><path d="m261.332031 512c-8.832031 0-16-7.167969-16-16v-94.335938c0-7.019531-2.855469-13.886718-7.808593-18.859374l-45.523438-45.503907-45.523438 45.527344c-4.953124 4.949219-7.808593 11.816406-7.808593 18.835937v94.335938c0 8.832031-7.167969 16-16 16s-16-7.167969-16-16v-94.335938c0-15.660156 6.101562-30.398437 17.195312-41.472656l56.828125-56.832031c6.253906-6.25 16.386719-6.25 22.636719 0l56.832031 56.832031c11.09375 11.09375 17.195313 25.8125 17.195313 41.472656v94.335938c-.023438 8.832031-7.191407 16-16.023438 16zm0 0"/><path d="m368 32h-352c-8.832031 0-16-7.167969-16-16s7.167969-16 16-16h352c8.832031 0 16 7.167969 16 16s-7.167969 16-16 16zm0 0"/><path d="m368 512h-352c-8.832031 0-16-7.167969-16-16s7.167969-16 16-16h352c8.832031 0 16 7.167969 16 16s-7.167969 16-16 16zm0 0"/><path d="m58.667969 512c-8.832031 0-16-7.167969-16-16v-96.492188c0-34.707031 14.78125-67.945312 40.597656-91.15625l36.117187-32.511718c5.714844-5.121094 8.832032-12.136719 8.832032-19.820313 0-7.679687-3.117188-14.675781-8.832032-19.816406l-36.117187-32.535156c-25.816406-23.230469-40.597656-56.46875-40.597656-91.175781v-96.492188c0-8.832031 7.167969-16 16-16s16 7.167969 16 16v96.492188c0 25.640624 10.941406 50.21875 30.015625 67.371093l36.117187 32.511719c12.328125 11.113281 19.414063 27.007812 19.414063 43.605469 0 16.59375-7.085938 32.488281-19.414063 43.605469l-36.117187 32.511718c-19.074219 17.191406-30.015625 41.746094-30.015625 67.410156v96.492188c0 8.832031-7.167969 16-16 16zm0 0"/><path d="m325.332031 512c-8.832031 0-16-7.167969-16-16v-96.492188c0-25.640624-10.941406-50.21875-30.015625-67.371093l-36.117187-32.511719c-12.328125-11.113281-19.414063-27.007812-19.414063-43.605469 0-16.59375 7.085938-32.488281 19.414063-43.605469l36.117187-32.511718c19.074219-17.191406 30.015625-41.746094 30.015625-67.410156v-96.492188c0-8.832031 7.167969-16 16-16s16 7.167969 16 16v96.492188c0 34.707031-14.78125 67.945312-40.597656 91.15625l-36.117187 32.511718c-5.714844 5.121094-8.832032 12.136719-8.832032 19.820313 0 7.679687 3.117188 14.675781 8.832032 19.816406l36.117187 32.511719c25.816406 23.253906 40.597656 56.492187 40.597656 91.199218v96.492188c0 8.832031-7.167969 16-16 16zm0 0"/></svg>