<?xml version="1.0"?>
<svg xmlns="http://www.w3.org/2000/svg" id="_x31__x2C_5" enable-background="new 0 0 36 36" height="512px" viewBox="0 0 36 36" width="512px" class=""><g><g><path d="m8.377 31.833c6.917 0 11.667 3.583 15 3.583s10.333-1.916 10.333-17.249-9.417-17.584-13.083-17.584c-17.167 0-24.5 31.25-12.25 31.25z" fill="#efefef" data-original="#EFEFEF" class="active-path" data-old_color="#efefef" style="fill:#FAFAFA"/></g><g><path d="m32.5 11c-.827 0-1.5-.673-1.5-1.5s.673-1.5 1.5-1.5 1.5.673 1.5 1.5-.673 1.5-1.5 1.5zm0-2c-.275 0-.5.225-.5.5s.225.5.5.5.5-.225.5-.5-.225-.5-.5-.5z" fill="#a4afc1" data-original="#A4AFC1" class=""/></g><g><path d="m24.25 24.25h-15.5c-1.105 0-2-.895-2-2v-12h19.5v12c0 1.105-.895 2-2 2z" fill="#f3f3f1" data-original="#F3F3F1" class=""/></g><g><path d="m26.25 10.25h-19.5v-1.5c0-1.105.895-2 2-2h15.5c1.105 0 2 .895 2 2z" fill="#2fdf84" data-original="#2FDF84" class="" style="fill:#FFB229" data-old_color="#2fdf84"/></g><g><path d="m19.5 29.25c-3.176 0-5.75-2.574-5.75-5.75v-2.75h11.5v2.75c0 3.176-2.574 5.75-5.75 5.75z" fill="#2fdf84" data-original="#2FDF84" class="" style="fill:#FFB229" data-old_color="#2fdf84"/></g><g><path d="m11 6.75h-2.25c-1.105 0-2 .895-2 2v1.5h2.25v-1.5c0-1.105.895-2 2-2z" fill="#00b871" data-original="#00B871" class="" style="fill:#EB7D16" data-old_color="#00b871"/></g><g><path d="m16 23.5v-2.75h-2.25v2.75c0 3.176 2.574 5.75 5.75 5.75.385 0 .761-.039 1.125-.112-2.637-.523-4.625-2.848-4.625-5.638z" fill="#00b871" data-original="#00B871" class="" style="fill:#EB7D16" data-old_color="#00b871"/></g><g><path d="m9 22.25v-12h-2.25v12c0 1.105.895 2 2 2h2.25c-1.105 0-2-.895-2-2z" fill="#d5dbe1" data-original="#D5DBE1" class=""/></g><g><path d="m19.5 30c-3.584 0-6.5-2.916-6.5-6.5v-2.75c0-.414.336-.75.75-.75h11.5c.414 0 .75.336.75.75v2.75c0 3.584-2.916 6.5-6.5 6.5zm-5-8.5v2c0 2.757 2.243 5 5 5s5-2.243 5-5v-2z" data-original="#000000" class="" style="fill:#000000"/></g><g><path d="m16.933 18.308-.983-1.132.565-.492c.168-.146.251-.329.232-.517-.02-.203-.155-.392-.373-.518-.643-.372-1.049-.982-1.114-1.674-.064-.674.206-1.326.741-1.792l.566-.491.983 1.132-.565.492c-.168.146-.251.329-.232.517.02.203.155.392.373.518.643.372 1.049.982 1.114 1.674.064.674-.206 1.326-.741 1.792z" data-original="#000000" class="" style="fill:#000000"/></g><g><path d="m21.683 18.308-.983-1.132.565-.492c.168-.146.251-.329.232-.517-.02-.203-.155-.392-.373-.518-.643-.372-1.049-.982-1.114-1.674-.064-.674.206-1.326.741-1.792l.566-.491.983 1.132-.565.492c-.168.146-.251.329-.232.517.02.203.155.392.373.518.643.372 1.049.982 1.114 1.674.064.674-.206 1.326-.741 1.792z" data-original="#000000" class="" style="fill:#000000"/></g><g><path d="m27.5 26h-2.25v-1.5h2.25c.552 0 1-.448 1-1s-.448-1-1-1h-2v-1.5h2c1.379 0 2.5 1.121 2.5 2.5s-1.121 2.5-2.5 2.5z" data-original="#000000" class="" style="fill:#000000"/></g><g><path d="m11 25h-2.25c-1.517 0-2.75-1.233-2.75-2.75v-13.5c0-1.517 1.233-2.75 2.75-2.75h15.5c1.517 0 2.75 1.233 2.75 2.75v9.25h-1.5v-9.25c0-.689-.561-1.25-1.25-1.25h-15.5c-.689 0-1.25.561-1.25 1.25v13.5c0 .689.561 1.25 1.25 1.25h2.25z" data-original="#000000" class="" style="fill:#000000"/></g><g><path d="m6.75 9.5h8.25v1.5h-8.25z" data-original="#000000" class="" style="fill:#000000"/></g><g><path d="m23 9.5h3v1.5h-3z" data-original="#000000" class="" style="fill:#000000"/></g><g><path d="m18 9.5h2v1.5h-2z" data-original="#000000" class="" style="fill:#000000"/></g><g><path d="m2 28.5h32v1.5h-32z" data-original="#000000" class="" style="fill:#000000"/></g></g> </svg>
