<?xml version="1.0"?>
<svg xmlns="http://www.w3.org/2000/svg" xmlns:xlink="http://www.w3.org/1999/xlink" version="1.1" id="Capa_1" x="0px" y="0px" viewBox="0 0 281.6 281.6" style="enable-background:new 0 0 281.6 281.6;" xml:space="preserve" width="512px" height="512px"><g><g>
	<g>
		<path d="M273.2,29.2H8.4c-4.8,0-8.4,3.6-8.4,8.4S3.6,46,8.4,46h264.8c4.8,0,8.4-3.6,8.4-8.4S278,29.2,273.2,29.2z" data-original="#000000" class="active-path" data-old_color="#000000" fill="#FFC107"/>
	</g>
</g><g>
	<g>
		<path d="M273.2,132.4H8.4c-4.8,0-8.4,3.6-8.4,8.4s3.6,8.4,8.4,8.4h264.8c4.8,0,8.4-3.6,8.4-8.4S278,132.4,273.2,132.4z" data-original="#000000" class="active-path" data-old_color="#000000" fill="#FFC107"/>
	</g>
</g><g>
	<g>
		<path d="M273.2,235.6H8.4c-4.8,0-8.4,3.6-8.4,8.4s3.6,8.4,8.4,8.4h264.8c4.8,0,8.4-3.6,8.4-8.4S278,235.6,273.2,235.6z" data-original="#000000" class="active-path" data-old_color="#000000" fill="#FFC107"/>
	</g>
</g></g> </svg>
