<?xml version="1.0" encoding="iso-8859-1"?>
<!-- Generator: Adobe Illustrator 19.0.0, SVG Export Plug-In . SVG Version: 6.00 Build 0)  -->
<svg version="1.1" id="Capa_1" xmlns="http://www.w3.org/2000/svg" xmlns:xlink="http://www.w3.org/1999/xlink" x="0px" y="0px"
	 viewBox="0 0 512 512" style="enable-background:new 0 0 512 512;" xml:space="preserve">
<path style="fill:#CFD8DC;" d="M53.333,85.333h405.333c29.455,0,53.333,23.878,53.333,53.333v234.667
	c0,29.455-23.878,53.333-53.333,53.333H53.333C23.878,426.667,0,402.789,0,373.333V138.667C0,109.211,23.878,85.333,53.333,85.333z"
	/>
<g>
	<rect y="160" style="fill:#455A64;" width="512" height="64"/>
	<path style="fill:#455A64;" d="M160,320H74.667C68.776,320,64,315.224,64,309.333s4.776-10.667,10.667-10.667H160
		c5.891,0,10.667,4.776,10.667,10.667S165.891,320,160,320z"/>
	<path style="fill:#455A64;" d="M224,362.667H74.667C68.776,362.667,64,357.891,64,352c0-5.891,4.776-10.667,10.667-10.667H224
		c5.891,0,10.667,4.776,10.667,10.667C234.667,357.891,229.891,362.667,224,362.667z"/>
</g>
<g>
	<path style="fill:#F44336;" d="M330.667,384c-5.891,0.001-10.668-4.773-10.669-10.664c0-1.932,0.524-3.828,1.517-5.485l64-106.667
		c3.125-4.994,9.707-6.509,14.7-3.384c4.867,3.046,6.45,9.397,3.582,14.371l-64,106.667
		C337.869,382.039,334.405,383.998,330.667,384z"/>
	<path style="fill:#F44336;" d="M309.333,320c-17.673,0-32-14.327-32-32c0-17.673,14.327-32,32-32s32,14.327,32,32
		C341.333,305.673,327.006,320,309.333,320z M309.333,277.333c-5.891,0-10.667,4.776-10.667,10.667
		c0,5.891,4.776,10.667,10.667,10.667S320,293.891,320,288C320,282.109,315.224,277.333,309.333,277.333z"/>
	<path style="fill:#F44336;" d="M416,384c-17.673,0-32-14.327-32-32s14.327-32,32-32s32,14.327,32,32S433.673,384,416,384z
		 M416,341.333c-5.891,0-10.667,4.776-10.667,10.667c0,5.891,4.776,10.667,10.667,10.667c5.891,0,10.667-4.776,10.667-10.667
		C426.667,346.109,421.891,341.333,416,341.333z"/>
</g>
<path d="M458.667,426.667H53.333C23.878,426.667,0,402.789,0,373.333V138.667c0-29.455,23.878-53.333,53.333-53.333h405.333
	c29.455,0,53.333,23.878,53.333,53.333v234.667C512,402.789,488.122,426.667,458.667,426.667z M53.333,106.667
	c-17.673,0-32,14.327-32,32v234.667c0,17.673,14.327,32,32,32h405.333c17.673,0,32-14.327,32-32V138.667c0-17.673-14.327-32-32-32
	H53.333z"/>
<path d="M501.333,234.667H10.667C4.776,234.667,0,229.891,0,224v-64c0-5.891,4.776-10.667,10.667-10.667h490.667
	c5.891,0,10.667,4.776,10.667,10.667v64C512,229.891,507.224,234.667,501.333,234.667z M21.333,213.333h469.333v-42.667H21.333
	V213.333z"/>
<path d="M160,320H74.667C68.776,320,64,315.224,64,309.333s4.776-10.667,10.667-10.667H160c5.891,0,10.667,4.776,10.667,10.667
	S165.891,320,160,320z"/>
<path d="M224,362.667H74.667C68.776,362.667,64,357.891,64,352c0-5.891,4.776-10.667,10.667-10.667H224
	c5.891,0,10.667,4.776,10.667,10.667C234.667,357.891,229.891,362.667,224,362.667z"/>
<path d="M330.667,384c-1.932,0.01-3.83-0.514-5.483-1.515c-5.054-3.027-6.698-9.577-3.671-14.631
	c0.001-0.001,0.001-0.002,0.002-0.003l64-106.667c2.842-5.16,9.329-7.039,14.489-4.197c5.16,2.842,7.039,9.329,4.197,14.489
	c-0.126,0.229-0.261,0.454-0.404,0.673l-64,106.667C337.874,382.026,334.409,383.993,330.667,384z"/>
<path d="M309.333,320c-17.673,0-32-14.327-32-32c0-17.673,14.327-32,32-32s32,14.327,32,32C341.333,305.673,327.006,320,309.333,320
	z M309.333,277.333c-5.891,0-10.667,4.776-10.667,10.667c0,5.891,4.776,10.667,10.667,10.667S320,293.891,320,288
	C320,282.109,315.224,277.333,309.333,277.333z"/>
<path d="M416,384c-17.673,0-32-14.327-32-32s14.327-32,32-32s32,14.327,32,32S433.673,384,416,384z M416,341.333
	c-5.891,0-10.667,4.776-10.667,10.667c0,5.891,4.776,10.667,10.667,10.667c5.891,0,10.667-4.776,10.667-10.667
	C426.667,346.109,421.891,341.333,416,341.333z"/>
<g>
</g>
<g>
</g>
<g>
</g>
<g>
</g>
<g>
</g>
<g>
</g>
<g>
</g>
<g>
</g>
<g>
</g>
<g>
</g>
<g>
</g>
<g>
</g>
<g>
</g>
<g>
</g>
<g>
</g>
</svg>
