<svg id="_x31__x2C_5" enable-background="new 0 0 24 24" height="512" viewBox="0 0 24 24" width="512" xmlns="http://www.w3.org/2000/svg"><path d="m23.25 4.5v.75h-22.5v-.75c0-1.55 1.26-2.81 2.81-2.81h16.88c1.55 0 2.81 1.26 2.81 2.81z" fill="#607d8b"/><path d="m23.25 5.25v15.87c0 .62-.5 1.13-1.12 1.13h-20.26c-.62 0-1.12-.51-1.12-1.13v-15.87z" fill="#fff"/><path d="m15 18.64c-.905 0-1.64-.736-1.64-1.64s.736-1.64 1.64-1.64 1.64.736 1.64 1.64-.735 1.64-1.64 1.64z" fill="#ffc107"/><path d="m10 12.476c-.814 0-1.476-.662-1.476-1.476s.662-1.476 1.476-1.476 1.476.662 1.476 1.476-.662 1.476-1.476 1.476z" fill="#2196f3"/><path d="m10 13c-1.103 0-2-.897-2-2s.897-2 2-2 2 .897 2 2-.897 2-2 2zm0-2.5c-.276 0-.5.224-.5.5s.224.5.5.5.5-.224.5-.5-.224-.5-.5-.5z"/><path d="m20.25 11.75h-8.75c-.414 0-.75-.336-.75-.75s.336-.75.75-.75h8.75c.414 0 .75.336.75.75s-.336.75-.75.75z"/><path d="m8.5 11.75h-4.75c-.414 0-.75-.336-.75-.75s.336-.75.75-.75h4.75c.414 0 .75.336.75.75s-.336.75-.75.75z"/><path d="m15 19c-1.103 0-2-.897-2-2s.897-2 2-2 2 .897 2 2-.897 2-2 2zm0-2.5c-.276 0-.5.224-.5.5s.224.5.5.5.5-.224.5-.5-.224-.5-.5-.5z"/><path d="m20.25 17.75h-3.75c-.414 0-.75-.336-.75-.75s.336-.75.75-.75h3.75c.414 0 .75.336.75.75s-.336.75-.75.75z"/><path d="m13.5 17.75h-9.75c-.414 0-.75-.336-.75-.75s.336-.75.75-.75h9.75c.414 0 .75.336.75.75s-.336.75-.75.75z"/><path d="m21.25 23h-18.5c-1.517 0-2.75-1.233-2.75-2.75v-16.5c0-1.517 1.233-2.75 2.75-2.75h18.5c1.517 0 2.75 1.233 2.75 2.75v16.5c0 1.517-1.233 2.75-2.75 2.75zm-18.5-20.5c-.689 0-1.25.561-1.25 1.25v16.5c0 .689.561 1.25 1.25 1.25h18.5c.689 0 1.25-.561 1.25-1.25v-16.5c0-.689-.561-1.25-1.25-1.25z"/><path d="m23.25 6h-22.5c-.414 0-.75-.336-.75-.75s.336-.75.75-.75h22.5c.414 0 .75.336.75.75s-.336.75-.75.75z"/></svg>