<svg id="icons8_resume" xmlns="http://www.w3.org/2000/svg" width="70" height="89.688" viewBox="0 0 70 89.688">
  <path id="Path_11" data-name="Path 11" d="M75.875,97.5H29.938A10.937,10.937,0,0,1,19,86.563V20.937A10.937,10.937,0,0,1,29.938,10H75.875A10.937,10.937,0,0,1,86.813,20.937V86.563A10.937,10.937,0,0,1,75.875,97.5Z" transform="translate(-17.906 -8.906)" fill="#fefdef"/>
  <path id="Path_12" data-name="Path 12" d="M52.356,48.132c-.186-6.354-3.569-11.642-8.124-13.2H38.64c-4.554,1.562-7.938,6.85-8.124,13.2Z" transform="translate(-16.827 -6.569)" fill="#78a2d2"/>
  <path id="Path_13" data-name="Path 13" d="M41.063,23.5a6.563,6.563,0,1,0,6.563,6.563A6.563,6.563,0,0,0,41.063,23.5Z" transform="translate(-16.453 -7.641)" fill="#ead6c7"/>
  <path id="Path_14" data-name="Path 14" d="M75.969,98.688H30.031A12.045,12.045,0,0,1,18,86.656V21.031A12.045,12.045,0,0,1,30.031,9H75.969A12.045,12.045,0,0,1,88,21.031V86.656A12.045,12.045,0,0,1,75.969,98.688Zm-45.937-87.5a9.856,9.856,0,0,0-9.844,9.844V86.656A9.856,9.856,0,0,0,30.031,96.5H75.969a9.856,9.856,0,0,0,9.844-9.844V21.031a9.856,9.856,0,0,0-9.844-9.844Z" transform="translate(-18 -9)" fill="#1f212b"/>
  <path id="Path_15" data-name="Path 15" d="M71.484,90.375H33.2a8.212,8.212,0,0,1-8.2-8.2V24.2A8.212,8.212,0,0,1,33.2,16a.547.547,0,1,1,0,1.094A7.118,7.118,0,0,0,26.094,24.2V82.172A7.118,7.118,0,0,0,33.2,89.281H71.484a7.118,7.118,0,0,0,7.109-7.109V63.578a.547.547,0,0,1,1.094,0V82.172A8.212,8.212,0,0,1,71.484,90.375Zm7.656-28.437a.547.547,0,0,1-.547-.547V54.828a.547.547,0,0,1,1.094,0v6.563A.547.547,0,0,1,79.141,61.938Zm0-8.75a.547.547,0,0,1-.547-.547V49.359a.547.547,0,1,1,1.094,0v3.281A.547.547,0,0,1,79.141,53.188Z" transform="translate(-17.344 -8.344)" fill="#1f212b"/>
  <path id="Path_16" data-name="Path 16" d="M73.2,41.406H56.8a.547.547,0,0,1,0-1.094H73.2a.547.547,0,0,1,0,1.094Zm0-7.656H56.8a.547.547,0,1,1,0-1.094H73.2a.547.547,0,1,1,0,1.094Zm0-7.656H56.8A.547.547,0,0,1,56.8,25H73.2a.547.547,0,0,1,0,1.094Zm0,22.969H56.8a.547.547,0,0,1,0-1.094H73.2a.547.547,0,0,1,0,1.094Zm0,7.656H30.547a.547.547,0,0,1,0-1.094H73.2a.547.547,0,0,1,0,1.094ZM44.766,64.375H30.547a.547.547,0,0,1,0-1.094H44.766a.547.547,0,0,1,0,1.094Zm28.438,0H48.047a.547.547,0,0,1,0-1.094H73.2a.547.547,0,0,1,0,1.094ZM48.047,72.031h-17.5a.547.547,0,0,1,0-1.094h17.5a.547.547,0,0,1,0,1.094Zm14.219,0H51.328a.547.547,0,0,1,0-1.094H62.266a.547.547,0,0,1,0,1.094Zm10.938,0H65.547a.547.547,0,1,1,0-1.094H73.2a.547.547,0,0,1,0,1.094ZM55.7,79.688H30.547a.547.547,0,0,1,0-1.094H55.7a.547.547,0,0,1,0,1.094Zm17.5,0H58.984a.547.547,0,1,1,0-1.094H73.2a.547.547,0,0,1,0,1.094ZM30.547,50.156A.547.547,0,0,1,30,49.609c0-6.682,3.5-12.55,8.512-14.268a.547.547,0,1,1,.354,1.035c-4.576,1.57-7.772,7.011-7.772,13.233A.547.547,0,0,1,30.547,50.156Zm21.875,0a.547.547,0,0,1-.547-.547c0-6.222-3.2-11.664-7.772-13.233a.547.547,0,0,1,.354-1.035c5.012,1.718,8.512,7.586,8.512,14.268A.547.547,0,0,1,52.422,50.156Z" transform="translate(-16.875 -7.5)" fill="#1f212b"/>
  <path id="Path_17" data-name="Path 17" d="M41.109,37.219a7.109,7.109,0,1,1,7.109-7.109A7.118,7.118,0,0,1,41.109,37.219Zm0-13.125a6.016,6.016,0,1,0,6.016,6.016A6.022,6.022,0,0,0,41.109,24.094Z" transform="translate(-16.5 -7.688)" fill="#1f212b"/>
</svg>
