<svg xmlns="http://www.w3.org/2000/svg" width="105" height="80.37" viewBox="0 0 105 80.37">
  <g id="icons8_study" transform="translate(-10 -19)">
    <path id="Path_19" data-name="Path 19" d="M45.5,72.5s1.3,3.889,6.481,3.889S58.463,72.5,58.463,72.5" transform="translate(10.519 15.852)" fill="#565fa1"/>
    <path id="Path_20" data-name="Path 20" d="M52.13,77.185c-5.588,0-7.038-4.155-7.1-4.332a.648.648,0,0,1,1.229-.413h0c.049.141,1.242,3.449,5.868,3.449,4.664,0,5.855-3.412,5.866-3.446a.649.649,0,1,1,1.23.411C59.167,73.031,57.718,77.185,52.13,77.185Z" transform="translate(10.37 15.704)" fill="#1f212b"/>
    <path id="Path_21" data-name="Path 21" d="M18.778,25H16.185A5.185,5.185,0,0,0,11,30.185V87.222a5.185,5.185,0,0,0,5.185,5.185H55.074S56.37,96.3,62.2,96.3s7.13-3.889,7.13-3.889h38.889a5.185,5.185,0,0,0,5.185-5.185V30.185A5.185,5.185,0,0,0,108.222,25H18.778Z" transform="translate(0.296 1.778)" fill="#78a2d2"/>
    <path id="Path_22" data-name="Path 22" d="M106.241,29.87V88.2H15.5V29.87L21.981,19.5c28.519,0,38.889,7.778,38.889,7.778S71.241,19.5,99.759,19.5Z" transform="translate(1.63 0.148)" fill="#fefdef"/>
    <path id="Path_23" data-name="Path 23" d="M15.5,74.278H60.87S50.5,66.5,21.981,66.5Z" transform="translate(1.63 14.074)" fill="#ceccbe"/>
    <path id="Path_24" data-name="Path 24" d="M20.5,19.5c28.518,0,38.889,7.778,38.889,7.778S69.759,19.5,98.278,19.5V80.426c-28.518,0-38.889,7.778-38.889,7.778S49.019,80.426,20.5,80.426Z" transform="translate(3.111 0.148)" fill="#fefdef"/>
    <path id="Path_25" data-name="Path 25" d="M96.019,75.074H50.648a.649.649,0,0,1-.389-1.168C50.69,73.584,61.129,66,89.537,66a.644.644,0,0,1,.5.233l6.481,7.778a.649.649,0,0,1-.5,1.064Z" transform="translate(11.852 13.926)" fill="#ceccbe"/>
    <rect id="Rectangle_5" data-name="Rectangle 5" width="10.124" height="1.296" transform="matrix(0.641, -0.768, 0.768, 0.641, 16.625, 87.939)" fill="#1f212b"/>
    <path id="Path_26" data-name="Path 26" d="M108.519,24h-3.484l1.62,2.593h1.864a3.894,3.894,0,0,1,3.889,3.889V87.519a3.894,3.894,0,0,1-3.889,3.889H69.63a1.317,1.317,0,0,0-1.224.871C68.361,92.4,67.252,95.3,62.5,95.3s-5.861-2.895-5.9-3a1.292,1.292,0,0,0-1.229-.887H16.481a3.894,3.894,0,0,1-3.889-3.889V30.481a3.894,3.894,0,0,1,3.889-3.889h1.863L19.965,24H16.481A6.489,6.489,0,0,0,10,30.481V87.519A6.489,6.489,0,0,0,16.481,94H54.568c.818,1.383,2.984,3.889,7.932,3.889S69.614,95.383,70.432,94h38.086A6.489,6.489,0,0,0,115,87.519V30.481A6.489,6.489,0,0,0,108.519,24Z" transform="translate(0 1.481)" fill="#1f212b"/>
    <path id="Path_27" data-name="Path 27" d="M59.536,89a.633.633,0,0,1-.386-.13c-.1-.075-10.6-7.648-38.5-7.648A.648.648,0,0,1,20,80.574V19.648A.648.648,0,0,1,20.648,19c25.755,0,36.741,6.235,38.889,7.639C61.685,25.235,72.671,19,98.426,19a.648.648,0,0,1,.648.648V80.574a.648.648,0,0,1-.648.648c-14.644,0-24.361,2.1-29.935,3.859a.648.648,0,0,1-.39-1.235c5.578-1.762,15.228-3.858,29.677-3.917V20.3c-27.418.114-37.751,7.57-37.853,7.646a.646.646,0,0,1-.775,0c-.1-.076-10.435-7.533-37.853-7.647v59.63c27.92.114,38.2,7.586,38.63,7.906A.648.648,0,0,1,59.536,89Z" transform="translate(2.963 0)" fill="#1f212b"/>
    <path id="Path_28" data-name="Path 28" d="M106.389,88.93H15.648A.648.648,0,0,1,15,88.282V29.949a.642.642,0,0,1,.1-.344l6.481-10.37,1.1.686L16.3,30.136v57.5h89.444v-57.5L99.358,19.922l1.1-.686,6.481,10.37a.634.634,0,0,1,.1.342V88.282A.648.648,0,0,1,106.389,88.93Z" transform="translate(1.481 0.07)" fill="#1f212b"/>
    <rect id="Rectangle_6" data-name="Rectangle 6" width="1.296" height="10.124" transform="translate(100.889 80.986) rotate(-39.807)" fill="#1f212b"/>
    <path id="Path_29" data-name="Path 29" d="M43.794,29.143a.662.662,0,0,1-.185-.027c-1.239-.368-2.536-.714-3.855-1.029a.648.648,0,1,1,.3-1.261c1.342.32,2.661.673,3.923,1.047a.649.649,0,0,1-.184,1.27Z" transform="translate(8.669 2.313)" fill="#1f212b"/>
    <path id="Path_30" data-name="Path 30" d="M46.2,30a.673.673,0,0,1-.223-.039c-.4-.148-.837-.3-1.283-.452a.648.648,0,1,1,.42-1.226c.456.157.9.31,1.309.46A.648.648,0,0,1,46.2,30Z" transform="translate(10.15 2.74)" fill="#1f212b"/>
    <path id="Path_31" data-name="Path 31" d="M39.87,27.815a.619.619,0,0,1-.119-.012A99.72,99.72,0,0,0,26.87,26.3a.65.65,0,0,1-.613-.682A.64.64,0,0,1,26.939,25,100.888,100.888,0,0,1,39.986,26.53a.648.648,0,0,1-.117,1.285Z" transform="translate(4.817 1.777)" fill="#1f212b"/>
    <path id="Path_32" data-name="Path 32" d="M43.794,36.143a.663.663,0,0,1-.185-.027c-1.239-.368-2.536-.714-3.855-1.029a.648.648,0,0,1,.3-1.261c1.342.32,2.661.673,3.923,1.047a.649.649,0,0,1-.184,1.27Z" transform="translate(8.669 4.388)" fill="#1f212b"/>
    <path id="Path_33" data-name="Path 33" d="M46.2,37a.673.673,0,0,1-.223-.039c-.4-.148-.837-.3-1.283-.452a.648.648,0,1,1,.42-1.226c.456.157.9.31,1.309.46A.648.648,0,0,1,46.2,37Z" transform="translate(10.15 4.814)" fill="#1f212b"/>
    <path id="Path_34" data-name="Path 34" d="M39.87,34.814a.625.625,0,0,1-.119-.012A99.723,99.723,0,0,0,26.87,33.3.648.648,0,1,1,26.939,32,100.9,100.9,0,0,1,39.986,33.53a.648.648,0,0,1-.117,1.285Z" transform="translate(4.817 3.852)" fill="#1f212b"/>
    <path id="Path_35" data-name="Path 35" d="M43.794,43.143a.661.661,0,0,1-.185-.027c-1.239-.368-2.536-.714-3.855-1.029a.648.648,0,0,1,.3-1.261c1.342.32,2.661.673,3.923,1.047a.649.649,0,0,1-.184,1.27Z" transform="translate(8.669 6.462)" fill="#1f212b"/>
    <path id="Path_36" data-name="Path 36" d="M46.2,44a.673.673,0,0,1-.223-.039c-.4-.148-.837-.3-1.283-.452a.648.648,0,0,1,.42-1.226c.456.157.9.31,1.309.46A.648.648,0,0,1,46.2,44Z" transform="translate(10.15 6.888)" fill="#1f212b"/>
    <path id="Path_37" data-name="Path 37" d="M39.87,41.814a.619.619,0,0,1-.119-.012A99.718,99.718,0,0,0,26.87,40.3.648.648,0,1,1,26.939,39,100.886,100.886,0,0,1,39.986,40.53a.648.648,0,0,1-.117,1.285Z" transform="translate(4.817 5.926)" fill="#1f212b"/>
    <path id="Path_38" data-name="Path 38" d="M43.794,50.143a.662.662,0,0,1-.185-.027c-1.239-.368-2.536-.714-3.855-1.029a.648.648,0,0,1,.3-1.261c1.342.32,2.661.673,3.923,1.047a.649.649,0,0,1-.184,1.27Z" transform="translate(8.669 8.536)" fill="#1f212b"/>
    <path id="Path_39" data-name="Path 39" d="M46.2,51a.673.673,0,0,1-.223-.039c-.4-.148-.837-.3-1.283-.452a.648.648,0,0,1,.42-1.226c.456.157.9.31,1.309.46A.648.648,0,0,1,46.2,51Z" transform="translate(10.15 8.962)" fill="#1f212b"/>
    <path id="Path_40" data-name="Path 40" d="M39.87,48.815a.619.619,0,0,1-.119-.012A99.722,99.722,0,0,0,26.87,47.3a.65.65,0,0,1-.613-.682A.642.642,0,0,1,26.939,46,100.885,100.885,0,0,1,39.986,47.53a.648.648,0,0,1-.117,1.285Z" transform="translate(4.817 8)" fill="#1f212b"/>
    <path id="Path_41" data-name="Path 41" d="M43.794,57.143a.662.662,0,0,1-.185-.027c-1.239-.368-2.536-.714-3.855-1.029a.648.648,0,0,1,.3-1.261c1.342.32,2.661.673,3.923,1.047a.649.649,0,0,1-.184,1.27Z" transform="translate(8.669 10.61)" fill="#1f212b"/>
    <path id="Path_42" data-name="Path 42" d="M46.2,58a.673.673,0,0,1-.223-.039c-.4-.148-.837-.3-1.283-.452a.648.648,0,0,1,.42-1.226c.456.157.9.31,1.309.46A.648.648,0,0,1,46.2,58Z" transform="translate(10.15 11.036)" fill="#1f212b"/>
    <path id="Path_43" data-name="Path 43" d="M39.87,55.815a.619.619,0,0,1-.119-.012A99.718,99.718,0,0,0,26.87,54.3a.65.65,0,0,1-.613-.682A.639.639,0,0,1,26.939,53,100.886,100.886,0,0,1,39.986,54.53a.648.648,0,0,1-.117,1.285Z" transform="translate(4.817 10.074)" fill="#1f212b"/>
    <path id="Path_44" data-name="Path 44" d="M43.794,64.143a.662.662,0,0,1-.185-.027c-1.239-.368-2.536-.714-3.855-1.029a.648.648,0,1,1,.3-1.261c1.342.32,2.661.673,3.923,1.047a.649.649,0,0,1-.184,1.27Z" transform="translate(8.669 12.684)" fill="#1f212b"/>
    <path id="Path_45" data-name="Path 45" d="M46.2,65a.674.674,0,0,1-.223-.039c-.4-.148-.837-.3-1.283-.452a.648.648,0,1,1,.42-1.226c.456.157.9.31,1.309.46A.648.648,0,0,1,46.2,65Z" transform="translate(10.15 13.11)" fill="#1f212b"/>
    <path id="Path_46" data-name="Path 46" d="M39.87,62.814a.617.617,0,0,1-.119-.012A99.724,99.724,0,0,0,26.87,61.3.648.648,0,1,1,26.939,60,100.886,100.886,0,0,1,39.986,61.53a.648.648,0,0,1-.117,1.285Z" transform="translate(4.817 12.148)" fill="#1f212b"/>
    <g id="Group_2" data-name="Group 2" transform="translate(68.666 26.773)">
      <path id="Path_47" data-name="Path 47" d="M55.905,37.6a.648.648,0,0,1-.223-1.257A70.7,70.7,0,0,1,63.533,34l3.761-.77a.648.648,0,1,1,.259,1.27l-3.74.765a69.22,69.22,0,0,0-7.684,2.3A.638.638,0,0,1,55.905,37.6Z" transform="translate(-55.256 -22.56)" fill="#1f212b"/>
      <path id="Path_48" data-name="Path 48" d="M67.825,34.1a.648.648,0,0,1-.091-1.29c.46-.065,4.372-.512,4.372-.512l.146,1.287s-3.88.443-4.337.508A.524.524,0,0,1,67.825,34.1Z" transform="translate(-51.724 -22.832)" fill="#1f212b"/>
      <path id="Path_49" data-name="Path 49" d="M73.611,33.4a.648.648,0,0,1-.045-1.295q.828-.058,1.686-.106a.648.648,0,1,1,.07,1.294q-.848.047-1.667.105A.237.237,0,0,1,73.611,33.4Z" transform="translate(-50.01 -22.921)" fill="#1f212b"/>
      <path id="Path_50" data-name="Path 50" d="M55.905,30.6a.648.648,0,0,1-.223-1.257A70.705,70.705,0,0,1,63.533,27l3.761-.77a.648.648,0,1,1,.259,1.27l-3.74.765a69.212,69.212,0,0,0-7.684,2.3A.638.638,0,0,1,55.905,30.6Z" transform="translate(-55.256 -24.634)" fill="#1f212b"/>
      <path id="Path_51" data-name="Path 51" d="M67.825,27.1a.648.648,0,0,1-.091-1.29c.46-.065,4.372-.512,4.372-.512l.146,1.287s-3.88.443-4.337.508A.524.524,0,0,1,67.825,27.1Z" transform="translate(-51.724 -24.906)" fill="#1f212b"/>
      <path id="Path_52" data-name="Path 52" d="M73.611,26.4a.648.648,0,0,1-.045-1.3q.828-.058,1.686-.106a.631.631,0,0,1,.682.612.646.646,0,0,1-.612.682q-.848.047-1.667.1A.236.236,0,0,1,73.611,26.4Z" transform="translate(-50.01 -24.996)" fill="#1f212b"/>
      <path id="Path_53" data-name="Path 53" d="M55.905,51.6a.648.648,0,0,1-.223-1.257A70.708,70.708,0,0,1,63.533,48l3.761-.77a.648.648,0,1,1,.259,1.27l-3.74.765a69.21,69.21,0,0,0-7.684,2.3A.638.638,0,0,1,55.905,51.6Z" transform="translate(-55.256 -18.412)" fill="#1f212b"/>
      <path id="Path_54" data-name="Path 54" d="M67.825,48.1a.648.648,0,0,1-.091-1.29c.46-.065,4.372-.512,4.372-.512l.146,1.287s-3.88.443-4.337.508A.524.524,0,0,1,67.825,48.1Z" transform="translate(-51.724 -18.684)" fill="#1f212b"/>
      <path id="Path_55" data-name="Path 55" d="M73.611,47.4a.648.648,0,0,1-.045-1.295q.828-.058,1.686-.106a.633.633,0,0,1,.682.612.646.646,0,0,1-.612.682q-.848.047-1.667.1A.238.238,0,0,1,73.611,47.4Z" transform="translate(-50.01 -18.774)" fill="#1f212b"/>
      <path id="Path_56" data-name="Path 56" d="M55.905,44.6a.648.648,0,0,1-.223-1.257A70.7,70.7,0,0,1,63.533,41l3.761-.77a.648.648,0,1,1,.259,1.27l-3.74.765a69.215,69.215,0,0,0-7.684,2.3A.638.638,0,0,1,55.905,44.6Z" transform="translate(-55.256 -20.486)" fill="#1f212b"/>
      <path id="Path_57" data-name="Path 57" d="M67.825,41.1a.648.648,0,0,1-.091-1.29c.46-.065,4.372-.512,4.372-.512l.146,1.287s-3.88.443-4.337.508A.525.525,0,0,1,67.825,41.1Z" transform="translate(-51.724 -20.758)" fill="#1f212b"/>
      <path id="Path_58" data-name="Path 58" d="M73.611,40.4a.648.648,0,0,1-.045-1.295q.828-.058,1.686-.106a.637.637,0,0,1,.682.612.646.646,0,0,1-.612.682q-.848.047-1.667.1A.236.236,0,0,1,73.611,40.4Z" transform="translate(-50.01 -20.848)" fill="#1f212b"/>
      <path id="Path_59" data-name="Path 59" d="M55.905,65.6a.648.648,0,0,1-.223-1.257A70.7,70.7,0,0,1,63.533,62l3.761-.77a.648.648,0,1,1,.259,1.27l-3.74.765a69.217,69.217,0,0,0-7.684,2.3A.638.638,0,0,1,55.905,65.6Z" transform="translate(-55.256 -14.264)" fill="#1f212b"/>
      <path id="Path_60" data-name="Path 60" d="M67.825,62.1a.648.648,0,0,1-.091-1.29c.46-.065,4.372-.512,4.372-.512l.146,1.287s-3.88.443-4.337.508A.525.525,0,0,1,67.825,62.1Z" transform="translate(-51.724 -14.536)" fill="#1f212b"/>
      <path id="Path_61" data-name="Path 61" d="M73.611,61.4a.648.648,0,0,1-.045-1.295q.828-.058,1.686-.106a.639.639,0,0,1,.682.612.646.646,0,0,1-.612.682q-.848.047-1.667.105A.238.238,0,0,1,73.611,61.4Z" transform="translate(-50.01 -14.625)" fill="#1f212b"/>
      <path id="Path_62" data-name="Path 62" d="M55.905,58.6a.648.648,0,0,1-.223-1.257A70.705,70.705,0,0,1,63.533,55l3.761-.77a.648.648,0,1,1,.259,1.27l-3.74.765a69.219,69.219,0,0,0-7.684,2.3A.638.638,0,0,1,55.905,58.6Z" transform="translate(-55.256 -16.338)" fill="#1f212b"/>
      <path id="Path_63" data-name="Path 63" d="M67.825,55.1a.648.648,0,0,1-.091-1.29c.46-.065,4.372-.512,4.372-.512l.146,1.287s-3.88.443-4.337.508A.524.524,0,0,1,67.825,55.1Z" transform="translate(-51.724 -16.61)" fill="#1f212b"/>
      <path id="Path_64" data-name="Path 64" d="M73.611,54.4a.648.648,0,0,1-.045-1.3q.828-.058,1.686-.106a.63.63,0,0,1,.682.612.646.646,0,0,1-.612.682q-.848.047-1.667.1A.236.236,0,0,1,73.611,54.4Z" transform="translate(-50.01 -16.7)" fill="#1f212b"/>
    </g>
    <g id="Group_3" data-name="Group 3" transform="translate(61.852 26.778)">
      <path id="Path_65" data-name="Path 65" d="M50.648,70.37A.648.648,0,0,1,50,69.722V25.648a.648.648,0,1,1,1.3,0V69.722A.648.648,0,0,1,50.648,70.37Z" transform="translate(-50 -25)" fill="#1f212b"/>
    </g>
    <g id="Group_4" data-name="Group 4" transform="translate(61.852 81.222)">
      <path id="Path_66" data-name="Path 66" d="M50.648,69.593A.648.648,0,0,1,50,68.944v-1.3a.648.648,0,0,1,1.3,0v1.3A.648.648,0,0,1,50.648,69.593Z" transform="translate(-50 -67)" fill="#1f212b"/>
    </g>
    <g id="Group_5" data-name="Group 5" transform="translate(61.852 74.741)">
      <path id="Path_67" data-name="Path 67" d="M50.648,65.889A.648.648,0,0,1,50,65.241V62.648a.648.648,0,0,1,1.3,0v2.593A.648.648,0,0,1,50.648,65.889Z" transform="translate(-50 -62)" fill="#1f212b"/>
    </g>
  </g>
</svg>
