<svg id="Layer_1" data-name="Layer 1" xmlns="http://www.w3.org/2000/svg" viewBox="0 0 1920 1080"><defs><style>.cls-1{fill:#efefef;}.cls-2{fill:#242630;opacity:0.1;}.cls-3{fill:#ebf1ff;}.cls-4{fill:#525179;}.cls-5{fill:#c4d8f9;}.cls-6{fill:none;stroke:#fafafa;stroke-linecap:round;stroke-linejoin:round;stroke-width:2px;}.cls-7{fill:#9fc0f9;}.cls-8{opacity:0.05;}.cls-9{fill:#0c0c0d;}.cls-10{fill:#d6e3f9;}.cls-11{fill:#ebf7ff;opacity:0.2;}.cls-12{fill:#49496f;}.cls-13{fill:#9ad2ff;}.cls-14{fill:#fbffff;}.cls-15{fill:#34345a;}.cls-16{fill:#fffffd;}.cls-17{fill:#d4e1e9;}.cls-18{fill:#fafafa;}.cls-19{fill:#dedede;}</style></defs><title>Artboard 1</title><rect class="cls-1" width="1920" height="1079.47"/><path class="cls-2" d="M323.19,674,678,442.86a3.75,3.75,0,0,1,5.2,1.09l62.5,95.93,4.23,6.5L388.83,781.62l-4.23-6.5-62.5-95.93A3.75,3.75,0,0,1,323.19,674Z"/><path class="cls-3" d="M302.84,526.51H733.77a0,0,0,0,1,0,0V643.25a1.51,1.51,0,0,1-1.51,1.51H304.35a1.51,1.51,0,0,1-1.51-1.51V526.51a0,0,0,0,1,0,0Z" transform="translate(1272.25 793.37) rotate(146.91)"/><rect class="cls-4" x="645.9" y="439.33" width="18.17" height="9.09" transform="translate(1446.08 458.22) rotate(146.91)"/><rect class="cls-4" x="616.67" y="458.37" width="18.17" height="9.09" transform="translate(1402.75 509.19) rotate(146.91)"/><rect class="cls-4" x="587.43" y="477.42" width="18.17" height="9.09" transform="translate(1359.42 560.15) rotate(146.91)"/><rect class="cls-4" x="558.2" y="496.47" width="18.17" height="9.09" transform="translate(1316.08 611.11) rotate(146.91)"/><rect class="cls-4" x="528.96" y="515.52" width="18.17" height="9.09" transform="translate(1272.75 662.09) rotate(146.91)"/><rect class="cls-4" x="499.73" y="534.56" width="18.17" height="9.09" transform="translate(1229.42 713.05) rotate(146.91)"/><rect class="cls-4" x="470.49" y="553.61" width="18.17" height="9.09" transform="translate(1186.08 764.02) rotate(146.91)"/><rect class="cls-4" x="441.26" y="572.66" width="18.17" height="9.09" transform="matrix(-0.84, 0.55, -0.55, -0.84, 1142.75, 814.98)"/><rect class="cls-4" x="412.02" y="591.71" width="18.17" height="9.09" transform="translate(1099.42 865.95) rotate(146.91)"/><rect class="cls-4" x="382.78" y="610.75" width="18.17" height="9.09" transform="translate(1056.09 916.91) rotate(146.91)"/><rect class="cls-4" x="353.55" y="629.8" width="18.17" height="9.09" transform="translate(1012.76 967.88) rotate(146.91)"/><rect class="cls-4" x="324.31" y="648.85" width="18.17" height="9.09" transform="translate(969.42 1018.85) rotate(146.91)"/><rect class="cls-4" x="659.49" y="455.64" width="18.17" height="18.17" transform="matrix(-0.84, 0.55, -0.55, -0.84, 1482.45, 489.14)"/><rect class="cls-4" x="630.26" y="474.69" width="18.17" height="18.17" transform="translate(1439.11 540.11) rotate(146.91)"/><rect class="cls-4" x="601.02" y="493.74" width="18.17" height="18.17" transform="translate(1395.78 591.07) rotate(146.91)"/><rect class="cls-4" x="571.79" y="512.79" width="18.17" height="18.17" transform="translate(1352.45 642.03) rotate(146.91)"/><rect class="cls-4" x="542.55" y="531.83" width="18.17" height="18.17" transform="translate(1309.12 693.01) rotate(146.91)"/><rect class="cls-4" x="513.32" y="550.88" width="18.17" height="18.17" transform="translate(1265.78 743.97) rotate(146.91)"/><rect class="cls-4" x="484.08" y="569.93" width="18.17" height="18.17" transform="matrix(-0.84, 0.55, -0.55, -0.84, 1222.45, 794.94)"/><rect class="cls-4" x="454.85" y="588.98" width="18.17" height="18.17" transform="translate(1179.12 845.9) rotate(146.91)"/><rect class="cls-4" x="425.61" y="608.02" width="18.17" height="18.17" transform="matrix(-0.84, 0.55, -0.55, -0.84, 1135.78, 896.87)"/><rect class="cls-4" x="675.56" y="480.31" width="18.17" height="18.17" transform="translate(1525.45 525.7) rotate(146.91)"/><rect class="cls-4" x="646.33" y="499.36" width="18.17" height="18.17" transform="translate(1482.12 576.66) rotate(146.91)"/><rect class="cls-4" x="617.09" y="518.41" width="18.17" height="18.17" transform="translate(1438.78 627.64) rotate(146.91)"/><rect class="cls-4" x="587.86" y="537.45" width="18.17" height="18.17" transform="translate(1395.45 678.6) rotate(146.91)"/><rect class="cls-4" x="558.62" y="556.5" width="18.17" height="18.17" transform="translate(1352.12 729.57) rotate(146.91)"/><rect class="cls-4" x="529.39" y="575.55" width="18.17" height="18.17" transform="translate(1308.79 780.53) rotate(146.91)"/><rect class="cls-4" x="500.15" y="594.6" width="18.17" height="18.17" transform="translate(1265.45 831.5) rotate(146.91)"/><rect class="cls-4" x="470.92" y="613.64" width="18.17" height="18.17" transform="translate(1222.12 882.46) rotate(146.91)"/><rect class="cls-4" x="441.68" y="632.69" width="18.17" height="18.17" transform="translate(1178.79 933.43) rotate(146.91)"/><rect class="cls-4" x="383.21" y="670.79" width="18.17" height="18.17" transform="translate(1092.12 1035.36) rotate(146.91)"/><rect class="cls-4" x="457.75" y="657.36" width="18.17" height="18.17" transform="translate(1221.79 969.99) rotate(146.91)"/><rect class="cls-4" x="428.52" y="676.41" width="18.17" height="18.17" transform="translate(1178.46 1020.96) rotate(146.91)"/><rect class="cls-4" x="399.28" y="695.45" width="18.17" height="18.17" transform="translate(1135.13 1071.92) rotate(146.91)"/><rect class="cls-4" x="370.05" y="714.5" width="18.17" height="18.17" transform="translate(1091.79 1122.89) rotate(146.91)"/><rect class="cls-4" x="412.45" y="651.74" width="18.17" height="18.17" transform="translate(1135.45 984.4) rotate(146.91)"/><rect class="cls-4" x="353.98" y="689.83" width="18.17" height="18.17" transform="translate(1048.79 1086.33) rotate(146.91)"/><rect class="cls-4" x="367.14" y="646.12" width="18.17" height="18.17" transform="translate(1049.12 998.8) rotate(146.91)"/><rect class="cls-4" x="396.38" y="627.07" width="18.17" height="18.17" transform="translate(1092.45 947.83) rotate(146.91)"/><rect class="cls-4" x="337.9" y="665.17" width="18.17" height="18.17" transform="translate(1005.79 1049.77) rotate(146.91)"/><rect class="cls-4" x="691.64" y="504.98" width="18.17" height="18.17" transform="translate(1568.45 562.26) rotate(146.91)"/><rect class="cls-4" x="662.4" y="524.03" width="18.17" height="18.17" transform="translate(1525.12 613.22) rotate(146.91)"/><rect class="cls-4" x="633.17" y="543.07" width="18.17" height="18.17" transform="matrix(-0.84, 0.55, -0.55, -0.84, 1481.79, 664.2)"/><rect class="cls-4" x="539.8" y="581.17" width="87.96" height="18.17" transform="translate(1395.12 766.13) rotate(146.91)"/><rect class="cls-4" x="516.22" y="619.26" width="18.17" height="18.17" transform="translate(1308.45 868.06) rotate(146.91)"/><rect class="cls-4" x="486.99" y="638.31" width="18.17" height="18.17" transform="translate(1265.12 919.02) rotate(146.91)"/><rect class="cls-5" x="337.23" y="634.54" width="430.93" height="7.75" transform="translate(-258.89 405.22) rotate(-33.09)"/><path class="cls-6" d="M383.7,602.76,365.94,575.5a22,22,0,0,0-30.42-6.42h0a22,22,0,0,1-30.43-6.42L197,396.74a53.07,53.07,0,0,1,15.49-73.43L269.73,286a53.06,53.06,0,0,1,73.43,15.5h0"/><path class="cls-2" d="M157.45,593.16q78.83-65.24,162.37-124.88l-3.27-5-38.67-59.36-3.39-5.2a32.1,32.1,0,0,1,9.39-44.4l153.48-100a32.09,32.09,0,0,1,44.38,9.36l3.38,5.2,38.68,59.37,3.27,5Q615.3,281,706.92,235.17c3.65-1.83,7.46-1.08,8.5,1.65q9.14,23.81,18.26,47.62c1.05,2.73-.95,6.35-4.45,8.1q-85.87,42.93-168.8,91.9l7.5,11.52,3.63,5.56,3.39,5.21a32.1,32.1,0,0,1-9.35,44.4l-153.48,100a32.1,32.1,0,0,1-44.42-9.38l-3.39-5.2L360.68,531l-7.5-11.51q-78.19,56-152.26,117.28c-3,2.49-7.14,2.86-9.21.8L155.52,601.6C153.45,599.55,154.31,595.76,157.45,593.16Z"/><path class="cls-7" d="M276.65,387.63l84.12,129.12a30.06,30.06,0,0,0,41.6,8.77l143.74-93.65a30.05,30.05,0,0,0,8.76-41.58L470.75,261.17a30.07,30.07,0,0,0-41.57-8.77L285.44,346.05A30.06,30.06,0,0,0,276.65,387.63Z"/><path class="cls-5" d="M273.47,382.76,357.6,511.87a30.06,30.06,0,0,0,41.6,8.78L542.94,427a30.06,30.06,0,0,0,8.75-41.59L467.57,256.3A30,30,0,0,0,426,247.53L282.27,341.18A30.07,30.07,0,0,0,273.47,382.76Z"/><g class="cls-8"><path class="cls-9" d="M312.87,443.23l41.33,63.43A2314.79,2314.79,0,0,1,548.3,380.2L507,316.77Q406.89,375.3,312.87,443.23Z"/></g><rect class="cls-10" x="300.75" y="302.87" width="142.48" height="37.8" rx="5.58" transform="translate(859.31 388.31) rotate(146.91)"/><path class="cls-11" d="M393.69,519.31l150.23-97.88A11.87,11.87,0,0,0,547.39,405h0L377.26,515.85h0A11.88,11.88,0,0,0,393.69,519.31Z"/><path class="cls-4" d="M323.75,341.63l9.34-6.09a2.18,2.18,0,0,0,.64-3h0a2.18,2.18,0,0,0-3-.63L321.37,338a2.18,2.18,0,0,0-.63,3h0A2.18,2.18,0,0,0,323.75,341.63Z"/><path class="cls-4" d="M327.72,347.72l9.34-6.09a2.18,2.18,0,0,0,.64-3h0a2.19,2.19,0,0,0-3-.63l-9.34,6.08a2.19,2.19,0,0,0-.64,3h0A2.19,2.19,0,0,0,327.72,347.72Z"/><path class="cls-5" d="M720.38,177.4A3250.46,3250.46,0,0,0,99.17,582.14a6.59,6.59,0,0,1-8.84-.4l-5.11-5.08A3274.28,3274.28,0,0,1,721,162.43l2.58,6.73A6.57,6.57,0,0,1,720.38,177.4Z"/><path class="cls-12" d="M145.75,625.57a3136,3136,0,0,1,595.54-388c4-2,6.2-6.06,5-9.14q-10.3-26.83-20.59-53.68c-1.18-3.08-5.47-3.92-9.58-1.86A3261.56,3261.56,0,0,0,96.74,576.44c-3.54,2.93-4.51,7.2-2.17,9.51l40.79,40.53C137.7,628.8,142.34,628.39,145.75,625.57Z"/><path class="cls-13" d="M143.17,613.69A3156.06,3156.06,0,0,1,731.46,230.4L714,186A3243,3243,0,0,0,109.63,579.8Z"/><path class="cls-14" d="M721,162.43A3274.28,3274.28,0,0,0,85.22,576.66l-2.13-2.11c-8.48-8.38-4.81-24,8.35-34.72A3320.25,3320.25,0,0,1,684.8,153.24c15.14-7.7,30.9-4.76,35.14,6.39C720.29,160.56,720.65,161.5,721,162.43Z"/><rect class="cls-2" x="480.41" y="686.53" width="316.73" height="172.72" transform="translate(1605.91 1037.59) rotate(144.88)"/><polyline class="cls-15" points="798.96 739.63 708.03 610.34 462.39 783.11 553.32 912.39"/><path class="cls-16" d="M687.41,606.32s-99.7,26.49-110.92,78l82.19,116.85,110.91-78Z"/><path class="cls-17" d="M769.59,723.17s-99.7,26.49-110.91,78l7.74,11,110.91-78Z"/><rect class="cls-5" x="639.34" y="642.84" width="57.13" height="6.85" transform="translate(-250.2 501.89) rotate(-35.12)"/><rect class="cls-5" x="676.4" y="650.39" width="28.57" height="6.85" transform="matrix(0.82, -0.58, 0.58, 0.82, -250.4, 516.37)"/><rect class="cls-5" x="635.98" y="675.05" width="39.3" height="6.85" transform="translate(-270.96 500.69) rotate(-35.12)"/><rect class="cls-5" x="605.34" y="698.59" width="33.62" height="6.85" transform="translate(-290.6 485.72) rotate(-35.12)"/><rect class="cls-5" x="636.43" y="738.97" width="57.74" height="6.85" transform="translate(-305.98 517.89) rotate(-35.12)"/><rect class="cls-5" x="679.38" y="668.73" width="37.49" height="6.85" transform="translate(-259.59 523.99) rotate(-35.12)"/><rect class="cls-5" x="640.79" y="695.88" width="37.49" height="6.85" transform="translate(-282.23 506.73) rotate(-35.12)"/><rect class="cls-5" x="617.63" y="718.14" width="20.51" height="6.85" transform="translate(-300.8 492.57) rotate(-35.12)"/><rect class="cls-5" x="672.62" y="690.15" width="57.13" height="6.85" transform="translate(-271.36 529.66) rotate(-35.12)"/><rect class="cls-5" x="716.62" y="695.51" width="20.92" height="6.85" transform="matrix(0.82, -0.58, 0.58, 0.82, -269.73, 545.54)"/><rect class="cls-5" x="693.26" y="711.95" width="20.92" height="6.85" transform="translate(-283.43 535.08) rotate(-35.12)"/><rect class="cls-5" x="607.41" y="673.85" width="32.82" height="6.85" transform="translate(-276.06 482.18) rotate(-35.12)"/><rect class="cls-5" x="640.69" y="721.16" width="32.82" height="6.85" transform="matrix(0.82, -0.58, 0.58, 0.82, -297.22, 509.94)"/><rect class="cls-5" x="596.21" y="689.19" width="10.26" height="7.06" transform="translate(-289.04 472.05) rotate(-35.12)"/><rect class="cls-5" x="629.72" y="736.84" width="10.26" height="7.07" transform="translate(-310.35 500) rotate(-35.12)"/><path class="cls-16" d="M465.58,762.34s58.64-84.87,110.91-78l82.19,116.85-110.91,78Z"/><path class="cls-17" d="M547.77,879.19s58.63-84.87,110.91-78l7.74,11-110.91,78Z"/><rect class="cls-5" x="525.27" y="816.87" width="57.13" height="6.85" transform="translate(-371.08 467.95) rotate(-35.12)"/><rect class="cls-5" x="516.78" y="809.31" width="28.57" height="6.85" transform="translate(-370.88 453.48) rotate(-35.12)"/><rect class="cls-5" x="546.46" y="784.66" width="39.3" height="6.85" transform="translate(-350.32 469.15) rotate(-35.12)"/><rect class="cls-5" x="582.77" y="761.12" width="33.62" height="6.85" transform="translate(-330.68 484.13) rotate(-35.12)"/><rect class="cls-5" x="527.58" y="720.74" width="57.74" height="6.85" transform="translate(-315.3 451.95) rotate(-35.12)"/><rect class="cls-5" x="504.87" y="790.98" width="37.49" height="6.85" transform="translate(-361.69 445.85) rotate(-35.12)"/><rect class="cls-5" x="543.47" y="763.83" width="37.49" height="6.85" transform="translate(-339.05 463.12) rotate(-35.12)"/><rect class="cls-5" x="583.61" y="741.57" width="20.51" height="6.85" transform="translate(-320.48 477.27) rotate(-35.12)"/><rect class="cls-5" x="491.99" y="769.55" width="57.13" height="6.85" transform="translate(-349.92 440.19) rotate(-35.12)"/><rect class="cls-5" x="484.19" y="764.2" width="20.92" height="6.85" transform="translate(-351.55 424.32) rotate(-35.12)"/><rect class="cls-5" x="507.56" y="747.76" width="20.92" height="6.85" transform="translate(-337.84 434.77) rotate(-35.12)"/><rect class="cls-5" x="581.51" y="785.86" width="32.82" height="6.85" transform="translate(-345.22 487.67) rotate(-35.12)"/><rect class="cls-5" x="548.23" y="738.55" width="32.82" height="6.85" transform="translate(-324.05 459.91) rotate(-35.12)"/><rect class="cls-5" x="615.28" y="770.3" width="10.26" height="7.07" transform="translate(-332.23 497.79) rotate(-35.12)"/><rect class="cls-5" x="581.77" y="722.65" width="10.26" height="7.07" transform="translate(-310.92 469.84) rotate(-35.12)"/><path class="cls-2" d="M243.33,800.94a28.53,28.53,0,0,1,20.82-26.66l.14,0c.85-.23,1.71-.43,2.59-.59l.36,0c.81-.14,1.63-.25,2.46-.31l.55,0c.69,0,1.38-.08,2.07-.06h.36a6.06,6.06,0,0,1,.85,0c.24,0,.48.06.72.08.6,0,1.2.1,1.79.18.4.06.8.15,1.2.22s1,.19,1.48.31,1,.27,1.47.42.76.22,1.13.35c.6.21,1.19.45,1.77.7.24.11.49.19.72.3.75.35,1.48.73,2.19,1.13l.19.11a28.43,28.43,0,0,1,14.19,25.49h0l-.74,25.93a28.53,28.53,0,0,1-57-1.64l.74-25.93Z"/><path class="cls-18" d="M270.88,835.86h0a28.52,28.52,0,0,0,29.33-27.7l.75-25.93a28.52,28.52,0,0,0-27.7-29.33h0a28.51,28.51,0,0,0-29.33,27.69l-.75,25.94A28.53,28.53,0,0,0,270.88,835.86Z"/><path class="cls-19" d="M243.92,780.6,301,782.23a28.5,28.5,0,0,0-26.85-29.29c-.3,0-.56,0-.86-.05h-.35a28.51,28.51,0,0,0-29,27.72Z"/><path class="cls-4" d="M272.91,752.88l-.82,28.52,1.21,0,.82-28.5c-.3,0-.56,0-.86-.05Z"/><path class="cls-4" d="M272.89,774.41h0a3,3,0,0,0,3-2.86l.27-9.34a3,3,0,0,0-2.87-3h0a2.94,2.94,0,0,0-3,2.87l-.27,9.34A3,3,0,0,0,272.89,774.41Z"/></svg>