<svg xmlns="http://www.w3.org/2000/svg" xmlns:xlink="http://www.w3.org/1999/xlink" viewBox="0 0 500 500"><defs><style>.cls-1{fill:none;}.cls-2{fill:#fafafa;}.cls-3{clip-path:url(#clip-path);}.cls-4{fill:url(#linear-gradient);}.cls-5{fill:url(#linear-gradient-2);}.cls-6{fill:url(#linear-gradient-3);}.cls-7{fill:url(#linear-gradient-4);}.cls-8{fill:url(#linear-gradient-5);}.cls-9{fill:url(#linear-gradient-6);}.cls-10{fill:url(#linear-gradient-7);}.cls-11{fill:url(#linear-gradient-8);}.cls-12{fill:url(#linear-gradient-9);}.cls-13{fill:url(#linear-gradient-10);}.cls-14{fill:url(#linear-gradient-11);}.cls-15{fill:url(#linear-gradient-12);}.cls-16{fill:url(#linear-gradient-13);}.cls-17{opacity:0.5;}.cls-18{fill:#bdbdbd;}.cls-19{fill:#f50057;}.cls-20{fill:#616161;opacity:0.09;}.cls-21{fill:url(#linear-gradient-14);}.cls-22{fill:url(#linear-gradient-15);}.cls-23{fill:url(#linear-gradient-16);}.cls-24{fill:url(#linear-gradient-17);}.cls-25{fill:url(#linear-gradient-18);}.cls-26{fill:url(#linear-gradient-19);}.cls-27{fill:url(#linear-gradient-20);}.cls-28{fill:url(#linear-gradient-21);}.cls-29{fill:url(#linear-gradient-22);}.cls-30{fill:url(#linear-gradient-23);}.cls-31{fill:url(#linear-gradient-24);}.cls-32{fill:url(#linear-gradient-25);}.cls-33{fill:url(#linear-gradient-26);}.cls-34{fill:url(#linear-gradient-27);}.cls-35{fill:url(#linear-gradient-28);}.cls-36{fill:url(#linear-gradient-29);}.cls-37{fill:url(#linear-gradient-30);}.cls-38{fill:url(#linear-gradient-31);}.cls-39{fill:url(#linear-gradient-32);}.cls-40{fill:url(#linear-gradient-33);}.cls-41{fill:url(#linear-gradient-34);}.cls-42{fill:url(#linear-gradient-35);}.cls-43{fill:url(#linear-gradient-36);}.cls-44{fill:url(#linear-gradient-37);}.cls-45{fill:url(#linear-gradient-38);}.cls-46{fill:url(#linear-gradient-39);}.cls-47{fill:url(#linear-gradient-40);}.cls-48{fill:url(#linear-gradient-41);}.cls-49{fill:url(#linear-gradient-42);}.cls-50{fill:url(#linear-gradient-43);}.cls-51{fill:url(#linear-gradient-44);}.cls-52{fill:url(#linear-gradient-45);}.cls-53{fill:url(#linear-gradient-46);}.cls-54{fill:url(#linear-gradient-47);}.cls-55{fill:url(#linear-gradient-48);}.cls-56{fill:url(#linear-gradient-49);}.cls-57{fill:url(#linear-gradient-50);}.cls-58{fill:url(#linear-gradient-51);}.cls-59{fill:url(#linear-gradient-52);}.cls-60{fill:url(#linear-gradient-53);}.cls-61{fill:url(#linear-gradient-54);}.cls-62{fill:url(#linear-gradient-55);}.cls-63{fill:url(#linear-gradient-56);}.cls-64{fill:url(#linear-gradient-57);}.cls-65{fill:url(#linear-gradient-58);}.cls-66{fill:url(#linear-gradient-59);}</style><clipPath id="clip-path"><rect class="cls-1" width="500" height="500"/></clipPath><linearGradient id="linear-gradient" x1="284.97" y1="129.76" x2="313.64" y2="101.09" gradientUnits="userSpaceOnUse"><stop offset="0.01" stop-color="#ff0068"/><stop offset="1" stop-color="#ffc107"/></linearGradient><linearGradient id="linear-gradient-2" x1="-284.23" y1="639.82" x2="-180.09" y2="639.82" gradientTransform="matrix(0.63, 0.37, 0.37, 0.63, -26.75, 26.75)" xlink:href="#linear-gradient"/><linearGradient id="linear-gradient-3" x1="98.4" y1="223.38" x2="-19.61" y2="333.39" gradientTransform="matrix(1.16, -0.16, -0.16, 1.16, -18.99, 18.99)" xlink:href="#linear-gradient"/><linearGradient id="linear-gradient-4" x1="404.09" y1="-5.86" x2="485.19" y2="50.92" xlink:href="#linear-gradient"/><linearGradient id="linear-gradient-5" x1="407.77" y1="-3.28" x2="481.5" y2="48.34" xlink:href="#linear-gradient"/><linearGradient id="linear-gradient-6" x1="411.46" y1="-0.7" x2="477.82" y2="45.75" xlink:href="#linear-gradient"/><linearGradient id="linear-gradient-7" x1="415.15" y1="1.88" x2="474.13" y2="43.17" xlink:href="#linear-gradient"/><linearGradient id="linear-gradient-8" x1="418.83" y1="4.47" x2="470.44" y2="40.59" xlink:href="#linear-gradient"/><linearGradient id="linear-gradient-9" x1="422.52" y1="7.05" x2="466.76" y2="38.01" xlink:href="#linear-gradient"/><linearGradient id="linear-gradient-10" x1="426.21" y1="9.63" x2="463.07" y2="35.43" xlink:href="#linear-gradient"/><linearGradient id="linear-gradient-11" x1="429.9" y1="12.21" x2="459.38" y2="32.85" xlink:href="#linear-gradient"/><linearGradient id="linear-gradient-12" x1="433.58" y1="14.79" x2="455.7" y2="30.27" xlink:href="#linear-gradient"/><linearGradient id="linear-gradient-13" x1="437.27" y1="17.37" x2="452.01" y2="27.69" xlink:href="#linear-gradient"/><linearGradient id="linear-gradient-14" x1="78.92" y1="319.63" x2="94.7" y2="319.63" xlink:href="#linear-gradient"/><linearGradient id="linear-gradient-15" x1="332.96" y1="97.78" x2="340.84" y2="97.78" xlink:href="#linear-gradient"/><linearGradient id="linear-gradient-16" x1="384.29" y1="262.03" x2="392.18" y2="262.03" xlink:href="#linear-gradient"/><linearGradient id="linear-gradient-17" x1="281.05" y1="430.38" x2="368.05" y2="540.38" gradientUnits="userSpaceOnUse"><stop offset="0" stop-color="#f70068"/><stop offset="1" stop-color="#441066"/></linearGradient><linearGradient id="linear-gradient-18" x1="441.81" y1="381.72" x2="513.81" y2="537.72" xlink:href="#linear-gradient-17"/><linearGradient id="linear-gradient-19" x1="420.8" y1="269.09" x2="445.46" y2="340.43" gradientUnits="userSpaceOnUse"><stop offset="0" stop-color="#441066"/><stop offset="1" stop-color="#a9008d"/></linearGradient><linearGradient id="linear-gradient-20" x1="431.41" y1="265.42" x2="456.08" y2="336.76" xlink:href="#linear-gradient-19"/><linearGradient id="linear-gradient-21" x1="442.02" y1="261.75" x2="466.69" y2="333.09" xlink:href="#linear-gradient-19"/><linearGradient id="linear-gradient-22" x1="452.63" y1="258.08" x2="477.3" y2="329.42" xlink:href="#linear-gradient-19"/><linearGradient id="linear-gradient-23" x1="463.24" y1="254.41" x2="487.91" y2="325.75" xlink:href="#linear-gradient-19"/><linearGradient id="linear-gradient-24" x1="473.86" y1="250.74" x2="498.52" y2="322.08" xlink:href="#linear-gradient-19"/><linearGradient id="linear-gradient-25" x1="417.08" y1="270.38" x2="441.74" y2="341.71" xlink:href="#linear-gradient-19"/><linearGradient id="linear-gradient-26" x1="427.69" y1="266.71" x2="452.36" y2="338.04" xlink:href="#linear-gradient-19"/><linearGradient id="linear-gradient-27" x1="438.3" y1="263.04" x2="462.97" y2="334.37" xlink:href="#linear-gradient-19"/><linearGradient id="linear-gradient-28" x1="448.91" y1="259.37" x2="473.58" y2="330.7" xlink:href="#linear-gradient-19"/><linearGradient id="linear-gradient-29" x1="459.53" y1="255.7" x2="484.19" y2="327.03" xlink:href="#linear-gradient-19"/><linearGradient id="linear-gradient-30" x1="470.14" y1="252.03" x2="494.8" y2="323.36" xlink:href="#linear-gradient-19"/><linearGradient id="linear-gradient-31" x1="413.36" y1="271.66" x2="438.03" y2="343" xlink:href="#linear-gradient-19"/><linearGradient id="linear-gradient-32" x1="423.97" y1="267.99" x2="448.64" y2="339.33" xlink:href="#linear-gradient-19"/><linearGradient id="linear-gradient-33" x1="434.58" y1="264.32" x2="459.25" y2="335.66" xlink:href="#linear-gradient-19"/><linearGradient id="linear-gradient-34" x1="445.2" y1="260.65" x2="469.86" y2="331.99" xlink:href="#linear-gradient-19"/><linearGradient id="linear-gradient-35" x1="455.81" y1="256.98" x2="480.47" y2="328.32" xlink:href="#linear-gradient-19"/><linearGradient id="linear-gradient-36" x1="466.42" y1="253.32" x2="491.09" y2="324.65" xlink:href="#linear-gradient-19"/><linearGradient id="linear-gradient-37" x1="409.64" y1="272.95" x2="434.31" y2="344.28" xlink:href="#linear-gradient-19"/><linearGradient id="linear-gradient-38" x1="420.25" y1="269.28" x2="444.92" y2="340.61" xlink:href="#linear-gradient-19"/><linearGradient id="linear-gradient-39" x1="430.87" y1="265.61" x2="455.53" y2="336.94" xlink:href="#linear-gradient-19"/><linearGradient id="linear-gradient-40" x1="441.48" y1="261.94" x2="466.14" y2="333.27" xlink:href="#linear-gradient-19"/><linearGradient id="linear-gradient-41" x1="452.09" y1="258.27" x2="476.76" y2="329.6" xlink:href="#linear-gradient-19"/><linearGradient id="linear-gradient-42" x1="462.7" y1="254.6" x2="487.37" y2="325.93" xlink:href="#linear-gradient-19"/><linearGradient id="linear-gradient-43" x1="405.92" y1="274.24" x2="430.59" y2="345.57" xlink:href="#linear-gradient-19"/><linearGradient id="linear-gradient-44" x1="416.54" y1="270.57" x2="441.2" y2="341.9" xlink:href="#linear-gradient-19"/><linearGradient id="linear-gradient-45" x1="427.15" y1="266.9" x2="451.81" y2="338.23" xlink:href="#linear-gradient-19"/><linearGradient id="linear-gradient-46" x1="437.76" y1="263.23" x2="462.43" y2="334.56" xlink:href="#linear-gradient-19"/><linearGradient id="linear-gradient-47" x1="448.37" y1="259.56" x2="473.04" y2="330.89" xlink:href="#linear-gradient-19"/><linearGradient id="linear-gradient-48" x1="458.98" y1="255.89" x2="483.65" y2="327.22" xlink:href="#linear-gradient-19"/><linearGradient id="linear-gradient-49" x1="37.69" y1="198.91" x2="-73.3" y2="319.9" gradientTransform="matrix(1.03, -0.03, -0.03, 1.03, 30.81, -30.81)" xlink:href="#linear-gradient-17"/><linearGradient id="linear-gradient-50" x1="154.08" y1="419.8" x2="132.25" y2="438.64" gradientUnits="userSpaceOnUse"><stop offset="0" stop-color="#f70068"/><stop offset="1" stop-color="#a9008d"/></linearGradient><linearGradient id="linear-gradient-51" x1="471.72" y1="194.72" x2="449.88" y2="213.55" xlink:href="#linear-gradient-50"/><linearGradient id="linear-gradient-52" x1="64.45" y1="244.34" x2="91.56" y2="244.34" xlink:href="#linear-gradient"/><linearGradient id="linear-gradient-53" x1="101.06" y1="130.76" x2="39.43" y2="-31.01" xlink:href="#linear-gradient-17"/><linearGradient id="linear-gradient-54" x1="85.9" y1="63.82" x2="62.79" y2="-20.92" xlink:href="#linear-gradient-17"/><linearGradient id="linear-gradient-55" x1="-32.39" y1="488.2" x2="46.61" y2="325.2" xlink:href="#linear-gradient-19"/><linearGradient id="linear-gradient-56" x1="-28.75" y1="528.33" x2="49.25" y2="400.33" xlink:href="#linear-gradient-19"/><linearGradient id="linear-gradient-57" x1="471.4" y1="158.91" x2="484.56" y2="158.91" xlink:href="#linear-gradient"/><linearGradient id="linear-gradient-58" x1="481.13" y1="-3.25" x2="434.13" y2="78.75" xlink:href="#linear-gradient-19"/><linearGradient id="linear-gradient-59" x1="496.18" y1="-0.99" x2="490.76" y2="54.53" xlink:href="#linear-gradient-19"/></defs><title>Artboard 1</title><g id="BACKGROUND_1" data-name="BACKGROUND 1"><g id="ELEMENT"><rect id="RECTANGLE" class="cls-2" width="500" height="500"/><g id="ELEMENT-2" data-name="ELEMENT"><g id="ELEMENT-3" data-name="ELEMENT"><g class="cls-3"><path class="cls-4" d="M318.4,104.17l-12.23,12.24a5.42,5.42,0,0,1-7.67,0h0a5.42,5.42,0,0,1,0-7.67l6.68-6.68a5.44,5.44,0,0,0,0-7.67l-.54-.54a5.42,5.42,0,0,0-7.67,0l-23.33,23a5.42,5.42,0,0,0,0,7.67l.53.54a5.44,5.44,0,0,0,7.67,0l3.83-3.83a5.42,5.42,0,0,1,7.67,0h0a5.42,5.42,0,0,1,0,7.67l-4.44,4.45a5.42,5.42,0,0,0,0,7.67l.53.54a5.44,5.44,0,0,0,7.67,0l29.51-29.17a5.42,5.42,0,0,0,0-7.67l-.54-.54A5.44,5.44,0,0,0,318.4,104.17Z"/><path class="cls-5" d="M75.36,348.72,64.84,359.25a11.62,11.62,0,0,1-16.42,0h0a11.6,11.6,0,0,1,0-16.42L58.94,332.3a11.62,11.62,0,0,1,16.42,0h0A11.6,11.6,0,0,1,75.36,348.72Z"/><path class="cls-6" d="M51.61,300.88-82.21,434.7a25.07,25.07,0,0,1-35.45,0h0a25.07,25.07,0,0,1,0-35.45L16.16,265.43a25.07,25.07,0,0,1,35.45,0h0A25.07,25.07,0,0,1,51.61,300.88Z"/><path class="cls-7" d="M444.64,72.05a49.52,49.52,0,1,1,49.52-49.52A49.58,49.58,0,0,1,444.64,72.05Zm0-97.12a47.6,47.6,0,1,0,47.6,47.6A47.65,47.65,0,0,0,444.64-25.07Z"/><path class="cls-8" d="M444.64,67.54a45,45,0,1,1,45-45A45.07,45.07,0,0,1,444.64,67.54Zm0-88.11a43.1,43.1,0,1,0,43.1,43.1A43.16,43.16,0,0,0,444.64-20.57Z"/><path class="cls-9" d="M444.64,63a40.51,40.51,0,1,1,40.51-40.51A40.55,40.55,0,0,1,444.64,63Zm0-79.11a38.6,38.6,0,1,0,38.6,38.6A38.65,38.65,0,0,0,444.64-16.07Z"/><path class="cls-10" d="M444.64,58.54a36,36,0,1,1,36-36A36,36,0,0,1,444.64,58.54Zm0-70.1a34.09,34.09,0,1,0,34.09,34.09A34.13,34.13,0,0,0,444.64-11.56Z"/><path class="cls-11" d="M444.64,54a31.51,31.51,0,1,1,31.51-31.51A31.55,31.55,0,0,1,444.64,54Zm0-61.1a29.59,29.59,0,1,0,29.59,29.59A29.62,29.62,0,0,0,444.64-7.06Z"/><path class="cls-12" d="M444.64,49.54a27,27,0,1,1,27-27A27,27,0,0,1,444.64,49.54Zm0-52.1a25.09,25.09,0,1,0,25.09,25.09A25.12,25.12,0,0,0,444.64-2.56Z"/><path class="cls-13" d="M444.64,45a22.51,22.51,0,1,1,22.5-22.51A22.54,22.54,0,0,1,444.64,45Zm0-43.1a20.59,20.59,0,1,0,20.59,20.59A20.62,20.62,0,0,0,444.64,1.94Z"/><path class="cls-14" d="M444.64,40.53a18,18,0,1,1,18-18A18,18,0,0,1,444.64,40.53Zm0-34.09a16.09,16.09,0,1,0,16.09,16.09A16.11,16.11,0,0,0,444.64,6.44Z"/><path class="cls-15" d="M444.64,36a13.5,13.5,0,1,1,13.5-13.5A13.51,13.51,0,0,1,444.64,36Zm0-25.08a11.58,11.58,0,1,0,11.58,11.58A11.59,11.59,0,0,0,444.64,11Z"/><path class="cls-16" d="M444.64,31.53a9,9,0,1,1,9-9A9,9,0,0,1,444.64,31.53Zm0-16.08a7.08,7.08,0,1,0,7.08,7.08A7.08,7.08,0,0,0,444.64,15.45Z"/><g class="cls-17"><path class="cls-18" d="M470.37,528.19a89,89,0,1,1,89-89A89.06,89.06,0,0,1,470.37,528.19Zm0-174.48a85.52,85.52,0,1,0,85.52,85.52A85.61,85.61,0,0,0,470.37,353.71Z"/><path class="cls-18" d="M470.37,520.11a80.88,80.88,0,1,1,80.87-80.88A81,81,0,0,1,470.37,520.11Zm0-158.31a77.43,77.43,0,1,0,77.43,77.43A77.51,77.51,0,0,0,470.37,361.8Z"/><path class="cls-18" d="M470.37,512a72.79,72.79,0,1,1,72.79-72.79A72.87,72.87,0,0,1,470.37,512Zm0-142.13a69.34,69.34,0,1,0,69.34,69.34A69.42,69.42,0,0,0,470.37,369.89Z"/><path class="cls-18" d="M470.37,503.93a64.7,64.7,0,1,1,64.7-64.7A64.77,64.77,0,0,1,470.37,503.93Zm0-125.95a61.25,61.25,0,1,0,61.25,61.25A61.32,61.32,0,0,0,470.37,378Z"/><path class="cls-18" d="M470.37,495.84A56.61,56.61,0,1,1,527,439.23,56.67,56.67,0,0,1,470.37,495.84Zm0-109.78a53.17,53.17,0,1,0,53.16,53.17A53.23,53.23,0,0,0,470.37,386.06Z"/><path class="cls-18" d="M470.37,487.75a48.52,48.52,0,1,1,48.52-48.52A48.57,48.57,0,0,1,470.37,487.75Zm0-93.6a45.08,45.08,0,1,0,45.07,45.08A45.13,45.13,0,0,0,470.37,394.15Z"/><path class="cls-18" d="M470.37,479.66a40.43,40.43,0,1,1,40.43-40.43A40.48,40.48,0,0,1,470.37,479.66Zm0-77.42a37,37,0,1,0,37,37A37,37,0,0,0,470.37,402.24Z"/><path class="cls-18" d="M470.37,471.58a32.35,32.35,0,1,1,32.34-32.35A32.38,32.38,0,0,1,470.37,471.58Zm0-61.25a28.9,28.9,0,1,0,28.9,28.9A28.93,28.93,0,0,0,470.37,410.33Z"/><path class="cls-18" d="M470.37,463.49a24.26,24.26,0,1,1,24.26-24.26A24.28,24.28,0,0,1,470.37,463.49Zm0-45.07a20.81,20.81,0,1,0,20.81,20.81A20.83,20.83,0,0,0,470.37,418.42Z"/><path class="cls-18" d="M470.37,455.4a16.17,16.17,0,1,1,16.17-16.17A16.18,16.18,0,0,1,470.37,455.4Zm0-28.89a12.72,12.72,0,1,0,12.72,12.72A12.74,12.74,0,0,0,470.37,426.51Z"/></g><path class="cls-19" d="M92.22,419.6h0a1.72,1.72,0,0,1-1.73-1.73v-8a1.73,1.73,0,0,1,1.73-1.74h6.24a1.73,1.73,0,0,0,1.74-1.73v-6.24a1.72,1.72,0,0,1,1.73-1.73h6.24a1.73,1.73,0,0,0,1.73-1.74v-6.24a1.73,1.73,0,0,1,1.74-1.73h6.24a1.73,1.73,0,0,0,1.73-1.74v-6.24a1.74,1.74,0,0,1,1.73-1.73h6.25a1.74,1.74,0,0,0,1.73-1.73v-6.24a1.73,1.73,0,0,1,1.73-1.74h8a1.74,1.74,0,0,1,1.73,1.74h0A1.74,1.74,0,0,1,139,372.8h-4.51a1.73,1.73,0,0,0-1.73,1.73v6.24a1.74,1.74,0,0,1-1.74,1.74h-6.24a1.72,1.72,0,0,0-1.73,1.73v6.24a1.74,1.74,0,0,1-1.74,1.74H115.1a1.74,1.74,0,0,0-1.73,1.74v6.24a1.73,1.73,0,0,1-1.73,1.73H105.4a1.74,1.74,0,0,0-1.74,1.74v6.24a1.73,1.73,0,0,1-1.73,1.73H95.69A1.73,1.73,0,0,0,94,413.36v4.51A1.73,1.73,0,0,1,92.22,419.6Z"/><path class="cls-20" d="M357.08.64s12,111.91-151.78,96c-132.47-12.87-81,126.2-188.7,128.06-71.56,1.24-66.27-111-141.6-9.39V.06Z"/><path class="cls-20" d="M311.92.53s0,100-118.57,77.8C68.14,54.88,115.29,192.7,11.48,194.21c-69,1-81.82-85.8-136.48-19.7V.06Z"/><path class="cls-21" d="M87,327.51a7.89,7.89,0,1,1,7.75-8A7.9,7.9,0,0,1,87,327.51Zm-.22-12.12A4.24,4.24,0,1,0,91,319.55,4.25,4.25,0,0,0,86.73,315.39Z"/><path class="cls-22" d="M337,101.73a3.95,3.95,0,1,1,3.87-4A3.94,3.94,0,0,1,337,101.73Zm-.11-6.06A2.12,2.12,0,1,0,339,97.75,2.12,2.12,0,0,0,336.86,95.67Z"/><path class="cls-23" d="M388.3,266a3.95,3.95,0,1,1,3.88-4A4,4,0,0,1,388.3,266Zm-.1-6.06a2.12,2.12,0,1,0,2.15,2.08A2.11,2.11,0,0,0,388.2,259.92Z"/><path class="cls-19" d="M456.73,135.81a12.26,12.26,0,1,1,12-12.47A12.28,12.28,0,0,1,456.73,135.81ZM456.41,117a6.58,6.58,0,1,0,6.68,6.46A6.57,6.57,0,0,0,456.41,117Z"/><path class="cls-19" d="M234.57,424.37a12.26,12.26,0,1,1,12-12.47A12.27,12.27,0,0,1,234.57,424.37Zm-.33-18.83a6.58,6.58,0,1,0,6.69,6.46A6.58,6.58,0,0,0,234.24,405.54Z"/><path class="cls-19" d="M234.56,115.77a6.57,6.57,0,1,1,6.46-6.68A6.57,6.57,0,0,1,234.56,115.77Zm-.17-10.09a3.53,3.53,0,1,0,3.58,3.46A3.53,3.53,0,0,0,234.39,105.68Z"/><polygon class="cls-19" points="376.03 90.96 367.05 81.97 376.03 72.98 378.57 75.52 372.12 81.97 378.57 88.42 376.03 90.96"/><polygon class="cls-19" points="387.15 90.96 378.17 81.97 387.15 72.98 389.69 75.52 383.24 81.97 389.69 88.42 387.15 90.96"/><polygon class="cls-19" points="398.28 90.96 389.29 81.97 398.28 72.98 400.81 75.52 394.37 81.97 400.81 88.42 398.28 90.96"/><polygon class="cls-19" points="409.4 90.96 400.41 81.97 409.4 72.98 411.94 75.52 405.49 81.97 411.94 88.42 409.4 90.96"/><path class="cls-24" d="M152.7,500s8.93-78.32,84-58.9c112.63,29.16,86.25-33,174.75-28.79,82.24,3.9,81.85,87.69,81.85,87.69Z"/><path class="cls-25" d="M333.2,500s-2.81-42.25,43.91-42.25,83.06-1.52,93.48-64.9c8.49-51.67,88.67-52.3,106.21-10S625,425.05,625,425.05V500Z"/><path class="cls-26" d="M425.74,276.35a2.43,2.43,0,1,1-2.43-2.43A2.43,2.43,0,0,1,425.74,276.35Z"/><path class="cls-27" d="M437.62,276.35a2.43,2.43,0,1,1-2.43-2.43A2.43,2.43,0,0,1,437.62,276.35Z"/><path class="cls-28" d="M449.5,276.35a2.43,2.43,0,1,1-2.43-2.43A2.43,2.43,0,0,1,449.5,276.35Z"/><path class="cls-29" d="M461.38,276.35a2.43,2.43,0,1,1-2.43-2.43A2.43,2.43,0,0,1,461.38,276.35Z"/><path class="cls-30" d="M473.26,276.35a2.43,2.43,0,1,1-2.43-2.43A2.43,2.43,0,0,1,473.26,276.35Z"/><path class="cls-31" d="M485.14,276.35a2.43,2.43,0,1,1-2.43-2.43A2.43,2.43,0,0,1,485.14,276.35Z"/><circle class="cls-32" cx="423.31" cy="288.39" r="2.43"/><path class="cls-33" d="M437.62,288.39a2.43,2.43,0,1,1-2.43-2.43A2.43,2.43,0,0,1,437.62,288.39Z"/><path class="cls-34" d="M449.5,288.39a2.43,2.43,0,1,1-2.43-2.43A2.43,2.43,0,0,1,449.5,288.39Z"/><circle class="cls-35" cx="458.95" cy="288.39" r="2.43"/><circle class="cls-36" cx="470.83" cy="288.39" r="2.43"/><circle class="cls-37" cx="482.71" cy="288.39" r="2.43"/><path class="cls-38" d="M425.74,300.43a2.43,2.43,0,1,1-2.43-2.43A2.43,2.43,0,0,1,425.74,300.43Z"/><path class="cls-39" d="M437.62,300.43a2.43,2.43,0,1,1-2.43-2.43A2.43,2.43,0,0,1,437.62,300.43Z"/><path class="cls-40" d="M449.5,300.43a2.43,2.43,0,1,1-2.43-2.43A2.43,2.43,0,0,1,449.5,300.43Z"/><path class="cls-41" d="M461.38,300.43A2.43,2.43,0,1,1,459,298,2.43,2.43,0,0,1,461.38,300.43Z"/><path class="cls-42" d="M473.26,300.43a2.43,2.43,0,1,1-2.43-2.43A2.43,2.43,0,0,1,473.26,300.43Z"/><path class="cls-43" d="M485.14,300.43a2.43,2.43,0,1,1-2.43-2.43A2.43,2.43,0,0,1,485.14,300.43Z"/><path class="cls-44" d="M425.74,312.47a2.43,2.43,0,1,1-2.43-2.43A2.43,2.43,0,0,1,425.74,312.47Z"/><path class="cls-45" d="M437.62,312.47a2.43,2.43,0,1,1-2.43-2.43A2.43,2.43,0,0,1,437.62,312.47Z"/><path class="cls-46" d="M449.5,312.47a2.43,2.43,0,1,1-2.43-2.43A2.43,2.43,0,0,1,449.5,312.47Z"/><path class="cls-47" d="M461.38,312.47A2.43,2.43,0,1,1,459,310,2.43,2.43,0,0,1,461.38,312.47Z"/><path class="cls-48" d="M473.26,312.47a2.43,2.43,0,1,1-2.43-2.43A2.43,2.43,0,0,1,473.26,312.47Z"/><path class="cls-49" d="M485.14,312.47a2.43,2.43,0,1,1-2.43-2.43A2.43,2.43,0,0,1,485.14,312.47Z"/><circle class="cls-50" cx="423.31" cy="324.51" r="2.43"/><path class="cls-51" d="M437.62,324.51a2.43,2.43,0,1,1-2.43-2.43A2.43,2.43,0,0,1,437.62,324.51Z"/><path class="cls-52" d="M449.5,324.51a2.43,2.43,0,1,1-2.43-2.43A2.43,2.43,0,0,1,449.5,324.51Z"/><circle class="cls-53" cx="458.95" cy="324.51" r="2.43"/><circle class="cls-54" cx="470.83" cy="324.51" r="2.43"/><circle class="cls-55" cx="482.71" cy="324.51" r="2.43"/><path class="cls-56" d="M57.67,200.39l-92.33,92.33a11.62,11.62,0,0,1-16.42,0h0a11.6,11.6,0,0,1,0-16.42L41.25,184a11.62,11.62,0,0,1,16.42,0h0A11.62,11.62,0,0,1,57.67,200.39Z"/><polygon class="cls-57" points="157.3 437.09 148.93 428.72 157.3 420.36 152.11 415.17 143.74 423.54 135.37 415.17 130.19 420.36 138.56 428.72 130.19 437.09 135.37 442.28 143.74 433.91 152.11 442.28 157.3 437.09"/><polygon class="cls-58" points="474.93 212 466.56 203.63 474.93 195.26 469.75 190.08 461.38 198.45 453.01 190.08 447.82 195.26 456.19 203.63 447.82 212 453.01 217.19 461.38 208.82 469.75 217.19 474.93 212"/><polygon class="cls-59" points="91.56 235.97 86.37 230.79 78 239.16 69.64 230.79 64.45 235.97 72.82 244.34 64.45 252.71 69.64 257.9 78 249.53 86.37 257.9 91.56 252.71 83.19 244.34 91.56 235.97"/><path class="cls-60" d="M291.29,0s15.58,84.92-116.94,66.32C83.2,53.53,107,130.82,41.77,161.37-21.82,191.16-70,99.79-125,167.48V.62Z"/><path class="cls-61" d="M228.83.55s2.62,63.84-90,38C69.38,19.18,51.7,101.18-3.33,101.18c-40.35,0-89.54-23.87-74.94-100.63Z"/><path class="cls-62" d="M-125,353s59.49-24.19,77.29,27.35S59.78,354.41,59.78,433.73C59.78,479.14,141.15,447,120,500H-125Z"/><path class="cls-63" d="M73.89,500A83.15,83.15,0,0,0-8.06,430.88,83.15,83.15,0,0,0-90,500Z"/><path class="cls-2" d="M27.74,16.58a2.88,2.88,0,1,1-2.88-2.88A2.88,2.88,0,0,1,27.74,16.58Z"/><path class="cls-2" d="M41.82,16.58a2.88,2.88,0,1,1-2.88-2.88A2.88,2.88,0,0,1,41.82,16.58Z"/><path class="cls-2" d="M55.9,16.58A2.88,2.88,0,1,1,53,13.7,2.88,2.88,0,0,1,55.9,16.58Z"/><path class="cls-2" d="M70,16.58A2.88,2.88,0,1,1,67.1,13.7,2.87,2.87,0,0,1,70,16.58Z"/><path class="cls-2" d="M84.07,16.58a2.88,2.88,0,1,1-2.88-2.88A2.88,2.88,0,0,1,84.07,16.58Z"/><path class="cls-2" d="M98.15,16.58a2.88,2.88,0,1,1-2.88-2.88A2.88,2.88,0,0,1,98.15,16.58Z"/><path class="cls-2" d="M27.74,30.85A2.88,2.88,0,1,1,24.86,28,2.88,2.88,0,0,1,27.74,30.85Z"/><path class="cls-2" d="M41.82,30.85A2.88,2.88,0,1,1,38.94,28,2.88,2.88,0,0,1,41.82,30.85Z"/><path class="cls-2" d="M55.9,30.85A2.88,2.88,0,1,1,53,28,2.88,2.88,0,0,1,55.9,30.85Z"/><path class="cls-2" d="M70,30.85A2.88,2.88,0,1,1,67.1,28,2.87,2.87,0,0,1,70,30.85Z"/><path class="cls-2" d="M84.07,30.85A2.88,2.88,0,1,1,81.19,28,2.88,2.88,0,0,1,84.07,30.85Z"/><path class="cls-2" d="M98.15,30.85A2.88,2.88,0,1,1,95.27,28,2.88,2.88,0,0,1,98.15,30.85Z"/><path class="cls-2" d="M27.74,45.12a2.88,2.88,0,1,1-2.88-2.88A2.88,2.88,0,0,1,27.74,45.12Z"/><path class="cls-2" d="M41.82,45.12a2.88,2.88,0,1,1-2.88-2.88A2.88,2.88,0,0,1,41.82,45.12Z"/><path class="cls-2" d="M55.9,45.12A2.88,2.88,0,1,1,53,42.24,2.88,2.88,0,0,1,55.9,45.12Z"/><path class="cls-2" d="M70,45.12a2.88,2.88,0,1,1-2.88-2.88A2.87,2.87,0,0,1,70,45.12Z"/><path class="cls-2" d="M84.07,45.12a2.88,2.88,0,1,1-2.88-2.88A2.88,2.88,0,0,1,84.07,45.12Z"/><path class="cls-2" d="M98.15,45.12a2.88,2.88,0,1,1-2.88-2.88A2.88,2.88,0,0,1,98.15,45.12Z"/><path class="cls-2" d="M27.74,59.39a2.88,2.88,0,1,1-2.88-2.88A2.88,2.88,0,0,1,27.74,59.39Z"/><path class="cls-2" d="M41.82,59.39a2.88,2.88,0,1,1-2.88-2.88A2.88,2.88,0,0,1,41.82,59.39Z"/><path class="cls-2" d="M55.9,59.39A2.88,2.88,0,1,1,53,56.51,2.88,2.88,0,0,1,55.9,59.39Z"/><path class="cls-2" d="M70,59.39a2.88,2.88,0,1,1-2.88-2.88A2.87,2.87,0,0,1,70,59.39Z"/><path class="cls-2" d="M84.07,59.39a2.88,2.88,0,1,1-2.88-2.88A2.88,2.88,0,0,1,84.07,59.39Z"/><path class="cls-2" d="M98.15,59.39a2.88,2.88,0,1,1-2.88-2.88A2.88,2.88,0,0,1,98.15,59.39Z"/><path class="cls-2" d="M27.74,73.66a2.88,2.88,0,1,1-2.88-2.88A2.88,2.88,0,0,1,27.74,73.66Z"/><path class="cls-2" d="M41.82,73.66a2.88,2.88,0,1,1-2.88-2.88A2.88,2.88,0,0,1,41.82,73.66Z"/><path class="cls-2" d="M55.9,73.66A2.88,2.88,0,1,1,53,70.78,2.88,2.88,0,0,1,55.9,73.66Z"/><path class="cls-2" d="M70,73.66a2.88,2.88,0,1,1-2.88-2.88A2.87,2.87,0,0,1,70,73.66Z"/><path class="cls-2" d="M84.07,73.66a2.88,2.88,0,1,1-2.88-2.88A2.88,2.88,0,0,1,84.07,73.66Z"/><path class="cls-2" d="M98.15,73.66a2.88,2.88,0,1,1-2.88-2.88A2.88,2.88,0,0,1,98.15,73.66Z"/><path class="cls-19" d="M422.47,228.67,420,231.14l-2.47-2.47a1.55,1.55,0,0,0-2.19,2.19l2.47,2.47-2.47,2.46a1.56,1.56,0,0,0,0,2.19,1.54,1.54,0,0,0,2.19,0l2.47-2.46,2.46,2.46a1.55,1.55,0,1,0,2.19-2.19l-2.46-2.46,2.46-2.47a1.54,1.54,0,0,0,0-2.19A1.56,1.56,0,0,0,422.47,228.67Z"/><path class="cls-19" d="M284.57,383.62h-3.49v-3.49a1.55,1.55,0,0,0-3.09,0v3.49H274.5a1.55,1.55,0,0,0,0,3.1H278v3.48a1.55,1.55,0,1,0,3.09,0v-3.48h3.49a1.55,1.55,0,0,0,0-3.1Z"/><path class="cls-64" d="M483,157.36h-3.49v-3.49a1.55,1.55,0,1,0-3.1,0v3.49H473a1.55,1.55,0,0,0,0,3.1h3.48v3.48a1.55,1.55,0,0,0,3.1,0v-3.48H483a1.55,1.55,0,0,0,0-3.1Z"/><path class="cls-65" d="M372-.25s-2.93,44.37,44.5,36c51-9,43.94,43.27,88.47,43.27,36.53,0,19-49.78,51-54S580.74-.75,580.74-.75Z"/><path class="cls-66" d="M440.46,0a56.7,56.7,0,0,0,55.62,45.72A56.69,56.69,0,0,0,551.7,0Z"/></g></g></g></g></g></svg>