<svg xmlns="http://www.w3.org/2000/svg" xmlns:xlink="http://www.w3.org/1999/xlink" viewBox="0 0 500 500"><defs><style>.cls-1{fill:none;}.cls-2{fill:#fafafa;}.cls-3{clip-path:url(#clip-path);}.cls-4{fill:url(#linear-gradient);}.cls-5{fill:url(#linear-gradient-2);}.cls-6{fill:url(#linear-gradient-3);}.cls-7{fill:url(#linear-gradient-4);}.cls-8{fill:url(#linear-gradient-5);}.cls-9{fill:url(#linear-gradient-6);}.cls-10{fill:url(#linear-gradient-7);}.cls-11{fill:url(#linear-gradient-8);}.cls-12{fill:url(#linear-gradient-9);}.cls-13{fill:url(#linear-gradient-10);}.cls-14{fill:url(#linear-gradient-11);}.cls-15{opacity:0.5;}.cls-16{fill:#bdbdbd;}.cls-17{fill:#616161;opacity:0.09;}.cls-18{fill:url(#linear-gradient-12);}.cls-19{fill:url(#linear-gradient-13);}.cls-20{fill:url(#linear-gradient-14);}.cls-21{fill:url(#linear-gradient-15);}.cls-22{fill:url(#linear-gradient-16);}.cls-23{fill:url(#linear-gradient-17);}.cls-24{fill:url(#linear-gradient-18);}.cls-25{fill:url(#linear-gradient-19);}.cls-26{fill:url(#linear-gradient-20);}</style><clipPath id="clip-path"><rect class="cls-1" width="500" height="500"/></clipPath><linearGradient id="linear-gradient" x1="98.4" y1="223.38" x2="-19.61" y2="333.39" gradientTransform="matrix(1.16, -0.16, -0.16, 1.16, -18.99, 18.99)" gradientUnits="userSpaceOnUse"><stop offset="0.01" stop-color="#ff0068"/><stop offset="1" stop-color="#ffc107"/></linearGradient><linearGradient id="linear-gradient-2" x1="404.09" y1="-5.86" x2="485.19" y2="50.92" gradientTransform="matrix(1, 0, 0, 1, 0, 0)" xlink:href="#linear-gradient"/><linearGradient id="linear-gradient-3" x1="407.77" y1="-3.28" x2="481.5" y2="48.34" gradientTransform="matrix(1, 0, 0, 1, 0, 0)" xlink:href="#linear-gradient"/><linearGradient id="linear-gradient-4" x1="411.46" y1="-0.7" x2="477.82" y2="45.75" gradientTransform="matrix(1, 0, 0, 1, 0, 0)" xlink:href="#linear-gradient"/><linearGradient id="linear-gradient-5" x1="415.15" y1="1.88" x2="474.13" y2="43.17" gradientTransform="matrix(1, 0, 0, 1, 0, 0)" xlink:href="#linear-gradient"/><linearGradient id="linear-gradient-6" x1="418.83" y1="4.47" x2="470.44" y2="40.59" gradientTransform="matrix(1, 0, 0, 1, 0, 0)" xlink:href="#linear-gradient"/><linearGradient id="linear-gradient-7" x1="422.52" y1="7.05" x2="466.76" y2="38.01" gradientTransform="matrix(1, 0, 0, 1, 0, 0)" xlink:href="#linear-gradient"/><linearGradient id="linear-gradient-8" x1="426.21" y1="9.63" x2="463.07" y2="35.43" gradientTransform="matrix(1, 0, 0, 1, 0, 0)" xlink:href="#linear-gradient"/><linearGradient id="linear-gradient-9" x1="429.9" y1="12.21" x2="459.38" y2="32.85" gradientTransform="matrix(1, 0, 0, 1, 0, 0)" xlink:href="#linear-gradient"/><linearGradient id="linear-gradient-10" x1="433.58" y1="14.79" x2="455.7" y2="30.27" gradientTransform="matrix(1, 0, 0, 1, 0, 0)" xlink:href="#linear-gradient"/><linearGradient id="linear-gradient-11" x1="437.27" y1="17.37" x2="452.01" y2="27.69" gradientTransform="matrix(1, 0, 0, 1, 0, 0)" xlink:href="#linear-gradient"/><linearGradient id="linear-gradient-12" x1="281.05" y1="430.38" x2="368.05" y2="540.38" gradientUnits="userSpaceOnUse"><stop offset="0" stop-color="#f70068"/><stop offset="1" stop-color="#441066"/></linearGradient><linearGradient id="linear-gradient-13" x1="441.81" y1="381.72" x2="513.81" y2="537.72" xlink:href="#linear-gradient-12"/><linearGradient id="linear-gradient-14" x1="37.69" y1="198.91" x2="-73.3" y2="319.9" gradientTransform="matrix(1.03, -0.03, -0.03, 1.03, 30.81, -30.81)" xlink:href="#linear-gradient-12"/><linearGradient id="linear-gradient-15" x1="101.06" y1="130.76" x2="39.43" y2="-31.01" xlink:href="#linear-gradient-12"/><linearGradient id="linear-gradient-16" x1="85.9" y1="63.82" x2="62.79" y2="-20.92" xlink:href="#linear-gradient-12"/><linearGradient id="linear-gradient-17" x1="-32.39" y1="488.2" x2="46.61" y2="325.2" gradientUnits="userSpaceOnUse"><stop offset="0" stop-color="#441066"/><stop offset="1" stop-color="#a9008d"/></linearGradient><linearGradient id="linear-gradient-18" x1="-28.75" y1="528.33" x2="49.25" y2="400.33" xlink:href="#linear-gradient-17"/><linearGradient id="linear-gradient-19" x1="481.13" y1="-3.25" x2="434.13" y2="78.75" xlink:href="#linear-gradient-17"/><linearGradient id="linear-gradient-20" x1="496.18" y1="-0.99" x2="490.76" y2="54.53" xlink:href="#linear-gradient-17"/></defs><title>Artboard 1</title><g id="BACKGROUND_1" data-name="BACKGROUND 1"><g id="ELEMENT"><rect id="RECTANGLE" class="cls-2" width="500" height="500"/><g id="ELEMENT-2" data-name="ELEMENT"><g id="ELEMENT-3" data-name="ELEMENT"><g class="cls-3"><path class="cls-4" d="M51.61,300.88-82.21,434.7a25.07,25.07,0,0,1-35.45,0h0a25.07,25.07,0,0,1,0-35.45L16.16,265.43a25.07,25.07,0,0,1,35.45,0h0A25.07,25.07,0,0,1,51.61,300.88Z"/><path class="cls-5" d="M444.64,72.05a49.52,49.52,0,1,1,49.52-49.52A49.58,49.58,0,0,1,444.64,72.05Zm0-97.12a47.6,47.6,0,1,0,47.6,47.6A47.65,47.65,0,0,0,444.64-25.07Z"/><path class="cls-6" d="M444.64,67.54a45,45,0,1,1,45-45A45.07,45.07,0,0,1,444.64,67.54Zm0-88.11a43.1,43.1,0,1,0,43.1,43.1A43.16,43.16,0,0,0,444.64-20.57Z"/><path class="cls-7" d="M444.64,63a40.51,40.51,0,1,1,40.51-40.51A40.55,40.55,0,0,1,444.64,63Zm0-79.11a38.6,38.6,0,1,0,38.6,38.6A38.65,38.65,0,0,0,444.64-16.07Z"/><path class="cls-8" d="M444.64,58.54a36,36,0,1,1,36-36A36,36,0,0,1,444.64,58.54Zm0-70.1a34.09,34.09,0,1,0,34.09,34.09A34.13,34.13,0,0,0,444.64-11.56Z"/><path class="cls-9" d="M444.64,54a31.51,31.51,0,1,1,31.51-31.51A31.55,31.55,0,0,1,444.64,54Zm0-61.1a29.59,29.59,0,1,0,29.59,29.59A29.62,29.62,0,0,0,444.64-7.06Z"/><path class="cls-10" d="M444.64,49.54a27,27,0,1,1,27-27A27,27,0,0,1,444.64,49.54Zm0-52.1a25.09,25.09,0,1,0,25.09,25.09A25.12,25.12,0,0,0,444.64-2.56Z"/><path class="cls-11" d="M444.64,45a22.51,22.51,0,1,1,22.5-22.51A22.54,22.54,0,0,1,444.64,45Zm0-43.1a20.59,20.59,0,1,0,20.59,20.59A20.62,20.62,0,0,0,444.64,1.94Z"/><path class="cls-12" d="M444.64,40.53a18,18,0,1,1,18-18A18,18,0,0,1,444.64,40.53Zm0-34.09a16.09,16.09,0,1,0,16.09,16.09A16.11,16.11,0,0,0,444.64,6.44Z"/><path class="cls-13" d="M444.64,36a13.5,13.5,0,1,1,13.5-13.5A13.51,13.51,0,0,1,444.64,36Zm0-25.08a11.58,11.58,0,1,0,11.58,11.58A11.59,11.59,0,0,0,444.64,11Z"/><path class="cls-14" d="M444.64,31.53a9,9,0,1,1,9-9A9,9,0,0,1,444.64,31.53Zm0-16.08a7.08,7.08,0,1,0,7.08,7.08A7.08,7.08,0,0,0,444.64,15.45Z"/><g class="cls-15"><path class="cls-16" d="M470.37,528.19a89,89,0,1,1,89-89A89.06,89.06,0,0,1,470.37,528.19Zm0-174.48a85.52,85.52,0,1,0,85.52,85.52A85.61,85.61,0,0,0,470.37,353.71Z"/><path class="cls-16" d="M470.37,520.11a80.88,80.88,0,1,1,80.87-80.88A81,81,0,0,1,470.37,520.11Zm0-158.31a77.43,77.43,0,1,0,77.43,77.43A77.51,77.51,0,0,0,470.37,361.8Z"/><path class="cls-16" d="M470.37,512a72.79,72.79,0,1,1,72.79-72.79A72.87,72.87,0,0,1,470.37,512Zm0-142.13a69.34,69.34,0,1,0,69.34,69.34A69.42,69.42,0,0,0,470.37,369.89Z"/><path class="cls-16" d="M470.37,503.93a64.7,64.7,0,1,1,64.7-64.7A64.77,64.77,0,0,1,470.37,503.93Zm0-125.95a61.25,61.25,0,1,0,61.25,61.25A61.32,61.32,0,0,0,470.37,378Z"/><path class="cls-16" d="M470.37,495.84A56.61,56.61,0,1,1,527,439.23,56.67,56.67,0,0,1,470.37,495.84Zm0-109.78a53.17,53.17,0,1,0,53.16,53.17A53.23,53.23,0,0,0,470.37,386.06Z"/><path class="cls-16" d="M470.37,487.75a48.52,48.52,0,1,1,48.52-48.52A48.57,48.57,0,0,1,470.37,487.75Zm0-93.6a45.08,45.08,0,1,0,45.07,45.08A45.13,45.13,0,0,0,470.37,394.15Z"/><path class="cls-16" d="M470.37,479.66a40.43,40.43,0,1,1,40.43-40.43A40.48,40.48,0,0,1,470.37,479.66Zm0-77.42a37,37,0,1,0,37,37A37,37,0,0,0,470.37,402.24Z"/><path class="cls-16" d="M470.37,471.58a32.35,32.35,0,1,1,32.34-32.35A32.38,32.38,0,0,1,470.37,471.58Zm0-61.25a28.9,28.9,0,1,0,28.9,28.9A28.93,28.93,0,0,0,470.37,410.33Z"/><path class="cls-16" d="M470.37,463.49a24.26,24.26,0,1,1,24.26-24.26A24.28,24.28,0,0,1,470.37,463.49Zm0-45.07a20.81,20.81,0,1,0,20.81,20.81A20.83,20.83,0,0,0,470.37,418.42Z"/><path class="cls-16" d="M470.37,455.4a16.17,16.17,0,1,1,16.17-16.17A16.18,16.18,0,0,1,470.37,455.4Zm0-28.89a12.72,12.72,0,1,0,12.72,12.72A12.74,12.74,0,0,0,470.37,426.51Z"/></g><path class="cls-17" d="M357.08.64s12,111.91-151.78,96c-132.47-12.87-81,126.2-188.7,128.06-71.56,1.24-66.27-111-141.6-9.39V.06Z"/><path class="cls-17" d="M311.92.53s0,100-118.57,77.8C68.14,54.88,115.29,192.7,11.48,194.21c-69,1-81.82-85.8-136.48-19.7V.06Z"/><path class="cls-18" d="M152.7,500s8.93-78.32,84-58.9c112.63,29.16,86.25-33,174.75-28.79,82.24,3.9,81.85,87.69,81.85,87.69Z"/><path class="cls-19" d="M333.2,500s-2.81-42.25,43.91-42.25,83.06-1.52,93.48-64.9c8.49-51.67,88.67-52.3,106.21-10S625,425.05,625,425.05V500Z"/><path class="cls-20" d="M57.67,200.39l-92.33,92.33a11.62,11.62,0,0,1-16.42,0h0a11.6,11.6,0,0,1,0-16.42L41.25,184a11.62,11.62,0,0,1,16.42,0h0A11.62,11.62,0,0,1,57.67,200.39Z"/><path class="cls-21" d="M291.29,0s15.58,84.92-116.94,66.32C83.2,53.53,107,130.82,41.77,161.37-21.82,191.16-70,99.79-125,167.48V.62Z"/><path class="cls-22" d="M228.83.55s2.62,63.84-90,38C69.38,19.18,51.7,101.18-3.33,101.18c-40.35,0-89.54-23.87-74.94-100.63Z"/><path class="cls-23" d="M-125,353s59.49-24.19,77.29,27.35S59.78,354.41,59.78,433.73C59.78,479.14,141.15,447,120,500H-125Z"/><path class="cls-24" d="M73.89,500A83.15,83.15,0,0,0-8.06,430.88,83.15,83.15,0,0,0-90,500Z"/><path class="cls-2" d="M27.74,16.58a2.88,2.88,0,1,1-2.88-2.88A2.88,2.88,0,0,1,27.74,16.58Z"/><path class="cls-2" d="M41.82,16.58a2.88,2.88,0,1,1-2.88-2.88A2.88,2.88,0,0,1,41.82,16.58Z"/><path class="cls-2" d="M55.9,16.58A2.88,2.88,0,1,1,53,13.7,2.88,2.88,0,0,1,55.9,16.58Z"/><path class="cls-2" d="M70,16.58A2.88,2.88,0,1,1,67.1,13.7,2.87,2.87,0,0,1,70,16.58Z"/><path class="cls-2" d="M84.07,16.58a2.88,2.88,0,1,1-2.88-2.88A2.88,2.88,0,0,1,84.07,16.58Z"/><path class="cls-2" d="M98.15,16.58a2.88,2.88,0,1,1-2.88-2.88A2.88,2.88,0,0,1,98.15,16.58Z"/><path class="cls-2" d="M27.74,30.85A2.88,2.88,0,1,1,24.86,28,2.88,2.88,0,0,1,27.74,30.85Z"/><path class="cls-2" d="M41.82,30.85A2.88,2.88,0,1,1,38.94,28,2.88,2.88,0,0,1,41.82,30.85Z"/><path class="cls-2" d="M55.9,30.85A2.88,2.88,0,1,1,53,28,2.88,2.88,0,0,1,55.9,30.85Z"/><path class="cls-2" d="M70,30.85A2.88,2.88,0,1,1,67.1,28,2.87,2.87,0,0,1,70,30.85Z"/><path class="cls-2" d="M84.07,30.85A2.88,2.88,0,1,1,81.19,28,2.88,2.88,0,0,1,84.07,30.85Z"/><path class="cls-2" d="M98.15,30.85A2.88,2.88,0,1,1,95.27,28,2.88,2.88,0,0,1,98.15,30.85Z"/><path class="cls-2" d="M27.74,45.12a2.88,2.88,0,1,1-2.88-2.88A2.88,2.88,0,0,1,27.74,45.12Z"/><path class="cls-2" d="M41.82,45.12a2.88,2.88,0,1,1-2.88-2.88A2.88,2.88,0,0,1,41.82,45.12Z"/><path class="cls-2" d="M55.9,45.12A2.88,2.88,0,1,1,53,42.24,2.88,2.88,0,0,1,55.9,45.12Z"/><path class="cls-2" d="M70,45.12a2.88,2.88,0,1,1-2.88-2.88A2.87,2.87,0,0,1,70,45.12Z"/><path class="cls-2" d="M84.07,45.12a2.88,2.88,0,1,1-2.88-2.88A2.88,2.88,0,0,1,84.07,45.12Z"/><path class="cls-2" d="M98.15,45.12a2.88,2.88,0,1,1-2.88-2.88A2.88,2.88,0,0,1,98.15,45.12Z"/><path class="cls-2" d="M27.74,59.39a2.88,2.88,0,1,1-2.88-2.88A2.88,2.88,0,0,1,27.74,59.39Z"/><path class="cls-2" d="M41.82,59.39a2.88,2.88,0,1,1-2.88-2.88A2.88,2.88,0,0,1,41.82,59.39Z"/><path class="cls-2" d="M55.9,59.39A2.88,2.88,0,1,1,53,56.51,2.88,2.88,0,0,1,55.9,59.39Z"/><path class="cls-2" d="M70,59.39a2.88,2.88,0,1,1-2.88-2.88A2.87,2.87,0,0,1,70,59.39Z"/><path class="cls-2" d="M84.07,59.39a2.88,2.88,0,1,1-2.88-2.88A2.88,2.88,0,0,1,84.07,59.39Z"/><path class="cls-2" d="M98.15,59.39a2.88,2.88,0,1,1-2.88-2.88A2.88,2.88,0,0,1,98.15,59.39Z"/><path class="cls-2" d="M27.74,73.66a2.88,2.88,0,1,1-2.88-2.88A2.88,2.88,0,0,1,27.74,73.66Z"/><path class="cls-2" d="M41.82,73.66a2.88,2.88,0,1,1-2.88-2.88A2.88,2.88,0,0,1,41.82,73.66Z"/><path class="cls-2" d="M55.9,73.66A2.88,2.88,0,1,1,53,70.78,2.88,2.88,0,0,1,55.9,73.66Z"/><path class="cls-2" d="M70,73.66a2.88,2.88,0,1,1-2.88-2.88A2.87,2.87,0,0,1,70,73.66Z"/><path class="cls-2" d="M84.07,73.66a2.88,2.88,0,1,1-2.88-2.88A2.88,2.88,0,0,1,84.07,73.66Z"/><path class="cls-2" d="M98.15,73.66a2.88,2.88,0,1,1-2.88-2.88A2.88,2.88,0,0,1,98.15,73.66Z"/><path class="cls-25" d="M372-.25s-2.93,44.37,44.5,36c51-9,43.94,43.27,88.47,43.27,36.53,0,19-49.78,51-54S580.74-.75,580.74-.75Z"/><path class="cls-26" d="M440.46,0a56.7,56.7,0,0,0,55.62,45.72A56.69,56.69,0,0,0,551.7,0Z"/></g></g></g></g></g></svg>