<svg xmlns="http://www.w3.org/2000/svg" xmlns:xlink="http://www.w3.org/1999/xlink" viewBox="0 0 446.68 322.31"><defs><style>.cls-1{isolation:isolate;}.cls-2{fill:#dce8ef;}.cls-3{fill:url(#New_Gradient_Swatch_9);}.cls-4{fill:url(#New_Gradient_Swatch_16);}.cls-5{fill:url(#New_Gradient_Swatch_9-2);}.cls-6{fill:url(#New_Gradient_Swatch_9-3);}.cls-7{fill:url(#New_Gradient_Swatch_16-2);}.cls-8{fill:url(#New_Gradient_Swatch_9-4);}.cls-9{fill:url(#New_Gradient_Swatch_16-3);}.cls-10{fill:url(#New_Gradient_Swatch_16-4);}.cls-11{fill:url(#New_Gradient_Swatch_9-5);}.cls-12{fill:url(#New_Gradient_Swatch_16-5);}.cls-13{fill:url(#New_Gradient_Swatch_9-6);}.cls-14{fill:url(#New_Gradient_Swatch_9-7);}.cls-15{fill:url(#New_Gradient_Swatch_16-6);}.cls-16{fill:url(#New_Gradient_Swatch_9-8);}.cls-17{fill:url(#New_Gradient_Swatch_16-7);}.cls-18{fill:url(#New_Gradient_Swatch_16-8);}.cls-19{fill:url(#New_Gradient_Swatch_16-9);}.cls-20{fill:url(#New_Gradient_Swatch_9-9);}.cls-21{fill:url(#New_Gradient_Swatch_16-10);}.cls-22{fill:url(#New_Gradient_Swatch_9-10);}.cls-23{fill:url(#New_Gradient_Swatch_16-11);}.cls-24{fill:url(#New_Gradient_Swatch_9-11);}.cls-25{fill:url(#linear-gradient);}.cls-26{fill:url(#linear-gradient-2);}.cls-27{fill:url(#New_Gradient_Swatch_9-12);}.cls-28{fill:url(#New_Gradient_Swatch_16-12);}.cls-29{fill:url(#New_Gradient_Swatch_9-13);}.cls-30{fill:url(#New_Gradient_Swatch_9-14);}.cls-31{fill:url(#New_Gradient_Swatch_16-13);}.cls-32{fill:url(#New_Gradient_Swatch_9-15);}.cls-33{fill:url(#New_Gradient_Swatch_16-14);}.cls-34{fill:url(#New_Gradient_Swatch_16-15);}.cls-35{fill:url(#linear-gradient-3);}.cls-36{fill:url(#linear-gradient-4);}.cls-37{fill:#03254e;}.cls-38{fill:#11477c;}.cls-39{fill:url(#New_Gradient_Swatch_9-16);}.cls-40,.cls-46{fill:#c3d3dd;}.cls-40,.cls-49,.cls-52,.cls-60{mix-blend-mode:multiply;}.cls-41{fill:#f8fafb;}.cls-42{fill:#ced7e0;}.cls-43{fill:url(#linear-gradient-5);}.cls-44{fill:url(#New_Gradient_Swatch_9-17);}.cls-45{fill:#559dce;}.cls-47{fill:#a5b7c6;}.cls-48{fill:#f9fbfc;}.cls-49{fill:#e6e7e8;}.cls-50{fill:url(#linear-gradient-6);}.cls-51{fill:url(#linear-gradient-7);}.cls-53{fill:#bcbec0;}.cls-54{fill:url(#New_Gradient_Swatch_16-16);}.cls-55{fill:url(#New_Gradient_Swatch_16-17);}.cls-56{fill:url(#New_Gradient_Swatch_16-18);}.cls-57{fill:url(#New_Gradient_Swatch_16-19);}.cls-58{fill:url(#New_Gradient_Swatch_16-20);}.cls-59{fill:url(#New_Gradient_Swatch_16-21);}.cls-60{fill:#d1d3d4;}.cls-61{fill:url(#linear-gradient-8);}</style><linearGradient id="New_Gradient_Swatch_9" x1="365.04" y1="263.33" x2="385.97" y2="299.58" gradientUnits="userSpaceOnUse"><stop offset="0" stop-color="#29abe2"/><stop offset="1" stop-color="#00369f"/></linearGradient><linearGradient id="New_Gradient_Swatch_16" x1="366.88" y1="269.82" x2="383.39" y2="298.42" gradientUnits="userSpaceOnUse"><stop offset="0" stop-color="aqua"/><stop offset="0.15" stop-color="#18e6f7"/><stop offset="0.36" stop-color="#32cbee"/><stop offset="0.57" stop-color="#45b8e7"/><stop offset="0.78" stop-color="#50ace3"/><stop offset="1" stop-color="#54a8e2"/></linearGradient><linearGradient id="New_Gradient_Swatch_9-2" x1="407.3" y1="275.57" x2="419.84" y2="297.29" xlink:href="#New_Gradient_Swatch_9"/><linearGradient id="New_Gradient_Swatch_9-3" x1="374.33" y1="235.78" x2="409.99" y2="297.54" xlink:href="#New_Gradient_Swatch_9"/><linearGradient id="New_Gradient_Swatch_16-2" x1="378.88" y1="248.49" x2="406.46" y2="296.26" xlink:href="#New_Gradient_Swatch_16"/><linearGradient id="New_Gradient_Swatch_9-4" x1="378.9" y1="277.92" x2="391.99" y2="300.57" xlink:href="#New_Gradient_Swatch_9"/><linearGradient id="New_Gradient_Swatch_16-3" x1="382.41" y1="283.73" x2="391.1" y2="298.77" xlink:href="#New_Gradient_Swatch_16"/><linearGradient id="New_Gradient_Swatch_16-4" x1="408.34" y1="281.36" x2="416.61" y2="295.68" xlink:href="#New_Gradient_Swatch_16"/><linearGradient id="New_Gradient_Swatch_9-5" x1="21.48" y1="262.45" x2="44.76" y2="302.78" xlink:href="#New_Gradient_Swatch_9"/><linearGradient id="New_Gradient_Swatch_16-5" x1="23.52" y1="269.67" x2="41.89" y2="301.49" xlink:href="#New_Gradient_Swatch_16"/><linearGradient id="New_Gradient_Swatch_9-6" x1="68.49" y1="276.06" x2="82.44" y2="300.22" xlink:href="#New_Gradient_Swatch_9"/><linearGradient id="New_Gradient_Swatch_9-7" x1="31.81" y1="231.8" x2="71.48" y2="300.5" xlink:href="#New_Gradient_Swatch_9"/><linearGradient id="New_Gradient_Swatch_16-6" x1="36.87" y1="245.94" x2="67.55" y2="299.08" xlink:href="#New_Gradient_Swatch_16"/><linearGradient id="New_Gradient_Swatch_9-8" x1="36.9" y1="278.68" x2="51.45" y2="303.88" xlink:href="#New_Gradient_Swatch_9"/><linearGradient id="New_Gradient_Swatch_16-7" x1="40.8" y1="285.14" x2="50.47" y2="301.88" xlink:href="#New_Gradient_Swatch_16"/><linearGradient id="New_Gradient_Swatch_16-8" x1="69.65" y1="282.5" x2="78.85" y2="298.44" xlink:href="#New_Gradient_Swatch_16"/><linearGradient id="New_Gradient_Swatch_16-9" x1="29.08" y1="191.92" x2="80.47" y2="280.93" xlink:href="#New_Gradient_Swatch_16"/><linearGradient id="New_Gradient_Swatch_9-9" x1="31.58" y1="197.66" x2="89.54" y2="298.05" xlink:href="#New_Gradient_Swatch_9"/><linearGradient id="New_Gradient_Swatch_16-10" x1="397.95" y1="230.29" x2="428.82" y2="283.76" xlink:href="#New_Gradient_Swatch_16"/><linearGradient id="New_Gradient_Swatch_9-10" x1="395.46" y1="236.81" x2="425.42" y2="288.7" xlink:href="#New_Gradient_Swatch_9"/><linearGradient id="New_Gradient_Swatch_16-11" x1="420.21" y1="262.93" x2="436.53" y2="291.19" xlink:href="#New_Gradient_Swatch_16"/><linearGradient id="New_Gradient_Swatch_9-11" x1="416.32" y1="268" x2="430.28" y2="292.19" xlink:href="#New_Gradient_Swatch_9"/><linearGradient id="linear-gradient" x1="83.72" y1="268.95" x2="130.01" y2="349.13" gradientUnits="userSpaceOnUse"><stop offset="0" stop-color="#fbf04c"/><stop offset="0.25" stop-color="#fbd14c"/><stop offset="1" stop-color="#ff9342"/></linearGradient><linearGradient id="linear-gradient-2" x1="338.81" y1="279.31" x2="374.06" y2="340.37" xlink:href="#linear-gradient"/><linearGradient id="New_Gradient_Swatch_9-12" x1="317.67" y1="276.87" x2="330.48" y2="299.06" xlink:href="#New_Gradient_Swatch_9"/><linearGradient id="New_Gradient_Swatch_16-12" x1="318.79" y1="280.84" x2="328.9" y2="298.35" xlink:href="#New_Gradient_Swatch_16"/><linearGradient id="New_Gradient_Swatch_9-13" x1="343.53" y1="284.36" x2="351.21" y2="297.66" xlink:href="#New_Gradient_Swatch_9"/><linearGradient id="New_Gradient_Swatch_9-14" x1="323.35" y1="260.01" x2="345.18" y2="297.81" xlink:href="#New_Gradient_Swatch_9"/><linearGradient id="New_Gradient_Swatch_16-13" x1="326.14" y1="267.79" x2="343.02" y2="297.03" xlink:href="#New_Gradient_Swatch_16"/><linearGradient id="New_Gradient_Swatch_9-15" x1="326.15" y1="285.8" x2="334.16" y2="299.67" xlink:href="#New_Gradient_Swatch_9"/><linearGradient id="New_Gradient_Swatch_16-14" x1="328.3" y1="289.36" x2="333.62" y2="298.57" xlink:href="#New_Gradient_Swatch_16"/><linearGradient id="New_Gradient_Swatch_16-15" x1="344.17" y1="287.91" x2="349.24" y2="296.67" xlink:href="#New_Gradient_Swatch_16"/><linearGradient id="linear-gradient-3" x1="240.69" y1="268.95" x2="286.98" y2="349.13" xlink:href="#linear-gradient"/><linearGradient id="linear-gradient-4" x1="159.15" y1="21.33" x2="328.63" y2="314.88" gradientUnits="userSpaceOnUse"><stop offset="0" stop-color="#e1e9ee"/><stop offset="0.99" stop-color="#b1c6d3"/></linearGradient><linearGradient id="New_Gradient_Swatch_9-16" x1="170.13" y1="29.8" x2="317.66" y2="285.33" xlink:href="#New_Gradient_Swatch_9"/><linearGradient id="linear-gradient-5" x1="98.37" y1="230.23" x2="141.86" y2="305.55" xlink:href="#linear-gradient"/><linearGradient id="New_Gradient_Swatch_9-17" x1="80.05" y1="197.33" x2="123.53" y2="272.65" xlink:href="#New_Gradient_Swatch_9"/><linearGradient id="linear-gradient-6" x1="213.45" y1="85.67" x2="283.04" y2="206.2" xlink:href="#linear-gradient"/><linearGradient id="linear-gradient-7" x1="361.64" y1="205.54" x2="403.58" y2="278.19" gradientTransform="translate(524.03 -188.12) rotate(75.91)" xlink:href="#linear-gradient"/><linearGradient id="New_Gradient_Swatch_16-16" x1="200.56" y1="291.49" x2="203.82" y2="297.14" xlink:href="#New_Gradient_Swatch_16"/><linearGradient id="New_Gradient_Swatch_16-17" x1="205.65" y1="292.09" x2="208.35" y2="296.77" xlink:href="#New_Gradient_Swatch_16"/><linearGradient id="New_Gradient_Swatch_16-18" x1="209.59" y1="295.62" x2="210.28" y2="296.81" xlink:href="#New_Gradient_Swatch_16"/><linearGradient id="New_Gradient_Swatch_16-19" x1="187.72" y1="267.42" x2="202.05" y2="292.24" xlink:href="#New_Gradient_Swatch_16"/><linearGradient id="New_Gradient_Swatch_16-20" x1="217.94" y1="284.59" x2="223.73" y2="294.63" xlink:href="#New_Gradient_Swatch_16"/><linearGradient id="New_Gradient_Swatch_16-21" x1="210.25" y1="268.36" x2="220.12" y2="285.45" xlink:href="#New_Gradient_Swatch_16"/><linearGradient id="linear-gradient-8" x1="200.95" y1="293.03" x2="214.62" y2="316.7" xlink:href="#linear-gradient-4"/></defs><title>Asset 1</title><g class="cls-1"><g id="Layer_2" data-name="Layer 2"><g id="OBJECTS"><path class="cls-2" d="M437.58,312.39H5a5,5,0,0,0-5,5H0a5,5,0,0,0,5,5H437.58a5,5,0,0,0,5-5h0A5,5,0,0,0,437.58,312.39Z"/><path class="cls-3" d="M385.19,300H374.52c0-5.72-3.77-11.36-6.59-16.16l-.27-.47c-2.42-4.19-5.58-8.08-6.51-13a6.57,6.57,0,0,1,.34-4.23,5.57,5.57,0,0,1,3.64-2.63C382.91,259,386.62,282.76,385.19,300Z"/><path class="cls-4" d="M380.6,300h-.45a49.85,49.85,0,0,0-.69-7.22,53.64,53.64,0,0,0-2.11-8.48,48.24,48.24,0,0,0-8.4-15.25c-.3-.39,0-.6.29-.25a40.87,40.87,0,0,1,9,15.19,46.09,46.09,0,0,1,2,8.68A42.81,42.81,0,0,1,380.6,300Z"/><path class="cls-5" d="M404.22,300h10.86c0-13.92,15.76-27.6,3.88-29.07-4.23-.53-7.24,1.63-9.39,5C404.22,284.31,404.22,300,404.22,300Z"/><path class="cls-6" d="M392.33,300h13.33c2.18-20,1.58-70.33-27.46-65.39C355.92,238.42,391.76,267.39,392.33,300Z"/><path class="cls-7" d="M385,245.71a35.53,35.53,0,0,1,4.5,6.5,50.52,50.52,0,0,1,3.27,7.18,70.38,70.38,0,0,1,2.35,7.56c.66,2.56,1.22,5.14,1.66,7.75a146.11,146.11,0,0,1,1.83,15.77c.2,3.19.33,6.38.36,9.56h.91c.12-3.2.11-6.41,0-9.62a117.61,117.61,0,0,0-1.65-16c-.45-2.64-1-5.26-1.75-7.85a66.56,66.56,0,0,0-2.57-7.64c-.49-1.25-1.07-2.47-1.65-3.68s-1.23-2.4-1.95-3.53a34.64,34.64,0,0,0-4.9-6.39C384.88,244.73,384.5,245.07,385,245.71Z"/><path class="cls-8" d="M381.86,300h11.06s2.92-23.31-9.6-23.3C371.92,276.74,379.53,291.15,381.86,300Z"/><path class="cls-9" d="M385.15,282.49a70.58,70.58,0,0,1,2.74,16.21c0,.44,0,.89.07,1.33h1c0-.47,0-.94-.07-1.4a55.89,55.89,0,0,0-3.36-16.27C385.32,282,385,282.08,385.15,282.49Z"/><path class="cls-10" d="M408.38,300h.69c.26-2.11.58-4.22,1-6.31a66.76,66.76,0,0,1,2.35-8.61c.26-.71.56-1.39.83-2.08.14-.34.27-.69.43-1l.5-1,.49-1a7.74,7.74,0,0,1,.53-1l1.17-1.9c.25-.4.05-.56-.22-.16l-1.27,1.87a7.31,7.31,0,0,0-.58,1l-.55,1-.54,1c-.17.33-.3.68-.46,1-.3.7-.62,1.38-.9,2.08a56,56,0,0,0-2.5,8.69Q408.71,296.79,408.38,300Z"/><path class="cls-11" d="M43.89,303.28H32c0-6.37-4.19-12.64-7.32-18l-.3-.51c-2.7-4.66-6.21-9-7.25-14.42a7.29,7.29,0,0,1,.38-4.71,6.15,6.15,0,0,1,4-2.92C41.35,257.66,45.49,284.06,43.89,303.28Z"/><path class="cls-12" d="M38.79,303.28h-.51a54.28,54.28,0,0,0-.76-8,61,61,0,0,0-2.35-9.43,53.8,53.8,0,0,0-9.34-17c-.34-.43,0-.66.31-.27a45.5,45.5,0,0,1,10,16.89,50.87,50.87,0,0,1,2.22,9.66A48.44,48.44,0,0,1,38.79,303.28Z"/><path class="cls-13" d="M65.06,303.28H77.15c0-15.49,17.52-30.7,4.31-32.35-4.7-.59-8.06,1.82-10.45,5.57C65.06,285.79,65.06,303.28,65.06,303.28Z"/><path class="cls-14" d="M51.84,303.28H66.67C69.08,281,68.42,225,36.12,230.53,11.33,234.74,51.2,267,51.84,303.28Z"/><path class="cls-15" d="M43.73,242.85a40.41,40.41,0,0,1,5,7.22,57.07,57.07,0,0,1,3.64,8A81.1,81.1,0,0,1,55,266.48c.72,2.84,1.34,5.71,1.84,8.62a163.48,163.48,0,0,1,2,17.54c.23,3.55.37,7.09.41,10.64h1c.13-3.57.12-7.14,0-10.71a131.17,131.17,0,0,0-1.83-17.77c-.51-2.94-1.17-5.86-2-8.73a70.72,70.72,0,0,0-2.86-8.5c-.54-1.39-1.18-2.75-1.82-4.1s-1.38-2.66-2.18-3.92a39,39,0,0,0-5.45-7.12C43.55,241.76,43.13,242.14,43.73,242.85Z"/><path class="cls-16" d="M40.18,303.28H52.49s3.25-25.94-10.68-25.92C29.13,277.37,37.59,293.4,40.18,303.28Z"/><path class="cls-17" d="M43.85,283.76a78.72,78.72,0,0,1,3,18c0,.5,0,1,.08,1.49H48c0-.53,0-1-.08-1.56a61.85,61.85,0,0,0-3.74-18.1C44,283.17,43.7,283.3,43.85,283.76Z"/><path class="cls-18" d="M69.69,303.28h.77c.28-2.35.64-4.7,1.08-7a73.7,73.7,0,0,1,2.61-9.58c.29-.78.62-1.54.92-2.3.16-.38.3-.77.48-1.15l.55-1.11.55-1.12a8.74,8.74,0,0,1,.6-1.08l1.3-2.12c.27-.44,0-.62-.26-.18l-1.41,2.08a9,9,0,0,0-.64,1.08l-.61,1.1L75,283c-.19.37-.34.76-.52,1.14-.33.78-.69,1.54-1,2.31a62.45,62.45,0,0,0-2.78,9.67C70.28,298.48,69.93,300.88,69.69,303.28Z"/><path class="cls-19" d="M86.41,241.83c-5.26-2.79-12.61,8.54-12.61,8.54,2.53-7.72,11-27.57,3.64-32.48-6-4-12.58,3.69-14.79,9.64,1.77-6.86,9.12-28.22,2.05-31.08C58.53,194,54,204.1,53.16,210c-.73-6.08-1.66-26.72-13-24.05-11,2.83-4.68,21.81-1.8,28.73-3.28-4.11-11.51-12.54-15.79-6-6.93,10.59,19.18,27.79,19.18,27.79s-15.65-5.08-15.53,4.51c.17,13.56,15.93,20.5,27.52,21.23-16.57-1.45-15,13.83-3.18,19.81a31.55,31.55,0,0,0,31.28-1.87C88.05,273.47,94.41,246.07,86.41,241.83Z"/><path class="cls-20" d="M80.05,259.83c-.67,2.09-1.44,4.15-2.28,6.14a41.33,41.33,0,0,1-2.2,4.48,178.29,178.29,0,0,1-13.95-21,67.6,67.6,0,0,0,3.69-5.8c1.22-2.19,2.37-4.52,3.4-6.85s1.94-4.71,2.75-7.12a69.44,69.44,0,0,0,2.08-7.29,67.52,67.52,0,0,1-2.33,7.18c-.89,2.35-1.89,4.68-3,6.93s-2.33,4.5-3.62,6.6A59.76,59.76,0,0,1,61,248.3a163.68,163.68,0,0,1-8.65-17.77,73,73,0,0,0,3.26-6.86c.54-1.2,1-2.47,1.45-3.7s.88-2.51,1.26-3.77c.77-2.51,1.52-5.08,2.14-7.64s1.16-5.14,1.54-7.73c-.47,2.57-1.1,5.11-1.8,7.63s-1.53,5-2.38,7.49c-.42,1.23-.93,2.44-1.38,3.67s-1,2.42-1.56,3.58a65.4,65.4,0,0,1-3.1,5.94A217.72,217.72,0,0,1,41,192.2a219.23,219.23,0,0,0,9.76,37.37,37.17,37.17,0,0,1-6.16-2.13,49.8,49.8,0,0,1-6.91-3.79,62.53,62.53,0,0,1-6.57-5A61.18,61.18,0,0,1,25,212.64,64.53,64.53,0,0,0,31,219a63.67,63.67,0,0,0,6.5,5.26,50.49,50.49,0,0,0,6.91,4.11A39.55,39.55,0,0,0,51.33,231c2.57,6.25,5.29,12.22,8.3,18.27a23.86,23.86,0,0,1-6.11.66,33.78,33.78,0,0,1-7.41-1.09,46.33,46.33,0,0,1-7.45-2.63,50.69,50.69,0,0,1-7.29-4,51.51,51.51,0,0,0,7.24,4.31,47.5,47.5,0,0,0,7.48,3,35.4,35.4,0,0,0,7.55,1.4,24.2,24.2,0,0,0,6.59-.49,181.3,181.3,0,0,0,13.5,21.55A40.84,40.84,0,0,1,68.15,273a52.27,52.27,0,0,1-7.34.41,63.35,63.35,0,0,1-7.58-.59,58.61,58.61,0,0,1-7.72-1.61,59.88,59.88,0,0,0,7.76,1.94,63.61,63.61,0,0,0,7.66.9,53.17,53.17,0,0,0,7.48-.12,42.07,42.07,0,0,0,6.09-1,179.36,179.36,0,0,0,19.69,22.42L96.34,293a175.86,175.86,0,0,1-20-21.57,45.12,45.12,0,0,0,2.19-5c.76-2.09,1.44-4.21,2-6.36s1.12-4.3,1.59-6.45.91-4.32,1.26-6.48c-.43,2.14-1,4.27-1.52,6.39S80.71,257.75,80.05,259.83Z"/><path class="cls-21" d="M395.52,267.32c2.64-2.87,9.63,2.52,9.63,2.52-3.24-4.21-12.8-14.6-9.31-19.23,2.84-3.77,8.56-.46,11.22,2.73-2.58-3.85-11.76-15.42-8-18.72,3.26-2.88,8.25,2.39,10,5.82-.87-3.91-4.79-16.83,2.81-17.66,7.36-.64,7.63,12.43,7.35,17.32,1.13-3.25,4.37-10.23,8.43-7.13,6.57,5-5.78,21.3-5.78,21.3s8.54-6.53,10.55-.6c2.84,8.4-5.37,16.1-12.35,19.07,9.9-4.49,12.23,5.27,6.27,11.53a20.64,20.64,0,0,1-19.7,5.64C401.39,287.18,391.51,271.67,395.52,267.32Z"/><path class="cls-22" d="M403.36,277c.86,1.14,1.78,2.24,2.73,3.29a29.57,29.57,0,0,0,2.33,2.29,117.33,117.33,0,0,0,4-16,41.1,41.1,0,0,1-3.54-2.77c-1.23-1.08-2.44-2.27-3.58-3.48s-2.22-2.49-3.24-3.79a45,45,0,0,1-2.87-4,41.92,41.92,0,0,0,3,3.92c1.06,1.26,2.18,2.48,3.35,3.63s2.41,2.27,3.66,3.28c1.07.86,2.22,1.67,3.37,2.42a108.76,108.76,0,0,0,1.47-12.84,48.44,48.44,0,0,1-3.5-3.52c-.59-.62-1.13-1.32-1.7-2s-1.09-1.36-1.6-2c-1-1.37-2-2.8-3-4.24s-1.84-2.92-2.63-4.44c.84,1.49,1.79,2.92,2.76,4.32s2,2.78,3.1,4.1c.53.66,1.1,1.3,1.65,2s1.13,1.28,1.74,1.87a40.9,40.9,0,0,0,3.2,3,142.54,142.54,0,0,0-1.43-25.11A143.5,143.5,0,0,1,414.81,252a25.13,25.13,0,0,0,3.34-2.66,32.46,32.46,0,0,0,3.43-3.83,40.58,40.58,0,0,0,3-4.49A39.52,39.52,0,0,0,427,236a41.56,41.56,0,0,1-2.31,5.2,42.37,42.37,0,0,1-2.87,4.66,34,34,0,0,1-3.37,4,25.51,25.51,0,0,1-3.68,3.1c-.23,4.42-.6,8.69-1.15,13.07a15.41,15.41,0,0,0,3.92-.92,22.5,22.5,0,0,0,4.33-2.28,30.28,30.28,0,0,0,4-3.25,32.35,32.35,0,0,0,3.63-4.05,35.12,35.12,0,0,1-3.53,4.24,31.14,31.14,0,0,1-4,3.45,23,23,0,0,1-4.35,2.51,16,16,0,0,1-4.17,1.13,118.42,118.42,0,0,1-3.64,16.22,26,26,0,0,0,3.69-.52,34,34,0,0,0,4.61-1.34,40.42,40.42,0,0,0,4.55-2,39.83,39.83,0,0,0,4.41-2.67,40.49,40.49,0,0,1-4.36,2.88,42.08,42.08,0,0,1-4.53,2.22,34.14,34.14,0,0,1-4.64,1.55,27.43,27.43,0,0,1-4,.7,117.91,117.91,0,0,1-7.26,18.1l-1.83-1a116.25,116.25,0,0,0,7.63-17.64,30.5,30.5,0,0,1-2.45-2.63c-.92-1.12-1.81-2.29-2.63-3.48s-1.62-2.41-2.38-3.64-1.5-2.46-2.19-3.71c.74,1.22,1.52,2.42,2.33,3.6S402.49,275.89,403.36,277Z"/><path class="cls-23" d="M414.21,275.09c2.67-.57,4.5,5.34,4.5,5.34-.16-3.72-1.44-13.54,2.44-14.78,3.15-1,5.09,3.19,5.33,6.09.07-3.25-.51-13.59,3-14,3-.33,3.77,4.71,3.41,7.4,1.08-2.59,4.06-11.58,8.75-9,4.48,2.61-.65,10.21-2.79,12.9,2-1.4,6.64-4.09,7.72-.68,1.74,5.53-11.92,9.87-11.92,9.87s7.53-.29,6.28,3.93c-1.76,6-9.58,7.06-14.79,5.94,7.5,1.42,4.89,8-1.06,9.14a14.48,14.48,0,0,1-13.57-4.72C409.54,288.85,410.15,276,414.21,275.09Z"/><path class="cls-24" d="M414.77,283.83c0,1,.12,2,.24,3a20.32,20.32,0,0,0,.42,2.25,80.46,80.46,0,0,0,8.77-7.53c-.35-1-.66-2-.91-3s-.48-2.29-.64-3.44-.27-2.32-.33-3.49a30.91,30.91,0,0,1,0-3.47,30.61,30.61,0,0,0,.13,3.45c.11,1.16.25,2.31.46,3.44s.47,2.27.77,3.36c.27.93.6,1.85,1,2.75a75.91,75.91,0,0,0,6-6.77,30.31,30.31,0,0,1-.58-3.43c-.09-.6-.12-1.21-.18-1.81s-.08-1.22-.09-1.82c0-1.21,0-2.43,0-3.64s.13-2.41.28-3.61c-.11,1.2-.15,2.4-.16,3.6s.05,2.41.12,3.6c0,.59.11,1.19.15,1.79s.14,1.19.25,1.77a27.23,27.23,0,0,0,.63,3,99.27,99.27,0,0,0,9.32-15,100,100,0,0,1-9,15.28,17.88,17.88,0,0,0,3-.17,23.68,23.68,0,0,0,3.51-.81,31.16,31.16,0,0,0,3.52-1.37,29.34,29.34,0,0,0,3.45-1.91,28,28,0,0,1-3.42,2,28.45,28.45,0,0,1-3.53,1.52,23.15,23.15,0,0,1-3.56.95,18.42,18.42,0,0,1-3.37.29c-1.91,2.44-3.85,4.74-5.94,7a10.88,10.88,0,0,0,2.62,1.05,15.67,15.67,0,0,0,3.41.45,22.27,22.27,0,0,0,3.61-.24,23.15,23.15,0,0,0,3.72-.85,23.83,23.83,0,0,1-3.74,1,22.06,22.06,0,0,1-3.67.37,16.11,16.11,0,0,1-3.5-.32,10.93,10.93,0,0,1-2.85-1,82.16,82.16,0,0,1-8.64,7.83,18.76,18.76,0,0,0,2.32,1.19,23.5,23.5,0,0,0,3.19,1.1,28.59,28.59,0,0,0,7,.94,27.79,27.79,0,0,1-3.67-.12,28.67,28.67,0,0,1-3.5-.55,23.5,23.5,0,0,1-3.28-1,18.71,18.71,0,0,1-2.56-1.2,83.13,83.13,0,0,1-11.48,7.44c-.27-.52-.4-.78-.66-1.3a80.94,80.94,0,0,0,11.5-7,23.11,23.11,0,0,1-.34-2.5c-.07-1-.11-2-.1-3.05s.05-2,.11-3.05.13-2,.25-3c-.08,1-.11,2-.13,3S414.74,282.83,414.77,283.83Z"/><path class="cls-25" d="M29.3,301.2c7.06-1.34,12.15,4,12.49,4.29.31-1.08,3.38-11.09,13.36-14.63a21.18,21.18,0,0,1,13.78,0A9.84,9.84,0,0,1,81,277.94a19.46,19.46,0,0,1,35.31,6A9.79,9.79,0,0,1,134,286.54a18,18,0,0,1,30.42,7.63,18.35,18.35,0,0,1,16.84-3.25,18.64,18.64,0,0,1,12.38,21.47H18.52A13.82,13.82,0,0,1,29.3,301.2Z"/><path class="cls-26" d="M297.36,303.87c5.37-1,9.25,3,9.51,3.27.23-.83,2.57-8.45,10.17-11.15a16.21,16.21,0,0,1,10.5,0,7.49,7.49,0,0,1,9.19-9.84,14.83,14.83,0,0,1,26.9,4.59,7.46,7.46,0,0,1,13.47,2,13.74,13.74,0,0,1,23.17,5.8A14,14,0,0,1,413.09,296a14.19,14.19,0,0,1,9.43,16.35H289.15A10.51,10.51,0,0,1,297.36,303.87Z"/><path class="cls-27" d="M330,299.34h-6.53c0-3.5-2.31-6.95-4-9.9l-.17-.28c-1.48-2.57-3.41-5-4-7.93a4.05,4.05,0,0,1,.2-2.6,3.49,3.49,0,0,1,2.23-1.61C328.6,274.24,330.88,288.77,330,299.34Z"/><path class="cls-28" d="M327.19,299.34h-.28a31.18,31.18,0,0,0-.41-4.42,32.84,32.84,0,0,0-1.3-5.19,29.55,29.55,0,0,0-5.14-9.34c-.19-.24,0-.36.17-.15a25.08,25.08,0,0,1,5.54,9.3,28.37,28.37,0,0,1,1.21,5.31A25.93,25.93,0,0,1,327.19,299.34Z"/><path class="cls-29" d="M341.65,299.34h6.65c0-8.52,9.64-16.9,2.37-17.8-2.58-.32-4.43,1-5.75,3.06C341.65,289.71,341.65,299.34,341.65,299.34Z"/><path class="cls-30" d="M334.37,299.34h8.16c1.33-12.28,1-43.06-16.81-40C312.08,261.63,334,279.36,334.37,299.34Z"/><path class="cls-31" d="M329.91,266.09a21.3,21.3,0,0,1,2.75,4,30,30,0,0,1,2,4.4,43.59,43.59,0,0,1,1.45,4.63c.4,1.56.74,3.14,1,4.74a89.26,89.26,0,0,1,1.12,9.66c.12,1.95.2,3.9.22,5.85H339c.07-2,.07-3.93,0-5.89a71.42,71.42,0,0,0-1-9.78c-.28-1.62-.64-3.22-1.07-4.81a40.06,40.06,0,0,0-1.58-4.67c-.3-.77-.65-1.52-1-2.26s-.76-1.46-1.2-2.16a21.15,21.15,0,0,0-3-3.91C329.81,265.49,329.58,265.69,329.91,266.09Z"/><path class="cls-32" d="M328,299.34h6.77s1.79-14.27-5.88-14.26C321.88,285.08,326.54,293.9,328,299.34Z"/><path class="cls-33" d="M330,288.6a43.25,43.25,0,0,1,1.67,9.92c0,.27,0,.55,0,.82h.59c0-.29,0-.58,0-.86a33.94,33.94,0,0,0-2.06-10C330.08,288.27,329.89,288.35,330,288.6Z"/><path class="cls-34" d="M344.19,299.34h.43c.16-1.29.35-2.59.6-3.87a40.23,40.23,0,0,1,1.43-5.27c.16-.43.34-.85.51-1.27.09-.21.16-.42.26-.63l.31-.61.3-.61a5.7,5.7,0,0,1,.32-.6l.72-1.17c.15-.24,0-.34-.14-.09l-.78,1.14c-.13.19-.24.39-.35.59l-.33.61-.33.61c-.11.2-.19.42-.29.63-.18.42-.38.84-.55,1.27a35.13,35.13,0,0,0-1.53,5.32C344.52,296.7,344.33,298,344.19,299.34Z"/><path class="cls-35" d="M186.27,301.2c7.06-1.34,12.15,4,12.49,4.29.31-1.08,3.38-11.09,13.36-14.63a21.18,21.18,0,0,1,13.78,0A9.84,9.84,0,0,1,238,277.94a19.46,19.46,0,0,1,35.31,6A9.79,9.79,0,0,1,291,286.54a18,18,0,0,1,30.42,7.63,18.35,18.35,0,0,1,16.84-3.25,18.64,18.64,0,0,1,12.38,21.47H175.49A13.82,13.82,0,0,1,186.27,301.2Z"/><path class="cls-2" d="M375.39,32.77A40.87,40.87,0,0,0,354,51.26h15A63.29,63.29,0,0,1,375.39,32.77Zm34.09,39.64H391.4V87.52h16.81A102.77,102.77,0,0,0,409.48,72.41Zm-42.21,0H349a40.32,40.32,0,0,0,3.64,15.11h15.94A105.59,105.59,0,0,1,367.27,72.41Zm1.24-18.14h-16A40.57,40.57,0,0,0,349,69.38h18.27A103.45,103.45,0,0,1,368.51,54.27Zm44,15.11h17.89a40.87,40.87,0,0,0-3.56-15.11H411.28A107.66,107.66,0,0,1,412.53,69.38Zm12.82-18.12A40.88,40.88,0,0,0,404.46,32.9a63.53,63.53,0,0,1,6.3,18.36Zm-24.62-19.6a41,41,0,0,0-9.33-1.5v21.1h16.35A61.42,61.42,0,0,0,400.73,31.66Zm7.51,22.61H391.4V69.38h18.1A103.35,103.35,0,0,0,408.24,54.27Zm-36.2-3h16.33V30.17a39.93,39.93,0,0,0-9.27,1.42A60.75,60.75,0,0,0,372,51.26Zm32.34,57.67a40.81,40.81,0,0,0,20.94-18.39H410.74A61.81,61.81,0,0,1,404.38,108.93Zm-13-18.39v21a41.14,41.14,0,0,0,9.22-1.4c2.27-3.74,5.21-10.13,7.07-19.63Zm19.83-3h15.54a40.87,40.87,0,0,0,3.61-15.11H412.51A102.67,102.67,0,0,1,411.23,87.52Zm-39.67,0h16.81V72.41H370.29A105.59,105.59,0,0,0,371.56,87.52Zm7.64,22.72a40.3,40.3,0,0,0,9.17,1.38V90.54H372.1C374,100.1,376.92,106.51,379.2,110.24ZM354,90.54a40.79,40.79,0,0,0,21.43,18.51A61.73,61.73,0,0,1,369,90.54Zm16.24-21.16h18.09V54.27H371.54A102,102,0,0,0,370.28,69.38Z"/><path class="cls-2" d="M47.7,122.13c0,.58-.05,1.18-.05,1.77A30.15,30.15,0,0,0,48.78,132v0l3.55-1a26,26,0,0,0,5.6,10.19l-2.78,2.47A30.11,30.11,0,0,0,63,150l1.81-3.24A26.19,26.19,0,0,0,75.92,150l-.23,3.7c.6,0,1.2.05,1.8.05a30.1,30.1,0,0,0,8.14-1.13l.1,0-1-3.55a25.93,25.93,0,0,0,10.18-5.62l2.47,2.77a29.67,29.67,0,0,0,6.24-7.8l-3.24-1.8a26.1,26.1,0,0,0,3.25-11.17l3.7.21c0-.57,0-1.14,0-1.72a29.76,29.76,0,0,0-1.13-8.14l0-.07-3.55,1a26.15,26.15,0,0,0-5.61-10.19l2.77-2.46A29.91,29.91,0,0,0,92,97.83l-1.8,3.24a26.07,26.07,0,0,0-11.17-3.26l.22-3.7c-.58,0-1.16,0-1.75,0a29.76,29.76,0,0,0-8.14,1.13h0l1,3.55a26.15,26.15,0,0,0-10.19,5.61l-2.46-2.77a30.11,30.11,0,0,0-6.26,7.79l3.24,1.81a26.14,26.14,0,0,0-3.27,11.16Zm36.11,24.05.18.65h0ZM61.68,123.9a15.88,15.88,0,1,1,.61,4.32A15.84,15.84,0,0,1,61.68,123.9Z"/><polygon class="cls-2" points="4.37 98.37 4.37 98.37 4.37 98.37 4.37 98.37"/><path class="cls-2" d="M24.9,69.73a21,21,0,0,0,.8,5.73v.06l2.39-.68a18.66,18.66,0,0,0,2.45,5.24l-2.07,1.4a21,21,0,0,0,7.22,6.63l1.22-2.19a18.65,18.65,0,0,0,5.43,2l-.49,2.47a21.13,21.13,0,0,0,9.8-.41l.22-.06h0l-.7-2.39A18.53,18.53,0,0,0,56.41,85l1.41,2.06a21.16,21.16,0,0,0,6.57-7.27h0l-2.19-1.2a18.77,18.77,0,0,0,1.94-5.45l2.46.46A20.85,20.85,0,0,0,66.17,64l0-.16-2.39.69a18.37,18.37,0,0,0-2.47-5.23l2.07-1.4a21,21,0,0,0-7.26-6.6L54.86,53.5a18.54,18.54,0,0,0-5.44-2l.47-2.46a20.74,20.74,0,0,0-4-.38,21.07,21.07,0,0,0-5.73.8l-.11,0,.69,2.39a18.68,18.68,0,0,0-5.24,2.46l-1.4-2.06a20.88,20.88,0,0,0-6.61,7.23l2.19,1.22a18.63,18.63,0,0,0-2,5.43l-2.46-.48A20.57,20.57,0,0,0,24.9,69.73Zm9,3.42a12.71,12.71,0,0,1-.48-3.42,12.52,12.52,0,0,1,9.12-12,12.26,12.26,0,0,1,3.41-.48,12.53,12.53,0,0,1,12,9.11,12.7,12.7,0,0,1,.47,3.42,12.5,12.5,0,0,1-9.11,12,12.26,12.26,0,0,1-3.41.48A12.53,12.53,0,0,1,33.89,73.15Z"/><path class="cls-36" d="M407.61,73.49V262.74a11.35,11.35,0,0,1-11.33,11.33H91.46a11.31,11.31,0,0,1-11.29-11.33V73.49A11.29,11.29,0,0,1,91.46,62.16H396.28A11.32,11.32,0,0,1,407.61,73.49Z"/><path class="cls-37" d="M396.28,275.3H91.46a12.55,12.55,0,0,1-12.52-12.56V73.49A12.56,12.56,0,0,1,91.46,60.93H396.28a12.58,12.58,0,0,1,12.56,12.56V262.74A12.57,12.57,0,0,1,396.28,275.3ZM91.46,63.4a10.08,10.08,0,0,0-10,10.09V262.74a10.09,10.09,0,0,0,10,10.1H396.28a10.1,10.1,0,0,0,10.09-10.1V73.49A10.1,10.1,0,0,0,396.28,63.4Z"/><path class="cls-38" d="M407.61,253.17v9.57a11.34,11.34,0,0,1-11.33,11.33H91.46a11.31,11.31,0,0,1-11.29-11.33v-9.57Z"/><rect class="cls-39" x="92.27" y="74.75" width="303.25" height="165.63"/><rect class="cls-37" x="205.22" y="274.07" width="77.33" height="35.12"/><rect class="cls-38" x="182.86" y="309.19" width="122.06" height="6.96"/><path class="cls-40" d="M364.42,62.16V195.21a3.61,3.61,0,0,1-2.4,3.42L246.75,240.39l-1.53.55a12.91,12.91,0,0,1-8.81,0l-1.57-.56L119.6,198.63a3.6,3.6,0,0,1-2.41-3.42v-133h118.4L240.8,64l2.1-.72V62.16Z"/><path class="cls-41" d="M150.47,286.06a13.64,13.64,0,1,1,0,27.28H40.52V286.06Z"/><rect class="cls-42" x="40.52" y="305.76" width="117.25" height="1.13"/><rect class="cls-42" x="40.52" y="301.34" width="119.56" height="1.13"/><rect class="cls-42" x="40.52" y="296.92" width="119.56" height="1.13"/><rect class="cls-42" x="40.52" y="292.5" width="117.25" height="1.13"/><path class="cls-37" d="M37.92,283.25H150.47a16.45,16.45,0,1,1,0,32.9H37.92v-5.62H150.47a10.83,10.83,0,1,0,0-21.66H37.92Z"/><path class="cls-41" d="M68,280.43a13.64,13.64,0,1,1,0-27.28h110v27.28Z"/><rect class="cls-42" x="60.66" y="259.59" width="117.25" height="1.13"/><rect class="cls-42" x="58.34" y="264.02" width="119.56" height="1.13"/><rect class="cls-42" x="58.34" y="268.43" width="119.56" height="1.13"/><rect class="cls-42" x="60.65" y="272.85" width="117.25" height="1.13"/><path class="cls-43" d="M180.5,283.25H68a16.46,16.46,0,0,1,0-32.91H180.5V256H68a10.83,10.83,0,0,0,0,21.66H180.5Z"/><path class="cls-41" d="M49.63,247.53a13.65,13.65,0,1,1,0-27.29h110v27.29Z"/><rect class="cls-42" x="42.33" y="226.88" width="117.25" height="0.76"/><rect class="cls-42" x="40.02" y="231.3" width="119.56" height="0.76"/><rect class="cls-42" x="40.02" y="235.72" width="119.56" height="0.76"/><rect class="cls-42" x="42.32" y="240.13" width="117.25" height="0.76"/><path class="cls-44" d="M162.17,250.34H49.63a16.46,16.46,0,1,1,0-32.91H162.17v5.62H49.63a10.84,10.84,0,0,0,0,21.67H162.17Z"/><path class="cls-45" d="M352.35,39.69a3.32,3.32,0,0,0-3.1-.33l-10.61,4.22L240.8,78.15,143,43.58l-10.61-4.22a3.25,3.25,0,0,0-1.23-.24,3.31,3.31,0,0,0-3.32,3.33v148.2a3.3,3.3,0,0,0,2.19,3.12l106.78,38.68a11.76,11.76,0,0,0,8.05,0l106.78-38.68a3.31,3.31,0,0,0,2.2-3.12V42.45A3.34,3.34,0,0,0,352.35,39.69Z"/><polygon class="cls-46" points="339.81 35.73 339.81 186.31 350.48 191.05 350.48 42.85 339.81 35.73"/><path class="cls-47" d="M243.63,220.29a8.6,8.6,0,0,1-2.83.49,8.49,8.49,0,0,1-2.82-.49l-96.18-34-10.67,4.74,106.79,38.67a8.44,8.44,0,0,0,5.78,0l106.78-38.67-10.68-4.74Z"/><polygon class="cls-48" points="141.8 35.73 131.13 42.85 131.13 191.05 141.8 186.31 141.8 35.73"/><path class="cls-48" d="M240.8,220.78a8.6,8.6,0,0,0,2.83-.49l96.17-34V35.73l-99,35V220.77Z"/><path class="cls-49" d="M323,155.57l-72.31,25.55a1,1,0,1,0,.66,1.88l72.32-25.55a1,1,0,0,0,.61-1.27A1,1,0,0,0,323,155.57Zm0-10.42-72.31,25.54a1,1,0,0,0-.61,1.27,1,1,0,0,0,1.27.61L323.71,147a1,1,0,1,0-.67-1.88Zm0-10.43-72.31,25.55a1,1,0,1,0,.66,1.88l72.32-25.54a1,1,0,1,0-.67-1.89ZM323,166l-72.31,25.55a1,1,0,1,0,.66,1.88l72.32-25.55a1,1,0,0,0,.61-1.27A1,1,0,0,0,323,166ZM251.39,78.77l72.32-25.55a1,1,0,0,0,.61-1.27,1,1,0,0,0-1.28-.61L250.73,76.89a1,1,0,0,0-.61,1.27A1,1,0,0,0,251.39,78.77ZM323,176.41,250.73,202a1,1,0,0,0-.61,1.28,1,1,0,0,0,1.27.6l72.32-25.55a1,1,0,0,0,.61-1.27A1,1,0,0,0,323,176.41Zm0-104.22L250.73,97.74a1,1,0,0,0,.66,1.88l72.32-25.55a1,1,0,0,0,.61-1.27A1,1,0,0,0,323,72.19Zm0,10.42-72.31,25.55a1,1,0,0,0,.66,1.88l72.32-25.55a1,1,0,0,0,.61-1.27A1,1,0,0,0,323,82.61Zm0-20.85L250.73,87.32a1,1,0,0,0,.66,1.88l72.32-25.55a1,1,0,0,0-.67-1.89ZM323,93l-72.31,25.54a1,1,0,0,0,.66,1.88l72.32-25.54a1,1,0,0,0,.61-1.28A1,1,0,0,0,323,93Zm0,10.42L250.73,129a1,1,0,0,0-.61,1.28,1,1,0,0,0,1.27.61l72.32-25.55a1,1,0,0,0,.61-1.27A1,1,0,0,0,323,103.46Zm0,20.84-72.31,25.55a1,1,0,1,0,.66,1.88l72.32-25.55a1,1,0,0,0,.61-1.27A1,1,0,0,0,323,124.3Zm0-10.42-72.31,25.55a1,1,0,1,0,.66,1.88l72.32-25.55a1,1,0,1,0-.67-1.88Z"/><path class="cls-46" d="M240.8,220.78a8.49,8.49,0,0,1-2.82-.49l-96.18-34V35.73l99,35V220.77Z"/><path class="cls-49" d="M157.29,156.18a1,1,0,0,0,.61,1.27L230.21,183a1,1,0,0,0,1.28-.61,1,1,0,0,0-.61-1.27l-72.32-25.55A1,1,0,0,0,157.29,156.18Zm0-10.42a1,1,0,0,0,.61,1.27l72.31,25.54a1,1,0,1,0,.67-1.88l-72.32-25.54A1,1,0,0,0,157.29,145.76Zm0-10.43a1,1,0,0,0,.61,1.28l72.31,25.54a1,1,0,0,0,1.28-.61,1,1,0,0,0-.61-1.27l-72.32-25.55A1,1,0,0,0,157.29,135.33Zm0,31.27a1,1,0,0,0,.61,1.27l72.31,25.55a1,1,0,0,0,1.28-.61,1,1,0,0,0-.61-1.27L158.56,166A1,1,0,0,0,157.29,166.6Zm74.2-88.44a1,1,0,0,0-.61-1.27L158.56,51.34a1,1,0,0,0-.66,1.88l72.31,25.55A1,1,0,0,0,231.49,78.16ZM157.29,177a1,1,0,0,0,.61,1.27l72.31,25.55a1,1,0,0,0,1.28-.6,1,1,0,0,0-.61-1.28l-72.32-25.55A1,1,0,0,0,157.29,177Zm0-104.22a1,1,0,0,0,.61,1.27l72.31,25.55a1,1,0,0,0,1.28-.61,1,1,0,0,0-.61-1.27L158.56,72.19A1,1,0,0,0,157.29,72.8Zm0,10.42a1,1,0,0,0,.61,1.27L230.21,110a1,1,0,0,0,1.28-.61,1,1,0,0,0-.61-1.27L158.56,82.61A1,1,0,0,0,157.29,83.22Zm0-20.85a1,1,0,0,0,.61,1.28L230.21,89.2a1,1,0,0,0,1.28-.61,1,1,0,0,0-.61-1.27L158.56,61.76A1,1,0,0,0,157.29,62.37Zm0,31.27a1,1,0,0,0,.61,1.28l72.31,25.54a1,1,0,0,0,1.28-.61,1,1,0,0,0-.61-1.27L158.56,93A1,1,0,0,0,157.29,93.64Zm0,10.43a1,1,0,0,0,.61,1.27l72.31,25.55a1,1,0,1,0,.67-1.89l-72.32-25.54A1,1,0,0,0,157.29,104.07Zm0,20.84a1,1,0,0,0,.61,1.27l72.31,25.55a1,1,0,1,0,.67-1.88L158.56,124.3A1,1,0,0,0,157.29,124.91Zm0-10.42a1,1,0,0,0,.61,1.27l72.31,25.55a1,1,0,0,0,1.28-.61,1,1,0,0,0-.61-1.27l-72.32-25.55A1,1,0,0,0,157.29,114.49Z"/><polygon class="cls-50" points="242.71 68.78 244 226.46 249.01 218.53 254.18 222.86 252.44 65.34 242.71 68.78"/><ellipse class="cls-51" cx="382.61" cy="241.87" rx="41.47" ry="42.44" transform="translate(54.86 554.07) rotate(-75.91)"/><g class="cls-52"><path class="cls-53" d="M373.55,203.68c-2.38-.84-2.38-.84-3.94-.19C371.22,205.21,371.22,205.21,373.55,203.68Zm8.82,41.57,1.35-1c-.16-.39-.22-.72-.31-.73-1.81-.2-3.62-.36-5.87-.57C379.17,244.35,381.31,243.53,382.37,245.25Zm-4.64-41.9c-.13.5-.23.92-.35,1.38l1.16,1c-1.18.38-.83,1.09-.68,2,.08.47-.7,1.08-1.3,1.91,2.5-.12,4.35-.37,5.75-2.29.54-.74,2-.84,3.15-1.28l-.63-1.49c.29,0,.75.11.87,0,.71-.93,2.07-.78,2.74-1.56a2.72,2.72,0,0,1,3.18-.94,1.49,1.49,0,0,0,1.54-.2l-.45-.12a43.5,43.5,0,0,0-13.53-1.22,6.05,6.05,0,0,0-.6.52,4.25,4.25,0,0,1-2,1,3.69,3.69,0,0,0,.39,1A2.68,2.68,0,0,0,377.73,203.35Zm2.18,14.54-2.65,1-.32,1.27,3.43.09c-.11-.45-.21-.82-.29-1.2S380,218.29,379.91,217.89Zm-24.47-5.24c-.22-1-.32-1.49-.48-2.23l4.15-.18,1.34-1.68a2.52,2.52,0,0,0-2.6-.66A41.47,41.47,0,0,0,350,215c0,.67-.4,1.35-.48,2-1.8.86-.19,2.08-.65,3.21l2.34-.37c.71-1.24,1.42-2.45,2.28-3.94l-1.27-1.51C353.38,213.78,354.49,213.17,355.44,212.65Zm35.17,30.64c.62.25,1.09,2,2.06,0-1.66-.38-3-1.53-4.81-.33-.46.31-1.4-.18-2.11-.14-.26,0-.5.48-.79.78C387.08,245.39,388.77,243.15,390.61,243.29ZM418,221.92a3.23,3.23,0,0,1,.35-2,42.44,42.44,0,0,0-9.7-10.55c-.44.14-.95.33-1.37.44l-.7-1.1,1-.17a42.21,42.21,0,0,0-3.65-2.37l-1.46.32c.07.33.17.8.3,1.44l-2.46.66,1.52-2.15c-.43-.66-.84-1.33-1.29-2-.85-.4-1.71-.77-2.6-1.11l-1.53-.08.27-.39c-.58-.2-1.16-.4-1.75-.58.15.43.31.86.49,1.34l2.88.73c0,.16-.07.32-.1.48l-3.43-.67-7.15,3.11.92,1.88-.89.9,1.62,1.43c2.58-1.35,2.58-1.35,4.78-1.07l-2-2.58c.37-.21.64-.38.93-.53,1.93-1,2.23-.87,3,1.33a16.7,16.7,0,0,0,1,1.91l-2.33.89A12.76,12.76,0,0,0,397,212c.8,0,2-.71,2.31,0,.48,1.29,1.73,2,2.06,3.27a1.42,1.42,0,0,1-.79,1.84,10.27,10.27,0,0,1-2.31.82,16.11,16.11,0,0,1-2.68,0c-.51.87-.17,2.85-2.46,2.54-.15-1.21.73-2.68-.51-3.77a.94.94,0,0,1,.12-.89c1.32-1.11.52-2.59.76-3.81-2.72-2-3.73,1.37-5.83,2l-.52-1.83c-.33.07-.7,0-.91.2a6,6,0,0,0-1.27,1.3,2.84,2.84,0,0,1-2.2,1.28,4.69,4.69,0,0,0-3.16,1.65c.64.9,1.95,1,2.44,2.13a14,14,0,0,0,2.21,2.78l-1.67,1.07-1.73-1.23-.38.43,3.11,3c.18-.37.31-.65.5-1l2.2,1.2c-.07.5-.13,1-.2,1.52,1,.8,2.15,1.38,2.34,2.9.06.47.8.85,1.22,1.27-1.25,1.43-1.31,1.67-.55,2.62s1.74,2.07,2.54,3c-.5,1.79-2,3-1.69,5.07L393,237.9l3.88.13c.07.66.11,1.06.15,1.45,2.73-.12,2.73-.12,4.58,2.19-.41,1.66-.84,3.33-1.26,5-.95.53-1.72,1.45-3.15,1s-1.18-1.53-1.5-2.44l-2.07-.52c.09,1.29.19,2.52.29,4l-3.38-.63a5.82,5.82,0,0,0-1,1.77c-.37,2.18-.76,2.6-2.83,2.54-.61,0-1.23-.09-1.84-.11,0,0-.05.19-.08.3,4.26,1.41,4.33,1.39,8.09-1.92.22.22.51.68.68.64a5.52,5.52,0,0,0,2.29-.84c1.11-1,2.16-.53,3.32-.33,2.51.45,4.63-.69,6.71-1.86-.44-1.34.56-1.81,1.39-2.48a25.38,25.38,0,0,0,2-2.23,9.42,9.42,0,0,1,1.25-.9c-.07.88-.12,1.48-.14,1.82l1.89-.92c-.85-.74.69-.89.68-1.54a8.08,8.08,0,0,1,.44-1.89c.68-.95,1.89-1.1,2.66-2.15,1.42-2,1.37-4,1.1-6.12,0-.3-.07-.6-.12-.89-.3-1.68-.24-1.66.25-3.8.2-.87,0-1.83.07-2.73S418.09,222.73,418,221.92Zm-20.32-13-.56-.49,1.63-2.5,1.87.47Zm-12.82,43.7c-1.48-.18-.23-2.19-1.52-2.36-1.12-.15-1.27-1.21-1.91-1.95l-.6,1.21c-1.05-1.43-2.52-.79-3.67-.49s-1.25-.37-1.91-.94l-4.9,2.06-3.91-.08-2.76,3.66c-.68-.22-1.23-.62-1.67-.52a6.08,6.08,0,0,1-3.63.15c-1.35-.53-2.19,1-3.53.74,0,.66,0,1.17,0,1.68a.54.54,0,0,0,.16.28c1.74,2.07,2.25,4.66,3,7.13.51,1.65,1,3.1,3,3.66a3.4,3.4,0,0,1,2.25,2.33c.63,2.25,1.67,4.23,4,5.22.24.11.33.61.46.94a3,3,0,0,0,1.35,1.57c1.84,1.17,2.45,3.14,3,5.1l.42.12c.7.17,1.41.33,2.11.47q0-.19.09-.42a12.82,12.82,0,0,0,.17-2.85c0-.39.47-.81.68-1.14a19.77,19.77,0,0,1,.77-10.12,17.1,17.1,0,0,0,3.12-1.29,27.23,27.23,0,0,0,2.43-2.27c1-.8,2.11-1.45,3.26-2.23.47-.8-.51-2.09.6-2.78l-1.86-3Zm-36-26.62a3.74,3.74,0,0,1,.22-1.84c.34-1.43.45-2.71-.9-3.8-.46-.38-.49-1.27-.65-1.73l-.26,0a40.61,40.61,0,0,0-7,22.54l3,2.2c2.11-.79,2.15-3.54,4.18-4.6a1.89,1.89,0,0,0,.41-1.79c-.68-1.27.16-2.26.27-3.51l1.52.07C348.87,230.93,349.62,228.41,348.85,226Z"/></g><path class="cls-37" d="M383.3,193.47a1.81,1.81,0,1,0,0,3.62,45.53,45.53,0,1,1-36.52,72.72,1.8,1.8,0,0,0-1.45-.73,1.78,1.78,0,0,0-1.08.36,1.81,1.81,0,0,0-.37,2.53,49.15,49.15,0,1,0,39.42-78.5Z"/><rect class="cls-37" x="381.28" y="289.95" width="4.05" height="16.99"/><path class="cls-37" d="M358.44,315.86h50.79v-3.58a6.14,6.14,0,0,0-6.15-6.14H364.59a6.14,6.14,0,0,0-6.15,6.14Z"/><path class="cls-2" d="M243.2,36.16a4.68,4.68,0,1,0,4.67,4.68A4.67,4.67,0,0,0,243.2,36.16Zm-10.92-6.74,4.11,4.3a9.83,9.83,0,0,1,13.62,0l4.11-4.3a15.75,15.75,0,0,0-21.84,0ZM243.2,0A40.71,40.71,0,0,0,215,11.34l4.12,4.3a34.84,34.84,0,0,1,48.22,0l4.12-4.3A40.71,40.71,0,0,0,243.2,0ZM223.74,20.5l4.11,4.3a22.15,22.15,0,0,1,30.7,0l4.11-4.3a28.1,28.1,0,0,0-38.92,0Z"/><path class="cls-54" d="M201.67,291s.36,1.07.74,2.4a24.19,24.19,0,0,1,.87,4.06l-.64.05a23.39,23.39,0,0,0-.85-3.93c-.18-.66-.37-1.25-.5-1.68s-.23-.69-.23-.69l.61-.21Z"/><path class="cls-55" d="M207.4,291.52l0,.3c-.06.59-.17,2-.17,3.46a20.82,20.82,0,0,0,.09,2.1l-.64.06c-.07-.7-.1-1.45-.1-2.16a33.25,33.25,0,0,1,.22-3.84l.63.08Z"/><path class="cls-56" d="M210.58,295.76h0a2,2,0,0,0-.28.4,1.57,1.57,0,0,0-.22.77h-.65a2.4,2.4,0,0,1,.34-1.13,3.81,3.81,0,0,1,.34-.48l.47.44Z"/><path class="cls-57" d="M202.44,291.64s3.28-4.16-1.77-12.82-15.46-10.74-15.94-9.62,5.29,3.29,6.89,9.94,1.81,10.34,3.82,12.34S200.17,294.29,202.44,291.64Z"/><path class="cls-58" d="M209.2,292.48s.36-4.69,8.84-7.29,16.52,2.28,16.16,3.3-5.41-1-10.45,2.34-7.39,5.64-9.9,5.75S209.09,295.57,209.2,292.48Z"/><path class="cls-59" d="M204.1,289.41s-5.66-6.07.9-15.8,21-10.4,21.51-9.05-5.66,3.89-8,11.54-3.68,11.47-6.18,13.66S206.55,292.67,204.1,289.41Z"/><path class="cls-60" d="M201.1,290.36l.09,0a.31.31,0,0,0,.22-.39c-.15-.53-3.67-13-10.17-17.79a.33.33,0,0,0-.45.07.31.31,0,0,0,.07.45c6.32,4.64,9.9,17.31,9.93,17.44A.33.33,0,0,0,201.1,290.36Z"/><path class="cls-60" d="M207.65,288.77a.37.37,0,0,0,.33-.24,1.66,1.66,0,0,0,0-.34c.3-4.4,2.17-19,13.93-22a.33.33,0,0,0,.23-.39.32.32,0,0,0-.4-.23c-12.17,3.18-14.1,18.11-14.4,22.62,0,.12,0,.19,0,.23a.3.3,0,0,0,.2.38Z"/><path class="cls-60" d="M211.61,294.61c.15,0,.29-.13.76-.55,5.27-4.78,10.35-7,15.11-6.73a.31.31,0,0,0,.34-.3.33.33,0,0,0-.3-.34c-4.93-.32-10.17,2-15.58,6.89-.19.17-.38.35-.45.4a.39.39,0,0,0-.2.2.33.33,0,0,0,.21.41Z"/><path class="cls-61" d="M198.5,316.32H215a.9.9,0,0,0,.87-.69L220,298a.89.89,0,0,0-.87-1.1H194.42a.9.9,0,0,0-.87,1.1l4.08,17.6A.88.88,0,0,0,198.5,316.32Z"/></g></g></g></svg>