<svg xmlns="http://www.w3.org/2000/svg" xmlns:xlink="http://www.w3.org/1999/xlink" viewBox="0 0 1366 768"><defs><style>.cls-1{isolation:isolate;}.cls-2{fill:#e7f1f8;}.cls-3{fill:#d7e8ef;}.cls-4{fill:url(#New_Gradient_Swatch_9);}.cls-5{fill:url(#New_Gradient_Swatch_16);}.cls-6{fill:url(#New_Gradient_Swatch_9-2);}.cls-7{fill:url(#New_Gradient_Swatch_9-3);}.cls-8{fill:url(#New_Gradient_Swatch_16-2);}.cls-9{fill:url(#New_Gradient_Swatch_9-4);}.cls-10{fill:url(#New_Gradient_Swatch_16-3);}.cls-11{fill:url(#New_Gradient_Swatch_16-4);}.cls-12{fill:url(#New_Gradient_Swatch_9-5);}.cls-13{fill:url(#New_Gradient_Swatch_16-5);}.cls-14{fill:url(#New_Gradient_Swatch_9-6);}.cls-15{fill:url(#New_Gradient_Swatch_9-7);}.cls-16{fill:url(#New_Gradient_Swatch_16-6);}.cls-17{fill:url(#New_Gradient_Swatch_9-8);}.cls-18{fill:url(#New_Gradient_Swatch_16-7);}.cls-19{fill:url(#New_Gradient_Swatch_16-8);}.cls-20{fill:url(#New_Gradient_Swatch_16-9);}.cls-21{fill:url(#New_Gradient_Swatch_9-9);}.cls-22{fill:url(#New_Gradient_Swatch_16-10);}.cls-23{fill:url(#New_Gradient_Swatch_9-10);}.cls-24{fill:url(#New_Gradient_Swatch_16-11);}.cls-25{fill:url(#New_Gradient_Swatch_9-11);}.cls-26{fill:url(#linear-gradient);}.cls-27{fill:url(#linear-gradient-2);}.cls-28{fill:url(#New_Gradient_Swatch_9-12);}.cls-29{fill:url(#New_Gradient_Swatch_16-12);}.cls-30{fill:url(#New_Gradient_Swatch_9-13);}.cls-31{fill:url(#New_Gradient_Swatch_9-14);}.cls-32{fill:url(#New_Gradient_Swatch_16-13);}.cls-33{fill:url(#New_Gradient_Swatch_9-15);}.cls-34{fill:url(#New_Gradient_Swatch_16-14);}.cls-35{fill:url(#New_Gradient_Swatch_16-15);}.cls-36{fill:url(#linear-gradient-3);}.cls-37{fill:url(#linear-gradient-4);}.cls-38{fill:#00204e;}.cls-39{fill:#00457f;}.cls-40{fill:url(#New_Gradient_Swatch_9-16);}.cls-41,.cls-47{fill:#bdd3dd;}.cls-41,.cls-50,.cls-53,.cls-61{mix-blend-mode:multiply;}.cls-42{fill:#f6f9fa;}.cls-43{fill:#cbd7e0;}.cls-44{fill:url(#linear-gradient-5);}.cls-45{fill:url(#New_Gradient_Swatch_9-17);}.cls-46{fill:#009dd0;}.cls-48{fill:#9eb7c7;}.cls-49{fill:#f7fafb;}.cls-50{fill:#e5e7e8;}.cls-51{fill:url(#linear-gradient-6);}.cls-52{fill:url(#linear-gradient-7);}.cls-54{fill:#bcbec0;}.cls-55{fill:url(#New_Gradient_Swatch_16-16);}.cls-56{fill:url(#New_Gradient_Swatch_16-17);}.cls-57{fill:url(#New_Gradient_Swatch_16-18);}.cls-58{fill:url(#New_Gradient_Swatch_16-19);}.cls-59{fill:url(#New_Gradient_Swatch_16-20);}.cls-60{fill:url(#New_Gradient_Swatch_16-21);}.cls-61{fill:#d0d3d4;}.cls-62{fill:url(#linear-gradient-8);}</style><linearGradient id="New_Gradient_Swatch_9" x1="1149.92" y1="508.05" x2="1183.5" y2="566.21" gradientUnits="userSpaceOnUse"><stop offset="0" stop-color="#00ace4"/><stop offset="1" stop-color="#0033a2"/></linearGradient><linearGradient id="New_Gradient_Swatch_16" x1="1152.88" y1="518.47" x2="1179.35" y2="564.31" gradientUnits="userSpaceOnUse"><stop offset="0" stop-color="aqua"/><stop offset="0.15" stop-color="#00e7f8"/><stop offset="0.35" stop-color="#00ccef"/><stop offset="0.57" stop-color="#00b9e9"/><stop offset="0.78" stop-color="#00ade5"/><stop offset="1" stop-color="#00a9e4"/></linearGradient><linearGradient id="New_Gradient_Swatch_9-2" x1="1218.32" y1="527.75" x2="1238.38" y2="562.48" xlink:href="#New_Gradient_Swatch_9"/><linearGradient id="New_Gradient_Swatch_9-3" x1="1165.11" y1="463.93" x2="1222.29" y2="562.96" xlink:href="#New_Gradient_Swatch_9"/><linearGradient id="New_Gradient_Swatch_16-2" x1="1172.43" y1="484.36" x2="1216.6" y2="560.87" xlink:href="#New_Gradient_Swatch_16"/><linearGradient id="New_Gradient_Swatch_9-4" x1="1172.3" y1="531.44" x2="1193.29" y2="567.79" xlink:href="#New_Gradient_Swatch_9"/><linearGradient id="New_Gradient_Swatch_16-3" x1="1177.95" y1="540.78" x2="1191.86" y2="564.87" xlink:href="#New_Gradient_Swatch_16"/><linearGradient id="New_Gradient_Swatch_16-4" x1="1219.99" y1="537.04" x2="1233.17" y2="559.87" xlink:href="#New_Gradient_Swatch_16"/><linearGradient id="New_Gradient_Swatch_9-5" x1="593.27" y1="506.62" x2="630.62" y2="571.32" xlink:href="#New_Gradient_Swatch_9"/><linearGradient id="New_Gradient_Swatch_16-5" x1="596.56" y1="518.22" x2="626" y2="569.22" xlink:href="#New_Gradient_Swatch_16"/><linearGradient id="New_Gradient_Swatch_9-6" x1="669.36" y1="528.54" x2="691.67" y2="567.18" xlink:href="#New_Gradient_Swatch_9"/><linearGradient id="New_Gradient_Swatch_9-7" x1="610.17" y1="457.55" x2="673.77" y2="567.72" xlink:href="#New_Gradient_Swatch_9"/><linearGradient id="New_Gradient_Swatch_16-6" x1="618.31" y1="480.27" x2="667.45" y2="565.39" xlink:href="#New_Gradient_Swatch_16"/><linearGradient id="New_Gradient_Swatch_9-8" x1="618.17" y1="532.64" x2="641.51" y2="573.08" xlink:href="#New_Gradient_Swatch_9"/><linearGradient id="New_Gradient_Swatch_16-7" x1="624.45" y1="543.03" x2="639.92" y2="569.83" xlink:href="#New_Gradient_Swatch_16"/><linearGradient id="New_Gradient_Swatch_16-8" x1="671.21" y1="538.87" x2="685.88" y2="564.27" xlink:href="#New_Gradient_Swatch_16"/><linearGradient id="New_Gradient_Swatch_16-9" x1="605.93" y1="393.8" x2="688.32" y2="536.5" xlink:href="#New_Gradient_Swatch_16"/><linearGradient id="New_Gradient_Swatch_9-9" x1="609.83" y1="403.06" x2="702.78" y2="564.06" xlink:href="#New_Gradient_Swatch_9"/><linearGradient id="New_Gradient_Swatch_16-10" x1="1203.36" y1="455.33" x2="1252.78" y2="540.93" xlink:href="#New_Gradient_Swatch_16"/><linearGradient id="New_Gradient_Swatch_9-10" x1="1199.4" y1="465.76" x2="1247.24" y2="548.63" xlink:href="#New_Gradient_Swatch_9"/><linearGradient id="New_Gradient_Swatch_16-11" x1="1239.27" y1="507.56" x2="1265.36" y2="552.73" xlink:href="#New_Gradient_Swatch_16"/><linearGradient id="New_Gradient_Swatch_9-11" x1="1232.97" y1="515.72" x2="1255.29" y2="554.38" xlink:href="#New_Gradient_Swatch_9"/><linearGradient id="linear-gradient" x1="693.93" y1="516.42" x2="768.85" y2="646.18" gradientUnits="userSpaceOnUse"><stop offset="0" stop-color="#ffef35"/><stop offset="0.25" stop-color="#ffd13c"/><stop offset="1" stop-color="#ff9339"/></linearGradient><linearGradient id="linear-gradient-2" x1="1107.23" y1="533.16" x2="1164.29" y2="631.98" xlink:href="#linear-gradient"/><linearGradient id="New_Gradient_Swatch_9-12" x1="1073.08" y1="529.75" x2="1093.64" y2="565.35" xlink:href="#New_Gradient_Swatch_9"/><linearGradient id="New_Gradient_Swatch_16-12" x1="1074.89" y1="536.13" x2="1091.1" y2="564.19" xlink:href="#New_Gradient_Swatch_16"/><linearGradient id="New_Gradient_Swatch_9-13" x1="1114.96" y1="541.81" x2="1127.23" y2="563.07" xlink:href="#New_Gradient_Swatch_9"/><linearGradient id="New_Gradient_Swatch_9-14" x1="1082.38" y1="502.74" x2="1117.38" y2="563.37" xlink:href="#New_Gradient_Swatch_9"/><linearGradient id="New_Gradient_Swatch_16-13" x1="1086.86" y1="515.25" x2="1113.9" y2="562.09" xlink:href="#New_Gradient_Swatch_16"/><linearGradient id="New_Gradient_Swatch_9-15" x1="1086.78" y1="544.07" x2="1099.63" y2="566.32" xlink:href="#New_Gradient_Swatch_9"/><linearGradient id="New_Gradient_Swatch_16-14" x1="1090.24" y1="549.78" x2="1098.76" y2="564.53" xlink:href="#New_Gradient_Swatch_16"/><linearGradient id="New_Gradient_Swatch_16-15" x1="1115.97" y1="547.5" x2="1124.04" y2="561.47" xlink:href="#New_Gradient_Swatch_16"/><linearGradient id="linear-gradient-3" x1="948.27" y1="516.42" x2="1023.18" y2="646.18" xlink:href="#linear-gradient"/><linearGradient id="linear-gradient-4" x1="817.08" y1="119.8" x2="1089.75" y2="592.07" gradientUnits="userSpaceOnUse"><stop offset="0" stop-color="#dee9ee"/><stop offset="0.99" stop-color="#a8c6d4"/></linearGradient><linearGradient id="New_Gradient_Swatch_9-16" x1="834.67" y1="133.39" x2="1072.17" y2="544.77" xlink:href="#New_Gradient_Swatch_9"/><linearGradient id="linear-gradient-5" x1="717.73" y1="454.73" x2="787.9" y2="576.28" xlink:href="#linear-gradient"/><linearGradient id="New_Gradient_Swatch_9-17" x1="688.04" y1="402.12" x2="758.21" y2="523.66" xlink:href="#New_Gradient_Swatch_9"/><linearGradient id="linear-gradient-6" x1="904.81" y1="223.72" x2="1016.13" y2="416.53" xlink:href="#linear-gradient"/><linearGradient id="linear-gradient-7" x1="1144.54" y1="415.58" x2="1211.83" y2="532.14" gradientTransform="translate(1462.06 -763.91) rotate(81.01)" xlink:href="#linear-gradient"/><linearGradient id="New_Gradient_Swatch_16-16" x1="883.24" y1="553.18" x2="888.47" y2="562.24" xlink:href="#New_Gradient_Swatch_16"/><linearGradient id="New_Gradient_Swatch_16-17" x1="891.48" y1="554.16" x2="895.8" y2="561.65" xlink:href="#New_Gradient_Swatch_16"/><linearGradient id="New_Gradient_Swatch_16-18" x1="897.85" y1="559.81" x2="898.95" y2="561.71" xlink:href="#New_Gradient_Swatch_16"/><linearGradient id="New_Gradient_Swatch_16-19" x1="862.54" y1="514.6" x2="885.55" y2="554.44" xlink:href="#New_Gradient_Swatch_16"/><linearGradient id="New_Gradient_Swatch_16-20" x1="911.42" y1="542.1" x2="920.79" y2="558.33" xlink:href="#New_Gradient_Swatch_16"/><linearGradient id="New_Gradient_Swatch_16-21" x1="899" y1="516.19" x2="914.77" y2="543.51" xlink:href="#New_Gradient_Swatch_16"/><linearGradient id="linear-gradient-8" x1="883.93" y1="555.52" x2="905.9" y2="593.57" xlink:href="#linear-gradient-4"/></defs><title>Artboard 1</title><g class="cls-1"><g id="Layer_1" data-name="Layer 1"><circle class="cls-2" cx="936" cy="211" r="555"/><path class="cls-3" d="M1267.26,586.62h-701a8,8,0,0,0-8,7.93h0a8,8,0,0,0,8,7.93h701a8,8,0,0,0,8-7.93h0A8,8,0,0,0,1267.26,586.62Z"/><path class="cls-4" d="M1182.37,566.86h-17.29c0-9.15-6.11-18.16-10.67-25.85-.15-.24-.29-.49-.44-.74-3.93-6.7-9-12.92-10.56-20.72a10.38,10.38,0,0,1,.56-6.77,9,9,0,0,1,5.89-4.2C1178.67,501.29,1184.69,539.24,1182.37,566.86Z"/><path class="cls-5" d="M1174.94,566.86h-.75a78.4,78.4,0,0,0-1.1-11.55,85.5,85.5,0,0,0-3.43-13.56,76.8,76.8,0,0,0-13.61-24.38c-.49-.62,0-1,.47-.4a65.6,65.6,0,0,1,14.64,24.28,73,73,0,0,1,3.22,13.88A68.72,68.72,0,0,1,1174.94,566.86Z"/><path class="cls-6" d="M1213.2,566.86h17.6c0-22.26,25.53-44.13,6.28-46.49-6.84-.84-11.73,2.62-15.21,8C1213.2,541.72,1213.2,566.86,1213.2,566.86Z"/><path class="cls-7" d="M1193.94,566.86h21.6c3.52-32.07,2.56-112.45-44.5-104.56C1134.94,468.36,1193,514.67,1193.94,566.86Z"/><path class="cls-8" d="M1182.13,480a57.5,57.5,0,0,1,7.28,10.38,79.64,79.64,0,0,1,5.3,11.49,115.22,115.22,0,0,1,3.82,12.08q1.59,6.13,2.68,12.4a228.94,228.94,0,0,1,3,25.21c.33,5.1.54,10.19.59,15.29h1.47c.19-5.12.18-10.26,0-15.39a184.47,184.47,0,0,0-2.66-25.54c-.74-4.22-1.7-8.42-2.85-12.55a102.24,102.24,0,0,0-4.16-12.22c-.79-2-1.73-3.94-2.67-5.89s-2-3.82-3.17-5.64a56.07,56.07,0,0,0-7.93-10.22C1181.86,478.44,1181.26,479,1182.13,480Z"/><path class="cls-9" d="M1177,566.86h17.92s4.73-37.28-15.56-37.25C1160.86,529.62,1173.19,552.66,1177,566.86Z"/><path class="cls-10" d="M1182.31,538.81c2.66,8.39,3.8,17.17,4.42,25.92,0,.7.08,1.42.12,2.13h1.56c0-.76-.07-1.5-.12-2.25a87.85,87.85,0,0,0-5.44-26C1182.57,538,1182.08,538.15,1182.31,538.81Z"/><path class="cls-11" d="M1219.94,566.86h1.12c.41-3.38.93-6.76,1.58-10.1a103.94,103.94,0,0,1,3.8-13.77c.42-1.12.9-2.21,1.34-3.31.23-.55.44-1.11.7-1.65l.8-1.59.8-1.61a13.21,13.21,0,0,1,.87-1.56l1.89-3c.4-.63.08-.88-.36-.25l-2.06,3a11.88,11.88,0,0,0-.93,1.56l-.89,1.58-.87,1.6c-.28.53-.5,1.09-.76,1.64-.49,1.11-1,2.2-1.46,3.32a89.74,89.74,0,0,0-4,13.89C1220.8,560,1220.29,563.41,1219.94,566.86Z"/><path class="cls-12" d="M629.36,572.05H610.13c0-10.18-6.79-20.21-11.87-28.76l-.49-.82C593.4,535,587.71,528.09,586,519.42c-.49-2.52-.58-5.26.61-7.54a10.09,10.09,0,0,1,6.56-4.67C625.24,499.11,631.94,541.33,629.36,572.05Z"/><path class="cls-13" d="M621.1,572.05h-.83A87.89,87.89,0,0,0,619,559.2a95.55,95.55,0,0,0-3.81-15.09A85.82,85.82,0,0,0,600.09,517c-.55-.68-.06-1,.51-.44a72.79,72.79,0,0,1,16.29,27A80.21,80.21,0,0,1,620.48,559,77,77,0,0,1,621.1,572.05Z"/><path class="cls-14" d="M663.67,572.05h19.57c0-24.77,28.4-49.09,7-51.72-7.62-.94-13.05,2.92-16.93,8.9C663.67,544.08,663.67,572.05,663.67,572.05Z"/><path class="cls-15" d="M642.24,572.05h24c3.91-35.67,2.84-125.1-49.51-116.31C576.6,462.47,641.21,514,642.24,572.05Z"/><path class="cls-16" d="M629.1,475.44A63.73,63.73,0,0,1,637.2,487a88.58,88.58,0,0,1,5.89,12.79,127.85,127.85,0,0,1,4.25,13.44q1.77,6.82,3,13.78a258.48,258.48,0,0,1,3.29,28c.36,5.67.6,11.34.65,17h1.64c.21-5.7.2-11.41,0-17.12a205.61,205.61,0,0,0-3-28.41c-.83-4.7-1.9-9.36-3.17-14A113.15,113.15,0,0,0,645.15,499c-.88-2.23-1.93-4.4-3-6.56s-2.22-4.25-3.53-6.27a61.84,61.84,0,0,0-8.82-11.37C628.8,473.69,628.13,474.3,629.1,475.44Z"/><path class="cls-17" d="M623.35,572.05H643.3s5.26-41.47-17.32-41.44C605.44,530.62,619.16,556.25,623.35,572.05Z"/><path class="cls-18" d="M629.3,540.85c3,9.33,4.22,19.1,4.92,28.83,0,.78.08,1.58.13,2.37h1.73c0-.84-.07-1.67-.13-2.5-.72-9.84-2.39-19.71-6.05-28.94C629.59,539.89,629.05,540.11,629.3,540.85Z"/><path class="cls-19" d="M671.15,572.05h1.26c.46-3.76,1-7.52,1.75-11.23a115.38,115.38,0,0,1,4.23-15.32c.47-1.25,1-2.46,1.49-3.68.26-.62.49-1.24.77-1.84l.9-1.78.89-1.78a16.34,16.34,0,0,1,1-1.74l2.11-3.39c.44-.7.09-1-.41-.27l-2.28,3.31a13.91,13.91,0,0,0-1,1.73l-1,1.76-1,1.78c-.31.59-.56,1.21-.85,1.82-.53,1.24-1.11,2.45-1.61,3.7a97.9,97.9,0,0,0-4.5,15.45C672.12,564.37,671.55,568.21,671.15,572.05Z"/><path class="cls-20" d="M698.26,473.81c-8.53-4.47-20.43,13.65-20.43,13.65,4.09-12.34,17.89-44.08,5.89-51.93-9.74-6.38-20.38,5.89-24,15.41,2.87-11,14.78-45.13,3.33-49.69-10-4-17.32,12.22-18.71,21.61-1.18-9.74-2.67-42.73-21.1-38.47-17.74,4.53-7.59,34.87-2.92,45.94-5.32-6.57-18.65-20-25.58-9.6-11.23,16.92,31.07,44.42,31.07,44.42s-25.35-8.11-25.15,7.22c.27,21.68,25.81,32.76,44.59,33.93C618.43,504,621,528.41,640.12,538a51.71,51.71,0,0,0,50.68-3C700.91,524.39,711.21,480.59,698.26,473.81Z"/><path class="cls-21" d="M687.94,502.58c-1.08,3.34-2.33,6.63-3.68,9.83a69.21,69.21,0,0,1-3.57,7.16A284.59,284.59,0,0,1,658.08,486a106.89,106.89,0,0,0,6-9.28c2-3.5,3.85-7.22,5.51-10.95s3.15-7.54,4.46-11.38a107.89,107.89,0,0,0,3.36-11.65,103.73,103.73,0,0,1-3.77,11.46c-1.44,3.77-3.06,7.49-4.84,11.1s-3.77,7.19-5.86,10.54a98.29,98.29,0,0,1-5.88,8.32,258.34,258.34,0,0,1-14-28.42,116.3,116.3,0,0,0,5.28-11c.87-1.92,1.55-4,2.35-5.91s1.42-4,2.05-6c1.24-4,2.46-8.11,3.45-12.21s1.88-8.21,2.5-12.37c-.76,4.12-1.78,8.19-2.91,12.22s-2.48,8.06-3.86,12c-.69,2-1.5,3.9-2.24,5.87s-1.59,3.86-2.53,5.71a101.11,101.11,0,0,1-5,9.51,344.4,344.4,0,0,1-17.34-59.07,345.43,345.43,0,0,0,15.81,59.75,60.44,60.44,0,0,1-10-3.41,80.11,80.11,0,0,1-11.19-6.05,101.29,101.29,0,0,1-10.65-7.93,100.1,100.1,0,0,1-9.91-9.67,102.4,102.4,0,0,0,9.7,10.11,105.52,105.52,0,0,0,10.53,8.42,83.32,83.32,0,0,0,11.2,6.57,64.13,64.13,0,0,0,11.16,4.16c4.17,10,8.57,19.55,13.46,29.22a38.86,38.86,0,0,1-9.91,1.05,55.43,55.43,0,0,1-12-1.73,76,76,0,0,1-12.07-4.22,82.09,82.09,0,0,1-11.83-6.39,84.4,84.4,0,0,0,11.74,6.89A78.16,78.16,0,0,0,632.92,486a57.51,57.51,0,0,0,12.24,2.23,40.15,40.15,0,0,0,10.68-.77,287.64,287.64,0,0,0,21.87,34.44,65.59,65.59,0,0,1-9.05,1.81,83.24,83.24,0,0,1-11.89.66,101.34,101.34,0,0,1-12.28-.94A94.93,94.93,0,0,1,632,520.82a97.2,97.2,0,0,0,12.57,3.1A104.89,104.89,0,0,0,657,525.37a87.41,87.41,0,0,0,12.13-.2,68.5,68.5,0,0,0,9.86-1.62,290,290,0,0,0,31.9,35.85l3.48-3.73A285.38,285.38,0,0,1,682,521.18a75.32,75.32,0,0,0,3.57-8.06c1.22-3.34,2.33-6.74,3.27-10.16s1.81-6.88,2.57-10.33,1.48-6.89,2-10.35c-.72,3.42-1.56,6.82-2.47,10.21S689,499.25,687.94,502.58Z"/><path class="cls-22" d="M1199.1,514.55c4.27-4.58,15.61,4,15.61,4-5.25-6.73-20.75-23.34-15.08-30.75,4.6-6,13.87-.74,18.17,4.36-4.18-6.15-19-24.66-13-29.92,5.28-4.61,13.37,3.82,16.29,9.3-1.41-6.25-7.76-26.91,4.54-28.24,11.93-1,12.36,19.87,11.92,27.7,1.83-5.19,7.08-16.36,13.65-11.41,10.65,8-9.36,34.06-9.36,34.06s13.83-10.44,17.09-.95c4.61,13.43-8.7,25.74-20,30.49,16-7.19,19.82,8.43,10.15,18.42a33.72,33.72,0,0,1-31.9,9C1208.61,546.31,1192.61,521.51,1199.1,514.55Z"/><path class="cls-23" d="M1211.8,530.08c1.4,1.83,2.9,3.59,4.44,5.27A46.29,46.29,0,0,0,1220,539a183.38,183.38,0,0,0,6.54-25.55,70.62,70.62,0,0,1-5.73-4.44c-2-1.73-4-3.63-5.8-5.57s-3.6-4-5.26-6.06a70.66,70.66,0,0,1-4.64-6.46,69.33,69.33,0,0,0,4.85,6.26c1.72,2,3.54,4,5.43,5.8s3.91,3.62,5.93,5.24a64.9,64.9,0,0,0,5.46,3.87,168.49,168.49,0,0,0,2.39-20.53,75.15,75.15,0,0,1-5.67-5.62c-1-1-1.83-2.11-2.75-3.14s-1.77-2.18-2.6-3.29c-1.65-2.2-3.3-4.47-4.82-6.78s-3-4.67-4.26-7.09c1.37,2.37,2.9,4.66,4.49,6.9s3.3,4.44,5,6.55c.85,1.07,1.78,2.09,2.67,3.14s1.84,2,2.82,3a68.63,68.63,0,0,0,5.19,4.78,224.54,224.54,0,0,0-2.32-40.14,226,226,0,0,1,3.42,40.23,40.46,40.46,0,0,0,5.41-4.24,52.79,52.79,0,0,0,5.56-6.13,66.08,66.08,0,0,0,4.82-7.18,65.22,65.22,0,0,0,4-8.08,66.68,66.68,0,0,1-3.75,8.31,69.31,69.31,0,0,1-4.64,7.45,54.34,54.34,0,0,1-5.46,6.45,41,41,0,0,1-6,5c-.36,7.06-1,13.89-1.85,20.9a24.78,24.78,0,0,0,6.33-1.48,35.26,35.26,0,0,0,7-3.64,48.49,48.49,0,0,0,6.52-5.19,53.81,53.81,0,0,0,5.88-6.47,54.83,54.83,0,0,1-5.72,6.76,50.23,50.23,0,0,1-6.43,5.53,37.57,37.57,0,0,1-7,4,25.86,25.86,0,0,1-6.75,1.81,187.1,187.1,0,0,1-5.9,25.93,42.38,42.38,0,0,0,6-.82,55.55,55.55,0,0,0,7.48-2.15,64.86,64.86,0,0,0,7.36-3.21,61.4,61.4,0,0,0,7.15-4.28,61.93,61.93,0,0,1-7.07,4.61,66,66,0,0,1-7.34,3.56,56.53,56.53,0,0,1-7.52,2.48,44.59,44.59,0,0,1-6.43,1.11A186.29,186.29,0,0,1,1210.18,570l-3-1.56a183.07,183.07,0,0,0,12.36-28.2,49.39,49.39,0,0,1-4-4.21c-1.49-1.79-2.92-3.65-4.26-5.56s-2.63-3.85-3.86-5.81-2.43-3.94-3.54-6c1.19,2,2.47,3.87,3.77,5.76S1210.4,528.26,1211.8,530.08Z"/><path class="cls-24" d="M1229.38,527c4.33-.93,7.29,8.53,7.29,8.53-.24-5.95-2.32-21.65,4-23.64,5.1-1.62,8.25,5.11,8.63,9.75.12-5.19-.82-21.73,4.81-22.34,4.91-.53,6.1,7.53,5.52,11.84,1.76-4.15,6.58-18.53,14.17-14.38,7.26,4.18-1,16.32-4.51,20.63,3.18-2.25,10.76-6.55,12.5-1.09,2.82,8.84-19.32,15.78-19.32,15.78s12.21-.47,10.19,6.27c-2.86,9.54-15.52,11.29-24,9.5,12.14,2.28,7.91,12.74-1.72,14.61a23.62,23.62,0,0,1-22-7.54C1221.83,549,1222.81,528.39,1229.38,527Z"/><path class="cls-25" d="M1230.3,541c.06,1.61.2,3.21.39,4.79a30.86,30.86,0,0,0,.67,3.6,131.79,131.79,0,0,0,14.21-12,47.93,47.93,0,0,1-1.46-4.83,55.8,55.8,0,0,1-1-5.51c-.26-1.84-.44-3.71-.53-5.57a49,49,0,0,1,0-5.55,50.94,50.94,0,0,0,.22,5.52c.16,1.84.41,3.68.74,5.49s.75,3.64,1.25,5.37a45,45,0,0,0,1.55,4.4A120.6,120.6,0,0,0,1256,525.8a52.69,52.69,0,0,1-.94-5.48c-.15-1-.19-1.94-.3-2.9s-.11-1.95-.14-2.92c0-1.92-.06-3.88,0-5.81s.21-3.86.46-5.77c-.19,1.91-.25,3.83-.26,5.75s.08,3.86.19,5.76c.06,1,.17,1.9.25,2.86s.22,1.91.4,2.84a45.09,45.09,0,0,0,1,4.81A159.93,159.93,0,0,0,1271.84,501a159.35,159.35,0,0,1-14.52,24.43,28.37,28.37,0,0,0,4.84-.28,38,38,0,0,0,5.7-1.29,48.66,48.66,0,0,0,5.7-2.19,47.76,47.76,0,0,0,5.59-3,47.67,47.67,0,0,1-5.55,3.27,51.1,51.1,0,0,1-5.71,2.42,39.64,39.64,0,0,1-5.77,1.52,29.89,29.89,0,0,1-5.46.46c-3.1,3.9-6.24,7.58-9.62,11.24a17.61,17.61,0,0,0,4.24,1.68,26.06,26.06,0,0,0,5.52.72,35.4,35.4,0,0,0,5.85-.38,38.14,38.14,0,0,0,6-1.37,39.23,39.23,0,0,1-6,1.6,36,36,0,0,1-6,.6,26.51,26.51,0,0,1-5.68-.51,18.59,18.59,0,0,1-4.62-1.66,133,133,0,0,1-14,12.51,29,29,0,0,0,3.77,1.91,39.14,39.14,0,0,0,5.16,1.76,46.79,46.79,0,0,0,5.54,1.09,44.77,44.77,0,0,0,5.85.4,44.82,44.82,0,0,1-5.94-.18,47.2,47.2,0,0,1-5.67-.89,38.87,38.87,0,0,1-5.32-1.57,31.37,31.37,0,0,1-4.15-1.93,134.44,134.44,0,0,1-18.61,11.9c-.42-.83-.63-1.25-1.06-2.08a131.34,131.34,0,0,0,18.64-11.23,35.94,35.94,0,0,1-.55-4c-.12-1.62-.18-3.26-.16-4.89s.07-3.25.16-4.87.22-3.22.41-4.82c-.12,1.6-.17,3.2-.2,4.81S1230.25,539.35,1230.3,541Z"/><path class="cls-26" d="M605.72,568.73c11.43-2.15,19.69,6.32,20.23,6.86.5-1.74,5.49-17.73,21.66-23.39a34.71,34.71,0,0,1,22.32,0,15.74,15.74,0,0,1,2.81-15.88,16.22,16.22,0,0,1,16.75-4.79,31.88,31.88,0,0,1,32.09-13.81,31.52,31.52,0,0,1,25.13,23.44,16.28,16.28,0,0,1,16.75-6.9,16,16,0,0,1,11.9,11,29.57,29.57,0,0,1,30-7.56,29,29,0,0,1,19.3,19.76,30.07,30.07,0,0,1,27.29-5.2,29.74,29.74,0,0,1,20,34.33H588.25A22.24,22.24,0,0,1,605.72,568.73Z"/><path class="cls-27" d="M1040.05,573c8.71-1.63,15,4.82,15.41,5.23.38-1.32,4.18-13.51,16.49-17.82a26.54,26.54,0,0,1,17,0,12,12,0,0,1,2.14-12.09,12.39,12.39,0,0,1,12.76-3.65,24.27,24.27,0,0,1,24.44-10.51A24,24,0,0,1,1147.43,552a12.41,12.41,0,0,1,12.76-5.26,12.19,12.19,0,0,1,9.06,8.41,22.5,22.5,0,0,1,22.84-5.77,22.18,22.18,0,0,1,14.71,15,22.93,22.93,0,0,1,20.78-4,22.66,22.66,0,0,1,15.27,26.15h-216.1A16.93,16.93,0,0,1,1040.05,573Z"/><path class="cls-28" d="M1093,565.75h-10.59c0-5.6-3.74-11.12-6.53-15.82l-.27-.45c-2.41-4.11-5.53-7.92-6.46-12.69a6.34,6.34,0,0,1,.34-4.15,5.57,5.57,0,0,1,3.61-2.57C1090.68,525.61,1094.36,548.85,1093,565.75Z"/><path class="cls-29" d="M1088.4,565.75h-.46a47.94,47.94,0,0,0-.68-7.07,52.53,52.53,0,0,0-2.09-8.3,47.09,47.09,0,0,0-8.33-14.92c-.31-.38,0-.59.28-.25a40,40,0,0,1,9,14.87,43.59,43.59,0,0,1,2,8.49A42.14,42.14,0,0,1,1088.4,565.75Z"/><path class="cls-30" d="M1111.82,565.75h10.77c0-13.63,15.63-27,3.85-28.46-4.19-.51-7.18,1.61-9.31,4.9C1111.82,550.36,1111.82,565.75,1111.82,565.75Z"/><path class="cls-31" d="M1100,565.75h13.22c2.16-19.63,1.57-68.84-27.24-64C1063.91,505.45,1099.46,533.8,1100,565.75Z"/><path class="cls-32" d="M1092.8,512.59a35.41,35.41,0,0,1,4.46,6.35,48.74,48.74,0,0,1,3.24,7,69.7,69.7,0,0,1,2.34,7.39c.65,2.51,1.2,5,1.64,7.59a139.92,139.92,0,0,1,1.81,15.43c.2,3.12.33,6.24.36,9.36h.9q.18-4.71,0-9.42a112.55,112.55,0,0,0-1.63-15.63c-.45-2.59-1-5.16-1.74-7.69a62,62,0,0,0-2.55-7.47c-.48-1.23-1.06-2.42-1.63-3.61s-1.22-2.34-1.94-3.45a34.66,34.66,0,0,0-4.86-6.26C1092.64,511.63,1092.26,512,1092.8,512.59Z"/><path class="cls-33" d="M1089.64,565.75h11s2.9-22.82-9.53-22.8C1079.78,543,1087.33,557.06,1089.64,565.75Z"/><path class="cls-34" d="M1092.91,548.58a68.75,68.75,0,0,1,2.71,15.87c0,.43,0,.87.07,1.3h1c0-.46,0-.92-.07-1.37a53.65,53.65,0,0,0-3.33-15.93C1093.07,548.06,1092.77,548.18,1092.91,548.58Z"/><path class="cls-35" d="M1115.94,565.75h.69q.38-3.11,1-6.18a64.49,64.49,0,0,1,2.32-8.43c.26-.68.55-1.35.83-2,.14-.33.26-.68.42-1l.49-1,.49-1a9.84,9.84,0,0,1,.53-1l1.16-1.87c.24-.38.05-.54-.22-.15l-1.26,1.83a6.13,6.13,0,0,0-.57,1l-.54,1-.54,1c-.17.33-.31.67-.46,1-.3.68-.62,1.35-.89,2a52.47,52.47,0,0,0-2.48,8.51C1116.47,561.53,1116.16,563.64,1115.94,565.75Z"/><path class="cls-36" d="M860.06,568.73c11.43-2.15,19.68,6.32,20.23,6.86.5-1.74,5.49-17.73,21.65-23.39a34.75,34.75,0,0,1,22.33,0,15.76,15.76,0,0,1,2.8-15.88,16.24,16.24,0,0,1,16.76-4.79,31.87,31.87,0,0,1,32.08-13.81,31.53,31.53,0,0,1,25.14,23.44,16.27,16.27,0,0,1,16.75-6.9,16,16,0,0,1,11.9,11,29.56,29.56,0,0,1,30-7.56,29,29,0,0,1,19.3,19.76,30.07,30.07,0,0,1,27.29-5.2,29.75,29.75,0,0,1,20,34.33H842.59A22.23,22.23,0,0,1,860.06,568.73Z"/><path class="cls-3" d="M1166.48,139.56a66,66,0,0,0-34.65,29.55h24.32C1158.87,155.45,1163,145.76,1166.48,139.56Zm55.24,63.37h-29.29v24.15h27.23A160.1,160.1,0,0,0,1221.72,202.93Zm-68.39,0h-29.66a63.6,63.6,0,0,0,5.89,24.15h25.83A164.23,164.23,0,0,1,1153.33,202.93Zm2-29h-26a63.87,63.87,0,0,0-5.66,24.16h29.61A164.09,164.09,0,0,1,1155.33,173.93Zm71.34,24.16h29a64.39,64.39,0,0,0-5.77-24.16h-25.25A166.46,166.46,0,0,1,1226.67,198.09Zm20.76-29a65.93,65.93,0,0,0-33.85-29.35c3.47,6.22,7.55,15.82,10.22,29.35Zm-39.89-31.34a67.14,67.14,0,0,0-15.11-2.39v33.73h26.48C1215.93,154,1211.19,143.86,1207.54,137.77Zm12.18,36.16h-27.29v24.16h29.32A163.9,163.9,0,0,0,1219.72,173.93Zm-58.67-4.82h26.48V135.39a66.54,66.54,0,0,0-15,2.27C1168.82,143.73,1164.05,153.94,1161.05,169.11Zm52.41,92.2a65.85,65.85,0,0,0,33.93-29.39h-23.62C1221.07,245.59,1217,255.16,1213.46,261.31Zm-21-29.39v33.62a68,68,0,0,0,14.94-2.24c3.68-6,8.44-16.19,11.45-31.38Zm32.13-4.84h25.18a64.32,64.32,0,0,0,5.85-24.15h-28.95A164,164,0,0,1,1224.56,227.08Zm-64.27,0h27.24V202.93h-29.3A164.1,164.1,0,0,0,1160.29,227.08Zm12.37,36.33a66.23,66.23,0,0,0,14.87,2.21v-33.7h-26.38C1164.17,247.21,1169,257.45,1172.66,263.41Zm-40.77-31.49a65.93,65.93,0,0,0,34.73,29.6c-3.51-6.14-7.7-15.8-10.42-29.6Zm26.31-33.83h29.33V173.93h-27.28A163.71,163.71,0,0,0,1158.2,198.09Z"/><path class="cls-3" d="M635.54,282.41c-.06.95-.09,1.89-.09,2.84a47.27,47.27,0,0,0,1.84,13v0l5.75-1.61a41.48,41.48,0,0,0,9.07,16.3l-4.5,3.94a48.46,48.46,0,0,0,12.63,10l2.92-5.17A42.69,42.69,0,0,0,681.26,327l-.37,5.91c1,.06,1.94.09,2.92.09A49.27,49.27,0,0,0,697,331.2l.15,0-1.65-5.68a42.42,42.42,0,0,0,16.5-9l4,4.42a47.9,47.9,0,0,0,10.11-12.48l-5.25-2.87a41.4,41.4,0,0,0,5.27-17.86l6,.35q.09-1.38.09-2.76a47.27,47.27,0,0,0-1.84-13l0-.11-5.76,1.62a41.41,41.41,0,0,0-9.09-16.29l4.49-3.94a48.26,48.26,0,0,0-12.64-10l-2.92,5.18a42.7,42.7,0,0,0-18.09-5.21l.36-5.92c-.94-.05-1.89-.08-2.84-.08a49.27,49.27,0,0,0-13.19,1.81l-.08,0,1.64,5.68a42.29,42.29,0,0,0-16.51,9l-4-4.43A47.92,47.92,0,0,0,641.58,262l5.25,2.88a41.39,41.39,0,0,0-5.3,17.85ZM694,320.88l.29,1h0Zm-35.85-35.62a25.35,25.35,0,0,1,18.66-24.32,26.1,26.1,0,0,1,7-1,25.6,25.6,0,0,1,24.65,18.41,25.06,25.06,0,0,1,1,6.9,25.36,25.36,0,0,1-18.66,24.32,26.12,26.12,0,0,1-7,1,25.58,25.58,0,0,1-24.64-18.41A24.68,24.68,0,0,1,658.19,285.26Z"/><path class="cls-3" d="M598.59,198.64a33.39,33.39,0,0,0,1.29,9.17l0,.09,3.86-1.09a29.61,29.61,0,0,0,4,8.39l-3.36,2.23A34,34,0,0,0,616.08,228l2-3.5a30.6,30.6,0,0,0,8.8,3.18l-.79,3.94a34.32,34.32,0,0,0,6.59.64A34.67,34.67,0,0,0,642,231l.35-.1h0l-1.14-3.82a30.4,30.4,0,0,0,8.48-4l2.28,3.28a33.73,33.73,0,0,0,10.65-11.63h0L659,212.87a29.48,29.48,0,0,0,3.15-8.72l4,.75a33.22,33.22,0,0,0-.7-15.4l-.08-.26-3.87,1.11a29.54,29.54,0,0,0-4-8.37l3.34-2.24A33.9,33.9,0,0,0,649.1,169.2l-2,3.5a30.22,30.22,0,0,0-8.82-3.13l.77-3.94a34.1,34.1,0,0,0-6.4-.6,34.68,34.68,0,0,0-9.3,1.27l-.17,0,1.11,3.82a30.14,30.14,0,0,0-8.49,3.94l-2.27-3.31a33.84,33.84,0,0,0-10.71,11.57l3.55,1.94a29.4,29.4,0,0,0-3.2,8.69l-4-.76A32.45,32.45,0,0,0,598.59,198.64Zm14.57,5.47a19.65,19.65,0,0,1-.78-5.47,20.09,20.09,0,0,1,14.77-19.24,20.36,20.36,0,0,1,25,13.81,19.58,19.58,0,0,1,.78,5.46,20.06,20.06,0,0,1-14.77,19.24,20.36,20.36,0,0,1-25-13.8Z"/><path class="cls-37" d="M1218.69,204.66V507.24a18.26,18.26,0,0,1-18.35,18.11H706.44a18.21,18.21,0,0,1-18.29-18.11V204.66a18.16,18.16,0,0,1,18.29-18.11h493.9A18.21,18.21,0,0,1,1218.69,204.66Z"/><path class="cls-38" d="M1200.34,527.32H706.44a20.21,20.21,0,0,1-20.29-20.08V204.66a20.2,20.2,0,0,1,20.29-20.08h493.9a20.23,20.23,0,0,1,20.35,20.08V507.24A20.24,20.24,0,0,1,1200.34,527.32Zm-493.9-338.8a16.24,16.24,0,0,0-16.29,16.14V507.24a16.24,16.24,0,0,0,16.29,16.14h493.9a16.27,16.27,0,0,0,16.35-16.14V204.66a16.27,16.27,0,0,0-16.35-16.14Z"/><path class="cls-39" d="M1218.69,491.93v15.31a18.25,18.25,0,0,1-18.35,18.11H706.44a18.2,18.2,0,0,1-18.29-18.11V491.93Z"/><rect class="cls-40" x="707.74" y="206.67" width="491.35" height="264.81"/><rect class="cls-38" x="890.77" y="525.35" width="125.3" height="56.16"/><rect class="cls-39" x="854.53" y="581.5" width="197.77" height="11.13"/><path class="cls-41" d="M1148.72,186.55V399.27a5.77,5.77,0,0,1-3.9,5.47L958.05,471.49l-2.48.89a21.18,21.18,0,0,1-14.28,0l-2.53-.91L752,404.74a5.77,5.77,0,0,1-3.9-5.47V186.55H940l8.44,2.94,3.4-1.17,0-1.77Z"/><path class="cls-42" d="M802,544.51a21.82,21.82,0,1,1,0,43.63H623.9V544.51Z"/><rect class="cls-43" x="623.89" y="576.02" width="189.98" height="1.81"/><rect class="cls-43" x="623.89" y="568.95" width="193.72" height="1.81"/><rect class="cls-43" x="623.89" y="561.89" width="193.72" height="1.81"/><rect class="cls-43" x="623.89" y="554.82" width="189.99" height="1.81"/><path class="cls-38" d="M619.69,540H802a26.31,26.31,0,1,1,0,52.61H619.69v-9H802A17.32,17.32,0,1,0,802,549H619.69Z"/><path class="cls-42" d="M668.35,535.53a21.82,21.82,0,1,1,0-43.63H846.5v43.63Z"/><rect class="cls-43" x="656.53" y="502.21" width="189.98" height="1.81"/><rect class="cls-43" x="652.78" y="509.28" width="193.72" height="1.81"/><rect class="cls-43" x="652.78" y="516.34" width="193.72" height="1.81"/><rect class="cls-43" x="656.52" y="523.4" width="189.99" height="1.81"/><path class="cls-44" d="M850.71,540H668.35a26.31,26.31,0,1,1,0-52.61H850.71v9H668.35a17.32,17.32,0,1,0,0,34.64H850.71Z"/><path class="cls-42" d="M638.66,482.91a21.82,21.82,0,1,1,0-43.63H816.81v43.63Z"/><rect class="cls-43" x="626.83" y="449.9" width="189.98" height="1.21"/><rect class="cls-43" x="623.09" y="456.97" width="193.72" height="1.21"/><rect class="cls-43" x="623.09" y="464.03" width="193.72" height="1.21"/><rect class="cls-43" x="626.82" y="471.09" width="189.99" height="1.21"/><path class="cls-45" d="M821,487.41H638.66a26.31,26.31,0,1,1,0-52.62H821v9H638.66a17.32,17.32,0,1,0,0,34.64H821Z"/><path class="cls-46" d="M1129.15,150.26a5.46,5.46,0,0,0-3-.91,5.53,5.53,0,0,0-2,.37l-17.2,6.76L948.42,211.74,789.9,156.48l-17.19-6.76a5.51,5.51,0,0,0-5,.54,5.29,5.29,0,0,0-2.36,4.4v237a5.32,5.32,0,0,0,3.55,5l173,61.84a19.37,19.37,0,0,0,13,0l173-61.84a5.31,5.31,0,0,0,3.56-5V154.66A5.3,5.3,0,0,0,1129.15,150.26Z"/><polygon class="cls-47" points="1108.83 143.93 1108.83 384.67 1126.13 392.26 1126.13 155.31 1108.83 143.93"/><path class="cls-48" d="M953,439a13.67,13.67,0,0,1-9.16,0L788,384.67l-17.28,7.59,173,61.83a13.83,13.83,0,0,0,9.37,0l173-61.83-17.3-7.59Z"/><polygon class="cls-49" points="788 143.93 770.72 155.31 770.72 392.26 788 384.67 788 143.93"/><path class="cls-49" d="M948.42,439.79A13.87,13.87,0,0,0,953,439l155.83-54.33V143.93L948.42,199.85V439.78Z"/><path class="cls-50" d="M1081.67,335.53,964.5,376.37a1.6,1.6,0,1,0,1.07,3l117.17-40.84a1.58,1.58,0,0,0,1-2A1.63,1.63,0,0,0,1081.67,335.53Zm0-16.66L964.5,359.71a1.58,1.58,0,0,0-1,2,1.63,1.63,0,0,0,2.06,1l117.17-40.84a1.59,1.59,0,0,0,1-2A1.61,1.61,0,0,0,1081.67,318.87Zm0-16.67L964.5,343a1.6,1.6,0,0,0-1,2,1.62,1.62,0,0,0,2.06,1l117.17-40.84a1.58,1.58,0,0,0,1-2A1.62,1.62,0,0,0,1081.67,302.2Zm0,50L964.5,393a1.58,1.58,0,0,0-1,2,1.62,1.62,0,0,0,2.06,1l117.17-40.85a1.59,1.59,0,0,0,1-2A1.62,1.62,0,0,0,1081.67,352.19ZM965.57,212.75l117.17-40.85a1.59,1.59,0,0,0,1-2,1.61,1.61,0,0,0-2.06-1L964.5,209.74a1.58,1.58,0,0,0-1,2A1.63,1.63,0,0,0,965.57,212.75Zm116.1,156.1L964.5,409.71a1.58,1.58,0,0,0-1,2,1.61,1.61,0,0,0,2.06,1l117.17-40.85a1.58,1.58,0,0,0,1-2A1.63,1.63,0,0,0,1081.67,368.85Zm0-166.63L964.5,243.07a1.58,1.58,0,0,0-1,2,1.62,1.62,0,0,0,2.06,1l117.17-40.85a1.59,1.59,0,0,0,1-2A1.61,1.61,0,0,0,1081.67,202.22Zm0,16.66L964.5,259.72a1.6,1.6,0,1,0,1.07,3l117.17-40.84a1.58,1.58,0,0,0,1-2A1.63,1.63,0,0,0,1081.67,218.88Zm0-33.33L964.5,226.4a1.6,1.6,0,1,0,1.07,3l117.17-40.85a1.58,1.58,0,0,0,1-2A1.62,1.62,0,0,0,1081.67,185.55Zm0,50L964.5,276.39a1.59,1.59,0,0,0-1,2,1.62,1.62,0,0,0,2.06,1l117.17-40.84a1.59,1.59,0,0,0,1-2A1.62,1.62,0,0,0,1081.67,235.55Zm0,16.66L964.5,293.06a1.58,1.58,0,0,0-1,2,1.61,1.61,0,0,0,2.06,1l117.17-40.84a1.58,1.58,0,0,0,1-2A1.63,1.63,0,0,0,1081.67,252.21Zm0,33.33L964.5,326.39a1.58,1.58,0,0,0-1,2,1.63,1.63,0,0,0,2.06,1l117.17-40.86a1.58,1.58,0,0,0,1-2A1.61,1.61,0,0,0,1081.67,285.54Zm0-16.67L964.5,309.72a1.6,1.6,0,0,0-1,2,1.62,1.62,0,0,0,2.06,1l117.17-40.85a1.59,1.59,0,0,0,1-2A1.62,1.62,0,0,0,1081.67,268.87Z"/><path class="cls-47" d="M948.42,439.79a13.79,13.79,0,0,1-4.58-.79L788,384.67V143.93l160.42,55.92V439.78Z"/><path class="cls-50" d="M813.1,336.51a1.58,1.58,0,0,0,1,2l117.17,40.84a1.61,1.61,0,0,0,2.06-1,1.59,1.59,0,0,0-1-2L815.16,335.53A1.63,1.63,0,0,0,813.1,336.51Zm0-16.67a1.6,1.6,0,0,0,1,2l117.17,40.84a1.63,1.63,0,0,0,2.06-1,1.58,1.58,0,0,0-1-2L815.16,318.87A1.61,1.61,0,0,0,813.1,319.84Zm0-16.67a1.59,1.59,0,0,0,1,2l117.17,40.84a1.62,1.62,0,0,0,2.06-1,1.59,1.59,0,0,0-1-2L815.16,302.2A1.62,1.62,0,0,0,813.1,303.17Zm0,50a1.6,1.6,0,0,0,1,2l117.17,40.85a1.62,1.62,0,0,0,2.06-1,1.58,1.58,0,0,0-1-2L815.16,352.19A1.62,1.62,0,0,0,813.1,353.16ZM933.32,211.77a1.58,1.58,0,0,0-1-2L815.16,168.89a1.6,1.6,0,1,0-1.07,3l117.17,40.85A1.63,1.63,0,0,0,933.32,211.77ZM813.1,369.83a1.58,1.58,0,0,0,1,2l117.17,40.85a1.61,1.61,0,0,0,2.06-1,1.58,1.58,0,0,0-1-2L815.16,368.85A1.63,1.63,0,0,0,813.1,369.83Zm0-166.64a1.6,1.6,0,0,0,1,2l117.17,40.85a1.62,1.62,0,0,0,2.06-1,1.58,1.58,0,0,0-1-2L815.16,202.22A1.61,1.61,0,0,0,813.1,203.19Zm0,16.67a1.58,1.58,0,0,0,1,2l117.17,40.84a1.61,1.61,0,0,0,2.06-1,1.59,1.59,0,0,0-1-2L815.16,218.88A1.63,1.63,0,0,0,813.1,219.86Zm0-33.33a1.58,1.58,0,0,0,1,2l117.17,40.85a1.61,1.61,0,0,0,2.06-1,1.59,1.59,0,0,0-1-2L815.16,185.55A1.62,1.62,0,0,0,813.1,186.53Zm0,50a1.6,1.6,0,0,0,1,2L931.26,279.4a1.62,1.62,0,0,0,2.06-1,1.59,1.59,0,0,0-1-2L815.16,235.55A1.62,1.62,0,0,0,813.1,236.52Zm0,16.67a1.58,1.58,0,0,0,1,2l117.17,40.84a1.61,1.61,0,0,0,2.06-1,1.58,1.58,0,0,0-1-2L815.16,252.21A1.63,1.63,0,0,0,813.1,253.19Zm0,33.32a1.58,1.58,0,0,0,1,2L931.26,329.4a1.63,1.63,0,0,0,2.06-1,1.58,1.58,0,0,0-1-2L815.16,285.54A1.61,1.61,0,0,0,813.1,286.51Zm0-16.67a1.6,1.6,0,0,0,1,2l117.17,40.85a1.62,1.62,0,0,0,2.06-1,1.59,1.59,0,0,0-1-2L815.16,268.87A1.62,1.62,0,0,0,813.1,269.84Z"/><polygon class="cls-51" points="951.5 196.76 953.6 448.87 961.71 436.19 970.1 443.12 967.28 191.26 951.5 196.76"/><ellipse class="cls-52" cx="1178.18" cy="473.86" rx="66.33" ry="68.74" transform="translate(525.98 1563.49) rotate(-81.01)"/><g class="cls-53"><path class="cls-54" d="M1163.5,412.81c-3.85-1.35-3.85-1.35-6.38-.3C1159.73,415.25,1159.73,415.25,1163.5,412.81Zm14.29,66.46,2.2-1.6c-.26-.62-.35-1.15-.51-1.17-2.92-.31-5.86-.57-9.51-.91C1172.62,477.83,1176.08,476.51,1177.79,479.27Zm-7.51-67c-.2.8-.37,1.47-.56,2.21l1.87,1.53c-1.91.61-1.34,1.74-1.1,3.15.13.75-1.14,1.73-2.1,3.05,4-.19,7-.58,9.31-3.65.88-1.2,3.21-1.35,5.11-2.06-.47-1.07-.72-1.66-1-2.38.48,0,1.22.18,1.41-.06,1.16-1.49,3.36-1.25,4.44-2.49a4.44,4.44,0,0,1,5.15-1.51,2.44,2.44,0,0,0,2.5-.32l-.73-.19a70.87,70.87,0,0,0-21.93-1.94c-.34.26-.66.53-1,.82a6.87,6.87,0,0,1-3.28,1.54,5.67,5.67,0,0,0,.63,1.64A4.07,4.07,0,0,0,1170.28,412.28Zm3.52,23.25-4.29,1.65c-.11.43-.31,1.22-.51,2l5.55.14c-.17-.72-.34-1.32-.46-1.93S1173.9,436.16,1173.8,435.53Zm-39.63-8.37-.79-3.57,6.72-.3c.57-.69,1.37-1.68,2.18-2.68a4.09,4.09,0,0,0-4.21-1.05,66.79,66.79,0,0,0-12.75,11.34c-.07,1.07-.65,2.16-.79,3.23-2.91,1.39-.3,3.33-1,5.14l3.78-.6c1.16-2,2.31-3.92,3.7-6.3l-2-2.4Zm57,49c1,.39,1.77,3.23,3.34-.06-2.69-.61-4.91-2.45-7.8-.53-.74.49-2.27-.28-3.42-.23-.42,0-.81.76-1.28,1.25C1185.44,479.49,1188.17,475.92,1191.15,476.14ZM1235.52,442a5,5,0,0,1,.56-3.2,68.52,68.52,0,0,0-15.71-16.87c-.72.23-1.55.53-2.22.71l-1.14-1.76,1.56-.27a68.42,68.42,0,0,0-5.92-3.79l-2.36.51c.11.52.26,1.28.48,2.31l-4,1.05,2.46-3.43-2.08-3.26c-1.38-.63-2.78-1.23-4.21-1.77l-2.48-.13.44-.62c-.94-.32-1.89-.63-2.85-.92.25.68.51,1.37.79,2.14l4.68,1.16c0,.26-.11.52-.16.77l-5.57-1.08-11.57,5,1.48,3-1.44,1.43,2.62,2.29c4.18-2.16,4.18-2.16,7.76-1.71l-3.28-4.12c.6-.34,1-.61,1.51-.86,3.12-1.63,3.6-1.39,4.85,2.14a24.66,24.66,0,0,0,1.59,3.05l-3.79,1.43a21.17,21.17,0,0,0,4,.94c1.3,0,3.3-1.15,3.74,0,.77,2.06,2.79,3.19,3.34,5.23a2.26,2.26,0,0,1-1.28,2.94,17.15,17.15,0,0,1-3.74,1.31,26.51,26.51,0,0,1-4.35,0c-.83,1.4-.28,4.56-4,4.06-.24-1.93,1.19-4.28-.83-6-.21-.18-.08-1.17.21-1.41,2.13-1.78.83-4.15,1.22-6.1-4.4-3.17-6,2.19-9.45,3.16-.32-1.13-.56-2-.83-2.94-.54.11-1.14.06-1.47.33a9.19,9.19,0,0,0-2.06,2.07,4.61,4.61,0,0,1-3.57,2,7.63,7.63,0,0,0-5.12,2.64c1,1.44,3.16,1.62,4,3.41.69,1.56,2.19,2.77,3.58,4.44l-2.71,1.71-2.81-2c-.21.22-.41.45-.62.68l5,4.86.81-1.65,3.56,1.92c-.1.79-.21,1.61-.32,2.43,1.58,1.29,3.48,2.21,3.79,4.63.1.75,1.29,1.37,2,2-2,2.28-2.13,2.66-.89,4.19,1.37,1.69,2.81,3.31,4.1,4.81-.81,2.86-3.26,4.77-2.72,8.1l5-5.51,6.27.21c.12,1,.19,1.69.26,2.32,4.42-.19,4.42-.19,7.42,3.5-.67,2.64-1.36,5.32-2,8.06-1.54.85-2.78,2.31-5.09,1.57s-1.92-2.45-2.44-3.9l-3.36-.83c.16,2.05.31,4,.48,6.35l-5.49-1c-.52.9-1.4,1.8-1.58,2.83-.6,3.49-1.23,4.17-4.58,4.06-1,0-2-.13-3-.18a2.6,2.6,0,0,0-.12.49c6.9,2.25,7,2.22,13.1-3.07.36.35.84,1.09,1.11,1a9.06,9.06,0,0,0,3.7-1.35c1.8-1.54,3.51-.85,5.39-.52,4.07.71,7.49-1.11,10.87-3-.72-2.14.91-2.88,2.24-4a41.17,41.17,0,0,0,3.28-3.56,16.28,16.28,0,0,1,2-1.45c-.11,1.42-.18,2.38-.23,2.92l3.07-1.47c-1.37-1.19,1.12-1.42,1.11-2.46a12.33,12.33,0,0,1,.71-3c1.1-1.51,3.06-1.75,4.3-3.44,2.31-3.15,2.22-6.34,1.79-9.77-.06-.48-.11-1-.19-1.43-.5-2.68-.39-2.66.41-6.08.32-1.38-.07-2.92.11-4.36S1235.67,443.26,1235.52,442Zm-32.93-20.84-.9-.79,2.64-4,3,.75ZM1181.81,491c-2.39-.29-.36-3.5-2.46-3.78-1.81-.24-2-1.93-3.1-3.11l-1,1.93c-1.7-2.28-4.09-1.26-6-.78s-2-.6-3.1-1.5L1158.3,487l-6.33-.12-4.47,5.86c-1.1-.36-2-1-2.71-.84-2,.44-3.86,1-5.87.24-2.2-.84-3.55,1.64-5.74,1.19,0,1.05,0,1.87,0,2.68a1,1,0,0,0,.26.45c2.81,3.31,3.65,7.46,4.9,11.41.84,2.63,1.63,5,4.86,5.84a5.44,5.44,0,0,1,3.63,3.72c1,3.6,2.71,6.78,6.5,8.36.39.17.54,1,.74,1.49a4.84,4.84,0,0,0,2.2,2.51c3,1.88,4,5,4.85,8.17l.69.18c1.14.28,2.28.53,3.42.76a5.81,5.81,0,0,0,.14-.68,20.26,20.26,0,0,0,.28-4.55c0-.63.76-1.31,1.1-1.83A31.28,31.28,0,0,1,1168,515.7a28.46,28.46,0,0,0,5.06-2.07c1.5-.92,2.54-2.53,3.94-3.63,1.61-1.27,3.41-2.32,5.28-3.57.75-1.27-.83-3.33,1-4.44l-3-4.82C1180.87,494.68,1181.34,492.83,1181.81,491Zm-58.33-42.56a6,6,0,0,1,.36-2.95c.56-2.28.73-4.32-1.45-6.07-.75-.6-.81-2-1.07-2.77l-.42,0a64.45,64.45,0,0,0-11.4,36l4.79,3.51c3.42-1.26,3.49-5.66,6.78-7.36a3,3,0,0,0,.67-2.86c-1.1-2,.26-3.6.43-5.6l2.46.1C1123.51,456.37,1124.74,452.35,1123.48,448.43Z"/></g><path class="cls-38" d="M1179.3,396.49a2.89,2.89,0,1,0,0,5.78c40.68,0,73.77,32.66,73.77,72.79s-33.09,72.79-73.77,72.79a73.5,73.5,0,0,1-59.16-29.32,3,3,0,0,0-4.11-.59,2.87,2.87,0,0,0-.59,4,79.31,79.31,0,0,0,63.86,31.64c43.91,0,79.63-35.24,79.63-78.57S1223.21,396.49,1179.3,396.49Z"/><rect class="cls-38" x="1176.02" y="550.74" width="6.56" height="27.17"/><path class="cls-38" d="M1139,592.16h82.28v-5.72a9.88,9.88,0,0,0-10-9.82H1149a9.88,9.88,0,0,0-10,9.82Z"/><path class="cls-3" d="M952.3,145a7.48,7.48,0,1,0,7.57,7.48A7.53,7.53,0,0,0,952.3,145ZM934.6,134.2l6.67,6.87a16.08,16.08,0,0,1,22.06,0L970,134.2a25.8,25.8,0,0,0-35.4,0Zm17.7-47a66.39,66.39,0,0,0-45.73,18.13l6.66,6.88a57,57,0,0,1,78.14,0l6.67-6.88A66.43,66.43,0,0,0,952.3,87.16Zm-31.53,32.77,6.66,6.88a36.24,36.24,0,0,1,49.74,0l6.66-6.88a46,46,0,0,0-63.06,0Z"/><path class="cls-55" d="M885,552.4s.59,1.71,1.2,3.85a36.15,36.15,0,0,1,1.4,6.48l-1,.08a36.29,36.29,0,0,0-1.37-6.28c-.3-1.06-.6-2-.82-2.69s-.36-1.11-.36-1.11l1-.33Z"/><path class="cls-56" d="M894.3,553.25l-.06.49c-.09.94-.28,3.13-.28,5.52,0,1.12,0,2.27.15,3.36l-1,.1c-.11-1.13-.16-2.32-.16-3.46a59.13,59.13,0,0,1,.34-6.13l1,.12Z"/><path class="cls-57" d="M899.44,560h0a3.46,3.46,0,0,0-.44.64,2.6,2.6,0,0,0-.37,1.23h-1a3.63,3.63,0,0,1,.55-1.82,4.26,4.26,0,0,1,.54-.75l.76.7Z"/><path class="cls-58" d="M886.25,553.44s5.32-6.66-2.86-20.49-25.06-17.17-25.83-15.38,8.57,5.25,11.16,15.89,2.95,16.53,6.19,19.73S882.57,557.67,886.25,553.44Z"/><path class="cls-59" d="M897.21,554.79s.58-7.5,14.33-11.67,26.77,3.66,26.18,5.29-8.77-1.65-16.93,3.74-12,9-16,9.19S897,559.72,897.21,554.79Z"/><path class="cls-60" d="M888.94,549.88s-9.17-9.72,1.47-25.26,34.07-16.63,34.84-14.48-9.17,6.22-13,18.45-6,18.35-10,21.85S892.91,555.1,888.94,549.88Z"/><path class="cls-61" d="M884.09,551.39l.13,0a.52.52,0,0,0,.37-.63c-.24-.85-5.94-20.81-16.49-28.44a.52.52,0,1,0-.61.83c10.25,7.41,16,27.68,16.1,27.88A.51.51,0,0,0,884.09,551.39Z"/><path class="cls-61" d="M894.71,548.86a.58.58,0,0,0,.52-.38,2.44,2.44,0,0,0,.06-.56c.47-7,3.5-30.32,22.56-35.24a.51.51,0,0,0,.37-.62.53.53,0,0,0-.64-.37c-19.72,5.09-22.84,29-23.33,36.16a3.45,3.45,0,0,1,0,.37.49.49,0,0,0,.34.62Z"/><path class="cls-61" d="M901.12,558.19c.24,0,.47-.21,1.23-.88,8.54-7.63,16.77-11.25,24.48-10.75a.52.52,0,0,0,.55-.48.52.52,0,0,0-.48-.55c-8-.52-16.49,3.19-25.25,11-.3.27-.61.55-.74.64a.49.49,0,0,0-.31.32.51.51,0,0,0,.33.64A.46.46,0,0,0,901.12,558.19Z"/><path class="cls-62" d="M879.87,592.91h26.78a1.44,1.44,0,0,0,1.41-1.11l6.6-28.15a1.44,1.44,0,0,0-1.41-1.75h-40a1.44,1.44,0,0,0-1.41,1.75l6.6,28.15A1.45,1.45,0,0,0,879.87,592.91Z"/></g></g></svg>