<svg xmlns="http://www.w3.org/2000/svg" width="240" height="177" viewBox="0 0 240 177">
  <g id="Group_309" data-name="Group 309" transform="translate(-962 -4183)">
    <path id="Rectangle_42" data-name="Rectangle 42" d="M0,0H225a15,15,0,0,1,15,15v0a0,0,0,0,1,0,0H15A15,15,0,0,1,0,0V0A0,0,0,0,1,0,0Z" transform="translate(962 4345)" fill="#78b9eb"/>
    <g id="book" transform="translate(982.5 4183)">
      <g id="Group_303" data-name="Group 303" transform="translate(37.5 0)">
        <path id="Path_402" data-name="Path 402" d="M416.2,268.833,407,281.968l9.2,13.134h9.2V268.833Z" transform="translate(-302.698 -193.048)" fill="#ff5a47"/>
        <path id="Path_403" data-name="Path 403" d="M377,268.833h18.4V295.1H377Z" transform="translate(-281.897 -193.048)" fill="#fe8047"/>
        <path id="Path_404" data-name="Path 404" d="M416.2,153.167,407,166.3l9.2,13.134h9.2V153.167Z" transform="translate(-302.698 -109.989)" fill="#a4d43b"/>
        <path id="Path_405" data-name="Path 405" d="M377,153.167h18.4v26.269H377Z" transform="translate(-281.897 -109.989)" fill="#cce332"/>
        <path id="Path_406" data-name="Path 406" d="M416.2,37.5,407,50.634l9.2,13.135h9.2V37.5Z" transform="translate(-302.698 -26.001)" fill="#fcc023"/>
        <path id="Path_407" data-name="Path 407" d="M377,37.5h18.4V63.769H377Z" transform="translate(-281.897 -26.001)" fill="#fcd72b"/>
        <path id="Path_408" data-name="Path 408" d="M58.8,7.5,95.6,129.872H45V20.549C45,13.343,51.179,7.5,58.8,7.5Z" transform="translate(-42.7 -5.2)" fill="#0f4c81"/>
        <path id="Path_409" data-name="Path 409" d="M323.8,7.5V123.1L287,127.7,314.6,7.5Z" transform="translate(-217.578 -5.2)" fill="#2d6aab"/>
        <path id="Path_410" data-name="Path 410" d="M178.006,7.5V127.7H90V7.5h65.008l6.9,9.2,6.9-9.2Z" transform="translate(-73.901 -5.2)" fill="#4b88d5"/>
        <path id="Path_411" data-name="Path 411" d="M365.4,453.7v9.2h-9.2L347,444.5Z" transform="translate(-259.485 -318.745)" fill="#0f4c81"/>
        <path id="Path_412" data-name="Path 412" d="M365.4,384.5v9.2L347,402.9l9.2-18.4Z" transform="translate(-259.485 -277.143)" fill="#0f4c81"/>
        <path id="Path_413" data-name="Path 413" d="M58.8,384.5A13.8,13.8,0,0,0,45,398.3v9.2a13.8,13.8,0,0,0,13.8,13.8h65.008l6.9-4.6,6.9,4.6h9.2V384.5Z" transform="translate(-42.7 -277.143)" fill="#2d6aab"/>
        <path id="Path_414" data-name="Path 414" d="M347.574,414.5h9.2a12.968,12.968,0,0,0-3.815,9.2l-18.4,4.6Z" transform="translate(-250.805 -297.944)" fill="#fff7ba"/>
        <path id="Path_415" data-name="Path 415" d="M356.773,453.7h-9.2l-13.014-9.2h18.4A12.968,12.968,0,0,0,356.773,453.7Z" transform="translate(-250.805 -318.745)" fill="#fff04a"/>
        <path id="Path_416" data-name="Path 416" d="M167.605,443.3H79.6a4.6,4.6,0,0,1-4.6-4.6v-4.6l4.6-4.6h79.591l4.6,4.6A12.968,12.968,0,0,0,167.605,443.3Z" transform="translate(-63.501 -308.345)" fill="#fff7ba"/>
        <path id="Path_417" data-name="Path 417" d="M79.6,414.5h88.006a12.968,12.968,0,0,0-3.815,9.2H75v-4.6A4.6,4.6,0,0,1,79.6,414.5Z" transform="translate(-63.501 -297.944)" fill="#fff"/>
        <path id="Path_418" data-name="Path 418" d="M302,363.7v36.8h13.8V363.7l-6.9-9.2Z" transform="translate(-226.968 -256.343)" fill="#404242"/>
        <path id="Path_419" data-name="Path 419" d="M302,7.5h13.8V123.1H302Z" transform="translate(-226.968 -5.2)" fill="#565959"/>
        <path id="Path_420" data-name="Path 420" d="M160.355,37.376a2.145,2.145,0,0,0,2.145-2.145v-24.5a2.145,2.145,0,0,0-2.145-2.145H145.338V2.145A2.145,2.145,0,0,0,143.192,0H52.517A15.034,15.034,0,0,0,37.5,15.017V131.436a15.034,15.034,0,0,0,15.017,15.017h90.675a2.145,2.145,0,0,0,2.145-2.145v-8.581a2.146,2.146,0,0,0-.628-1.517,10,10,0,0,1,0-14.128,2.145,2.145,0,0,0,.628-1.517V103.547h15.017A2.145,2.145,0,0,0,162.5,101.4V76.9a2.145,2.145,0,0,0-2.145-2.145H145.338V70.461h15.017a2.145,2.145,0,0,0,2.145-2.145v-24.5a2.145,2.145,0,0,0-2.145-2.145H145.338V37.376Zm-2.145-24.5V33.086H145.338V12.872Zm-17.162,94.966H128.175V4.291h12.872ZM111.013,125H50.372v-2.145a2.148,2.148,0,0,1,2.145-2.145h58.5Zm-60.641,4.291h60.641v4.291h-58.5a2.148,2.148,0,0,1-2.145-2.145Zm64.931-125h8.581V142.162H115.3Zm12.872,125h9.477a14.122,14.122,0,0,0,1.367,4.291H128.175ZM137.652,125h-9.477v-4.291h10.844A14.115,14.115,0,0,0,137.652,125Zm-9.477-8.581v-4.291h12.872v4.291ZM41.791,15.017A10.746,10.746,0,0,1,50.372,4.506V107.99a14.992,14.992,0,0,0-8.581,4.365Zm0,116.419v-8.581a10.739,10.739,0,0,1,10.727-10.727,2.145,2.145,0,0,0,2.145-2.145V4.291h56.35V107.838H61.1a2.145,2.145,0,1,0,0,4.291h49.914v4.291h-58.5a6.443,6.443,0,0,0-6.436,6.436v8.581a6.443,6.443,0,0,0,6.436,6.436h58.5v4.291h-58.5A10.739,10.739,0,0,1,41.791,131.436Zm86.384,10.727v-4.291h12.872v4.291Zm30.034-63.12V99.256H145.338V79.043Zm0-33.085V66.171H145.338V45.957Z" transform="translate(-37.5 0)"/>
      </g>
    </g>
  </g>
</svg>
