<svg xmlns="http://www.w3.org/2000/svg" width="240" height="178" viewBox="0 0 240 178">
  <g id="Group_255" data-name="Group 255" transform="translate(-300 -3220)">
    <g id="book" transform="translate(341 3219.901)">
      <g id="surface1" transform="translate(0 0.099)">
        <path id="Path_314" data-name="Path 314" d="M292.811,483.987a14.679,14.679,0,1,1-14.679-14.678A14.679,14.679,0,0,1,292.811,483.987Zm0,0" transform="translate(-197.399 -351.666)" fill="#04458f"/>
        <path id="Path_315" data-name="Path 315" d="M161.382,191.6l-58.715-7.339L43.952,191.6a14.678,14.678,0,0,1-14.678-14.679V81.507A14.679,14.679,0,0,1,43.952,66.828l44.037-7.34a14.679,14.679,0,0,1,14.679,14.679,14.679,14.679,0,0,1,14.679-14.679l44.036,7.34a14.679,14.679,0,0,1,14.679,14.679v95.412A14.679,14.679,0,0,1,161.382,191.6Zm0,0" transform="translate(-21.934 -44.598)" fill="#04458f"/>
        <path id="Path_316" data-name="Path 316" d="M32.943,498.328a3.669,3.669,0,0,0-3.67,3.67v3.733a14.679,14.679,0,0,0,14.679,14.679l47.031-5.879a14.609,14.609,0,0,0,11.683,5.879h.81l.028,0h.16l.017,0h.042l.028,0h.006l.023,0h.041l.018,0h.071l.016,0h.031l.032,0H104l.029,0h.008l.032,0,.018,0,.013,0h.017l.013,0h.03l.016,0,.013,0h.017l.013,0,.018,0h.012l.021,0h.01l.027,0,.01,0,.019,0h.013l.017,0,.012,0,.017,0h.013l.017,0,.012,0,.018,0,.012,0,.018,0,.012,0,.018,0h.011l.028,0h.007l.022,0h.013l.016,0,.014,0,.016,0,.013,0,.017,0,.013,0,.016,0,.013,0,.016,0h.014l.016,0h.012l.02,0,.01,0,.029,0h.008l.02,0,.041-.007.017,0,.013,0,.016,0,.013,0,.016,0,.013,0,.017,0,.013,0,.017,0,.012,0,.022,0h.007l.028,0h.01l.019,0,.013,0,.016,0,.013,0,.016,0,.013,0,.016,0,.013,0,.016,0,.013,0,.016,0,.012,0,.02,0,.009,0,.028,0h0l.035-.006.017,0,.012,0,.017,0,.013,0,.016,0,.013,0,.016,0,.013,0,.016,0,.012,0,.017,0,.012,0,.017,0,.012,0,.027-.005.013,0,.016,0,.013,0,.016,0,.013,0,.015,0,.013,0,.016,0,.013,0,.016,0,.012,0,.017,0,.012,0,.017,0,.012,0,.019,0,.009,0,.027-.006.009,0,.02,0,.011,0,.017,0,.027-.007.014,0,.015,0,.013,0,.015,0,.014,0,.014,0,.013,0,.016,0,.038-.009h.005l.023-.006.011,0,.018,0,.012,0,.015,0,.014,0,.015,0,.013,0,.015,0,.013,0,.015,0,.014,0,.013,0,.029-.008.013,0,.026-.007.01,0,.018,0,.013,0,.015,0,.014,0,.013,0,.015,0,.013,0,.015,0,.013,0,.014-.005.014,0,.041-.012.016,0,.013,0,.024-.007.069-.02.013,0,.015,0,.013,0,.015,0,.013,0,.015-.005.013,0,.014,0,.013,0,.015,0,.013,0,.023-.007.017-.005.013,0,.014,0,.014,0,.013,0,.015,0,.013,0,.014,0,.013,0,.068-.022.012,0,.016-.005.006,0,.036-.012.01,0,.027-.009.014-.005.013,0,.015-.005.011,0,.016,0,.088-.029.058-.021.012,0,.015-.006.011,0,.016-.005.011,0,.016-.006.011,0,.015-.006.038-.013.015-.006.011,0,.016-.006.006,0,.041-.015h0l.017-.006.01,0,.016-.006.01,0,.016-.006.011,0,.016-.006.011,0,.016-.006.011,0,.015-.006.011,0,.016-.006.01,0,.063-.024h0l.019-.007.008,0,.017-.006.009,0,.017-.006.009,0,.017-.007.01,0,.016-.007.01,0,.017-.006.007,0,.019-.007,0,0,.07-.028.02-.008.007,0,.018-.008.008,0,.017-.007.009,0,.017-.007.009,0,.018-.007.007,0,.019-.008,0,0,.091-.039h0l.02-.008.007,0,.018-.008.007,0,.018-.008.008,0,.018-.008.007,0,.018-.008.008,0,.018-.008,0,0,.089-.039,0,0,.019-.009.007,0,.018-.008.007,0,.018-.009.007,0,.019-.009.005,0,.02-.009,0,0,.115-.053h0l.021-.01.005,0,.02-.01.005,0,.019-.009.006,0L108.9,519l.005,0,.02-.01,0,0,.115-.056h0l.021-.01.023-.012.005,0,.019-.01.028-.014.136-.068,0,0,.019-.01.006,0,.019-.01,0,0,.021-.011h0l.022-.012.116-.061.022-.012h0l.021-.012h0l.022-.012h0l.023-.012.183-.1.222-.128a3.67,3.67,0,0,0-3.715-6.33,7.043,7.043,0,0,1-3.6.976,7.27,7.27,0,0,1-5.824-2.962,7.339,7.339,0,0,0-6.769-2.861l-46.5,5.813a7.348,7.348,0,0,1-6.96-7.33V502A3.67,3.67,0,0,0,32.943,498.328Zm90.571,9.98a3.67,3.67,0,0,0-.453,7.311l21.982,2.747h.01l.138.018.032,0,1.145.143.022,0,.032,0h.011l.068.009.051.007.179.022.052.007,1.006.125.043.006.053.007.031,0,.03,0h.008l.792.1.018,0,.834.1h0l.2.025.016,0,.137.018.021,0,.249.031.032,0,.026,0,.3.037h0l.1.012h.006l.046.006h.006l.094.012.019,0,.029,0h.008l.138.017.061.008.086.011.02,0,.04.005.024,0,.123.016.02,0,.026,0,.082.011.027,0,.059.007.185.023.03,0h.013l.069.009.04.005.071.01.028,0h.006l.136.017.028,0h.01l.035.005.077.01.07.008.149.019.04.006.038,0,.06.008.023,0,.061.007.026,0,.08.01.023,0,.176.022.092.012h0l.079.01.024,0,.072.009.014,0,.082.011h.014l.4.051h.007l.032,0,.022,0,.055.007.042.005.048.006.021,0,.083.01.028,0,.16.02h.006l.384.048.134.017.018,0,.066.008.019,0,.028,0,.106.014.021,0,.013,0,.046.005.16.021.032,0,.053.007.038,0,.021,0,.061.008.1.013.056.007.033,0,.309.039h0l.314.039h0l.148.018.015,0,.027,0,.094.012h.01l.024,0,.142.018h.006l.437.054.014,0,.279.035.267.033.021,0,.023,0h0l1.65.206h.007l.194.024h.007l.022,0h0l.674.084h0l.515.064h0l.428.054h.917l.02,0h.188l.018,0h.008l.021,0h0l.05,0h.007l.017,0h.084l.016,0h.01l.016,0,.027,0h.007l.049-.005h.006l.02,0h.006l.019,0h.008l.018,0h.032l.017,0h.008l.018,0h.007l.02,0h0l.023,0h0l.024,0h0l.022,0h.007l.018,0h.008l.017,0h.009l.016,0h.009l.016,0h.009l.017,0h.008l.019,0h.006l.05-.007.024,0h.006l.02,0h.007l.017,0h.008l.017,0h.009l.017,0h.007l.018,0h.008l.019,0h0l.074-.011h0l.021,0h.006l.019,0h.006l.019,0h.007l.017,0h.008l.018,0h.007l.02,0h0l.074-.013h0l.021,0,.024,0h.008l.017,0h.009l.016,0h.008l.017,0,.009,0,.017,0h.007l.02,0h0l.049-.009h0l.022,0h.007l.017,0,.008,0,.017,0h.008l.017,0,.008,0,.018,0h.007l.019,0h0l.022,0h0l.049-.009h0l.023,0h.006l.019,0h.006l.019,0h.006l.019,0h0l.019,0h.006l.021,0h0l.023-.005h0l.049-.011h0l.023,0h0l.021,0,.006,0,.019,0h0l.018,0h.008l.017,0h.007l.019-.005h0l.021,0h0l.024-.006h0l.049-.011h0l.021,0h0l.019,0,.007,0,.017,0,.007,0,.017,0,.008,0,.017,0,.007,0,.018,0h.006l.071-.018h0l.021-.005.006,0,.018,0,.007,0,.017,0,.008,0,.017,0h.007l.017-.005.007,0,.019,0,0,0,.023-.006h0l.049-.013h0l.023-.006h0l.019-.005.007,0,.017,0,.007,0,.017,0,.007,0,.018,0,.007,0,.017,0h.006l.022-.006h0l.048-.014h0l.022-.006,0,0,.018,0,.007,0,.016-.005.009,0,.016-.005.007,0,.018,0,.006,0,.019-.006h0l.02-.006h0l.07-.021h0l.019-.006.007,0,.018,0,0,0,.018-.005.006,0,.019-.006h0l.02-.006,0,0,.023-.006h0l.069-.021.03-.01.017,0,.007,0,.017,0,.007,0,.016-.006.007,0,.017-.006.007,0,.017-.006h.006l.021-.007h0l.024-.008h0l.022-.008h.005l.019-.007.007,0,.016,0,.008,0,.024-.008.014-.005.009,0,.014,0,.009,0,.014,0,.009,0,.013-.005.011,0,.019-.006.01,0,.016-.005.008,0,.015-.006.01,0,.012,0,.011,0,.013,0,.01,0,.013-.005.01,0,.013-.005.01,0,.013,0,.01,0,.015,0,.007,0,.045-.017.007,0,.015-.005.01,0,.013-.005.01,0,.013,0,.01,0,.012,0,.011-.005.011,0,.012,0,.022-.008.013-.005.01,0,.014-.006.012,0,.019-.007.009,0,.013,0,.01,0,.013,0,.01-.005.013,0,.01,0,.012-.005.011,0,.011-.005.011,0,.012-.005.011,0,.011,0,.011,0,.011,0,.019-.007.014-.006.013-.005.009,0,.014-.005.008,0,.013-.005.009,0,.014,0,.008,0,.013,0,.009,0,.014,0,.008,0,.013-.005.009,0,.014-.006.006,0,.049-.022.009,0,.013-.006.008,0,.014-.006.008,0,.014-.006.008,0,.014-.006.008,0,.021-.009.015-.007.006,0,.016-.007,0,0,.079-.034.018-.008,0,0,.017-.008h0l.017-.008,0,0,.016-.008,0,0,.016-.008h0l.119-.055h0l.019-.009.02-.01h0l.019-.009h0l.14-.067.02-.01h0l.019-.009h0a14.733,14.733,0,0,0,4.818-3.75,3.67,3.67,0,0,0-5.615-4.727,7.33,7.33,0,0,1-5.229,2.595l-37.788-4.724A3.6,3.6,0,0,0,123.514,508.308Zm0,0" transform="translate(-21.934 -373.409)" fill="#00204e"/>
        <path id="Path_317" data-name="Path 317" d="M14.679,59.488H146.788a14.679,14.679,0,0,1,14.679,14.679v88.073a14.679,14.679,0,0,1-14.679,14.678H14.679A14.679,14.679,0,0,1,0,162.241V74.167A14.679,14.679,0,0,1,14.679,59.488Zm0,0" transform="translate(0 -44.598)" fill="#b8c2ff"/>
        <path id="Path_318" data-name="Path 318" d="M567.189,88.762A11.01,11.01,0,0,1,578.2,99.771V180.5a11.009,11.009,0,1,1-22.019,0V99.771A11.01,11.01,0,0,1,567.189,88.762Zm0,0" transform="translate(-416.732 -66.532)" fill="#7388ff"/>
        <path id="Path_319" data-name="Path 319" d="M102.667,159.592l-60.176-6.017a14.678,14.678,0,0,1-13.218-14.606V51.042A14.678,14.678,0,0,1,43.952,36.363q.732,0,1.461.072l57.255,5.726Zm0,0" transform="translate(-21.934 -27.271)" fill="#dfe5ff"/>
        <path id="Path_320" data-name="Path 320" d="M322,159.592l60.176-6.017a14.679,14.679,0,0,0,13.218-14.606V51.042a14.679,14.679,0,0,0-14.679-14.678q-.732,0-1.46.072L322,42.161Zm0,0" transform="translate(-241.266 -27.271)" fill="#ccd4ff"/>
        <path id="Path_321" data-name="Path 321" d="M424.589,59.488a7.341,7.341,0,0,0-7.34,7.339h0V154.9H387.891a7.339,7.339,0,0,0,0,14.678h29.357A14.679,14.679,0,0,0,431.928,154.9V66.828a7.339,7.339,0,0,0-7.338-7.34Zm0,0" transform="translate(-285.14 -44.598)" fill="#b8c2ff"/>
        <path id="Path_322" data-name="Path 322" d="M146.532,7.834l-45.8-7.4a11.492,11.492,0,0,0-12.916,11.4v92.951a14.679,14.679,0,0,0,13.058,14.589l45.658,5.888Zm0,0" transform="translate(-65.799 -0.283)" fill="#eff2ff"/>
        <path id="Path_323" data-name="Path 323" d="M322,7.65,367.8.188a11.492,11.492,0,0,1,12.916,11.4v91.563a14.68,14.68,0,0,1-13.058,14.589L322,125.081Zm0,0" transform="translate(-241.266 -0.099)" fill="#dfe5ff"/>
        <path id="Path_324" data-name="Path 324" d="M329.339,30.215a7.34,7.34,0,0,1,7.34,7.34V140.307a7.34,7.34,0,0,1-14.679,0V37.554A7.339,7.339,0,0,1,329.339,30.215Zm0,0" transform="translate(-241.266 -22.664)" fill="#ccd4ff"/>
        <path id="Path_325" data-name="Path 325" d="M325.67,59.488a3.67,3.67,0,0,1,3.67,3.67v95.413a3.67,3.67,0,1,1-7.339,0V63.158A3.67,3.67,0,0,1,325.67,59.488Zm0,0" transform="translate(-241.266 -44.598)" fill="#a4b1ff"/>
        <path id="Path_326" data-name="Path 326" d="M387.885,30.215a7.339,7.339,0,0,1,7.34,7.34V96.27a7.339,7.339,0,0,1-14.678,0V37.554A7.339,7.339,0,0,1,387.885,30.215Zm0,0" transform="translate(-285.134 -22.664)" fill="#a4b1ff"/>
        <path id="Path_327" data-name="Path 327" d="M157.461,279.076a3.578,3.578,0,0,1-.724-.072l-36.7-7.339a3.669,3.669,0,1,1,1.441-7.2l36.7,7.339a3.67,3.67,0,0,1-.717,7.268Zm0,0" transform="translate(-87.733 -198.13)" fill="#002755"/>
        <path id="Path_328" data-name="Path 328" d="M157.461,191.285a3.578,3.578,0,0,1-.724-.071l-36.7-7.339a3.669,3.669,0,1,1,1.441-7.2l36.7,7.339a3.669,3.669,0,0,1-.717,7.267Zm0,0" transform="translate(-87.733 -132.351)" fill="#002755"/>
        <path id="Path_329" data-name="Path 329" d="M212.294,114.386a3.6,3.6,0,0,1-.724-.072l-18.349-3.669a3.67,3.67,0,0,1-2.877-4.319,3.632,3.632,0,0,1,4.245-2.892l.074.015,18.348,3.67a3.67,3.67,0,0,1-.717,7.268Zm0,0" transform="translate(-142.566 -77.477)" fill="#002755"/>
        <path id="Path_330" data-name="Path 330" d="M157.473,366.914a3.511,3.511,0,0,1-.724-.071l-36.7-7.339a3.67,3.67,0,0,1,1.441-7.2l36.7,7.34a3.669,3.669,0,0,1-.717,7.267Zm0,0" transform="translate(-87.745 -263.946)" fill="#002755"/>
        <path id="Path_331" data-name="Path 331" d="M354.939,279.076a3.67,3.67,0,0,1-.717-7.268l36.7-7.339a3.669,3.669,0,0,1,1.441,7.2L355.663,279A3.578,3.578,0,0,1,354.939,279.076Zm0,0" transform="translate(-263.2 -198.13)" fill="#002755"/>
        <path id="Path_332" data-name="Path 332" d="M354.939,191.283a3.67,3.67,0,0,1-.717-7.268l36.7-7.339a3.67,3.67,0,1,1,1.441,7.2l-36.7,7.339A3.579,3.579,0,0,1,354.939,191.283Zm0,0" transform="translate(-263.2 -132.349)" fill="#002755"/>
        <path id="Path_333" data-name="Path 333" d="M354.939,103.439a3.67,3.67,0,0,1-.717-7.268l36.7-7.34a3.67,3.67,0,0,1,1.441,7.2l-36.7,7.339A3.6,3.6,0,0,1,354.939,103.439Zm0,0" transform="translate(-263.2 -66.53)" fill="#002755"/>
        <path id="Path_334" data-name="Path 334" d="M354.939,366.913a3.669,3.669,0,0,1-.717-7.267l36.7-7.34a3.669,3.669,0,0,1,1.441,7.2l-36.7,7.339A3.511,3.511,0,0,1,354.939,366.913Zm0,0" transform="translate(-263.2 -263.946)" fill="#002755"/>
        <path id="Path_335" data-name="Path 335" d="M358.613.941a7.339,7.339,0,0,1,7.338,7.34V67a7.339,7.339,0,0,1-14.678,0V8.281A7.34,7.34,0,0,1,358.613.941Zm0,0" transform="translate(-263.2 -0.73)" fill="gold"/>
        <path id="Path_336" data-name="Path 336" d="M131.769,66.828a7.34,7.34,0,1,1-7.34-7.34A7.339,7.339,0,0,1,131.769,66.828Zm0,0" transform="translate(-87.733 -44.598)" fill="#002755"/>
      </g>
    </g>
    <path id="Rectangle_41" data-name="Rectangle 41" d="M0,0H225a15,15,0,0,1,15,15v0a0,0,0,0,1,0,0H15A15,15,0,0,1,0,0V0A0,0,0,0,1,0,0Z" transform="translate(300 3383)" fill="#78b9eb"/>
  </g>
</svg>
