<?xml version="1.0"?>
<svg xmlns="http://www.w3.org/2000/svg" xmlns:xlink="http://www.w3.org/1999/xlink" version="1.1" id="Capa_1" x="0px" y="0px" viewBox="0 0 512 512" style="enable-background:new 0 0 512 512;" xml:space="preserve" width="512px" height="512px" class=""><g><g>
	<path style="fill:#01429F" d="M512,322.5c0,40.31-9.12,78.91-27.11,114.73l-4.15,8.27H31.26l-4.15-8.27   C9.12,401.41,0,362.81,0,322.5c0-68.38,26.63-132.67,74.98-181.02C123.33,93.13,187.62,66.5,256,66.5s132.67,26.63,181.02,74.98   C485.37,189.83,512,254.12,512,322.5z" data-original="#57555C" class="" data-old_color="#57555C"/>
	<path style="fill:#02347C" d="M512,322.5c0,40.31-9.12,78.91-27.11,114.73l-4.15,8.27H256v-379c68.38,0,132.67,26.63,181.02,74.98   C485.37,189.83,512,254.12,512,322.5z" data-original="#3C3A41" class="" data-old_color="#3C3A41"/>
	<path style="fill:#CAE8F9;" d="M437.28,322.5c0,40.47-13.26,77.83-35.68,108H110.4c-22.42-30.17-35.68-67.53-35.68-108   c0-100.12,81.16-181.28,181.28-181.28S437.28,222.38,437.28,322.5z" data-original="#CAE8F9" class=""/>
	<path style="fill:#A3D9F6;" d="M437.28,322.5c0,40.47-13.26,77.83-35.68,108H256V141.22C356.12,141.22,437.28,222.38,437.28,322.5z   " data-original="#A3D9F6" class=""/>
	<path style="fill:#FFDE03" d="M256,126.22c-108.23,0-196.28,88.05-196.28,196.28c0,42.48,13.36,82.92,38.63,116.94l4.5,6.06h306.3   l4.5-6.06c25.27-34.02,38.63-74.46,38.63-116.94C452.28,214.27,364.23,126.22,256,126.22z M393.86,415.5H118.14   c-15.82-23.37-25.27-49.98-27.75-78h35.28v-30H90.4c3.11-34.6,16.86-66.18,37.95-91.44l24.88,24.89l21.22-21.22l-24.89-24.88   c25.26-21.09,56.84-34.84,91.44-37.95v35.27h30V156.9c34.6,3.11,66.18,16.86,91.44,37.95l-24.89,24.88l21.22,21.22l24.88-24.89   c21.09,25.26,34.84,56.84,37.95,91.44h-35.27v30h35.29C419.13,365.52,409.68,392.13,393.86,415.5z" data-original="#00A6FF" class="" data-old_color="#00A6FF"/>
	<rect x="241" y="222.42" style="fill:#28A745" width="30" height="63.08" data-original="#FF7A53" class="" data-old_color="#FF7A53"/>
	<rect x="241" y="348.05" style="fill:#28A745" width="30" height="43.7" data-original="#FF7A53" class="" data-old_color="#FF7A53"/>
	<rect x="256" y="222.42" style="fill:#06623B" width="15" height="63.08" data-original="#FF3B62" class="active-path" data-old_color="#FF3B62"/>
	<rect x="256" y="348.05" style="fill:#06623B" width="15" height="43.7" data-original="#FF3B62" class="active-path" data-old_color="#FF3B62"/>
	<path style="fill:#FFC109" d="M452.28,322.5c0,42.48-13.36,82.92-38.63,116.94l-4.5,6.06H256v-30h137.86   c15.82-23.37,25.27-49.98,27.76-78h-35.29v-30h35.27c-3.11-34.6-16.86-66.18-37.95-91.44l-24.88,24.89l-21.22-21.22l24.89-24.88   c-25.26-21.09-56.84-34.84-91.44-37.95v35.27h-15v-65.95C364.23,126.22,452.28,214.27,452.28,322.5z" data-original="#0088FF" class="" data-old_color="#0088FF"/>
	<path style="fill:#01429F" d="M301.54,324.21c0,25.11-20.43,45.54-45.54,45.54s-45.54-20.43-45.54-45.54   c0-25.11,20.43-45.54,45.54-45.54S301.54,299.1,301.54,324.21z" data-original="#57555C" class="" data-old_color="#57555C"/>
	<path style="fill:#02347C" d="M256,369.75v-91.08c25.11,0,45.54,20.43,45.54,45.54C301.54,349.32,281.11,369.75,256,369.75z" data-original="#3C3A41" class="" data-old_color="#3C3A41"/>
</g></g> </svg>
