<?xml version="1.0"?>
<svg xmlns="http://www.w3.org/2000/svg" id="Layer_1" height="512" viewBox="0 0 128 128" width="512" data-name="Layer 1"><g><path d="m84.551 20.609-30.689 6.062-28.049 68.556 48.328 19.773 28.049-68.557zm-.712 13.091a4.3 4.3 0 1 1 -2.35-5.605 4.3 4.3 0 0 1 2.35 5.605z" fill="#9bdc05" data-original="#9BDC05" class="active-path" style="fill:#FFC109" data-old_color="#9bdc05"/><path d="m59.37 54.877h5.878v40.19h-5.878z" fill="#ebebf0" transform="matrix(.387 .922 -.922 .387 107.355 -11.481)" data-original="#EBEBF0"/><circle cx="67.641" cy="87.69" fill="#ebebf0" r="5.222" data-original="#EBEBF0"/><circle cx="56.976" cy="62.255" fill="#ebebf0" r="5.222" data-original="#EBEBF0"/><g fill="#5a2b41"><path d="m49.651 36.959a1.752 1.752 0 0 0 2.283-.959l3.19-7.8 18.076-3.566a1.75 1.75 0 1 0 -.678-3.434l-19 3.754a1.752 1.752 0 0 0 -1.28 1.054l-3.547 8.668a1.751 1.751 0 0 0 .956 2.283z" data-original="#5A2B41" class="" style="fill:#00204E" data-old_color="#5A2B41"/><path d="m46.72 44.123a1.75 1.75 0 0 0 2.28-.958l.281-.686a1.75 1.75 0 1 0 -3.239-1.325l-.281.687a1.75 1.75 0 0 0 .959 2.282z" data-original="#5A2B41" class="" style="fill:#00204E" data-old_color="#5A2B41"/><path d="m80.165 100.273a1.754 1.754 0 0 0 -2.283.957l-4.7 11.488-45.088-18.447 18.329-44.8a1.75 1.75 0 1 0 -3.239-1.326l-18.992 46.419a1.752 1.752 0 0 0 .957 2.284l48.328 19.772a1.752 1.752 0 0 0 2.283-.957l5.362-13.106a1.752 1.752 0 0 0 -.957-2.284z" data-original="#5A2B41" class="" style="fill:#00204E" data-old_color="#5A2B41"/><path d="m83.624 91.815a1.754 1.754 0 0 0 -2.282.958l-.415 1.015a1.75 1.75 0 0 0 3.24 1.324l.415-1.014a1.752 1.752 0 0 0 -.958-2.283z" data-original="#5A2B41" class="" style="fill:#00204E" data-old_color="#5A2B41"/><path d="m103.634 45.457-9.1-13.327a22.436 22.436 0 0 0 1.886-3.63 19.537 19.537 0 0 0 1.465-10c-.5-3.374-2.113-5.782-4.553-6.78-4.55-1.859-10.325 1.963-13.5 8.766-.017.036-.035.071-.049.109-.141.3-.283.608-.413.925a21.98 21.98 0 0 0 -1.357 4.794c-.166.053-.33.111-.493.179a6.048 6.048 0 1 0 4.629-.019 5.831 5.831 0 0 0 -.578-.2 18.754 18.754 0 0 1 1.039-3.425c.011-.027.024-.051.035-.078l1.109-.219 16.456 24.1-16.517 40.374a1.753 1.753 0 0 0 .957 2.284 1.783 1.783 0 0 0 .662.129 1.754 1.754 0 0 0 1.622-1.086l16.875-41.247a1.752 1.752 0 0 0 -.175-1.649zm-26.134-14.357a2.558 2.558 0 0 1 .312-.54 12.23 12.23 0 0 0 .858 3.745 2.542 2.542 0 0 1 -1.17-3.205zm4.706-.019a2.362 2.362 0 0 1 -.142 2.231 8.662 8.662 0 0 1 -.786-3.359 2.53 2.53 0 0 1 .932 1.132zm2.605-12.2c2.388-3.23 5.337-4.689 7.193-3.929 1.683.688 2.235 2.832 2.414 4.049a16.006 16.006 0 0 1 -1.242 8.16c-.25.61-.531 1.2-.831 1.76l-6.345-9.299a1.741 1.741 0 0 0 -1.185-.733z" data-original="#5A2B41" class="" style="fill:#00204E" data-old_color="#5A2B41"/><path d="m83.59 69.235-2.273-5.421a1.75 1.75 0 0 0 -2.291-.937l-37.064 15.541a1.75 1.75 0 0 0 -.937 2.291l2.275 5.421a1.75 1.75 0 1 0 3.228-1.354l-1.6-3.806 33.838-14.188.92 2.193-29.457 12.35a1.751 1.751 0 0 0 1.354 3.229l31.069-13.028a1.751 1.751 0 0 0 .938-2.291z" data-original="#5A2B41" class="" style="fill:#00204E" data-old_color="#5A2B41"/><path d="m70.279 81.237a6.971 6.971 0 1 0 3.79 3.756 6.925 6.925 0 0 0 -3.79-3.756zm-1.3 9.654a3.472 3.472 0 1 1 1.859-4.544 3.443 3.443 0 0 1 -1.856 4.544z" data-original="#5A2B41" class="" style="fill:#00204E" data-old_color="#5A2B41"/><path d="m54.335 68.707a6.974 6.974 0 1 0 -3.789-3.757 6.955 6.955 0 0 0 3.789 3.757zm-.573-7.767a3.471 3.471 0 1 1 .011 2.657 3.444 3.444 0 0 1 -.011-2.657z" data-original="#5A2B41" class="" style="fill:#00204E" data-old_color="#5A2B41"/></g></g> </svg>
