<?xml version="1.0"?>
<svg xmlns="http://www.w3.org/2000/svg" id="Capa_1" enable-background="new 0 0 512.001 512.001" height="512" viewBox="0 0 512.001 512.001" width="512" class=""><g><g><g><g><g><g><g><path d="m352.857 413.797h-93.73 93.73c9.308 0 17.817-5.458 21.98-14.099l-.714.4s-14.805-38.588-40.369-38.599h-70.004c-12.547 0-24.93-2.948-36.225-8.621l-7.219-3.622c-39.275-19.71-75.592-15.331-108.316 32.901h-40.626v91.107s67.809-3.001 77.356 0l155.052 22.01c13.295 1.887 26.836-.837 38.367-7.719l159.861-95.417c-11.607-20.027-46.678-33.686-66.489-22.577l-60.674 30.137" fill="#ffdcd5" data-original="#FFDCD5" class=""/></g></g></g></g><g><g><g><g><path d="m10 359.445h61.364v138.746h-61.364z" fill="#b5b3ee" data-original="#B5B3EE" class="active-path" style="fill:#00204E" data-old_color="#b5b3ee"/></g></g></g></g><g><g><g><g><path d="m494.748 169.256-19.952 36.312-.855 41.427-35.475 21.425-21.426 35.476-41.426.854-36.312 19.952-36.312-19.952-41.427-.855-21.425-35.475-35.475-21.425-.855-41.427-19.952-36.312 19.952-36.312.855-41.427 35.475-21.425 21.426-35.475 41.426-.855 36.312-19.952 36.312 19.952 41.427.855 21.425 35.476 35.475 21.425.855 41.426z" fill="#fff2a0" data-original="#FFF2A0" class="" style="fill:#FFC109" data-old_color="#fff2a0"/></g></g></g></g></g><g><g><path d="m510.652 387.124c-6.733-11.618-19.989-21.849-35.459-27.369-16.449-5.869-32.589-5.518-44.336.953l-52.067 25.862c-7.113-13.277-22.254-35.061-45.035-35.071h-70.005c-10.918 0-21.893-2.613-31.742-7.56l-7.218-3.621c-23.179-11.632-43.981-14.828-63.596-9.773-20.164 5.197-38.003 18.829-54.415 41.612h-25.415v-12.712c0-5.523-4.477-10-10-10h-61.364c-5.523 0-10 4.477-10 10v138.746c0 5.523 4.477 10 10 10h61.364c5.523 0 10-4.477 10-10v-15.326c28.6-1.071 59.068-1.38 64.43-.038.497.152 1.006.266 1.521.339l155.052 22.01c3.191.453 6.398.677 9.602.677 12.359 0 24.616-3.336 35.295-9.71l159.861-95.417c4.699-2.806 6.271-8.867 3.527-13.602zm-449.288 101.067h-41.364v-118.746h41.364zm275.65-9.223c-9.535 5.691-20.843 7.967-31.836 6.405l-154.542-21.938c-10.397-2.375-46.365-1.466-69.272-.592v-70.687h30.626c3.315 0 6.414-1.643 8.275-4.386 27.139-40 56.607-49.124 95.556-29.577l7.215 3.62c12.616 6.335 26.694 9.685 40.713 9.685h70c13.08.005 24.295 17.768 29.198 27.989-2.666 2.73-6.25 4.31-10.09 4.31h-93.73c-5.523 0-10 4.477-10 10s4.477 10 10 10h93.73c12.033 0 22.936-6.25 29.232-16.536l57.87-28.744c.149-.074.297-.152.442-.234 11.829-6.634 34.017-.551 46.631 11.143z" data-original="#000000" class="" style="fill:#000000"/><path d="m223.56 409.97c-1.612-3.933-5.702-6.455-9.942-6.147-4.154.301-7.747 3.224-8.894 7.225-1.151 4.015.391 8.436 3.784 10.874 3.34 2.4 7.951 2.469 11.372.189 3.917-2.612 5.489-7.798 3.68-12.141z" data-original="#000000" class="" style="fill:#000000"/><path d="m193.86 208.231.804 38.971c.071 3.428 1.893 6.581 4.828 8.354l33.362 20.148 20.148 33.362c1.772 2.935 4.925 4.757 8.354 4.828l38.971.805 34.159 18.768c1.5.824 3.157 1.236 4.815 1.236s3.316-.412 4.815-1.236l34.159-18.768 38.971-.804c3.428-.071 6.581-1.893 8.354-4.828l20.148-33.362 33.362-20.148c2.935-1.773 4.757-4.925 4.828-8.354l.805-38.971 18.769-34.159c1.648-2.999 1.648-6.632 0-9.631l-18.769-34.159-.804-38.971c-.071-3.428-1.893-6.581-4.828-8.354l-33.361-20.149-20.148-33.361c-1.773-2.935-4.925-4.757-8.354-4.828l-38.971-.805-34.16-18.769c-2.999-1.647-6.632-1.647-9.631 0l-34.159 18.769-38.971.804c-3.428.071-6.581 1.893-8.354 4.828l-20.149 33.362-33.361 20.148c-2.935 1.772-4.757 4.925-4.828 8.354l-.805 38.971-18.769 34.159c-1.648 2.999-1.648 6.632 0 9.631zm18.712-70.471c.777-1.414 1.2-2.996 1.234-4.609l.742-35.921 30.761-18.578c1.388-.838 2.552-2.002 3.39-3.39l18.578-30.761 35.92-.741c1.613-.034 3.195-.457 4.609-1.234l31.496-17.306 31.497 17.306c1.414.777 2.996 1.2 4.609 1.234l35.921.742 18.578 30.761c.838 1.388 2.002 2.552 3.39 3.39l30.761 18.578.741 35.92c.034 1.613.457 3.195 1.234 4.609l17.306 31.496-17.306 31.497c-.777 1.414-1.2 2.996-1.234 4.609l-.742 35.921-30.761 18.578c-1.388.838-2.552 2.002-3.39 3.39l-18.578 30.761-35.92.741c-1.613.034-3.194.457-4.609 1.234l-31.497 17.305-31.496-17.305c-1.414-.777-2.996-1.2-4.609-1.234l-35.921-.742-18.578-30.761c-.838-1.388-2.002-2.552-3.39-3.39l-30.761-18.578-.741-35.92c-.034-1.613-.457-3.195-1.234-4.609l-17.306-31.497z" data-original="#000000" class="" style="fill:#000000"/><path d="m310.672 238.137c1.264.531 2.575.782 3.865.782 3.907 0 7.619-2.304 9.225-6.133l51.175-121.938c2.137-5.092-.258-10.953-5.351-13.09-5.093-2.138-10.954.258-13.09 5.351l-51.175 121.938c-2.137 5.092.259 10.953 5.351 13.09z" data-original="#000000" class="" style="fill:#000000"/><path d="m304.745 163.846c17.982 0 32.612-16.273 32.612-36.276s-14.629-36.276-32.612-36.276-32.612 16.273-32.612 36.276 14.63 36.276 32.612 36.276zm0-52.551c6.836 0 12.612 7.454 12.612 16.276s-5.775 16.276-12.612 16.276-12.612-7.454-12.612-16.276 5.776-16.276 12.612-16.276z" data-original="#000000" class="" style="fill:#000000"/><path d="m341.247 210.942c0 20.002 14.629 36.276 32.612 36.276s32.612-16.273 32.612-36.276-14.629-36.276-32.612-36.276-32.612 16.274-32.612 36.276zm45.224 0c0 8.822-5.775 16.276-12.612 16.276s-12.612-7.454-12.612-16.276 5.775-16.276 12.612-16.276 12.612 7.454 12.612 16.276z" data-original="#000000" class="" style="fill:#000000"/></g></g></g></g> </svg>
