<svg xmlns="http://www.w3.org/2000/svg" width="79.997" height="80" viewBox="0 0 79.997 80">
  <g id="error" transform="translate(79.997 -0.001) rotate(90)">
    <g id="Group_282" data-name="Group 282" transform="translate(0.001 0)">
      <path id="Path_396" data-name="Path 396" d="M85.19,77.128,67.954,59.893a31.816,31.816,0,1,0-8.063,8.062L77.126,85.191a5.7,5.7,0,0,0,8.063-8.063Zm0,0" transform="translate(-8.414 -8.415)" fill="#00204e" fill-rule="evenodd"/>
      <path id="Path_397" data-name="Path 397" d="M106.248,73.905a22.872,22.872,0,1,0,0,32.346,22.872,22.872,0,0,0,0-32.346Zm0,0" transform="translate(-56.702 -56.705)" fill="#ffc109" fill-rule="evenodd"/>
      <path id="Path_398" data-name="Path 398" d="M87.249,61.056a1.559,1.559,0,1,0-.7,3.037,21.291,21.291,0,1,1-11.5.518,1.558,1.558,0,1,0-.974-2.961,24.165,24.165,0,0,0-9.622,5.93,24.428,24.428,0,1,0,22.8-6.524Zm0,0" transform="translate(-48.35 -51.482)" fill-rule="evenodd"/>
      <path id="Path_399" data-name="Path 399" d="M77.878,67.611,61.545,51.278A33.355,33.355,0,1,0,51.278,61.545L67.611,77.878A7.26,7.26,0,1,0,77.878,67.611Zm-2.2,8.063a4.161,4.161,0,0,1-5.859,0L52.58,58.438a1.559,1.559,0,0,0-1.99-.179,30.259,30.259,0,0,1-38.61-46.281A30.259,30.259,0,0,1,58.26,50.589a1.558,1.558,0,0,0,.179,1.99L75.674,69.815a4.148,4.148,0,0,1,0,5.859Zm0,0" transform="translate(-0.001 0)" fill-rule="evenodd"/>
      <path id="Path_400" data-name="Path 400" d="M169.725,150.907a1.559,1.559,0,0,0-2.2,0l-7.2,7.2-7.205-7.2a1.558,1.558,0,0,0-2.2,2.2l7.2,7.205-7.2,7.2a1.558,1.558,0,1,0,2.2,2.2l7.2-7.2,7.2,7.2a1.559,1.559,0,1,0,2.2-2.2l-7.205-7.2,7.205-7.205A1.559,1.559,0,0,0,169.725,150.907Zm0,0" transform="translate(-126.943 -126.942)" fill-rule="evenodd"/>
      <path id="Path_401" data-name="Path 401" d="M198.559,60.5A1.559,1.559,0,1,0,197,58.937,1.561,1.561,0,0,0,198.559,60.5Zm0,0" transform="translate(-166.219 -48.413)" fill-rule="evenodd"/>
    </g>
  </g>
</svg>
