<svg xmlns="http://www.w3.org/2000/svg" width="240" height="178" viewBox="0 0 240 178">
  <g id="Group_253" data-name="Group 253" transform="translate(-962 -3220)">
    <g id="exam" transform="translate(1001 3168.697)">
      <path id="Path_236" data-name="Path 236" d="M158.38,200.477H17.223a9.206,9.206,0,0,1-9.206-9.206V68.526a9.206,9.206,0,0,1,9.206-9.206H158.38a9.206,9.206,0,0,1,9.206,9.206V191.271A9.206,9.206,0,0,1,158.38,200.477Z" transform="translate(-5.14 -5.14)" fill="#fff"/>
      <path id="Path_237" data-name="Path 237" d="M199.022,322.147h15.725a2.877,2.877,0,1,0,0-5.754H199.022a2.877,2.877,0,1,0,0,5.754Z" transform="translate(-125.758 -169.963)" fill="#afb5bc"/>
      <g id="Group_125" data-name="Group 125" transform="translate(21.288 118.622)">
        <circle id="Ellipse_16" data-name="Ellipse 16" cx="6.137" cy="6.137" r="6.137" fill="#ffc109"/>
        <circle id="Ellipse_17" data-name="Ellipse 17" cx="6.137" cy="6.137" r="6.137" transform="translate(0 24.549)" fill="#ffc109"/>
        <circle id="Ellipse_18" data-name="Ellipse 18" cx="6.137" cy="6.137" r="6.137" transform="translate(0 49.098)" fill="#ffc109"/>
      </g>
      <path id="Path_238" data-name="Path 238" d="M315.226,153.385,246.4,222.21l-7.868,16.861a2.469,2.469,0,0,0,3.282,3.282l16.861-7.869,56.551-56.55Z" transform="translate(-152.781 -65.45)" fill="#d5dced"/>
      <g id="Group_126" data-name="Group 126" transform="translate(79.155 69.523)">
        <path id="Path_239" data-name="Path 239" d="M224.1,203.539l14.9-6.954a12.273,12.273,0,0,0,3.489-2.443l78.891-78.891a3.069,3.069,0,0,0,0-4.34l-7.935-7.935a3.069,3.069,0,0,0-4.34,0l-78.89,78.891a12.274,12.274,0,0,0-2.443,3.489l-6.954,14.9A2.469,2.469,0,0,0,224.1,203.539Z" transform="translate(-220.58 -102.078)" fill="#ffc109"/>
        <path id="Path_240" data-name="Path 240" d="M222.621,228.189a2.428,2.428,0,0,0,2.79.492l14.9-6.954a12.274,12.274,0,0,0,3.489-2.444l71.855-71.855-6.137-6.137Z" transform="translate(-221.889 -127.219)" fill="#ffc109"/>
      </g>
      <path id="Path_241" data-name="Path 241" d="M242.5,336.685l-12.274-12.274-.005.005a12.274,12.274,0,0,0-2.443,3.489l-6.954,14.9a2.47,2.47,0,0,0,3.282,3.282l14.9-6.954a12.267,12.267,0,0,0,3.489-2.444Z" transform="translate(-141.425 -175.103)" fill="#fff"/>
      <path id="Path_242" data-name="Path 242" d="M237.669,341.513,222.62,356.562a2.428,2.428,0,0,0,2.79.492l14.9-6.954a12.267,12.267,0,0,0,3.489-2.444l.005-.005Z" transform="translate(-142.733 -186.068)" fill="#e4eaf8"/>
      <path id="Path_243" data-name="Path 243" d="M459.05,102.976a3.069,3.069,0,0,0-4.34,0l-7.036,7.036,12.274,12.274,7.036-7.036a3.069,3.069,0,0,0,0-4.34Z" transform="translate(-287.026 -32.554)" fill="#fff"/>
      <path id="Path_244" data-name="Path 244" d="M477.949,119.605l-3.967-3.967-9.206,9.206,6.137,6.137,7.036-7.036A3.068,3.068,0,0,0,477.949,119.605Z" transform="translate(-297.991 -41.248)" fill="#e4eaf8"/>
      <g id="Group_127" data-name="Group 127" transform="translate(18.412 69.715)">
        <path id="Path_245" data-name="Path 245" d="M72.6,108.365a2.877,2.877,0,1,0,0-5.754H54.185a2.877,2.877,0,0,0-2.877,2.877v30.686a2.877,2.877,0,0,0,2.877,2.877H72.6a2.877,2.877,0,1,0,0-5.754H57.061v-9.59H69.528a2.877,2.877,0,1,0,0-5.754H57.061v-9.59H72.6Z" transform="translate(-51.308 -102.611)" fill="#009ddc"/>
        <path id="Path_246" data-name="Path 246" d="M129.349,138.421a2.877,2.877,0,0,0,4.044-.449l10.028-12.535,10.028,12.535a2.877,2.877,0,1,0,4.492-3.594L147.1,120.831l10.837-13.546a2.877,2.877,0,0,0-4.493-3.594l-10.028,12.536-10.028-12.535a2.877,2.877,0,1,0-4.493,3.594l10.837,13.546L128.9,134.378A2.876,2.876,0,0,0,129.349,138.421Z" transform="translate(-100.652 -102.611)" fill="#009ddc"/>
        <path id="Path_247" data-name="Path 247" d="M224.644,139a2.877,2.877,0,0,0,3.385-2.257l1.379-6.893h16.15l1.379,6.893a2.877,2.877,0,1,0,5.642-1.128l-5.4-26.986a7.5,7.5,0,0,0-7.335-6.013h-4.727a7.5,7.5,0,0,0-7.335,6.013l-5.4,26.986A2.878,2.878,0,0,0,224.644,139Zm10.475-30.631h4.727a1.731,1.731,0,0,1,1.693,1.387l2.868,14.339H230.559l2.868-14.339A1.731,1.731,0,0,1,235.119,108.366Z" transform="translate(-160.959 -102.612)" fill="#009ddc"/>
      </g>
      <g id="Group_128" data-name="Group 128" transform="translate(42.961 121.881)">
        <path id="Path_248" data-name="Path 248" d="M122.595,253.737h49.1a2.877,2.877,0,0,0,0-5.754h-49.1a2.877,2.877,0,0,0,0,5.754Z" transform="translate(-119.718 -247.983)" fill="#afb5bc"/>
        <path id="Path_249" data-name="Path 249" d="M313.039,322.147h23.78a2.877,2.877,0,1,0,0-5.754h-23.78a2.877,2.877,0,1,0,0,5.754Z" transform="translate(-241.821 -291.844)" fill="#afb5bc"/>
        <path id="Path_250" data-name="Path 250" d="M141.154,390.558h23.78a2.877,2.877,0,0,0,0-5.754h-23.78a2.877,2.877,0,0,0,0,5.754Z" transform="translate(-131.617 -335.706)" fill="#afb5bc"/>
        <path id="Path_251" data-name="Path 251" d="M122.595,322.147h12.274a2.877,2.877,0,0,0,0-5.754H122.595a2.877,2.877,0,0,0,0,5.754Z" transform="translate(-119.718 -291.844)" fill="#afb5bc"/>
      </g>
      <path id="Path_252" data-name="Path 252" d="M321.7,103.933a2.879,2.879,0,0,0-3.6-1.069,2.968,2.968,0,0,0-1.7,2.733v30.458a2.956,2.956,0,0,0,2.788,3,2.877,2.877,0,0,0,2.966-2.876V115.284l8.471,13.177a2.963,2.963,0,0,0,1.554,1.241,2.882,2.882,0,0,0,3.327-1.177l8.512-13.241v12.539a1.536,1.536,0,0,0,2.622,1.086l2.681-2.681a1.536,1.536,0,0,0,.45-1.086V105.6a2.967,2.967,0,0,0-1.7-2.732,2.879,2.879,0,0,0-3.6,1.07l-11.389,17.716L321.7,103.933" transform="translate(-202.859 -32.897)" fill="#009ddc"/>
      <path id="Path_253" data-name="Path 253" d="M181.993,76.322l-7.935-7.935a5.945,5.945,0,0,0-8.408,0l-.327.328V63.386A12.1,12.1,0,0,0,153.239,51.3H12.083A12.1,12.1,0,0,0,0,63.386V186.131a12.1,12.1,0,0,0,12.083,12.083H153.239a12.1,12.1,0,0,0,12.083-12.083V101.4l16.67-16.67A5.953,5.953,0,0,0,181.993,76.322ZM159.568,186.131a6.336,6.336,0,0,1-6.329,6.329H12.083a6.336,6.336,0,0,1-6.329-6.329V63.386a6.336,6.336,0,0,1,6.329-6.329H153.239a6.336,6.336,0,0,1,6.329,6.329V74.469L87.607,146.431l-2.1,2.23s-3.458,6.534-4.163,8.039q-2.09,4.464-4.173,8.932c-.488,1.048-1.009,2.081-1.5,3.124a23.366,23.366,0,0,0-1.386,3.072,3.973,3.973,0,0,0-.072,2.326,4.543,4.543,0,0,0,1.5,2.028,2.091,2.091,0,0,0,.854.495,2.389,2.389,0,0,0,1.538-.371c3.214-1.6,6.5-3.046,9.757-4.564l9.194-4.29,3.7-1.729a2.874,2.874,0,0,0,.818-.573l58-58v78.976ZM177.924,80.662l-76.852,76.852-3.045,3.133L82.477,167.9,89.62,152.6l3.247-3.289,76.851-76.851a.193.193,0,0,1,.271,0l7.935,7.935A.193.193,0,0,1,177.924,80.662Z" transform="translate(0 0)" fill="#00204e"/>
    </g>
    <path id="Rectangle_42" data-name="Rectangle 42" d="M0,0H225a15,15,0,0,1,15,15v0a0,0,0,0,1,0,0H15A15,15,0,0,1,0,0V0A0,0,0,0,1,0,0Z" transform="translate(962 3383)" fill="#78b9eb"/>
  </g>
</svg>
