<?xml version="1.0"?>
<svg xmlns="http://www.w3.org/2000/svg" xmlns:xlink="http://www.w3.org/1999/xlink" xmlns:svgjs="http://svgjs.com/svgjs" version="1.1" width="512" height="512" x="0" y="0" viewBox="0 0 512.00534 512" style="enable-background:new 0 0 512 512" xml:space="preserve" class=""><g><g xmlns="http://www.w3.org/2000/svg" fill="#607d8b"><path d="m267.800781 112.558594c-1.8125 3.625-1.425781 7.933594 1.003907 11.175781l32 42.667969c2.007812 2.6875 5.183593 4.265625 8.535156 4.265625h21.332031c.769531 0 1.535156-.082031 2.28125-.253907 11.050781-2.410156 29.71875-11.796874 29.71875-31.746093 0-19.945313-18.667969-29.332031-29.71875-31.742188-.746094-.171875-1.511719-.257812-2.28125-.257812h-53.332031c-4.03125 0-7.722656 2.285156-9.539063 5.890625zm0 0" fill="#1982bf" data-original="#607d8b" style=""/><path d="m236.804688 81.070312c2.007812 2.6875 5.183593 4.265626 8.535156 4.265626h21.332031c.769531 0 1.535156-.085938 2.28125-.257813 11.050781-2.410156 29.71875-11.796875 29.71875-31.742187 0-19.945313-18.667969-29.332032-29.71875-31.742188-.746094-.171875-1.511719-.257812-2.28125-.257812h-53.332031c-4.03125 0-7.722656 2.28125-9.539063 5.886718-1.8125 3.628906-1.425781 7.9375 1.003907 11.179688zm0 0" fill="#1982bf" data-original="#607d8b" style=""/><path d="m332.953125 341.59375c-.746094-.171875-1.511719-.257812-2.28125-.257812h-21.332031c-3.351563 0-6.527344 1.578124-8.535156 4.265624l-32 42.667969c-2.429688 3.222657-2.816407 7.550781-1.003907 11.15625 1.816407 3.628907 5.507813 5.910157 9.539063 5.910157h53.332031c.769531 0 1.535156-.085938 2.28125-.257813 11.050781-2.410156 29.71875-11.796875 29.71875-31.742187 0-19.945313-18.667969-29.332032-29.71875-31.742188zm0 0" fill="#1982bf" data-original="#607d8b" style=""/><path d="m268.953125 426.925781c-.746094-.171875-1.511719-.257812-2.28125-.257812h-21.332031c-3.351563 0-6.527344 1.578125-8.535156 4.269531l-32 42.664062c-2.429688 3.222657-2.816407 7.554688-1.003907 11.160157 1.816407 3.625 5.507813 5.90625 9.539063 5.90625h53.332031c.769531 0 1.535156-.082031 2.28125-.253907 11.050781-2.410156 29.71875-11.796874 29.71875-31.746093 0-19.945313-18.667969-29.332031-29.71875-31.742188zm0 0" fill="#1982bf" data-original="#607d8b" style=""/></g><path xmlns="http://www.w3.org/2000/svg" d="m498.308594 225.367188c-35.710938-34.261719-135.019532-34.152344-162.304688-33.535157l-122.578125-169.726562c-10.007812-13.847657-26.15625-22.10156275-43.222656-22.10156275h-10.199219c-3.027344 0-5.90625 1.27734375-7.933594 3.53906275-2.027343 2.261719-2.988281 5.25-2.667968 8.234375l20.246094 192.257812-69.78125 8.746094-60.308594-60.332031c-2.007813-1.984375-4.714844-3.113281-7.554688-3.113281h-21.332031c-3.285156 0-6.378906 1.515624-8.40625 4.097656-2.027344 2.578125-2.730469 5.972656-1.941406 9.152344l21.015625 84.074218v18.707032l-21.015625 84.054687c-.808594 3.179687-.085938 6.570313 1.941406 9.152344s5.121094 4.09375 8.40625 4.09375h21.332031c2.839844 0 5.546875-1.128907 7.554688-3.113281l60.308594-60.308594 69.78125 8.722656-20.246094 192.257812c-.320313 3.007813.660156 5.996094 2.667968 8.257813 2.003907 2.257813 4.90625 3.519531 7.933594 3.519531h10.199219c17.066406 0 33.238281-8.257812 43.222656-22.101562l122.578125-169.730469c27.242188.664063 126.613282.707031 162.304688-33.535156 9.089844-8.726563 13.695312-19.027344 13.695312-30.632813 0-11.605468-4.605468-21.910156-13.695312-30.636718zm0 0" fill="#b3daf1" data-original="#cfd8dc" style="" class=""/><path xmlns="http://www.w3.org/2000/svg" d="m330.671875 170.667969h-21.332031c-5.890625 0-10.667969-4.777344-10.667969-10.664063 0-5.890625 4.777344-10.667968 10.667969-10.667968h19.925781c2.898437-.894532 12.074219-4.179688 12.074219-10.667969 0-6.460938-9.109375-9.769531-12.074219-10.664063h-51.925781c-5.890625 0-10.667969-4.78125-10.667969-10.667968 0-5.886719 4.777344-10.667969 10.667969-10.667969h53.332031c.769531 0 1.535156.085937 2.28125.257812 11.050781 2.410157 29.71875 11.796875 29.71875 31.742188 0 19.949219-18.667969 29.335937-29.71875 31.746093-.746094.171876-1.511719.253907-2.28125.253907zm0 0" fill="#000000" data-original="#000000" style="" class=""/><path xmlns="http://www.w3.org/2000/svg" d="m266.671875 85.335938h-21.332031c-5.890625 0-10.667969-4.777344-10.667969-10.667969 0-5.886719 4.777344-10.664063 10.667969-10.664063h19.925781c2.898437-.898437 12.074219-4.183594 12.074219-10.667968 0-6.464844-9.109375-9.769532-12.074219-10.667969h-51.925781c-5.890625 0-10.667969-4.777344-10.667969-10.664063 0-5.890625 4.777344-10.667968 10.667969-10.667968h53.332031c.769531 0 1.535156.085937 2.28125.257812 11.050781 2.410156 29.71875 11.796875 29.71875 31.742188 0 19.945312-18.667969 29.332031-29.71875 31.742187-.746094.171875-1.511719.257813-2.28125.257813zm0 0" fill="#000000" data-original="#000000" style="" class=""/><path xmlns="http://www.w3.org/2000/svg" d="m170.203125 512.003906h-10.199219c-3.027344 0-5.90625-1.300781-7.933594-3.519531-2.027343-2.242187-3.007812-5.25-2.667968-8.277344l20.246094-192.257812-69.78125-8.726563-60.308594 60.3125c-2.007813 2.003906-4.714844 3.132813-7.554688 3.132813h-21.332031c-3.285156 0-6.378906-1.511719-8.40625-4.09375-2.027344-2.582031-2.730469-5.953125-1.941406-9.152344l21.015625-84.074219v-18.710937l-21.015625-84.050781c-.808594-3.179688-.085938-6.574219 1.941406-9.152344 2.027344-2.582032 5.121094-4.097656 8.40625-4.097656h21.332031c2.839844 0 5.546875 1.128906 7.554688 3.113281l60.308594 60.3125 69.78125-8.726563-20.246094-192.257812c-.320313-2.984375.660156-5.992188 2.667968-8.234375 2.003907-2.238281 4.90625-3.53906275 7.933594-3.53906275h10.199219c17.066406 0 33.238281 8.25390575 43.222656 22.10156275l122.578125 169.726562c27.308594-.597656 126.613282-.726562 162.304688 33.535157 9.089844 8.726562 13.695312 19.03125 13.695312 30.636718 0 11.605469-4.605468 21.90625-13.695312 30.632813-35.710938 34.261719-135.019532 34.21875-162.324219 33.558593l-122.582031 169.707032c-9.984375 13.824218-26.132813 22.101562-43.199219 22.101562zm-74.199219-234.667968c.449219 0 .898438.019531 1.324219.085937l85.332031 10.667969c5.761719.722656 9.898438 5.90625 9.28125 11.710937l-20.074218 190.824219c9.621093-.488281 18.601562-5.375 24.277343-13.226562l125.886719-174.3125c2.089844-2.902344 5.738281-4.265626 9.089844-4.417969 33.066406 1.367187 124.800781-.894531 152.445312-27.433594 4.84375-4.671875 7.105469-9.492187 7.105469-15.230469 0-5.738281-2.261719-10.582031-7.125-15.234375-27.710937-26.582031-119.574219-28.863281-152.425781-27.433593-3.628906.234374-7-1.492188-9.089844-4.414063l-125.910156-174.316406c-5.671875-7.871094-14.65625-12.714844-24.277344-13.226563l20.078125 190.847656c.617187 5.78125-3.523437 10.988282-9.28125 11.691407l-85.332031 10.667969c-3.289063.382812-6.550782-.726563-8.875-3.050782l-60.84375-60.867187h-3.242188l18.003906 72.085937c.214844.832032.320313 1.707032.320313 2.582032v21.332031c0 .875-.105469 1.75-.320313 2.582031l-18.003906 72.085938h3.242188l60.886718-60.886719c2.003907-2.003907 4.710938-3.113281 7.527344-3.113281zm-64-10.667969h.214844zm0 0" fill="#000000" data-original="#000000" style="" class=""/><path xmlns="http://www.w3.org/2000/svg" d="m330.671875 405.335938h-53.332031c-5.890625 0-10.667969-4.777344-10.667969-10.667969 0-5.886719 4.777344-10.664063 10.667969-10.664063h51.925781c2.898437-.875 12.074219-4.183594 12.074219-10.667968 0-6.464844-9.109375-9.769532-12.074219-10.667969h-19.925781c-5.890625 0-10.667969-4.777344-10.667969-10.664063 0-5.890625 4.777344-10.667968 10.667969-10.667968h21.332031c.769531 0 1.535156.085937 2.28125.257812 11.050781 2.410156 29.71875 11.796875 29.71875 31.742188 0 19.945312-18.667969 29.332031-29.71875 31.742187-.746094.171875-1.511719.257813-2.28125.257813zm0 0" fill="#000000" data-original="#000000" style="" class=""/><path xmlns="http://www.w3.org/2000/svg" d="m266.671875 490.667969h-53.332031c-5.890625 0-10.667969-4.777344-10.667969-10.664063 0-5.890625 4.777344-10.667968 10.667969-10.667968h51.925781c2.898437-.875 12.074219-4.179688 12.074219-10.667969 0-6.460938-9.109375-9.769531-12.074219-10.664063h-19.925781c-5.890625 0-10.667969-4.78125-10.667969-10.667968 0-5.886719 4.777344-10.667969 10.667969-10.667969h21.332031c.769531 0 1.535156.085937 2.28125.257812 11.050781 2.410157 29.71875 11.796875 29.71875 31.742188 0 19.949219-18.667969 29.335937-29.71875 31.746093-.746094.171876-1.511719.253907-2.28125.253907zm0 0" fill="#000000" data-original="#000000" style="" class=""/><path xmlns="http://www.w3.org/2000/svg" d="m416.003906 288.003906c-4.777344 0-9.128906-3.222656-10.324218-8.085937-1.429688-5.71875 2.046874-11.5 7.765624-12.929688.042969-.019531 13.226563-3.796875 13.226563-10.984375 0-7.191406-13.183594-10.964844-13.3125-11.007812-5.675781-1.496094-9.109375-7.296875-7.65625-12.972656 1.449219-5.695313 7.230469-9.171876 12.882813-7.699219 10.921874 2.730469 29.417968 12.476562 29.417968 31.679687 0 19.199219-18.496094 28.949219-29.417968 31.679688-.851563.210937-1.726563.320312-2.582032.320312zm0 0" fill="#000000" data-original="#000000" style="" class=""/></g></svg>
