<svg xmlns="http://www.w3.org/2000/svg" width="50" height="51.031" viewBox="0 0 50 51.031">
  <g id="heart" transform="translate(-5.171)">
    <path id="Path_447" data-name="Path 447" d="M51.517,8.241H21.254a9.119,9.119,0,0,0-9.118,9.118V37.208a9.118,9.118,0,0,0,9.118,9.118H25.6a.374.374,0,0,1,.374.374v9.791a1.278,1.278,0,0,0,2.209.875L38.453,46.444a.374.374,0,0,1,.273-.118H51.517a9.118,9.118,0,0,0,9.118-9.118V17.36A9.118,9.118,0,0,0,51.517,8.241Z" transform="translate(-6.271 -7.42)" fill="#023986"/>
    <path id="Path_448" data-name="Path 448" d="M29.807,53.719a.379.379,0,0,0-.362-.394h-4.2c-4.875,0-8.828-4.3-8.828-9.6v-20.9a10.4,10.4,0,0,1,.325-2.59,9.115,9.115,0,0,0-4.6,7.923V48a9.119,9.119,0,0,0,9.118,9.118H25.6a.374.374,0,0,1,.374.374v9.791a1.278,1.278,0,0,0,2.209.876l1.627-1.73V53.719Z" transform="translate(-6.27 -18.215)" fill="#00204e"/>
    <path id="Path_449" data-name="Path 449" d="M157.448,111.287h0a5.928,5.928,0,0,0-8.384,0l-1.308,1.308a.8.8,0,0,1-1.129,0l-1.287-1.287a5.928,5.928,0,0,0-8.384,0h0a5.928,5.928,0,0,0,0,8.384l9.671,9.671a.8.8,0,0,0,1.129,0l9.691-9.692A5.928,5.928,0,0,0,157.448,111.287Z" transform="translate(-117.087 -98.632)" fill="#023986"/>
    <path id="Path_450" data-name="Path 450" d="M157.448,111.287h0a5.928,5.928,0,0,0-8.384,0l-1.308,1.308a.8.8,0,0,1-1.129,0l-1.287-1.287a5.928,5.928,0,0,0-8.384,0h0a5.928,5.928,0,0,0,0,8.384l9.671,9.671a.8.8,0,0,0,1.129,0l9.691-9.692A5.928,5.928,0,0,0,157.448,111.287Z" transform="translate(-117.087 -98.632)" fill="#ffc109"/>
    <path id="Path_451" data-name="Path 451" d="M140.058,119.894a5.928,5.928,0,0,1,0-8.384h0a5.9,5.9,0,0,1,2.641-1.529,5.924,5.924,0,0,0-5.742,1.529h0a5.928,5.928,0,0,0,0,8.384l9.671,9.671a.8.8,0,0,0,1.129,0l.986-.986Z" transform="translate(-117.088 -98.834)" fill="#f90"/>
    <path id="Path_452" data-name="Path 452" d="M45.3,0H15.04A9.791,9.791,0,0,0,9.172,1.933a.75.75,0,1,0,.893,1.206A8.3,8.3,0,0,1,15.04,1.5H45.3A8.378,8.378,0,0,1,53.67,9.869V29.717A8.378,8.378,0,0,1,45.3,38.086H32.511a1.128,1.128,0,0,0-.819.354L21.42,49.362A.528.528,0,0,1,20.507,49V39.21a1.126,1.126,0,0,0-1.124-1.124H15.04a8.378,8.378,0,0,1-8.368-8.368V9.869A8.321,8.321,0,0,1,8.132,5.143.75.75,0,1,0,6.9,4.294,9.816,9.816,0,0,0,5.171,9.869V29.717a9.88,9.88,0,0,0,9.869,9.869h3.967V49a2.017,2.017,0,0,0,1.281,1.886,2.039,2.039,0,0,0,.752.144,2.019,2.019,0,0,0,1.473-.64l10.161-10.8H45.3a9.88,9.88,0,0,0,9.869-9.869V9.869A9.88,9.88,0,0,0,45.3,0Z"/>
    <path id="Path_453" data-name="Path 453" d="M148.492,113.919a.75.75,0,1,0,1.061,1.061l2.24-2.24a6.679,6.679,0,0,0-9.445-9.445L141.04,104.6a.046.046,0,0,1-.034.014.045.045,0,0,1-.034-.014l-1.287-1.287a6.678,6.678,0,0,0-9.445,9.445l9.671,9.671a1.549,1.549,0,0,0,2.19,0l5.315-5.316a.75.75,0,1,0-1.061-1.061l-5.315,5.316a.046.046,0,0,1-.034.014.045.045,0,0,1-.034-.014L131.3,111.7a5.178,5.178,0,0,1,7.323-7.323l1.287,1.287a1.549,1.549,0,0,0,2.19,0l1.308-1.308a5.178,5.178,0,0,1,7.323,7.323Z" transform="translate(-110.845 -91.241)"/>
  </g>
</svg>
