<svg xmlns="http://www.w3.org/2000/svg" width="69.39" height="69.393" viewBox="0 0 69.39 69.393"><defs><style>.a{fill:#ffc109;}.b{fill:#fafafa;}</style></defs><g transform="translate(-0.01 0)"><path class="a" d="M66.212,34.7l3.044-7.941a2.171,2.171,0,0,0-.659-2.463L62,18.943l-1.336-8.4a2.168,2.168,0,0,0-1.8-1.8l-8.4-1.336L45.109.8A2.172,2.172,0,0,0,42.651.143L34.706,3.192,26.765.147a2.163,2.163,0,0,0-2.459.659l-5.352,6.6-8.4,1.336a2.173,2.173,0,0,0-1.8,1.8l-1.336,8.4L.814,24.3a2.17,2.17,0,0,0-.659,2.459L3.2,34.7.155,42.639A2.163,2.163,0,0,0,.814,45.1l6.6,5.347,1.336,8.4a2.168,2.168,0,0,0,1.8,1.8l8.4,1.336,5.352,6.6a2.158,2.158,0,0,0,2.463.659l7.936-3.04,7.941,3.044a2.17,2.17,0,0,0,2.463-.664l5.347-6.6,8.4-1.336a2.172,2.172,0,0,0,1.8-1.8L62,50.445,68.6,45.1a2.165,2.165,0,0,0,.659-2.459Z" transform="translate(0)"/><g transform="translate(21.695 17.349)"><path class="b" d="M166.527,141.045a6.505,6.505,0,1,1,6.505-6.505A6.513,6.513,0,0,1,166.527,141.045Zm0-8.673a2.168,2.168,0,1,0,2.168,2.168A2.169,2.169,0,0,0,166.527,132.372Z" transform="translate(-160.022 -128.033)"/><path class="b" d="M262.527,301.045a6.505,6.505,0,1,1,6.505-6.505A6.513,6.513,0,0,1,262.527,301.045Zm0-8.673a2.168,2.168,0,1,0,2.168,2.168A2.175,2.175,0,0,0,262.527,292.372Z" transform="translate(-243.012 -266.349)"/><path class="b" d="M162.2,162.713a2.168,2.168,0,0,1-1.761-3.43l21.684-30.357a2.169,2.169,0,0,1,3.53,2.52L163.972,161.8A2.178,2.178,0,0,1,162.2,162.713Z" transform="translate(-160.034 -128.017)"/></g></g></svg>