<svg xmlns="http://www.w3.org/2000/svg" width="240" height="194" viewBox="0 0 240 194">
  <g id="Group_254" data-name="Group 254" transform="translate(-631 -3204)">
    <g id="student2" transform="translate(632.613 3204)">
      <g id="Group_146" data-name="Group 146" transform="translate(55.832 2.445)">
        <g id="Group_136" data-name="Group 136" transform="translate(0 72.994)">
          <path id="Path_297" data-name="Path 297" d="M222.815,284.293l-16.784-18.345V243.633H176.765v22.323l-16.6,18.337Z" transform="translate(-127.92 -243.633)" fill="#ffddce"/>
          <path id="Path_298" data-name="Path 298" d="M171.773,326.841l-24.422-7.182-22.981,26.4-22.977-26.4-24.424,7.181a22.421,22.421,0,0,0-16.082,21.519V371.97a7.929,7.929,0,0,0,7.922,7.936H179.931a7.929,7.929,0,0,0,7.922-7.936v-23.61A22.42,22.42,0,0,0,171.773,326.841Z" transform="translate(-60.887 -294.879)" fill="#407093"/>
          <g id="Group_135" data-name="Group 135" transform="translate(75.02 24.78)">
            <path id="Path_299" data-name="Path 299" d="M327.575,326.841l-24.465-7.182L291.737,332.7l15.2,4.462a22.426,22.426,0,0,1,16.109,21.518v21.226h12.7a7.936,7.936,0,0,0,7.936-7.936v-23.61A22.426,22.426,0,0,0,327.575,326.841Z" transform="translate(-291.737 -319.659)" fill="#365e7d"/>
          </g>
        </g>
        <g id="Group_143" data-name="Group 143" transform="translate(4.725)">
          <g id="Group_142" data-name="Group 142">
            <path id="Path_300" data-name="Path 300" d="M89.1,148.543l-2.506-2.764H81.235l-2.506,2.764-3.3,19.385a3,3,0,0,0,2.954,3.5H89.446a3,3,0,0,0,2.954-3.5Z" transform="translate(-75.383 -100.709)" fill="#e4f6ff"/>
            <g id="Group_140" data-name="Group 140" transform="translate(27.453 16.644)">
              <g id="Group_139" data-name="Group 139">
                <g id="Group_138" data-name="Group 138">
                  <g id="Group_137" data-name="Group 137">
                    <path id="Path_301" data-name="Path 301" d="M204.833,58.569h-27.1A17.737,17.737,0,0,0,160,76.306V96H222.57V76.306a17.737,17.737,0,0,0-17.737-17.737Z" transform="translate(-159.999 -58.569)" fill="#efc984"/>
                  </g>
                </g>
              </g>
            </g>
            <path id="Path_302" data-name="Path 302" d="M291.688,58.569h-2.835V96h20.572V76.306a17.737,17.737,0,0,0-17.737-17.737Z" transform="translate(-219.446 -41.925)" fill="#eabc6b"/>
            <path id="Path_303" data-name="Path 303" d="M217.261,137.526a5.363,5.363,0,0,1-5.363-5.363v-8.153H170.7v8.153a5.363,5.363,0,0,1-5.363,5.363h-5.325V146.3a4.057,4.057,0,0,0,4.057,4.057,1.334,1.334,0,0,1,1.327,1.259,25.954,25.954,0,0,0,51.8,0,1.334,1.334,0,0,1,1.327-1.259,4.057,4.057,0,0,0,4.057-4.057v-8.769Z" transform="translate(-132.557 -86.036)" fill="#ffddce"/>
            <path id="Path_304" data-name="Path 304" d="M276.062,137.526a5.363,5.363,0,0,1-5.363-5.363v-8.153h-9.89v30.182a25.957,25.957,0,0,1-13.56,21.561,26.232,26.232,0,0,0,2.852.16,25.957,25.957,0,0,0,25.9-24.3,1.334,1.334,0,0,1,1.327-1.259,4.057,4.057,0,0,0,4.057-4.057v-8.769h-5.325Z" transform="translate(-191.394 -86.036)" fill="#ffcbbe"/>
            <path id="Path_305" data-name="Path 305" d="M146.785,7.633,97.315,23.4a2.77,2.77,0,0,0,.374,5.368l49.934,8.523,49.933-8.523a2.77,2.77,0,0,0,.374-5.368L148.459,7.633a2.758,2.758,0,0,0-1.675,0Z" transform="translate(-88.868 -7.503)" fill="#407093"/>
            <path id="Path_306" data-name="Path 306" d="M218.039,88.362H156.246a2.4,2.4,0,0,1-2.4-2.4V73.735l27.44-3.4a47.668,47.668,0,0,1,11.7,0l27.45,3.4V85.963A2.4,2.4,0,0,1,218.039,88.362Z" transform="translate(-128.4 -49.615)" fill="#4a80aa"/>
            <g id="Group_141" data-name="Group 141" transform="translate(64.035 1.578)">
              <path id="Path_307" data-name="Path 307" d="M317.552,26.666,272.53,12.346V26.693a5.361,5.361,0,0,0,5.32,5.36v6.679l39.327-6.7A2.769,2.769,0,0,0,317.552,26.666Z" transform="translate(-272.53 -12.346)" fill="#365e7d"/>
            </g>
            <path id="Path_308" data-name="Path 308" d="M288.853,72.93V90.351h20.188a2.4,2.4,0,0,0,2.4-2.4V75.724Z" transform="translate(-219.45 -51.605)" fill="#407093"/>
            <path id="Path_309" data-name="Path 309" d="M96.017,134.768H85.649v-6.806a2.619,2.619,0,0,1,2.619-2.619H93.4a2.619,2.619,0,0,1,2.619,2.619v6.806Z" transform="translate(-82.303 -86.934)" fill="#ffe07d"/>
          </g>
        </g>
        <g id="Group_144" data-name="Group 144" transform="translate(26.137 88.215)">
          <path id="Path_310" data-name="Path 310" d="M270.628,287.034a49.04,49.04,0,0,1-7.933,26.742L256,324.065l37.347-22.192Z" transform="translate(-218.653 -287.034)" fill="#4a80aa"/>
          <path id="Path_311" data-name="Path 311" d="M164.138,287.034a49.04,49.04,0,0,0,7.933,26.742l6.694,10.289-37.347-22.192Z" transform="translate(-141.419 -287.034)" fill="#4a80aa"/>
        </g>
        <g id="Group_145" data-name="Group 145" transform="translate(51.017 102.482)">
          <path id="Path_312" data-name="Path 312" d="M242.686,331.144a59.768,59.768,0,0,1-24.933,0,49.019,49.019,0,0,0,5.772,12.365l6.694,10.289,6.694-10.289A49.014,49.014,0,0,0,242.686,331.144Z" transform="translate(-217.753 -331.144)" fill="#f4fbff"/>
        </g>
      </g>
      <path id="Path_313" data-name="Path 313" d="M167.408,106.432l-9.778-2.807L136.358,90.038V86.925a27.55,27.55,0,0,0,11.175-19.446,6.4,6.4,0,0,0,5.455-6.266V52.652c0-.033,0-.066-.005-.1V41.709a4.674,4.674,0,0,0,2.012-3.84V27.946L169.675,25.5a5.064,5.064,0,0,0,.7-9.867L120.888.241a5.29,5.29,0,0,0-3.156,0L68.241,15.634a5.058,5.058,0,0,0-1.621,8.884V37.5H66.5a5,5,0,0,0-5.054,4.942V48.88L58.182,67.606a5.35,5.35,0,0,0,5.355,6.2H74.584a5.35,5.35,0,0,0,5.355-6.2L76.676,48.88V42.438A5,5,0,0,0,71.622,37.5H71.5V25.926l12.135,2.021V37.87a4.677,4.677,0,0,0,2,3.832l0,10.952v8.56A6.4,6.4,0,0,0,91.1,67.479a27.552,27.552,0,0,0,11.164,19.439v3.128L80.994,103.63l-9.77,2.8a24.347,24.347,0,0,0-17.836,23.3v7.112a2.441,2.441,0,0,0,4.881,0V129.73A19.676,19.676,0,0,1,72.6,111.013l9.1-2.613,36.368,21.132a2.517,2.517,0,0,0,2.493,0l36.37-21.133,9.1,2.613a19.677,19.677,0,0,1,14.329,18.716v23.049a5.429,5.429,0,0,1-5.483,5.361H164.124V147.852a2.441,2.441,0,0,0-4.881,0v10.286H79.377V147.852a2.441,2.441,0,0,0-4.881,0v10.286H63.751a5.429,5.429,0,0,1-5.483-5.361V148a2.441,2.441,0,0,0-4.881,0v4.779A10.262,10.262,0,0,0,63.75,162.911H174.88a10.262,10.262,0,0,0,10.363-10.134V129.728a24.345,24.345,0,0,0-17.835-23.3Zm-92.825-37.4H63.537a.542.542,0,0,1-.544-.629l2.951-16.939h6.231l2.951,16.939A.542.542,0,0,1,74.583,69.037Zm-2.788-26.6V46.7h-5.47V42.438a.172.172,0,0,1,.174-.17h5.122a.172.172,0,0,1,.174.17Zm38.792,76.3.971,1.46L86.644,105.721l15.814-10.1A49.4,49.4,0,0,0,110.587,118.737Zm-.017-10.3a64.159,64.159,0,0,0,17.49,0,45.227,45.227,0,0,1-4.108,7.7l-4.637,6.97-4.637-6.97a45.229,45.229,0,0,1-4.108-7.7Zm17.473,10.3a49.4,49.4,0,0,0,8.129-23.117l15.814,10.1L127.072,120.2ZM142.318,42.6H148.1v7.668h-2.871a2.885,2.885,0,0,1-2.914-2.849V42.6ZM69.72,20.182,119.212,4.788a.328.328,0,0,1,.2,0L168.9,20.182a.315.315,0,0,1-.044.613l-16.363,2.725-6.143-.743a2.43,2.43,0,0,0-2.721,2.076,2.4,2.4,0,0,0,2.123,2.661l4.363.528v9.784l-61.6,0V28.042l25.253-3.056a46.221,46.221,0,0,1,11.083,0l9.558,1.156a2.43,2.43,0,0,0,2.722-2.075,2.4,2.4,0,0,0-2.122-2.661l-9.558-1.156a51.188,51.188,0,0,0-12.281,0L86.132,23.521,69.764,20.8a.315.315,0,0,1-.044-.613Zm20.8,30.084,0-7.668h5.794v4.819A2.885,2.885,0,0,1,93.4,50.266H90.522Zm5.371,15.987a3.747,3.747,0,0,0-3.76-3.465,1.6,1.6,0,0,1-1.61-1.574V55.039H93.4a7.718,7.718,0,0,0,7.794-7.621V42.6h36.245v4.819a7.718,7.718,0,0,0,7.794,7.621h2.876v6.174a1.6,1.6,0,0,1-1.61,1.574,3.747,3.747,0,0,0-3.76,3.466,23.509,23.509,0,0,1-46.844,0Zm23.422,26.261a28.7,28.7,0,0,0,12.162-2.7V91.33a44.537,44.537,0,0,1-1.647,11.987,58.908,58.908,0,0,1-21.031,0,44.533,44.533,0,0,1-1.647-11.987c0-.051-.007-.1-.01-.15,0-.01,0-.02,0-.03V89.813a28.7,28.7,0,0,0,12.173,2.7Z"/>
    </g>
    <path id="Rectangle_43" data-name="Rectangle 43" d="M0,0H225a15,15,0,0,1,15,15v0a0,0,0,0,1,0,0H15A15,15,0,0,1,0,0V0A0,0,0,0,1,0,0Z" transform="translate(631 3383)" fill="#78b9eb"/>
  </g>
</svg>
