<svg xmlns="http://www.w3.org/2000/svg" width="240" height="174" viewBox="0 0 240 174">
  <g id="Group_310" data-name="Group 310" transform="translate(-300 -4186)">
    <path id="Rectangle_41" data-name="Rectangle 41" d="M0,0H225a15,15,0,0,1,15,15v0a0,0,0,0,1,0,0H15A15,15,0,0,1,0,0V0A0,0,0,0,1,0,0Z" transform="translate(300 4345)" fill="#78b9eb"/>
    <g id="teacher" transform="translate(331 4137.632)">
      <g id="Group_307" data-name="Group 307" transform="translate(0 48.368)">
        <g id="Group_305" data-name="Group 305" transform="translate(12.933 2.6)">
          <path id="Path_421" data-name="Path 421" d="M116.225,55.868v9.564l-7.7,1.8-7.976-1.8V55.868Z" transform="translate(-78.629 -55.868)" fill="#5a5a5a"/>
          <path id="Path_422" data-name="Path 422" d="M131.259,55.869v9.563l-3.849,1.8-2.13-1.8V57.587a1.719,1.719,0,0,0-1.719-1.719h7.7Z" transform="translate(-93.662 -55.868)" fill="#444"/>
          <path id="Path_423" data-name="Path 423" d="M424.225,55.868v9.564l-8.014,1.458-7.661-1.458V55.868Z" transform="translate(-279.864 -55.868)" fill="#5a5a5a"/>
          <path id="Path_424" data-name="Path 424" d="M439.128,55.869v9.563l-3.884.707-2.165-.707V57.587a1.719,1.719,0,0,0-1.719-1.719h7.768Z" transform="translate(-294.767 -55.868)" fill="#444"/>
          <path id="Path_425" data-name="Path 425" d="M207.429,91.086v85.98a7.628,7.628,0,0,1-7.628,7.628h-8.141l-13.968-2.257-13.968,2.257H58.732a8.914,8.914,0,0,1-8.912-8.912V92.37a8.914,8.914,0,0,1,8.912-8.912H199.8A7.628,7.628,0,0,1,207.429,91.086Z" transform="translate(-45.484 -73.894)" fill="#ddeafb"/>
          <path id="Path_426" data-name="Path 426" d="M476.216,91.084v85.983a7.627,7.627,0,0,1-7.63,7.626H461.21a7.629,7.629,0,0,0,7.629-7.626V91.084a7.629,7.629,0,0,0-7.629-7.626h7.376A7.627,7.627,0,0,1,476.216,91.084Z" transform="translate(-314.27 -73.894)" fill="#cbe2ff"/>
          <path id="Path_427" data-name="Path 427" d="M378.42,339.618h27.936v12.441H378.42Z" transform="translate(-260.178 -241.26)" fill="#528fd8"/>
          <path id="Path_428" data-name="Path 428" d="M440.481,339.618v12.44h-7.047V342.4a2.783,2.783,0,0,0-2.783-2.783h9.831Z" transform="translate(-294.304 -241.259)" fill="#0473ce"/>
          <path id="Path_429" data-name="Path 429" d="M337.284,235.857l-7.609-2.6-3.785-8.79,4.961-4.964,4.333-3.092C335.782,215.034,337.284,235.857,337.284,235.857Z" transform="translate(-225.857 -160.716)" fill="#ffcebf"/>
          <path id="Path_430" data-name="Path 430" d="M348.108,212.681l-1.473,19.408-4.761-1.629-.657-3.789.743-9.794a1.2,1.2,0,0,0-1.758-1.145l4.579-4.579A1.953,1.953,0,0,1,348.108,212.681Z" transform="translate(-235.208 -156.949)" fill="#ffb09e"/>
          <path id="Path_431" data-name="Path 431" d="M148.733,251.159l-16.708,20.355a22.74,22.74,0,0,1-11.588,7.508L93.7,286.333a2.428,2.428,0,0,0-1.788,2.343v26.092H37.31v-16.4a60.375,60.375,0,0,1,6.146-26.539,15.258,15.258,0,0,1,13.7-8.545h43.808a36.459,36.459,0,0,0,28.417-13.612l7.962-9.9,5.976,5.976Z" transform="translate(-37.31 -176.022)" fill="#82aee3"/>
          <path id="Path_432" data-name="Path 432" d="M235.127,262.422l-16.708,20.355a22.74,22.74,0,0,1-11.588,7.508L180.1,297.6a2.428,2.428,0,0,0-1.788,2.343v26.092h-8.77V299.938a2.429,2.429,0,0,1,1.788-2.343l26.733-7.311a22.74,22.74,0,0,0,11.588-7.508l20.063-25.769Z" transform="translate(-123.704 -187.285)" fill="#528fd8"/>
          <path id="Path_433" data-name="Path 433" d="M118.87,228.273v13.213a14.287,14.287,0,0,1-14.289,14.285c-.3,0-.6-.008-.892-.031A14.278,14.278,0,0,1,90.3,241.486V228.273Z" transform="translate(-71.929 -168.511)" fill="#ffcebf"/>
          <path id="Path_434" data-name="Path 434" d="M256.736,127.815h14.159v9.567H256.736Z" transform="translate(-180.675 -102.875)" fill="#528fd8"/>
          <path id="Path_435" data-name="Path 435" d="M256.736,183.79h14.159v9.566H256.736Z" transform="translate(-180.675 -139.447)" fill="#528fd8"/>
          <path id="Path_436" data-name="Path 436" d="M118.873,228.278v13.21a14.286,14.286,0,0,1-14.288,14.285c-.3,0-.6-.007-.894-.028a13.957,13.957,0,0,1-2.919-.489A14.274,14.274,0,0,1,90.3,241.488v-13.21Z" transform="translate(-71.932 -168.514)" fill="#ffcebf"/>
          <path id="Path_437" data-name="Path 437" d="M138.611,228.278v13.21a14.286,14.286,0,0,1-14.288,14.285c-.3,0-.6-.007-.894-.028a13.957,13.957,0,0,1-2.919-.489,14.288,14.288,0,0,0,10.475-13.768v-13.21Z" transform="translate(-91.67 -168.514)" fill="#ffb09e"/>
          <path id="Path_438" data-name="Path 438" d="M126.528,182.544a10.237,10.237,0,0,1-10.24,10.24H97.82v14.171c0,6.51-6.985,8.607-11.137,5.969a6.57,6.57,0,0,1-3-5.512c-.01-.218-.014-.444-.014-.666V187.262a8.221,8.221,0,0,1,8.222-8.226h7.144a10.7,10.7,0,0,0,5.952-1.889c1.956-1.371,2.664-2.847,5.213-3.969a13.712,13.712,0,0,1,6.087-.877A10.24,10.24,0,0,1,126.528,182.544Z" transform="translate(-67.6 -131.925)" fill="#5a5a5a"/>
          <g id="Group_304" data-name="Group 304" transform="translate(17.703 40.355)">
            <path id="Path_439" data-name="Path 439" d="M88.38,200.158a7.006,7.006,0,0,1,.5-.61C88.706,199.742,88.539,199.947,88.38,200.158Z" transform="translate(-88.38 -190.098)" fill="#444"/>
            <path id="Path_440" data-name="Path 440" d="M101.026,231.438H103.5v14.171c0,6.51-6.985,8.607-11.137,5.969a6.709,6.709,0,0,0,3.165-5.969v-8.669A5.5,5.5,0,0,1,101.026,231.438Z" transform="translate(-90.98 -210.934)" fill="#444"/>
            <path id="Path_441" data-name="Path 441" d="M172.545,182.551a10.237,10.237,0,0,1-10.24,10.24h-8.2a10.471,10.471,0,0,0,10.472-10.233,10.245,10.245,0,0,0-7.207-9.792,15.715,15.715,0,0,1,4.94-.458A10.24,10.24,0,0,1,172.545,182.551Z" transform="translate(-131.319 -172.286)" fill="#444"/>
          </g>
        </g>
        <g id="Group_306" data-name="Group 306">
          <path id="Path_442" data-name="Path 442" d="M194.9,57.933h-7.357V50.968a2.6,2.6,0,0,0-2.6-2.6H169.268a2.6,2.6,0,0,0-2.6,2.6v6.965H80.778V50.968a2.6,2.6,0,0,0-2.6-2.6H62.5a2.6,2.6,0,0,0-2.6,2.6v6.965H53.83A11.525,11.525,0,0,0,42.318,69.445V132.7a2.6,2.6,0,1,0,5.2,0V69.445a6.319,6.319,0,0,1,6.312-6.312H194.9a5.034,5.034,0,0,1,5.028,5.028v85.977a5.034,5.034,0,0,1-5.028,5.028h-5.541v-9.84a2.6,2.6,0,0,0-2.6-2.6H158.825a2.6,2.6,0,0,0-2.6,2.6v9.84H114.557l9.837-2.69a25.2,25.2,0,0,0,12.913-8.367l16.708-20.355a2.641,2.641,0,0,0,.585-1.45l1.473-19.406a4.633,4.633,0,0,0-2.787-4.542,2.6,2.6,0,0,0-1.28-4.861H140.613a2.6,2.6,0,0,0,0,5.2h8.5a4.635,4.635,0,0,0-.8.641l-9.541,9.541a74.851,74.851,0,0,0-4.993,6.186,2.6,2.6,0,0,0,4.052,3.259l2.991-3.718,7.676,7.676-15.213,18.533a20.033,20.033,0,0,1-10.265,6.65L81.971,163.274c-3.179,1.019-1.6,5.971,1.587,4.951l9.03-2.9v21.784H88.976a2.6,2.6,0,0,0,0,5.2h15.893a2.6,2.6,0,1,0,0-5.2H97.788V164.365H194.9a10.239,10.239,0,0,0,10.228-10.228V68.161A10.239,10.239,0,0,0,194.9,57.933Zm-23.032-4.366h10.475v4.364H171.868Zm-106.764,0H75.579v4.364H65.1Zm85.653,54.68-.912,12.019-5.553-5.553Zm10.669,50.918v-7.24H184.16v7.24Z" transform="translate(-27.649 -48.368)"/>
          <path id="Path_443" data-name="Path 443" d="M48.913,263.205H15.533V249.4a57.929,57.929,0,0,1,5.881-25.395,12.738,12.738,0,0,1,11.365-7.089H76.586a39.13,39.13,0,0,0,25.081-9.112,2.6,2.6,0,0,0-3.338-3.987,33.922,33.922,0,0,1-21.743,7.9H57.76a16.819,16.819,0,0,0,4.715-11.685v-9.547a12.84,12.84,0,0,0-.853-25.651c-4.328-.1-8.448.906-11.482,4.206a7.874,7.874,0,0,1-5.77,2.529H37.226A10.836,10.836,0,0,0,26.4,182.4V201.88a10.185,10.185,0,0,0,1.868,6.179,8.918,8.918,0,0,0,2.183,2.077c.9.607,2.223.826,2.95,1.582a18.192,18.192,0,0,0-16.66,10A63.141,63.141,0,0,0,10.334,249.4v13.8H2.6a2.6,2.6,0,1,0,0,5.2H48.913a2.6,2.6,0,1,0,0-5.2Zm-4.061-51.51a11.621,11.621,0,0,1-4.161-1.053,9.592,9.592,0,0,0,1.711-1.123,9.415,9.415,0,0,0,3.351-7.431V190.517H57.275v9.515a11.7,11.7,0,0,1-11.689,11.685C45.311,211.718,45.078,211.711,44.851,211.695ZM31.6,201.88V182.4a5.631,5.631,0,0,1,5.622-5.626H44.37a13.089,13.089,0,0,0,9.6-4.206c2.043-2.223,4.815-2.634,7.657-2.529a7.642,7.642,0,0,1,0,15.283H43.153a2.6,2.6,0,0,0-2.6,2.6v14.171a4.5,4.5,0,0,1-5.576,4.384c-2.322-.443-3.374-2.334-3.374-4.592Z" transform="translate(0 -124.459)"/>
          <path id="Path_444" data-name="Path 444" d="M251.836,135.081h14.159a2.6,2.6,0,0,0,2.6-2.6v-9.566a2.6,2.6,0,0,0-2.6-2.6H251.836a2.6,2.6,0,0,0-2.6,2.6v9.566A2.6,2.6,0,0,0,251.836,135.081Zm2.6-9.567h8.959v4.367h-8.959Z" transform="translate(-162.841 -95.375)"/>
          <path id="Path_445" data-name="Path 445" d="M249.236,188.457a2.6,2.6,0,0,0,2.6,2.6h14.159a2.6,2.6,0,0,0,2.6-2.6V178.89a2.6,2.6,0,0,0-2.6-2.6H251.836a2.6,2.6,0,0,0-2.6,2.6Zm5.2-6.967h8.959v4.367h-8.959Z" transform="translate(-162.841 -131.947)"/>
          <path id="Path_446" data-name="Path 446" d="M320.986,139.314h46.146a2.6,2.6,0,1,0,0-5.2H320.986a2.6,2.6,0,0,0,0,5.2Z" transform="translate(-208.021 -104.391)"/>
        </g>
      </g>
    </g>
  </g>
</svg>
