<?xml version="1.0"?>
<svg xmlns="http://www.w3.org/2000/svg" id="Capa_1" enable-background="new 0 0 512 512" height="512px" viewBox="0 0 512 512" width="512px" class=""><g><g><g><path d="m145.77 55.868v27.59l-22.21 5.206-23.01-5.206v-27.59z" fill="#5a5a5a" data-original="#5A5A5A"/><path d="m145.77 55.871v27.587l-11.105 5.207-6.145-5.207v-22.63c0-2.74-2.22-4.96-4.96-4.96h22.207c.002 0 .003.001.003.003z" fill="#444" data-original="#444"/><path d="m453.77 55.868v27.59l-23.12 4.206-22.1-4.206v-27.59z" fill="#5a5a5a" data-original="#5A5A5A"/><path d="m453.77 55.871v27.587l-11.205 2.039-6.245-2.039v-22.63c0-2.74-2.22-4.96-4.96-4.96h22.407c.002 0 .003.001.003.003z" fill="#444" data-original="#444"/><path d="m504.5 105.463v248.04c0 12.153-9.852 22.005-22.005 22.005h-23.485l-40.295-6.51-40.295 6.51h-302.89c-14.2 0-25.71-11.52-25.71-25.71v-240.63c0-14.19 11.51-25.71 25.71-25.71h406.965c12.153 0 22.005 9.852 22.005 22.005z" fill="#ddeafb" data-original="#DDEAFB" class=""/><path d="m504.5 105.458v248.05c0 12.15-9.85 22-22.01 22h-21.28c12.15 0 22.01-9.85 22.01-22v-248.05c0-12.15-9.86-22-22.01-22h21.28c12.16 0 22.01 9.85 22.01 22z" fill="#cbe2ff" data-original="#CBE2FF" class=""/><path d="m378.42 339.618h80.59v35.89h-80.59z" fill="#528fd8" data-original="#528FD8" class=""/><path d="m459.01 339.619v35.888h-20.33v-27.86c0-4.44-3.6-8.03-8.03-8.03h28.358c.001.001.002.002.002.002z" fill="#0473ce" data-original="#0473CE" class=""/><path d="m358.76 272.638-21.952-7.511-10.918-25.359 14.311-14.319 12.5-8.919c1.725-3.962 6.059 56.108 6.059 56.108z" fill="#ffcebf" data-original="#FFCEBF" class=""/><path d="m363.01 216.648-4.25 55.99-13.736-4.7-1.894-10.93 2.143-28.255c.206-2.717-2.669-4.59-5.071-3.304l13.209-13.211c3.689-3.69 9.989-.8 9.599 4.41z" fill="#ffb09e" data-original="#FFB09E" class=""/><path d="m358.75 272.628-48.2 58.72c-8.63 10.51-20.31 18.08-33.43 21.66l-77.122 21.09c-3.046.833-5.158 3.6-5.158 6.758v75.273h-157.53v-47.32c0-13.27 1.51-26.45 4.49-39.29 2.97-12.84 7.4-25.35 13.24-37.27 7.39-15.08 22.72-24.65 39.52-24.65h126.38c31.87 0 62.02-14.44 81.98-39.27l22.97-28.56 17.24 17.24z" fill="#82aee3" data-original="#82AEE3" class=""/><path d="m358.75 272.628-48.2 58.72c-8.63 10.51-20.31 18.08-33.43 21.66l-77.122 21.09c-3.046.833-5.158 3.6-5.158 6.758v75.273h-25.3v-75.273c0-3.157 2.112-5.925 5.158-6.758l77.122-21.09c13.12-3.58 24.8-11.15 33.43-21.66l57.88-74.34z" fill="#528fd8" data-original="#528FD8" class=""/><path d="m172.727 228.273v38.119c0 22.763-18.458 41.21-41.221 41.21-.861 0-1.722-.022-2.572-.088-21.571-1.325-38.638-19.22-38.638-41.122v-38.119z" fill="#ffcebf" data-original="#FFCEBF" class=""/><path d="m256.736 127.815h40.846v27.598h-40.846z" fill="#528fd8" data-original="#528FD8" class=""/><path d="m256.736 183.79h40.846v27.598h-40.846z" fill="#528fd8" data-original="#528FD8" class=""/><path d="m172.73 228.278v38.11c0 22.77-18.46 41.21-41.22 41.21-.87 0-1.73-.02-2.58-.08-2.9-.18-5.72-.65-8.42-1.41-17.43-4.8-30.21-20.75-30.21-39.72v-38.11z" fill="#ffcebf" data-original="#FFCEBF" class=""/><path d="m172.73 228.278v38.11c0 22.77-18.46 41.21-41.22 41.21-.87 0-1.73-.02-2.58-.08-2.9-.18-5.72-.65-8.42-1.41 17.42-4.81 30.22-20.76 30.22-39.72v-38.11z" fill="#ffb09e" data-original="#FFB09E" class=""/><path d="m207.31 201.898c0 16.32-13.22 29.54-29.54 29.54h-53.28v40.88c0 18.78-20.15 24.83-32.13 17.22-4.83-3.07-8.33-8.35-8.65-15.9-.03-.63-.04-1.28-.04-1.92v-56.21c0-13.11 10.61-23.73 23.72-23.73h20.61c4.505 0 11.211-1.273 17.17-5.45 5.643-3.955 7.686-8.212 15.04-11.45 5.467-2.38 11.654-2.801 17.56-2.53 16.32 0 29.54 13.23 29.54 29.55z" fill="#5a5a5a" data-original="#5A5A5A"/><g fill="#444"><path d="m88.38 201.308c.45-.61.93-1.2 1.45-1.76-.51.56-.99 1.15-1.45 1.76z" data-original="#444"/><path d="m117.36 231.438h7.13v40.88c0 18.78-20.15 24.83-32.13 17.22 5.31-3.28 9.13-9.04 9.13-17.22v-25.01c0-8.77 7.1-15.87 15.87-15.87z" data-original="#444"/><path d="m207.31 201.898c0 16.32-13.22 29.54-29.54 29.54h-23.67c16.24 0 30.2-13.28 30.21-29.52.01-13.28-8.74-24.52-20.79-28.25 4.186-1.291 9.68-1.515 14.25-1.32 16.32 0 29.54 13.23 29.54 29.55z" data-original="#444"/></g></g><g><path d="m482.495 75.962h-21.225v-20.094c0-4.142-3.358-7.5-7.5-7.5h-45.22c-4.142 0-7.5 3.358-7.5 7.5v20.094h-247.78v-20.094c0-4.142-3.358-7.5-7.5-7.5h-45.22c-4.142 0-7.5 3.358-7.5 7.5v20.094h-17.522c-18.313 0-33.21 14.898-33.21 33.21v182.491c0 4.142 3.358 7.5 7.5 7.5s7.5-3.358 7.5-7.5v-182.49c0-10.041 8.169-18.21 18.21-18.21h406.967c7.998 0 14.505 6.507 14.505 14.505v248.031c0 7.998-6.507 14.505-14.505 14.505h-15.984v-28.386c0-4.142-3.358-7.5-7.5-7.5h-80.587c-4.142 0-7.5 3.358-7.5 7.5v28.386h-120.208l28.378-7.76c14.698-4.01 27.579-12.356 37.252-24.137l48.2-58.72c.96-1.166 1.573-2.677 1.688-4.184l4.25-55.984c.42-5.534-2.938-10.968-8.041-13.104 2.272-1.289 3.808-3.725 3.808-6.524 0-4.142-3.358-7.5-7.5-7.5h-32.865c-4.142 0-7.5 3.358-7.5 7.5s3.358 7.5 7.5 7.5h24.531c-.821.52-1.598 1.135-2.311 1.849l-27.523 27.523c-5.316 5.314-9.692 11.988-14.403 17.846-2.596 3.228-2.084 7.949 1.144 10.545s7.949 2.084 10.545-1.144l8.628-10.727 22.143 22.143-43.886 53.465c-7.688 9.363-17.926 15.997-29.612 19.185l-118.432 34.08c-9.172 2.941-4.602 17.225 4.579 14.284l26.05-8.352v62.844h-10.42c-4.142 0-7.5 3.358-7.5 7.5s3.358 7.5 7.5 7.5h45.848c4.142 0 7.5-3.358 7.5-7.5s-3.358-7.5-7.5-7.5h-20.427v-65.629h280.155c16.269 0 29.505-13.236 29.505-29.505v-248.031c0-16.269-13.236-29.505-29.505-29.505zm-66.445-12.594h30.22v12.59h-30.22zm-308 0h30.22v12.59h-30.22zm247.096 157.744-2.632 34.673-16.02-16.02zm30.778 146.891v-20.886h65.587v20.886z" data-original="#000000" class="active-path" style="fill:#000000"/><path d="m141.106 448.632h-96.296v-39.824c0-25.298 5.834-50.54 16.965-73.26 6.088-12.423 18.957-20.45 32.785-20.45h126.38c26.415 0 52.11-9.335 72.354-26.286 3.176-2.659 3.595-7.39.936-10.565-2.66-3.177-7.39-3.595-10.565-.936-17.548 14.694-39.824 22.787-62.724 22.787h-54.312c8.414-8.758 13.602-20.636 13.602-33.71v-27.541c19.28-1.272 34.58-17.353 34.58-36.949 0-20.429-16.616-37.05-37.04-37.05-12.486-.293-24.372 2.613-33.123 12.134-4.277 4.636-10.345 7.295-16.647 7.295h-20.61c-17.215 0-31.22 14.01-31.22 31.23v56.21c0 6.382 1.534 12.645 5.39 17.826 1.739 2.336 3.879 4.369 6.298 5.991 2.609 1.75 6.414 2.384 8.509 4.564-20.079-.337-39.149 10.662-48.062 28.85-12.135 24.769-18.495 52.279-18.495 79.86v39.824h-22.311c-4.142 0-7.5 3.358-7.5 7.5s3.358 7.5 7.5 7.5h133.606c4.142 0 7.5-3.358 7.5-7.5s-3.358-7.5-7.5-7.5zm-11.716-148.6c-4.185-.257-8.252-1.304-12.003-3.037 1.74-.893 3.427-1.994 4.936-3.239 6.234-5.144 9.668-12.758 9.668-21.438v-33.38h33.24v27.45c0 18.588-15.127 33.71-33.72 33.71-.796 0-1.467-.02-2.121-.066zm-38.22-28.314v-56.21c0-8.949 7.276-16.23 16.22-16.23h20.61c10.479 0 20.565-4.419 27.682-12.135 5.893-6.412 13.891-7.599 22.088-7.295 12.153 0 22.04 9.892 22.04 22.05 0 12.153-9.887 22.04-22.04 22.04h-53.28c-4.142 0-7.5 3.358-7.5 7.5v40.88c0 8.749-7.72 14.242-16.086 12.646-6.7-1.278-9.734-6.732-9.734-13.246z" data-original="#000000" class="active-path" style="fill:#000000"/><path d="m256.736 162.913h40.846c4.142 0 7.5-3.358 7.5-7.5v-27.598c0-4.142-3.358-7.5-7.5-7.5h-40.846c-4.142 0-7.5 3.358-7.5 7.5v27.598c0 4.142 3.358 7.5 7.5 7.5zm7.5-27.598h25.846v12.598h-25.846z" data-original="#000000" class="active-path" style="fill:#000000"/><path d="m249.236 211.389c0 4.142 3.358 7.5 7.5 7.5h40.846c4.142 0 7.5-3.358 7.5-7.5v-27.599c0-4.142-3.358-7.5-7.5-7.5h-40.846c-4.142 0-7.5 3.358-7.5 7.5zm15-20.099h25.846v12.599h-25.846z" data-original="#000000" class="active-path" style="fill:#000000"/><path d="m325.886 149.114h133.125c4.142 0 7.5-3.358 7.5-7.5s-3.358-7.5-7.5-7.5h-133.125c-4.142 0-7.5 3.358-7.5 7.5s3.358 7.5 7.5 7.5z" data-original="#000000" class="active-path" style="fill:#000000"/></g></g></g> </svg>
