<svg xmlns="http://www.w3.org/2000/svg" xmlns:xlink="http://www.w3.org/1999/xlink" viewBox="0 0 750 500"><defs><style>.cls-1{isolation:isolate;}.cls-141,.cls-2{fill:#fff;}.cls-3{fill:url(#linear-gradient);}.cls-4{fill:#fafafa;}.cls-5{fill:url(#linear-gradient-2);}.cls-6{fill:url(#linear-gradient-3);}.cls-7{fill:url(#linear-gradient-4);}.cls-8{fill:url(#linear-gradient-5);}.cls-9{fill:url(#linear-gradient-6);}.cls-10{fill:url(#linear-gradient-7);}.cls-11{fill:url(#linear-gradient-8);}.cls-12{fill:url(#linear-gradient-9);}.cls-13{fill:url(#linear-gradient-10);}.cls-14{fill:url(#linear-gradient-11);}.cls-15{fill:url(#linear-gradient-12);}.cls-16{fill:url(#linear-gradient-13);}.cls-17{fill:url(#linear-gradient-14);}.cls-18{fill:url(#linear-gradient-15);}.cls-19,.cls-27,.cls-29,.cls-47,.cls-48,.cls-49,.cls-50,.cls-51,.cls-95{fill:none;}.cls-19{stroke:#ad1457;stroke-width:0.33px;}.cls-19,.cls-27,.cls-29,.cls-47,.cls-48,.cls-49,.cls-50,.cls-51{stroke-linecap:round;stroke-linejoin:round;}.cls-20{fill:url(#linear-gradient-16);}.cls-21{fill:url(#linear-gradient-17);}.cls-22{fill:url(#linear-gradient-18);}.cls-23{fill:url(#linear-gradient-19);}.cls-24{fill:url(#linear-gradient-20);}.cls-25{fill:url(#linear-gradient-21);}.cls-26{fill:url(#linear-gradient-22);}.cls-27,.cls-29{stroke:#fff;}.cls-27{stroke-width:0.3px;}.cls-28{fill:url(#linear-gradient-23);}.cls-29{stroke-width:0.26px;}.cls-30{fill:url(#linear-gradient-24);}.cls-31{fill:url(#linear-gradient-25);}.cls-32{fill:url(#linear-gradient-26);}.cls-33{fill:#7adfee;}.cls-34{fill:url(#linear-gradient-27);}.cls-35{fill:url(#linear-gradient-28);}.cls-36{opacity:0.05;mix-blend-mode:multiply;}.cls-37{fill:url(#linear-gradient-29);}.cls-38{fill:url(#linear-gradient-30);}.cls-39{fill:url(#linear-gradient-31);}.cls-40{fill:url(#linear-gradient-32);}.cls-41{fill:url(#linear-gradient-33);}.cls-42{fill:url(#linear-gradient-34);}.cls-43{fill:url(#linear-gradient-35);}.cls-44{fill:url(#linear-gradient-36);}.cls-45{fill:url(#linear-gradient-37);}.cls-46{fill:url(#linear-gradient-38);}.cls-47,.cls-48,.cls-49,.cls-50,.cls-51{stroke:#283593;stroke-width:1.02px;}.cls-48{stroke-dasharray:2.97 4.96;}.cls-49{stroke-dasharray:2.94 4.9;}.cls-50{stroke-dasharray:2.9 4.83;}.cls-51{stroke-dasharray:3.2 5.34;}.cls-52{fill:url(#linear-gradient-39);}.cls-53{fill:url(#linear-gradient-40);}.cls-54{fill:url(#linear-gradient-41);}.cls-55{fill:url(#linear-gradient-42);}.cls-56{fill:url(#linear-gradient-43);}.cls-57{fill:url(#linear-gradient-44);}.cls-58{fill:url(#linear-gradient-45);}.cls-59{fill:url(#linear-gradient-46);}.cls-60{fill:url(#linear-gradient-47);}.cls-61{fill:url(#linear-gradient-48);}.cls-62{fill:url(#linear-gradient-49);}.cls-63{fill:url(#linear-gradient-50);}.cls-64{fill:url(#linear-gradient-51);}.cls-65{fill:url(#linear-gradient-52);}.cls-66{fill:url(#linear-gradient-53);}.cls-67{fill:url(#linear-gradient-54);}.cls-68{fill:url(#linear-gradient-55);}.cls-69{fill:url(#linear-gradient-56);}.cls-70{fill:url(#linear-gradient-57);}.cls-71{fill:url(#linear-gradient-58);}.cls-72{fill:url(#linear-gradient-59);}.cls-73{fill:url(#linear-gradient-60);}.cls-74{fill:url(#linear-gradient-61);}.cls-75{fill:url(#linear-gradient-62);}.cls-76{fill:url(#linear-gradient-63);}.cls-77{fill:url(#linear-gradient-64);}.cls-78{fill:url(#linear-gradient-65);}.cls-79{fill:url(#linear-gradient-66);}.cls-80{fill:url(#linear-gradient-67);}.cls-81{fill:url(#linear-gradient-68);}.cls-82{fill:url(#linear-gradient-69);}.cls-83{fill:url(#linear-gradient-70);}.cls-84{fill:url(#linear-gradient-71);}.cls-85{fill:url(#linear-gradient-72);}.cls-86{fill:url(#linear-gradient-73);}.cls-87{fill:url(#linear-gradient-74);}.cls-88{fill:url(#linear-gradient-75);}.cls-89{fill:url(#linear-gradient-76);}.cls-90{fill:url(#linear-gradient-77);}.cls-91{fill:url(#linear-gradient-78);}.cls-92{fill:url(#linear-gradient-79);}.cls-93{fill:url(#linear-gradient-80);}.cls-94{mix-blend-mode:overlay;}.cls-95{stroke:#fce4ec;stroke-miterlimit:10;stroke-width:0.51px;}.cls-96{fill:url(#linear-gradient-81);}.cls-97{fill:url(#linear-gradient-82);}.cls-98{fill:url(#linear-gradient-83);}.cls-99{fill:#ff786f;}.cls-100{fill:url(#linear-gradient-84);}.cls-101{fill:url(#linear-gradient-85);}.cls-102{fill:url(#linear-gradient-86);}.cls-103{fill:#0476f2;}.cls-104{fill:url(#linear-gradient-87);}.cls-105{fill:#ff2a94;}.cls-106{fill:url(#linear-gradient-88);}.cls-107{fill:url(#linear-gradient-89);}.cls-108{fill:url(#linear-gradient-90);}.cls-109{fill:url(#linear-gradient-91);}.cls-110{fill:url(#linear-gradient-92);}.cls-111{fill:url(#linear-gradient-93);}.cls-112{fill:url(#linear-gradient-94);}.cls-113{fill:url(#linear-gradient-95);}.cls-114{fill:url(#linear-gradient-96);}.cls-115{fill:url(#linear-gradient-97);}.cls-116{fill:url(#linear-gradient-98);}.cls-117{fill:url(#linear-gradient-99);}.cls-118{fill:url(#linear-gradient-100);}.cls-119{fill:url(#linear-gradient-101);}.cls-120{fill:url(#linear-gradient-102);}.cls-121{fill:url(#linear-gradient-103);}.cls-122{fill:url(#linear-gradient-104);}.cls-123{fill:url(#linear-gradient-105);}.cls-124{fill:url(#linear-gradient-106);}.cls-125{fill:url(#linear-gradient-107);}.cls-126{fill:url(#linear-gradient-108);}.cls-127{fill:url(#linear-gradient-109);}.cls-128{fill:url(#linear-gradient-110);}.cls-129{fill:url(#linear-gradient-111);}.cls-130{fill:url(#linear-gradient-112);}.cls-131{fill:url(#linear-gradient-113);}.cls-132{fill:url(#linear-gradient-114);}.cls-133{fill:url(#linear-gradient-115);}.cls-134{fill:url(#linear-gradient-116);}.cls-135{fill:url(#linear-gradient-117);}.cls-136{fill:url(#linear-gradient-118);}.cls-137{fill:url(#linear-gradient-119);}.cls-138{fill:url(#linear-gradient-120);}.cls-139{fill:url(#linear-gradient-121);}.cls-140{fill:url(#linear-gradient-122);}.cls-141{opacity:0.45;}</style><linearGradient id="linear-gradient" x1="26.7" y1="70.49" x2="719.03" y2="426.08" gradientUnits="userSpaceOnUse"><stop offset="0.01" stop-color="#dbf3f7"/><stop offset="1" stop-color="#9de6f1"/></linearGradient><linearGradient id="linear-gradient-2" x1="387" y1="195.1" x2="387" y2="176.55" gradientUnits="userSpaceOnUse"><stop offset="0.01" stop-color="#0dc7f0"/><stop offset="0.99" stop-color="#023574"/></linearGradient><linearGradient id="linear-gradient-3" x1="367.34" y1="180.63" x2="367.35" y2="180.63" gradientUnits="userSpaceOnUse"><stop offset="0" stop-color="#031a5b"/><stop offset="1" stop-color="#00cff5"/></linearGradient><linearGradient id="linear-gradient-4" x1="406.65" y1="180.63" x2="406.66" y2="180.63" xlink:href="#linear-gradient-3"/><linearGradient id="linear-gradient-5" x1="387" y1="212.62" x2="387" y2="183.59" xlink:href="#linear-gradient-2"/><linearGradient id="linear-gradient-6" x1="387" y1="169.14" x2="387" y2="192.25" xlink:href="#linear-gradient-2"/><linearGradient id="linear-gradient-7" x1="386.9" y1="113.8" x2="387.16" y2="125.4" gradientUnits="userSpaceOnUse"><stop offset="0" stop-color="#ff7781"/><stop offset="0.54" stop-color="#d70d72"/><stop offset="0.99" stop-color="#98005b"/></linearGradient><linearGradient id="linear-gradient-8" x1="387" y1="181.11" x2="397.42" y2="181.11" gradientUnits="userSpaceOnUse"><stop offset="0.01" stop-color="#98005b"/><stop offset="0.46" stop-color="#d70d72"/><stop offset="1" stop-color="#ff7781"/></linearGradient><linearGradient id="linear-gradient-9" x1="376.58" y1="174.54" x2="386.99" y2="174.54" xlink:href="#linear-gradient-7"/><linearGradient id="linear-gradient-10" x1="387" y1="166.01" x2="397.42" y2="166.01" xlink:href="#linear-gradient-8"/><linearGradient id="linear-gradient-11" x1="376.58" y1="159.44" x2="386.99" y2="159.44" xlink:href="#linear-gradient-7"/><linearGradient id="linear-gradient-12" x1="387" y1="150.9" x2="397.42" y2="150.9" xlink:href="#linear-gradient-8"/><linearGradient id="linear-gradient-13" x1="376.58" y1="144.33" x2="386.99" y2="144.33" xlink:href="#linear-gradient-7"/><linearGradient id="linear-gradient-14" x1="387" y1="135.8" x2="397.42" y2="135.8" xlink:href="#linear-gradient-8"/><linearGradient id="linear-gradient-15" x1="376.82" y1="126.87" x2="387.4" y2="133.01" xlink:href="#linear-gradient-7"/><linearGradient id="linear-gradient-16" x1="263.83" y1="264.37" x2="263.83" y2="243.96" xlink:href="#linear-gradient-2"/><linearGradient id="linear-gradient-17" x1="263.83" y1="248.77" x2="263.83" y2="267.76" gradientUnits="userSpaceOnUse"><stop offset="0" stop-color="#031a5b"/><stop offset="0.15" stop-color="#031e5e"/><stop offset="0.3" stop-color="#032a69"/><stop offset="0.45" stop-color="#023e7a"/><stop offset="0.6" stop-color="#025b92"/><stop offset="0.75" stop-color="#017fb1"/><stop offset="0.9" stop-color="#01acd7"/><stop offset="1" stop-color="#00cff5"/></linearGradient><linearGradient id="linear-gradient-18" x1="244.18" y1="252.13" x2="244.19" y2="252.13" xlink:href="#linear-gradient-3"/><linearGradient id="linear-gradient-19" x1="283.48" y1="252.13" x2="283.49" y2="252.13" xlink:href="#linear-gradient-3"/><linearGradient id="linear-gradient-20" x1="263.83" y1="285" x2="263.83" y2="260.7" xlink:href="#linear-gradient-2"/><linearGradient id="linear-gradient-21" x1="263.83" y1="240.18" x2="263.83" y2="267.24" xlink:href="#linear-gradient-2"/><linearGradient id="linear-gradient-22" x1="165.37" y1="253.74" x2="178.42" y2="194.4" gradientTransform="matrix(-1, 0, 0, 1, 431.12, 0)" gradientUnits="userSpaceOnUse"><stop offset="0.01" stop-color="#a71d73"/><stop offset="0.48" stop-color="#fe2373"/><stop offset="1" stop-color="#ff8e6e"/></linearGradient><linearGradient id="linear-gradient-23" x1="167.97" y1="261.75" x2="191.37" y2="237.84" xlink:href="#linear-gradient-22"/><linearGradient id="linear-gradient-24" x1="167.49" y1="260.11" x2="144.21" y2="219.44" xlink:href="#linear-gradient-22"/><linearGradient id="linear-gradient-25" x1="462.39" y1="286.02" x2="462.39" y2="403.82" gradientUnits="userSpaceOnUse"><stop offset="0" stop-color="#ff8e6e"/><stop offset="0.52" stop-color="#fe2373"/><stop offset="0.99" stop-color="#a71d73"/></linearGradient><linearGradient id="linear-gradient-26" x1="367.92" y1="332.53" x2="556.85" y2="332.53" xlink:href="#linear-gradient-25"/><linearGradient id="linear-gradient-27" x1="510.14" y1="285.31" x2="436.81" y2="411.31" gradientUnits="userSpaceOnUse"><stop offset="0.01" stop-color="#dbf3f7"/><stop offset="0.99" stop-color="#50d7ea"/></linearGradient><linearGradient id="linear-gradient-28" x1="408.09" y1="375.16" x2="427.87" y2="354.35" xlink:href="#linear-gradient-27"/><linearGradient id="linear-gradient-29" x1="385.13" y1="339.48" x2="492.9" y2="339.48" xlink:href="#linear-gradient-27"/><linearGradient id="linear-gradient-30" x1="568.72" y1="310.9" x2="570.51" y2="310.9" gradientTransform="translate(-4.6 7.93) rotate(-1)" xlink:href="#linear-gradient-25"/><linearGradient id="linear-gradient-31" x1="504.87" y1="291.33" x2="565.81" y2="291.33" gradientTransform="translate(-4.6 7.93) rotate(-1)" xlink:href="#linear-gradient-2"/><linearGradient id="linear-gradient-32" x1="504.87" y1="276.2" x2="513.4" y2="276.2" gradientTransform="translate(-4.6 7.93) rotate(-1)" xlink:href="#linear-gradient-25"/><linearGradient id="linear-gradient-33" x1="396.8" y1="376.59" x2="398.65" y2="376.59" xlink:href="#linear-gradient-25"/><linearGradient id="linear-gradient-34" x1="323.13" y1="376.57" x2="392.18" y2="376.57" xlink:href="#linear-gradient-2"/><linearGradient id="linear-gradient-35" x1="323.13" y1="376.56" x2="331.66" y2="376.56" xlink:href="#linear-gradient-25"/><linearGradient id="linear-gradient-36" x1="383.93" y1="392.81" x2="385.79" y2="392.81" xlink:href="#linear-gradient-25"/><linearGradient id="linear-gradient-37" x1="311.84" y1="384.89" x2="379.82" y2="384.89" xlink:href="#linear-gradient-2"/><linearGradient id="linear-gradient-38" x1="311.84" y1="378.67" x2="320.6" y2="378.67" xlink:href="#linear-gradient-25"/><linearGradient id="linear-gradient-39" x1="342.09" y1="82.16" x2="361.36" y2="82.16" xlink:href="#linear-gradient-2"/><linearGradient id="linear-gradient-40" x1="286.71" y1="112.42" x2="341.16" y2="112.42" xlink:href="#linear-gradient-2"/><linearGradient id="linear-gradient-41" x1="340.97" y1="143.42" x2="313.35" y2="84.08" xlink:href="#linear-gradient-2"/><linearGradient id="linear-gradient-42" x1="506.55" y1="257.94" x2="467.67" y2="219.75" gradientTransform="translate(1044.56 -15.54) rotate(120)" xlink:href="#linear-gradient-27"/><linearGradient id="linear-gradient-43" x1="481.74" y1="315.5" x2="481.74" y2="239.47" gradientTransform="translate(1044.56 -15.54) rotate(120)" xlink:href="#linear-gradient-25"/><linearGradient id="linear-gradient-44" x1="510.75" y1="317.71" x2="502.74" y2="252.91" gradientTransform="translate(1044.56 -15.54) rotate(120)" xlink:href="#linear-gradient-27"/><linearGradient id="linear-gradient-45" x1="502.18" y1="248.83" x2="502.18" y2="363.85" gradientTransform="translate(1044.56 -15.54) rotate(120)" xlink:href="#linear-gradient-25"/><linearGradient id="linear-gradient-46" x1="511.15" y1="317.76" x2="511.15" y2="232.5" gradientTransform="translate(1044.56 -15.54) rotate(120)" xlink:href="#linear-gradient-25"/><linearGradient id="linear-gradient-47" x1="458.11" y1="247.39" x2="458.11" y2="318.58" gradientTransform="matrix(0.5, -0.87, -0.87, -0.5, 560.73, 822.91)" xlink:href="#linear-gradient-25"/><linearGradient id="linear-gradient-48" x1="499.02" y1="253.03" x2="467.82" y2="215.95" gradientTransform="translate(1044.56 -15.54) rotate(120)" xlink:href="#linear-gradient-25"/><linearGradient id="linear-gradient-49" x1="494.73" y1="263.43" x2="455.85" y2="225.24" gradientTransform="translate(1044.56 -15.54) rotate(120)" xlink:href="#linear-gradient-27"/><linearGradient id="linear-gradient-50" x1="469.92" y1="320.99" x2="469.92" y2="244.96" gradientTransform="translate(1044.56 -15.54) rotate(120)" xlink:href="#linear-gradient-25"/><linearGradient id="linear-gradient-51" x1="498.93" y1="323.2" x2="490.92" y2="258.4" gradientTransform="translate(1044.56 -15.54) rotate(120)" xlink:href="#linear-gradient-27"/><linearGradient id="linear-gradient-52" x1="490.36" y1="254.32" x2="490.36" y2="369.34" gradientTransform="translate(1044.56 -15.54) rotate(120)" xlink:href="#linear-gradient-25"/><linearGradient id="linear-gradient-53" x1="499.33" y1="323.25" x2="499.33" y2="237.99" gradientTransform="translate(1044.56 -15.54) rotate(120)" xlink:href="#linear-gradient-25"/><linearGradient id="linear-gradient-54" x1="469.93" y1="252.87" x2="469.93" y2="324.07" gradientTransform="matrix(0.5, -0.87, -0.87, -0.5, 560.73, 822.91)" xlink:href="#linear-gradient-25"/><linearGradient id="linear-gradient-55" x1="487.2" y1="258.52" x2="456" y2="221.44" gradientTransform="translate(1044.56 -15.54) rotate(120)" xlink:href="#linear-gradient-25"/><linearGradient id="linear-gradient-56" x1="488.52" y1="273.49" x2="449.64" y2="235.29" gradientTransform="translate(1044.56 -15.54) rotate(120)" xlink:href="#linear-gradient-27"/><linearGradient id="linear-gradient-57" x1="463.71" y1="331.05" x2="463.71" y2="255.02" gradientTransform="translate(1044.56 -15.54) rotate(120)" xlink:href="#linear-gradient-25"/><linearGradient id="linear-gradient-58" x1="492.72" y1="333.26" x2="484.71" y2="268.46" gradientTransform="translate(1044.56 -15.54) rotate(120)" xlink:href="#linear-gradient-27"/><linearGradient id="linear-gradient-59" x1="484.15" y1="264.38" x2="484.15" y2="379.4" gradientTransform="translate(1044.56 -15.54) rotate(120)" xlink:href="#linear-gradient-25"/><linearGradient id="linear-gradient-60" x1="493.12" y1="333.31" x2="493.12" y2="248.04" gradientTransform="translate(1044.56 -15.54) rotate(120)" xlink:href="#linear-gradient-25"/><linearGradient id="linear-gradient-61" x1="476.14" y1="262.93" x2="476.14" y2="334.13" gradientTransform="matrix(0.5, -0.87, -0.87, -0.5, 560.73, 822.91)" xlink:href="#linear-gradient-25"/><linearGradient id="linear-gradient-62" x1="480.99" y1="268.58" x2="449.79" y2="231.49" gradientTransform="translate(1044.56 -15.54) rotate(120)" xlink:href="#linear-gradient-25"/><linearGradient id="linear-gradient-63" x1="473.81" y1="278.03" x2="434.93" y2="239.83" gradientTransform="translate(1044.56 -15.54) rotate(120)" xlink:href="#linear-gradient-27"/><linearGradient id="linear-gradient-64" x1="449" y1="335.59" x2="449" y2="259.56" gradientTransform="translate(1044.56 -15.54) rotate(120)" xlink:href="#linear-gradient-25"/><linearGradient id="linear-gradient-65" x1="478.02" y1="337.8" x2="470" y2="273" gradientTransform="translate(1044.56 -15.54) rotate(120)" xlink:href="#linear-gradient-27"/><linearGradient id="linear-gradient-66" x1="469.44" y1="268.92" x2="469.44" y2="383.94" gradientTransform="translate(1044.56 -15.54) rotate(120)" xlink:href="#linear-gradient-25"/><linearGradient id="linear-gradient-67" x1="478.42" y1="337.85" x2="478.42" y2="252.59" gradientTransform="translate(1044.56 -15.54) rotate(120)" xlink:href="#linear-gradient-25"/><linearGradient id="linear-gradient-68" x1="490.84" y1="267.47" x2="490.84" y2="338.67" gradientTransform="matrix(0.5, -0.87, -0.87, -0.5, 560.73, 822.91)" xlink:href="#linear-gradient-25"/><linearGradient id="linear-gradient-69" x1="466.29" y1="273.12" x2="435.08" y2="236.03" gradientTransform="translate(1044.56 -15.54) rotate(120)" xlink:href="#linear-gradient-25"/><linearGradient id="linear-gradient-70" x1="740.39" y1="805.08" x2="710.49" y2="775.71" gradientTransform="matrix(0.5, 0.87, 0.87, -0.5, -615.68, -15.54)" xlink:href="#linear-gradient-27"/><linearGradient id="linear-gradient-71" x1="721.31" y1="849.35" x2="721.31" y2="790.88" gradientTransform="matrix(0.5, 0.87, 0.87, -0.5, -615.68, -15.54)" xlink:href="#linear-gradient-25"/><linearGradient id="linear-gradient-72" x1="743.62" y1="851.04" x2="737.46" y2="801.21" gradientTransform="matrix(0.5, 0.87, 0.87, -0.5, -615.68, -15.54)" xlink:href="#linear-gradient-27"/><linearGradient id="linear-gradient-73" x1="737.03" y1="798.07" x2="737.03" y2="886.53" gradientTransform="matrix(0.5, 0.87, 0.87, -0.5, -615.68, -15.54)" xlink:href="#linear-gradient-25"/><linearGradient id="linear-gradient-74" x1="743.93" y1="851.08" x2="743.93" y2="785.51" gradientTransform="matrix(0.5, 0.87, 0.87, -0.5, -615.68, -15.54)" xlink:href="#linear-gradient-25"/><linearGradient id="linear-gradient-75" x1="225.05" y1="797.01" x2="225.05" y2="851.77" gradientTransform="translate(-131.85 822.91) rotate(-120)" xlink:href="#linear-gradient-25"/><linearGradient id="linear-gradient-76" x1="734.6" y1="801.3" x2="710.61" y2="772.78" gradientTransform="matrix(0.5, 0.87, 0.87, -0.5, -615.68, -15.54)" xlink:href="#linear-gradient-25"/><linearGradient id="linear-gradient-77" x1="344.4" y1="238.06" x2="311.66" y2="177.53" xlink:href="#linear-gradient-2"/><linearGradient id="linear-gradient-78" x1="314.72" y1="143.28" x2="341.32" y2="266.05" xlink:href="#linear-gradient-2"/><linearGradient id="linear-gradient-79" x1="366.91" y1="214.53" x2="367.42" y2="338.32" xlink:href="#linear-gradient-2"/><linearGradient id="linear-gradient-80" x1="337.93" y1="334.98" x2="397.61" y2="215.62" xlink:href="#linear-gradient-2"/><linearGradient id="linear-gradient-81" x1="327.48" y1="144.07" x2="327.48" y2="331.82" xlink:href="#linear-gradient-27"/><linearGradient id="linear-gradient-82" x1="346.14" y1="278.09" x2="309.57" y2="137.92" xlink:href="#linear-gradient-2"/><linearGradient id="linear-gradient-83" x1="311.37" y1="195.65" x2="306" y2="222.51" xlink:href="#linear-gradient-27"/><linearGradient id="linear-gradient-84" x1="490.39" y1="228.43" x2="490.39" y2="204.68" xlink:href="#linear-gradient-25"/><linearGradient id="linear-gradient-85" x1="476.26" y1="207.62" x2="491.25" y2="207.62" xlink:href="#linear-gradient-2"/><linearGradient id="linear-gradient-86" x1="476.27" y1="188.99" x2="480.25" y2="188.99" xlink:href="#linear-gradient-25"/><linearGradient id="linear-gradient-87" x1="488.69" y1="211.83" x2="504.36" y2="211.83" xlink:href="#linear-gradient-2"/><linearGradient id="linear-gradient-88" x1="503.78" y1="186.62" x2="504.51" y2="186.62" xlink:href="#linear-gradient-25"/><linearGradient id="linear-gradient-89" x1="484.96" y1="208.13" x2="493.04" y2="208.13" xlink:href="#linear-gradient-2"/><linearGradient id="linear-gradient-90" x1="485.53" y1="179.03" x2="486.25" y2="179.03" xlink:href="#linear-gradient-25"/><linearGradient id="linear-gradient-91" x1="490.77" y1="203.45" x2="495.52" y2="203.45" xlink:href="#linear-gradient-2"/><linearGradient id="linear-gradient-92" x1="492.68" y1="181.28" x2="495.52" y2="181.28" xlink:href="#linear-gradient-25"/><linearGradient id="linear-gradient-93" x1="476.08" y1="231.04" x2="504.69" y2="231.04" xlink:href="#linear-gradient-25"/><linearGradient id="linear-gradient-94" x1="239.34" y1="284.84" x2="209.36" y2="259.54" gradientUnits="userSpaceOnUse"><stop offset="0.01" stop-color="#50d7ea"/><stop offset="0.99" stop-color="#dbf3f7"/></linearGradient><linearGradient id="linear-gradient-95" x1="219.02" y1="342.62" x2="219.02" y2="277.58" xlink:href="#linear-gradient-25"/><linearGradient id="linear-gradient-96" x1="244.09" y1="344.32" x2="239.71" y2="284.81" xlink:href="#linear-gradient-94"/><linearGradient id="linear-gradient-97" x1="237.74" y1="281.01" x2="237.74" y2="386.35" xlink:href="#linear-gradient-25"/><linearGradient id="linear-gradient-98" x1="245.96" y1="281.01" x2="245.96" y2="386.35" xlink:href="#linear-gradient-25"/><linearGradient id="linear-gradient-99" x1="722.81" y1="279.47" x2="722.81" y2="344.69" gradientTransform="matrix(-1, 0, 0, 1, 967.66, 0)" xlink:href="#linear-gradient-25"/><linearGradient id="linear-gradient-100" x1="234.85" y1="284.86" x2="206.27" y2="250.89" xlink:href="#linear-gradient-25"/><linearGradient id="linear-gradient-101" x1="227.5" y1="290.5" x2="198.92" y2="263.8" xlink:href="#linear-gradient-94"/><linearGradient id="linear-gradient-102" x1="208.9" y1="348.63" x2="208.9" y2="283.66" xlink:href="#linear-gradient-2"/><linearGradient id="linear-gradient-103" x1="234.89" y1="350.27" x2="228.65" y2="289.99" xlink:href="#linear-gradient-94"/><linearGradient id="linear-gradient-104" x1="227.61" y1="283" x2="227.61" y2="358.69" xlink:href="#linear-gradient-2"/><linearGradient id="linear-gradient-105" x1="235.83" y1="350.47" x2="235.83" y2="274.36" xlink:href="#linear-gradient-2"/><linearGradient id="linear-gradient-106" x1="234.73" y1="279.02" x2="234.73" y2="348.44" xlink:href="#linear-gradient-2"/><linearGradient id="linear-gradient-107" x1="224.73" y1="290.71" x2="196.15" y2="256.74" xlink:href="#linear-gradient-2"/><linearGradient id="linear-gradient-108" x1="221.49" y1="301.06" x2="185.89" y2="266.08" xlink:href="#linear-gradient-94"/><linearGradient id="linear-gradient-109" x1="198.77" y1="353.78" x2="198.77" y2="284.15" xlink:href="#linear-gradient-25"/><linearGradient id="linear-gradient-110" x1="225.34" y1="355.81" x2="218" y2="296.46" xlink:href="#linear-gradient-94"/><linearGradient id="linear-gradient-111" x1="217.49" y1="292.72" x2="217.49" y2="398.06" xlink:href="#linear-gradient-25"/><linearGradient id="linear-gradient-112" x1="225.71" y1="355.85" x2="225.71" y2="277.76" xlink:href="#linear-gradient-25"/><linearGradient id="linear-gradient-113" x1="743.05" y1="291.19" x2="743.05" y2="356.4" gradientTransform="matrix(-1, 0, 0, 1, 967.66, 0)" xlink:href="#linear-gradient-25"/><linearGradient id="linear-gradient-114" x1="214.6" y1="296.57" x2="186.02" y2="262.6" xlink:href="#linear-gradient-25"/><linearGradient id="linear-gradient-115" x1="272.5" y1="342.41" x2="272.5" y2="316.23" xlink:href="#linear-gradient-25"/><linearGradient id="linear-gradient-116" x1="288.46" y1="352.38" x2="288.46" y2="320.12" xlink:href="#linear-gradient-25"/><linearGradient id="linear-gradient-117" x1="288.46" y1="335.33" x2="288.46" y2="315.38" xlink:href="#linear-gradient-25"/><linearGradient id="linear-gradient-118" x1="288.46" y1="334.14" x2="288.46" y2="310.43" xlink:href="#linear-gradient-25"/><linearGradient id="linear-gradient-119" x1="297.61" y1="334.45" x2="284.48" y2="320.3" xlink:href="#linear-gradient-2"/><linearGradient id="linear-gradient-120" x1="278.21" y1="324.79" x2="299.44" y2="324.03" xlink:href="#linear-gradient-2"/><linearGradient id="linear-gradient-121" x1="278.25" y1="325.96" x2="299.48" y2="325.19" xlink:href="#linear-gradient-2"/><linearGradient id="linear-gradient-122" x1="278.18" y1="323.94" x2="299.41" y2="323.17" xlink:href="#linear-gradient-2"/></defs><g class="cls-1"><g id="BACKGROUND"><rect class="cls-2" x="1.37" y="-0.57" width="750" height="500"/><path class="cls-3" d="M201.33,77.87c47-38.9,87.5,1.42,133.76-25.72s79.4-64.84,108.13,6.94c15.31,38.24,29.45,89.86,110.35,97,63,5.57,114.24,17.34,127.26,51.24,18.72,48.73-45.78,50.94-9.3,125.4,22.79,46.51-129.5,2.5-138,72.12C523.46,487.33,382.86,487,320.91,427.75s-76.86-46.62-136.84-39.37c-61.32,7.41-160.56-96.44-46.17-165S163.91,108.86,201.33,77.87Z"/></g><g id="OBJECTS"><path class="cls-4" d="M401,171.53c-7.77-4.49-20.34-4.48-28.06,0s-7.68,11.76.09,16.25,20.34,4.49,28.06,0,7.68-11.78-.09-16.26"/><path class="cls-5" d="M398.32,179.64c-6.29-3.63-16.47-3.63-22.72,0s-6.22,9.53.08,13.16,16.46,3.64,22.71,0,6.22-9.53-.07-13.16"/><path class="cls-6" d="M367.34,180.6v.06a.13.13,0,0,0,0-.06Z"/><path class="cls-7" d="M406.65,180.6v0Z"/><path class="cls-8" d="M400.88,187.78a30.35,30.35,0,0,1-27.76,0c-3.3-1.9-5.19-4.31-5.7-6.79l5.34,26.22h0a8.44,8.44,0,0,0,4,4.21c5.68,3.24,14.88,3.25,20.53,0a8.28,8.28,0,0,0,3.93-4.21h0L406.58,181C406.07,183.47,404.18,185.88,400.88,187.78Z"/><path class="cls-9" d="M401,171.53c-7.77-4.49-20.34-4.48-28.06,0s-7.68,11.76.09,16.25,20.34,4.49,28.06,0S408.75,176,401,171.53Zm-1.49,15c-6.85,3.77-18,3.77-24.91,0s-6.93-9.89-.08-13.66,18-3.78,24.91,0S406.35,182.72,399.49,186.49Z"/><path class="cls-10" d="M389.73,118.51c0-3-1.22-4.6-2.73-4.6s-2.72,1.56-2.72,4.6,2.72,6.82,2.72,6.82S389.73,121.54,389.73,118.51Z"/><path class="cls-11" d="M391.86,178.69c2.71-1.38,4.65-1,5.33.35s-.16,3.14-2.86,4.51-7.33.66-7.33.66S389.15,180.06,391.86,178.69Z"/><path class="cls-12" d="M382.14,172.12c-2.71-1.38-4.65-1-5.34.35s.16,3.14,2.87,4.51,7.32.66,7.32.66S384.85,173.49,382.14,172.12Z"/><path class="cls-13" d="M391.86,163.59c2.71-1.38,4.65-1,5.33.35s-.16,3.13-2.86,4.51-7.33.66-7.33.66S389.15,165,391.86,163.59Z"/><path class="cls-14" d="M382.14,157c-2.71-1.38-4.65-1-5.34.35s.16,3.13,2.87,4.51,7.32.66,7.32.66S384.85,158.39,382.14,157Z"/><path class="cls-15" d="M391.86,148.48c2.71-1.37,4.65-1,5.33.35s-.16,3.14-2.86,4.51S387,154,387,154,389.15,149.86,391.86,148.48Z"/><path class="cls-16" d="M382.14,141.91c-2.71-1.37-4.65-1-5.34.35s.16,3.14,2.87,4.51,7.32.66,7.32.66S384.85,143.29,382.14,141.91Z"/><path class="cls-17" d="M391.86,133.38c2.71-1.38,4.65-1,5.33.35s-.16,3.13-2.86,4.51-7.33.66-7.33.66S389.15,134.75,391.86,133.38Z"/><path class="cls-18" d="M382.14,126.81c-2.71-1.38-4.65-1-5.34.35s.16,3.13,2.87,4.51,7.32.66,7.32.66S384.85,128.18,382.14,126.81Z"/><line class="cls-19" x1="387" y1="119.28" x2="387" y2="184.21"/><line class="cls-19" x1="393.54" y1="180.72" x2="387.05" y2="184.12"/><line class="cls-19" x1="393.54" y1="165.57" x2="387.05" y2="168.96"/><line class="cls-19" x1="393.54" y1="150.41" x2="387.05" y2="153.81"/><line class="cls-19" x1="393.54" y1="135.26" x2="387.05" y2="138.65"/><line class="cls-19" x1="380.51" y1="174.43" x2="386.99" y2="177.83"/><line class="cls-19" x1="380.51" y1="159.28" x2="386.99" y2="162.67"/><line class="cls-19" x1="380.51" y1="144.12" x2="386.99" y2="147.52"/><line class="cls-19" x1="380.51" y1="128.97" x2="386.99" y2="132.36"/><path class="cls-20" d="M277.82,243c-7.77-4.49-20.34-4.49-28.06,0s-7.68,11.76.09,16.25,20.34,4.49,28.06,0,7.68-11.77-.09-16.25"/><path class="cls-21" d="M275.16,251.14c-6.3-3.63-16.47-3.63-22.72,0s-6.22,9.52.07,13.16,16.47,3.63,22.72,0,6.22-9.53-.07-13.16"/><path class="cls-22" d="M244.18,252.1v.06a.13.13,0,0,1,0-.06Z"/><path class="cls-23" d="M283.49,252.1s0,0,0,.06v-.06Z"/><path class="cls-24" d="M277.72,259.28a30.37,30.37,0,0,1-27.77,0c-3.29-1.91-5.19-4.31-5.7-6.8l5.35,26.23h0a8.37,8.37,0,0,0,4,4.21c5.69,3.24,14.88,3.24,20.53,0a8.27,8.27,0,0,0,3.93-4.21h0l5.35-26.23C282.9,255,281,257.37,277.72,259.28Z"/><path class="cls-25" d="M277.82,243c-7.77-4.49-20.34-4.49-28.06,0s-7.68,11.76.09,16.25,20.34,4.49,28.06,0S285.59,247.51,277.82,243Zm-1.49,15c-6.85,3.77-18,3.76-24.91,0s-6.94-9.88-.08-13.65,18-3.78,24.91,0S283.19,254.22,276.33,258Z"/><path class="cls-26" d="M264.59,253.35s19-26.65,14.37-31.08-13.46,1.44-9.5-7c3.72-7.95,4.47-13.69.86-13.85s-6,10.61-9.1,1.42-11.38-11.39-12.65-8.53c-3.41,7.64,4.83,13.18,4.82,17.93s-13.51-3.49-13.66,1.22c-.3,9.69,17,8.38,15.56,13.18s-15.75-3.11-15.08,4C240.74,236.37,257.35,242.9,264.59,253.35Z"/><path class="cls-27" d="M253.16,199.26s17.67,23.17,11.43,54.09"/><path class="cls-27" d="M265.92,239.11s-10.57-5.49-18.82-7.15"/><path class="cls-27" d="M273.44,225.2a23,23,0,0,0-8,6.58"/><path class="cls-27" d="M243.27,215.22s11,1.47,20.21,6.55"/><path class="cls-27" d="M269.05,207.46a27.1,27.1,0,0,0-7.29,8.75"/><path class="cls-28" d="M264.38,260.81s-.32-22.35-4.83-22.65-7.07,6.66-8.35.48c-1.21-5.81-3.18-9.16-5.31-7.66s1,8.21-4.59,4.74-11.26-1-10.79,1.05c1.26,5.51,8.28,4.82,10.26,7.32s-9.69,4.59-7.27,6.62c5,4.24,13.18-3,14.39.12s-10.28,5.27-6.91,8.73c2,2.09,9.4-.45,16.49.72A39.77,39.77,0,0,0,264.38,260.81Z"/><path class="cls-29" d="M232.51,236.27s20.76,1.41,31.33,23.66"/><path class="cls-29" d="M258.46,243.34a34.61,34.61,0,0,1,1.25,9.53"/><path class="cls-29" d="M244.24,257.72s10.63-4.53,17.92-1"/><path class="cls-29" d="M238.32,249.23s8.05-3.78,15.06-3.34"/><path class="cls-29" d="M247.25,233.3a35.57,35.57,0,0,0,0,8"/><path class="cls-30" d="M263.88,260.81s-9-24.47-4.24-26.68,10.49,4.28,9.3-3c-1.12-6.83-.38-11.3,2.56-10.57s2.32,9.37,7,3.24,11.82-5.81,12.18-3.37c.94,6.52-7,8.71-8.1,12.27s11.69.6,10.69,4.16c-2,7.32-15.61,2.23-15.61,6.15s13.4,1.42,11.18,6.61c-1.12,2.62-7.12,5.77-13.38,8.8C271.62,260.29,268.16,260.69,263.88,260.81Z"/><path class="cls-29" d="M287.65,221.15S265.73,232,264.16,259.93"/><path class="cls-29" d="M284.45,248.42s-12.88-1.42-19.69,6.14"/><path class="cls-29" d="M262.16,235.75s3.47,1.33,5.13,8.89"/><path class="cls-29" d="M287.35,237.46s-10.86-1-16.82.72"/><path class="cls-29" d="M271.41,224.33s2.94,4.09,3,8.23"/><path class="cls-31" d="M368.54,350.56,492.3,279.11a1.23,1.23,0,0,1,1.22,0l62.72,36.18a1.22,1.22,0,0,1,0,2.12L432.46,388.88a1.21,1.21,0,0,1-1.22,0l-62.7-36.2A1.22,1.22,0,0,1,368.54,350.56Z"/><path class="cls-32" d="M368.54,349.09,492.3,277.64a1.21,1.21,0,0,1,1.22,0l62.72,36.18a1.21,1.21,0,0,1,0,2.11L432.46,387.41a1.21,1.21,0,0,1-1.22,0l-62.7-36.2A1.22,1.22,0,0,1,368.54,349.09Z"/><polygon class="cls-33" points="370.79 350.15 492.91 279.65 553.98 314.88 431.85 385.4 370.79 350.15"/><path class="cls-34" d="M553.89,315l.09-.08-61.07-35.23c-30.86,2.77-61.1,35.35-61.1,35.35l61.09,35.15C493.11,350.11,524.62,317.91,553.89,315Z"/><path class="cls-33" d="M496.73,287.34c-21.24,2.66-42.45,20.43-51.58,29L442.91,315c9.11-8.55,30.35-26.35,51.61-29Z"/><path class="cls-33" d="M517.58,299.36c-21.24,2.66-42.46,20.43-51.59,29l-2.24-1.29c9.12-8.55,30.35-26.35,51.61-29Z"/><path class="cls-33" d="M523.11,302.49c-21.24,2.66-42.46,20.43-51.59,29l-2.24-1.29c9.12-8.55,30.35-26.35,51.61-29Z"/><path class="cls-33" d="M448,318l13,7.41a148.22,148.22,0,0,1,24.77-18.89l-13-7.41A149.18,149.18,0,0,0,448,318Z"/><path class="cls-33" d="M512.57,296.38,499.63,289c-8.27,1-16.54,4.37-24.09,8.56l13,7.4C496.07,300.75,504.31,297.42,512.57,296.38Z"/><path class="cls-35" d="M492.8,350.23l.1-.08-61.08-35.23c-30.86,2.76-61.1,35.35-61.1,35.35l61.09,35.14.63-.11C435,382.6,463.53,353.18,492.8,350.23Z"/><path class="cls-36" d="M444.67,371.32c6-4.68,13.66-8.66,21.12-11.88,8.24-4.54,17.35-8.14,26.55-9.15l.56-.14-61.08-35.23c-17.68,1.58-35.14,12.95-46.84,22.37C397.6,344.52,444.49,371.35,444.67,371.32Z"/><path class="cls-37" d="M492.9,350.15l-61.08-35.23c-31.21.47-46.69,13.9-46.69,13.9S446,364.08,446.21,364A80.41,80.41,0,0,1,492.9,350.15Z"/><polygon class="cls-4" points="571.22 309.5 564.47 307.81 564.66 305.63 566.45 304.81 571.22 309.5"/><path class="cls-38" d="M571.22,309.5l-1.33-1.3a2,2,0,0,0-.29.41,2.62,2.62,0,0,0-.19.46Z"/><path class="cls-39" d="M560.53,301.53h0l-52.92-29.34a1.79,1.79,0,1,0-1.74,3.13L559.46,305l5,2.78a5.75,5.75,0,0,1,2-3Z"/><path class="cls-4" d="M514.93,276.25,509,273a1.79,1.79,0,0,0-1.73,3.13l5.68,3.15A5.73,5.73,0,0,1,514.93,276.25Z"/><path class="cls-40" d="M513.5,275.46l-5.89-3.27a1.79,1.79,0,1,0-1.74,3.13l5.68,3.15A5.73,5.73,0,0,1,513.5,275.46Z"/><polygon class="cls-4" points="398.65 376.59 391.93 378.38 391.05 376.59 392.2 374.8 398.65 376.59"/><path class="cls-41" d="M398.65,376.59l-1.79-.5a2.11,2.11,0,0,0,0,1Z"/><path class="cls-42" d="M392.18,374.8h-5.95l-61.31,0a1.79,1.79,0,0,0,0,3.58l66,0h1A5.7,5.7,0,0,1,392.18,374.8Z"/><path class="cls-4" d="M333.29,374.77h-6.74a1.79,1.79,0,0,0,0,3.58H333A5.77,5.77,0,0,1,333.29,374.77Z"/><path class="cls-43" d="M331.66,374.77h-6.74a1.79,1.79,0,0,0,0,3.58h6.49A5.77,5.77,0,0,1,331.66,374.77Z"/><polygon class="cls-4" points="385.79 393.17 378.84 393.54 378.26 391.62 379.85 390.1 385.79 393.17"/><path class="cls-44" d="M385.79,393.17l-1.65-.85a2,2,0,0,0-.16.47,2.18,2.18,0,0,0-.05.5Z"/><path class="cls-45" d="M379.82,390.09l-3.47-.73L314,376.28a1.79,1.79,0,1,0-.73,3.5l59.22,12.43h0l5.16,1.08.23,0h0l1,.2A5.71,5.71,0,0,1,379.82,390.09Z"/><path class="cls-4" d="M322.2,378l-6.6-1.38a1.79,1.79,0,1,0-.74,3.5l6.36,1.34A5.74,5.74,0,0,1,322.2,378Z"/><path class="cls-46" d="M320.6,377.66l-6.6-1.38a1.79,1.79,0,1,0-.73,3.5l6.35,1.33A5.69,5.69,0,0,1,320.6,377.66Z"/><line class="cls-47" x1="346.67" y1="102.84" x2="348" y2="102.07"/><line class="cls-48" x1="352.29" y1="99.59" x2="405.08" y2="69.11"/><polyline class="cls-47" points="407.23 67.88 408.55 67.11 408.56 68.64"/><polyline class="cls-49" points="408.58 73.54 408.81 138.65 408.81 157.28"/><polyline class="cls-47" points="408.81 159.73 408.81 161.26 410.15 162.03"/><line class="cls-50" x1="414.33" y1="164.43" x2="465.86" y2="193.95"/><polyline class="cls-47" points="467.95 195.15 469.28 195.92 467.96 196.69"/><line class="cls-51" x1="463.36" y1="199.4" x2="406.75" y2="232.62"/><line class="cls-47" x1="404.45" y1="233.97" x2="403.13" y2="234.75"/><path class="cls-52" d="M350,83l.86-.39.3-.13c.27-.11.53-.21.8-.3l.2-.07c.32-.12.65-.21,1-.3l.13,0c.51-.13,1-.24,1.49-.32h0c.41-.06.8-.1,1.2-.12h.24c.35,0,.7,0,1,0h.18c.28,0,.55.06.81.1l.25,0a9.24,9.24,0,0,1,.91.21h0a8,8,0,0,1,.82.29l.23.09c.22.1.45.21.66.33l.22.11-4-2.34-.09,0-.12-.06c-.22-.12-.44-.22-.67-.32a.67.67,0,0,0-.12-.06l-.11,0a7.06,7.06,0,0,0-.81-.29h0a8.44,8.44,0,0,0-.9-.21l-.1,0-.15,0c-.27,0-.54-.08-.82-.1h-.17c-.34,0-.69,0-1,0H352c-.4,0-.8.06-1.21.12h0a14.13,14.13,0,0,0-1.49.31l-.09,0,0,0-1,.3-.19.07c-.27.09-.53.19-.8.3l-.11,0a1.21,1.21,0,0,1-.2.09l-.85.4-.33.16c-.38.19-.76.39-1.14.61A27.82,27.82,0,0,0,342.09,83l4,2.34a25.55,25.55,0,0,1,2.41-1.58l1.14-.62Z"/><path class="cls-53" d="M330.44,77.89l.28-.12.85-.32.16-.06q.5-.17,1-.3l.14,0c.52-.13,1-.25,1.55-.33h0c.41-.06.82-.1,1.22-.12h.24c.36,0,.72,0,1.07,0h.18l.84.1.25,0a9,9,0,0,1,.93.22h0a7.55,7.55,0,0,1,.84.29l.24.1c.23.11.46.22.68.34a1.55,1.55,0,0,1,.22.12l-4-2.34-.1-.06-.12-.06a7.32,7.32,0,0,0-.69-.33l-.12-.07-.11,0q-.4-.16-.84-.3h0a7.21,7.21,0,0,0-.92-.21l-.11,0-.15,0c-.27,0-.55-.07-.83-.09l-.14,0h0c-.35,0-.71,0-1.07,0h-.25c-.4,0-.8.06-1.22.12h0a13,13,0,0,0-1.55.33h-.09l-.05,0-1,.3-.17.07c-.28.09-.56.2-.84.31l-.09,0a1.11,1.11,0,0,0-.19.09c-.31.13-.61.26-.92.41l-.34.17c-.39.19-.78.4-1.18.63-.6.35-1.19.73-1.77,1.13-.19.12-.37.27-.56.4-.39.28-.78.57-1.16.88l-.63.52c-.36.3-.71.6-1.05.92l-.63.58-.39.36-.39.43c-.42.42-.83.86-1.23,1.31-.13.14-.27.27-.4.42s-.2.25-.31.38l-.72.87c-.15.2-.32.38-.47.58s-.24.33-.36.49l-.52.69c-.11.17-.24.32-.35.49s-.38.56-.56.84-.25.35-.36.53l-.15.22c-.33.52-.65,1-1,1.57l-.06.1-.18.33c-.21.37-.43.75-.63,1.13l-.27.53-.28.56c-.08.16-.17.32-.24.48-.21.43-.41.87-.6,1.31a2.4,2.4,0,0,0-.11.23l0,.07c-.24.55-.46,1.1-.68,1.66l-.11.3c-.07.21-.14.41-.22.61s-.2.55-.29.83-.13.44-.2.65l-.24.77c0,.15-.1.31-.14.47s-.14.56-.21.85-.16.63-.23.94c0,.11-.06.22-.08.33s-.07.45-.12.68c-.09.5-.18,1-.25,1.48,0,.14,0,.27-.07.41,0,.31-.06.61-.09.92s-.05.44-.07.65c-.05.69-.08,1.38-.08,2,0,.24,0,.47,0,.71q-.44.15-.87.33l-.43.19-.39.18c-.46.22-.93.45-1.4.72s-1,.62-1.5,1l-.48.35q-.51.36-1,.75c-.19.14-.37.29-.55.45l-.89.77-.53.5-.34.31-.33.36c-.36.37-.71.74-1.06,1.13l-.33.35-.27.33c-.21.24-.41.49-.61.74s-.28.33-.41.5l-.31.42-.43.59-.31.41-.48.72-.3.45-.13.2c-.28.44-.56.88-.82,1.33l-.05.09-.15.28c-.18.32-.37.64-.54,1l-.23.46-.24.47-.21.42c-.18.36-.34.74-.51,1.11l-.09.2,0,.06c-.2.47-.4.94-.58,1.42l-.09.26c-.07.17-.13.34-.19.51l-.25.72c-.06.18-.11.37-.17.55s-.14.43-.2.65-.09.27-.12.41-.12.48-.18.72-.14.54-.2.81c0,.09-.05.18-.07.28s-.06.39-.1.58q-.12.63-.21,1.26c0,.11-.05.23-.06.35s-.06.52-.08.78l-.06.56c0,.59-.07,1.17-.07,1.75a15,15,0,0,0,1.25,6.31,8.42,8.42,0,0,0,3.36,3.82l4,2.33c-2.83-1.64-4.59-5.15-4.6-10.13,0-.57,0-1.15.07-1.74,0-.19,0-.37.05-.56,0-.38.09-.75.14-1.13s.14-.84.22-1.26.1-.58.16-.87.14-.53.2-.8.19-.75.3-1.13l.2-.65c.13-.42.28-.84.43-1.26l.18-.53c.22-.58.45-1.16.7-1.73a1.24,1.24,0,0,1,.1-.2c.22-.52.46-1,.71-1.53l.24-.47c.25-.48.51-1,.77-1.43.06-.09.1-.18.16-.27.31-.55.65-1.09,1-1.62.1-.15.21-.3.31-.46.25-.38.51-.75.78-1.12l.44-.6c.23-.31.47-.61.71-.91l.62-.75c.19-.23.4-.45.6-.68.34-.38.69-.75,1.05-1.12l.67-.67.53-.5.9-.78.54-.44c.33-.27.66-.51,1-.75l.48-.35c.5-.34,1-.66,1.51-1s.93-.5,1.4-.72l.38-.18c.44-.19.87-.37,1.3-.52,0-.24,0-.47,0-.71,0-.67,0-1.36.08-2,0-.21,0-.43.06-.65.05-.44.1-.89.16-1.33s.16-1,.26-1.48c.06-.34.12-.67.19-1s.16-.63.24-.94.22-.88.35-1.32c.07-.26.15-.51.23-.77.16-.49.32-1,.5-1.48.07-.2.14-.41.22-.61.25-.68.52-1.36.81-2a2.4,2.4,0,0,0,.11-.23c.27-.6.55-1.2.84-1.79.1-.19.19-.38.29-.56.29-.56.58-1.12.9-1.67.06-.1.11-.21.18-.32.37-.64.76-1.27,1.16-1.89l.36-.54c.3-.44.6-.88.92-1.32l.51-.69c.27-.37.55-.72.83-1.07l.72-.88c.23-.27.47-.53.71-.79q.6-.67,1.23-1.32c.26-.26.52-.53.79-.78l.62-.59,1.05-.91.63-.52c.39-.31.78-.6,1.17-.88l.56-.41c.58-.4,1.17-.77,1.76-1.12.4-.23.8-.44,1.19-.64l.33-.16Z"/><path class="cls-54" d="M328,79.11c8.85-5.1,16.26-2.24,18.12,6.24a25.55,25.55,0,0,1,2.41-1.58c10-5.75,18.06-1.13,18.09,10.31,0,10.7-7,23.57-16.05,29.9l-44,25.51c-8.73,5-15.82,1-15.85-9s7-22.23,15.75-27.27a18.62,18.62,0,0,1,3.08-1.42c0-.24,0-.47,0-.71C309.52,99.31,317.78,85,328,79.11Z"/><path class="cls-55" d="M613.81,269.69l-39.17,22.62v11.75l40.2-23.21a1,1,0,0,0,.51-.88v-9.39A1,1,0,0,0,613.81,269.69Z"/><path class="cls-56" d="M574.64,292.31l.5-.29.66.38L615,269.78l-61.06-35.25h0a1,1,0,0,0-1.14-.1h0l-39.18,22.62h0Z"/><polygon class="cls-57" points="575.85 301.97 575.85 301.98 575.85 293.01 514.79 257.75 514.79 269.51 574.64 304.06 575.85 301.97"/><polygon class="cls-58" points="574.64 292.31 574.64 293.7 513.58 258.45 513.59 257.06 574.64 292.31"/><polygon class="cls-59" points="574.64 302.67 574.64 304.06 513.58 268.81 513.59 267.42 574.64 302.67"/><polygon class="cls-60" points="574.64 302.67 575.85 301.97 514.79 266.72 513.59 267.42 574.64 302.67"/><path class="cls-61" d="M574.64,302.67v1.39l39.42-22.76h0l.78-.45a1,1,0,0,0,.51-.88v-9.39a.94.94,0,0,0-.08-.34h0l0,0a.68.68,0,0,0-.14-.23l-.11-.13a.86.86,0,0,0-.2-.13.66.66,0,0,0-.19-.09,1.52,1.52,0,0,0-.21,0,.65.65,0,0,0-.24,0h-.1v0a1.17,1.17,0,0,0-.25.07l-39.17,22.62v1.39l39.42-22.76v9Z"/><path class="cls-62" d="M615,256.71,575.8,279.33v11.75L616,267.87a1,1,0,0,0,.51-.88V257.6A1,1,0,0,0,615,256.71Z"/><path class="cls-63" d="M575.8,279.33l.5-.29.65.38,39.17-22.62-61.06-35.25h0a1,1,0,0,0-1.15-.1h0l-39.17,22.62h0Z"/><polygon class="cls-64" points="577 288.99 577.01 289 577.01 280.02 515.94 244.77 515.94 256.52 575.8 291.08 577 288.99"/><polygon class="cls-65" points="575.8 279.33 575.8 280.72 514.74 245.47 514.74 244.07 575.8 279.33"/><polygon class="cls-66" points="575.8 289.69 575.8 291.08 514.74 255.83 514.74 254.44 575.8 289.69"/><polygon class="cls-67" points="575.8 289.69 577 288.99 515.95 253.74 514.74 254.44 575.8 289.69"/><path class="cls-68" d="M575.8,289.69v1.39l39.42-22.76h0l.77-.45a1,1,0,0,0,.51-.88V257.6a.94.94,0,0,0-.08-.34h0l0,0a1.28,1.28,0,0,0-.14-.23.74.74,0,0,0-.12-.13.69.69,0,0,0-.2-.13.66.66,0,0,0-.19-.09.69.69,0,0,0-.2,0,.71.71,0,0,0-.25,0h-.09v0a1.17,1.17,0,0,0-.25.07L575.8,279.33v1.39L615.22,258v9Z"/><path class="cls-69" d="M609.37,246.31,570.2,268.92v11.75l40.19-23.2a1,1,0,0,0,.51-.89v-9.39A1,1,0,0,0,609.37,246.31Z"/><path class="cls-70" d="M570.2,268.92l.49-.29.66.38,39.17-22.61-61.06-35.26h0a1,1,0,0,0-1.14-.09h0l-39.17,22.62h0Z"/><polygon class="cls-71" points="571.4 278.59 571.4 278.59 571.4 269.62 510.34 234.37 510.34 246.12 570.2 280.67 571.4 278.59"/><polygon class="cls-72" points="570.2 268.92 570.2 270.31 509.13 235.06 509.14 233.67 570.2 268.92"/><polygon class="cls-73" points="570.2 279.28 570.2 280.67 509.13 245.42 509.14 244.03 570.2 279.28"/><polygon class="cls-74" points="570.2 279.28 571.4 278.59 510.34 243.33 509.14 244.03 570.2 279.28"/><path class="cls-75" d="M570.2,279.28v1.39l39.42-22.76h0l.77-.44a1,1,0,0,0,.51-.89v-9.39a.89.89,0,0,0-.08-.33h0s0,0,0,0a1.07,1.07,0,0,0-.15-.22.76.76,0,0,0-.11-.14,1.37,1.37,0,0,0-.2-.13l-.19-.08-.2,0h-.25a.27.27,0,0,1-.09,0v0a.73.73,0,0,0-.25.08L570.2,268.92v1.39l39.42-22.76v9Z"/><path class="cls-76" d="M612.79,231.3l-39.17,22.62v11.75l40.19-23.21a1,1,0,0,0,.51-.89v-9.38A1,1,0,0,0,612.79,231.3Z"/><path class="cls-77" d="M573.62,253.92l.49-.29.66.38,39.17-22.62-61.06-35.25h0a1,1,0,0,0-1.14-.09h0l-39.17,22.61h0Z"/><polygon class="cls-78" points="574.82 263.58 574.82 263.59 574.82 254.61 513.76 219.36 513.76 231.11 573.62 265.67 574.82 263.58"/><polygon class="cls-79" points="573.62 253.92 573.62 255.31 512.55 220.06 512.56 218.66 573.62 253.92"/><polygon class="cls-80" points="573.62 264.28 573.62 265.67 512.55 230.42 512.56 229.03 573.62 264.28"/><polygon class="cls-81" points="573.62 264.28 574.82 263.58 513.76 228.33 512.56 229.03 573.62 264.28"/><path class="cls-82" d="M573.62,264.28v1.39L613,242.91h0l.77-.45a1,1,0,0,0,.51-.89v-9.38a.94.94,0,0,0-.08-.34h0s0,0,0,0a.91.91,0,0,0-.15-.23.69.69,0,0,0-.11-.13.63.63,0,0,0-.2-.13.66.66,0,0,0-.19-.09,1.2,1.2,0,0,0-.45,0H613v0a1,1,0,0,0-.25.08l-39.17,22.62v1.38L613,232.55v9Z"/><path class="cls-83" d="M416.41,204.28l30.12,17.39v9l-30.91-17.85a.79.79,0,0,1-.39-.68V205A.79.79,0,0,1,416.41,204.28Z"/><path class="cls-84" d="M446.53,221.67l-.38-.22-.5.29-30.13-17.39,47-27.11h0a.78.78,0,0,1,.88-.08h0l30.13,17.39h0Z"/><polygon class="cls-85" points="445.61 229.11 445.6 229.11 445.6 222.21 492.56 195.1 492.56 204.14 446.53 230.71 445.61 229.11"/><polygon class="cls-86" points="446.53 221.67 446.53 222.74 493.49 195.63 493.49 194.56 446.53 221.67"/><polygon class="cls-87" points="446.53 229.64 446.53 230.71 493.49 203.6 493.49 202.53 446.53 229.64"/><polygon class="cls-88" points="446.53 229.64 445.61 229.11 492.56 201.99 493.49 202.53 446.53 229.64"/><path class="cls-89" d="M446.53,229.64v1.07l-30.31-17.5h0l-.6-.35a.79.79,0,0,1-.39-.68V205a.82.82,0,0,1,.06-.26h0s0,0,0,0a1,1,0,0,1,.11-.17l.09-.1a.44.44,0,0,1,.15-.1l.15-.07a.76.76,0,0,1,.16,0h.26v0a1.39,1.39,0,0,1,.19.06l30.12,17.39v1.07l-30.31-17.5v6.9Z"/><g class="cls-1"><path class="cls-90" d="M386.65,127.46a3.26,3.26,0,0,1,.48-.11h0a1.79,1.79,0,0,1,.47,0h0a1.26,1.26,0,0,1,.42.16l-2.17-1.26h0l-.15-.07-.15,0-.11,0h-.06l-.17,0a.61.61,0,0,0-.19,0h-.22l-.26,0-.11,0-.1,0-.13,0c-.13.06-.27.12-.41.2L268.68,193a4.91,4.91,0,0,0-.55.38l-.16.14-.26.23-.11.12-.1.1-.11.12-.23.28-.08.11,0,0a.86.86,0,0,1-.07.1c-.06.09-.12.17-.17.26l-.15.24v0l0,0a2.12,2.12,0,0,1-.11.21l-.12.24-.11.23h0l-.11.27-.09.27s0,.09-.05.13v.07l0,.09-.09.34,0,.2s0,.07,0,.1,0,.07,0,.1a3.64,3.64,0,0,0,0,.57l.24,85.74a2,2,0,0,0,.85,1.86l2.16,1.26a2,2,0,0,1-.85-1.86L268,199.24a3.77,3.77,0,0,1,.06-.66s0-.07,0-.11q.06-.32.15-.63l0-.06a5.54,5.54,0,0,1,.25-.68v0a6,6,0,0,1,.34-.67v0c.12-.21.26-.42.4-.62l0-.05c.14-.18.28-.35.43-.51l.09-.11.37-.34.17-.15a3.7,3.7,0,0,1,.54-.37L386,127.74a3.59,3.59,0,0,1,.53-.25Z"/><path class="cls-91" d="M386,127.74c1.6-.93,2.91-.18,2.91,1.66l.24,85.74a6.36,6.36,0,0,1-2.89,5L271.1,286.65c-1.6.92-2.9.19-2.91-1.66L268,199.24a6.37,6.37,0,0,1,2.89-5Z"/></g><g class="cls-1"><path class="cls-92" d="M465.91,267.3h0v-2.51a1.68,1.68,0,0,1-.07.44,0,0,0,0,0,0,0,2.14,2.14,0,0,1-.2.4l0,0a2.67,2.67,0,0,1-.32.36l-.23.17c-.11.08-.21.17-.34.25L349.53,333a4.52,4.52,0,0,1-.84.36l-.32.1-.36.09-.52.09h-.11a5.32,5.32,0,0,1-.69,0h-.1a5.32,5.32,0,0,1-.69,0h-.1a4.64,4.64,0,0,1-.65-.11l-.12,0a6.13,6.13,0,0,1-.61-.18l-.05,0a6.09,6.09,0,0,1-.63-.3L269.6,289.9a2.36,2.36,0,0,1-1.11-1.22,1.31,1.31,0,0,1-.07-.44h0v2.5a2,2,0,0,0,1.18,1.66l74.14,43.08a5.09,5.09,0,0,0,.62.3h0l.05,0,.43.14.18,0,.12,0,.13,0,.4.07h.12l.1,0h.17l.4,0h.42l.45,0h.14l.37-.05.16,0,.36-.09.21-.05.1-.05a4.62,4.62,0,0,0,.85-.36L464.7,269l.14-.09a1.66,1.66,0,0,0,.21-.16,1.28,1.28,0,0,0,.22-.17l.05,0a3.08,3.08,0,0,0,.25-.27l0,0,0-.06a1.1,1.1,0,0,0,.09-.14,1.58,1.58,0,0,0,.11-.23v0a0,0,0,0,0,0,0,1.54,1.54,0,0,0,.05-.17,1,1,0,0,0,0-.24v0Z"/><path class="cls-93" d="M384.8,220.05a6.4,6.4,0,0,1,5.78,0l74.14,43.08c1.59.93,1.58,2.43,0,3.36L349.53,333a6.42,6.42,0,0,1-5.79,0L269.6,289.9c-1.59-.93-1.58-2.43,0-3.36Z"/></g><g class="cls-94"><g class="cls-1"><path class="cls-95" d="M380.24,228.58l5.18-3a1.25,1.25,0,0,1,1.13,0l1.54.89a.35.35,0,0,1,0,.65l-5.18,3a1.25,1.25,0,0,1-1.13,0l-1.54-.9a.35.35,0,0,1,0-.65"/><path class="cls-95" d="M372.46,233.07l5.19-3a1.23,1.23,0,0,1,1.12,0l1.54.89a.34.34,0,0,1,0,.65l-5.19,3a1.23,1.23,0,0,1-1.12,0l-1.54-.9a.34.34,0,0,1,0-.65"/><path class="cls-95" d="M364.68,237.56l5.19-3a1.23,1.23,0,0,1,1.12,0l1.54.89a.34.34,0,0,1,0,.65l-5.19,3a1.23,1.23,0,0,1-1.12,0l-1.54-.9a.34.34,0,0,1,0-.65"/><path class="cls-95" d="M356.91,242.05l5.18-3a1.23,1.23,0,0,1,1.12,0l1.54.89c.31.18.31.47,0,.66l-5.18,3a1.25,1.25,0,0,1-1.13,0l-1.54-.9a.34.34,0,0,1,0-.65"/><path class="cls-95" d="M349.13,246.54l5.18-3a1.25,1.25,0,0,1,1.13,0l1.53.89c.31.18.32.47,0,.65l-5.18,3a1.25,1.25,0,0,1-1.13,0l-1.54-.9c-.31-.17-.3-.47,0-.65"/><path class="cls-95" d="M341.35,251l5.19-3a1.23,1.23,0,0,1,1.12,0l1.54.89a.34.34,0,0,1,0,.65l-5.18,3a1.25,1.25,0,0,1-1.13,0l-1.53-.9a.34.34,0,0,1,0-.65"/><path class="cls-95" d="M333.57,255.52l5.19-3a1.23,1.23,0,0,1,1.12,0l1.54.89a.34.34,0,0,1,0,.65l-5.19,3a1.23,1.23,0,0,1-1.12,0l-1.54-.9a.34.34,0,0,1,0-.65"/><path class="cls-95" d="M325.8,260l5.18-3a1.25,1.25,0,0,1,1.13,0l1.54.89a.35.35,0,0,1,0,.65l-5.18,3a1.25,1.25,0,0,1-1.13,0l-1.54-.9c-.31-.17-.3-.47,0-.65"/><path class="cls-95" d="M318,264.5l5.19-3a1.23,1.23,0,0,1,1.12,0l1.54.89a.34.34,0,0,1,0,.65l-5.18,3a1.25,1.25,0,0,1-1.13,0l-1.53-.9c-.31-.18-.32-.47,0-.65"/><path class="cls-95" d="M310.24,269l5.18-3a1.25,1.25,0,0,1,1.13,0l1.54.9c.3.17.31.46,0,.65l-5.18,3a1.25,1.25,0,0,1-1.13,0l-1.54-.89a.35.35,0,0,1,0-.66"/><path class="cls-95" d="M302.46,273.49l5.19-3a1.23,1.23,0,0,1,1.12,0l1.54.9c.31.17.31.46,0,.65l-5.19,3a1.23,1.23,0,0,1-1.12,0l-1.54-.89a.34.34,0,0,1,0-.65"/><path class="cls-95" d="M294.68,278l5.19-3a1.23,1.23,0,0,1,1.12,0l1.54.9a.34.34,0,0,1,0,.65l-5.19,3a1.23,1.23,0,0,1-1.12,0l-1.54-.89a.34.34,0,0,1,0-.65"/><path class="cls-95" d="M286.91,282.46l5.18-3a1.25,1.25,0,0,1,1.13,0l1.54.9c.31.17.3.47,0,.65l-5.18,3a1.25,1.25,0,0,1-1.13,0l-1.54-.89a.35.35,0,0,1,0-.66"/><path class="cls-95" d="M279.13,287l5.19-3a1.23,1.23,0,0,1,1.12,0l1.54.89a.35.35,0,0,1,0,.66l-5.19,3a1.23,1.23,0,0,1-1.12,0l-1.54-.89a.35.35,0,0,1,0-.66"/><path class="cls-95" d="M384.75,231.2l5.18-3a1.25,1.25,0,0,1,1.13,0l3.86,2.24a.34.34,0,0,1,0,.65l-5.19,3a1.23,1.23,0,0,1-1.12,0l-3.87-2.25c-.3-.17-.3-.47,0-.65"/><path class="cls-95" d="M377,235.69l5.19-3a1.23,1.23,0,0,1,1.12,0l3.86,2.24a.34.34,0,0,1,0,.65l-5.19,3a1.23,1.23,0,0,1-1.12,0L377,236.34a.34.34,0,0,1,0-.65"/><path class="cls-95" d="M369.2,240.18l5.18-3a1.25,1.25,0,0,1,1.13,0l3.86,2.24a.35.35,0,0,1,0,.65l-5.18,3a1.25,1.25,0,0,1-1.13,0l-3.86-2.25c-.31-.18-.31-.47,0-.65"/><path class="cls-95" d="M361.42,244.67l5.18-3a1.23,1.23,0,0,1,1.12,0l3.86,2.24c.31.18.32.47,0,.66l-5.18,3a1.23,1.23,0,0,1-1.12,0l-3.86-2.25c-.31-.18-.32-.47,0-.65"/><path class="cls-95" d="M353.64,249.16l5.18-3a1.25,1.25,0,0,1,1.13,0l3.86,2.24c.31.18.31.47,0,.66l-5.18,3a1.25,1.25,0,0,1-1.13,0l-3.86-2.24a.35.35,0,0,1,0-.66"/><path class="cls-95" d="M345.86,253.66l5.19-3a1.23,1.23,0,0,1,1.12,0L356,252.9a.35.35,0,0,1,0,.66l-5.19,3a1.23,1.23,0,0,1-1.12,0l-3.86-2.24a.34.34,0,0,1,0-.65"/><path class="cls-95" d="M338.08,258.14l5.19-3a1.23,1.23,0,0,1,1.12,0l3.86,2.24a.35.35,0,0,1,0,.66l-5.19,3a1.23,1.23,0,0,1-1.12,0l-3.86-2.24a.35.35,0,0,1,0-.66"/><path class="cls-95" d="M330.31,262.63l5.18-3a1.25,1.25,0,0,1,1.13,0l3.86,2.24c.31.18.3.48,0,.66l-5.18,3a1.25,1.25,0,0,1-1.13,0l-3.86-2.24a.35.35,0,0,1,0-.66"/><path class="cls-95" d="M322.53,267.12l5.19-3a1.23,1.23,0,0,1,1.12,0l3.86,2.24a.34.34,0,0,1,0,.65l-5.19,3a1.23,1.23,0,0,1-1.12,0l-3.86-2.24c-.31-.18-.31-.47,0-.66"/><path class="cls-95" d="M314.75,271.61l5.19-3a1.23,1.23,0,0,1,1.12,0l3.86,2.25a.34.34,0,0,1,0,.65l-5.18,3a1.25,1.25,0,0,1-1.13,0l-3.86-2.24c-.31-.18-.31-.47,0-.66"/><path class="cls-95" d="M307,276.11l5.19-3a1.23,1.23,0,0,1,1.12,0l3.86,2.25a.34.34,0,0,1,0,.65L312,279a1.23,1.23,0,0,1-1.12,0L307,276.76a.34.34,0,0,1,0-.65"/><path class="cls-95" d="M299.2,280.6l5.18-3a1.25,1.25,0,0,1,1.13,0l3.86,2.25a.35.35,0,0,1,0,.65l-5.18,3a1.25,1.25,0,0,1-1.13,0l-3.86-2.24c-.31-.18-.3-.47,0-.65"/><path class="cls-95" d="M283.64,289.58l7.22-4.17.38-.22,5.37-3.1a1.23,1.23,0,0,1,1.12,0l3.86,2.25a.34.34,0,0,1,0,.65l-5.37,3.1-.38.22-7.22,4.16a1.23,1.23,0,0,1-1.12,0l-3.86-2.24a.34.34,0,0,1,0-.65"/><path class="cls-95" d="M384.7,239.14l1.7-1,4.05-2.34,6.32-3.65a1.23,1.23,0,0,1,1.12,0l3.86,2.24a.34.34,0,0,1,0,.65l-6.32,3.65-4.05,2.34-1.7,1a1.23,1.23,0,0,1-1.12,0l-3.86-2.24a.35.35,0,0,1,0-.66"/><path class="cls-95" d="M376,244.15l5.18-3a1.25,1.25,0,0,1,1.13,0l3.86,2.24a.34.34,0,0,1,0,.65l-5.18,3a1.25,1.25,0,0,1-1.13,0L376,244.8c-.3-.17-.31-.46,0-.65"/><path class="cls-95" d="M368.25,248.64l5.18-3a1.25,1.25,0,0,1,1.13,0l3.86,2.25c.3.17.31.46,0,.65l-5.18,3a1.23,1.23,0,0,1-1.12,0l-3.86-2.25c-.31-.17-.31-.46,0-.65"/><path class="cls-95" d="M360.47,253.13l5.19-3a1.23,1.23,0,0,1,1.12,0l3.86,2.25c.31.17.31.46,0,.65l-5.18,3a1.25,1.25,0,0,1-1.13,0l-3.86-2.24c-.31-.18-.31-.47,0-.66"/><path class="cls-95" d="M352.69,257.63l5.19-3a1.23,1.23,0,0,1,1.12,0l3.86,2.25a.34.34,0,0,1,0,.65l-5.19,3a1.23,1.23,0,0,1-1.12,0l-3.86-2.24a.34.34,0,0,1,0-.65"/><path class="cls-95" d="M344.92,262.12l5.18-3a1.25,1.25,0,0,1,1.13,0l3.86,2.25c.31.17.3.47,0,.65l-5.18,3a1.25,1.25,0,0,1-1.13,0l-3.86-2.24a.35.35,0,0,1,0-.65"/><path class="cls-95" d="M337.14,266.61l5.19-3a1.23,1.23,0,0,1,1.12,0l3.86,2.24a.35.35,0,0,1,0,.66l-5.19,3a1.23,1.23,0,0,1-1.12,0l-3.86-2.24a.34.34,0,0,1,0-.65"/><path class="cls-95" d="M329.36,271.1l5.19-3a1.23,1.23,0,0,1,1.12,0l3.86,2.24a.35.35,0,0,1,0,.66l-5.19,3a1.23,1.23,0,0,1-1.12,0l-3.86-2.24a.34.34,0,0,1,0-.65"/><path class="cls-95" d="M321.59,275.59l5.18-3a1.23,1.23,0,0,1,1.12,0l3.86,2.25a.34.34,0,0,1,0,.65l-5.18,3a1.25,1.25,0,0,1-1.13,0l-3.86-2.24c-.31-.18-.31-.47,0-.65"/><path class="cls-95" d="M313.81,280.08l5.18-3a1.25,1.25,0,0,1,1.13,0l3.86,2.25a.34.34,0,0,1,0,.65l-5.18,3a1.25,1.25,0,0,1-1.13,0l-3.86-2.24c-.31-.18-.3-.47,0-.65"/><path class="cls-95" d="M306,284.57l5.19-3a1.23,1.23,0,0,1,1.12,0l3.86,2.25a.34.34,0,0,1,0,.65l-5.19,3a1.23,1.23,0,0,1-1.12,0L306,285.22a.34.34,0,0,1,0-.65"/><path class="cls-95" d="M396.21,240.41l7.39-4.26a1.23,1.23,0,0,1,1.12,0l3.86,2.24a.35.35,0,0,1,0,.66l-7.38,4.26a1.25,1.25,0,0,1-1.13,0l-3.86-2.24a.35.35,0,0,1,0-.66"/><path class="cls-95" d="M388.25,245l5.19-3a1.23,1.23,0,0,1,1.12,0l3.86,2.24a.34.34,0,0,1,0,.65l-5.19,3a1.23,1.23,0,0,1-1.12,0l-3.86-2.25a.34.34,0,0,1,0-.65"/><path class="cls-95" d="M380.47,249.5l5.19-3a1.23,1.23,0,0,1,1.12,0l3.86,2.24a.34.34,0,0,1,0,.65l-5.19,3a1.23,1.23,0,0,1-1.12,0l-3.86-2.25a.34.34,0,0,1,0-.65"/><path class="cls-95" d="M372.7,254l5.18-3a1.25,1.25,0,0,1,1.13,0l3.86,2.24c.31.18.3.47,0,.65l-5.18,3a1.25,1.25,0,0,1-1.13,0l-3.86-2.25a.35.35,0,0,1,0-.65"/><path class="cls-95" d="M364.92,258.48l5.19-3a1.23,1.23,0,0,1,1.12,0l3.86,2.24a.34.34,0,0,1,0,.65l-5.19,3a1.23,1.23,0,0,1-1.12,0l-3.86-2.25a.34.34,0,0,1,0-.65"/><path class="cls-95" d="M357.14,263l5.18-3a1.25,1.25,0,0,1,1.13,0l3.86,2.24c.31.18.31.47,0,.66l-5.19,3a1.23,1.23,0,0,1-1.12,0l-3.86-2.24a.35.35,0,0,1,0-.66"/><path class="cls-95" d="M349.36,267.46l5.19-3a1.23,1.23,0,0,1,1.12,0l3.86,2.24c.31.18.31.47,0,.66l-5.19,3a1.23,1.23,0,0,1-1.12,0l-3.86-2.24a.35.35,0,0,1,0-.66"/><path class="cls-95" d="M341.59,272l5.18-3a1.25,1.25,0,0,1,1.13,0l3.86,2.24a.35.35,0,0,1,0,.65l-5.18,3a1.25,1.25,0,0,1-1.13,0l-3.86-2.24c-.31-.18-.3-.48,0-.66"/><path class="cls-95" d="M333.81,276.44l5.19-3a1.23,1.23,0,0,1,1.12,0l3.86,2.24a.34.34,0,0,1,0,.65l-5.19,3a1.23,1.23,0,0,1-1.12,0l-3.86-2.24a.35.35,0,0,1,0-.66"/><path class="cls-95" d="M326,280.93l5.19-3a1.23,1.23,0,0,1,1.12,0l3.86,2.24a.34.34,0,0,1,0,.65l-5.19,3a1.23,1.23,0,0,1-1.12,0L326,281.59a.35.35,0,0,1,0-.66"/><path class="cls-95" d="M318.26,285.42l5.18-3a1.25,1.25,0,0,1,1.13,0l3.86,2.24a.35.35,0,0,1,0,.66l-5.18,3a1.25,1.25,0,0,1-1.13,0l-3.86-2.24c-.31-.18-.31-.47,0-.66"/><path class="cls-95" d="M310.48,289.91l5.18-3a1.23,1.23,0,0,1,1.12,0l3.86,2.25a.34.34,0,0,1,0,.65l-5.18,3a1.25,1.25,0,0,1-1.13,0l-3.86-2.24c-.31-.18-.31-.47,0-.66"/><path class="cls-95" d="M290.48,293.55l13-7.49a1.23,1.23,0,0,1,1.12,0l3.86,2.25a.34.34,0,0,1,0,.65l-1.6.92a.61.61,0,0,0,0,1.15l5.29,3.07a.34.34,0,0,1,0,.65l-9.8,5.66a1.23,1.23,0,0,1-1.12,0l-6.28-3.64-2.49-1.45-1.93-1.12c-.31-.18-.3-.47,0-.65"/><path class="cls-95" d="M405.25,243.12l5.18-3a1.25,1.25,0,0,1,1.13,0l3.86,2.24c.31.18.3.48,0,.66l-5.18,3a1.25,1.25,0,0,1-1.13,0l-3.86-2.24a.35.35,0,0,1,0-.65"/><path class="cls-95" d="M397.47,247.61l5.19-3a1.23,1.23,0,0,1,1.12,0l3.86,2.24a.35.35,0,0,1,0,.66l-5.19,3a1.23,1.23,0,0,1-1.12,0l-3.86-2.24a.34.34,0,0,1,0-.65"/><path class="cls-95" d="M389.69,252.1l5.19-3a1.23,1.23,0,0,1,1.12,0l3.86,2.24a.35.35,0,0,1,0,.66l-5.19,3a1.23,1.23,0,0,1-1.12,0l-3.86-2.24a.34.34,0,0,1,0-.65"/><path class="cls-95" d="M381.92,256.59l5.18-3a1.23,1.23,0,0,1,1.12,0l3.86,2.25a.34.34,0,0,1,0,.65l-5.18,3a1.25,1.25,0,0,1-1.13,0l-3.86-2.24a.34.34,0,0,1,0-.65"/><path class="cls-95" d="M374.14,261.07l5.18-3a1.25,1.25,0,0,1,1.13,0l3.86,2.25a.34.34,0,0,1,0,.65l-5.18,3a1.25,1.25,0,0,1-1.13,0l-3.86-2.24c-.31-.18-.3-.47,0-.66"/><path class="cls-95" d="M366.36,265.57l5.18-3a1.25,1.25,0,0,1,1.13,0l3.86,2.25a.34.34,0,0,1,0,.65l-5.19,3a1.23,1.23,0,0,1-1.12,0l-3.86-2.24a.34.34,0,0,1,0-.65"/><path class="cls-95" d="M358.58,270.06l5.19-3a1.23,1.23,0,0,1,1.12,0l3.86,2.25a.34.34,0,0,1,0,.65l-5.19,3a1.23,1.23,0,0,1-1.12,0l-3.86-2.24a.34.34,0,0,1,0-.65"/><path class="cls-95" d="M350.81,274.55l5.18-3a1.25,1.25,0,0,1,1.13,0L361,273.8a.35.35,0,0,1,0,.65l-5.18,3a1.25,1.25,0,0,1-1.13,0l-3.86-2.24c-.31-.18-.3-.47,0-.65"/><path class="cls-95" d="M343,279l5.19-3a1.23,1.23,0,0,1,1.12,0l3.86,2.25a.34.34,0,0,1,0,.65l-5.19,3a1.23,1.23,0,0,1-1.12,0L343,279.69c-.31-.18-.32-.47,0-.65"/><path class="cls-95" d="M335.25,283.53l5.18-3a1.22,1.22,0,0,1,1.13,0l3.86,2.24c.31.18.31.47,0,.65l-5.18,3a1.25,1.25,0,0,1-1.13,0l-3.86-2.24a.35.35,0,0,1,0-.65"/><path class="cls-95" d="M327.47,288l5.19-3a1.2,1.2,0,0,1,1.12,0l3.86,2.24a.34.34,0,0,1,0,.65l-5.19,3a1.23,1.23,0,0,1-1.12,0l-3.86-2.24a.34.34,0,0,1,0-.65"/><path class="cls-95" d="M319.69,292.51l5.19-3a1.23,1.23,0,0,1,1.12,0l3.87,2.24a.35.35,0,0,1,0,.65l-5.18,3a1.25,1.25,0,0,1-1.13,0l-3.86-2.24a.34.34,0,0,1,0-.65"/><path class="cls-95" d="M304.14,301.49l7.21-4.17.39-.22,5.36-3.1a1.32,1.32,0,0,1,1.13,0l3.86,2.25c.31.18.3.47,0,.65l-5.36,3.1-.39.22-7.21,4.16a1.23,1.23,0,0,1-1.12,0l-3.86-2.24a.34.34,0,0,1,0-.65"/><path class="cls-95" d="M412.08,247.09l5.19-3a1.2,1.2,0,0,1,1.12,0l3.86,2.24a.34.34,0,0,1,0,.65l-5.19,3a1.23,1.23,0,0,1-1.12,0l-3.86-2.24a.34.34,0,0,1,0-.65"/><path class="cls-95" d="M404.3,251.58l5.19-3a1.25,1.25,0,0,1,1.13,0l3.85,2.25c.32.18.31.47,0,.65l-5.19,3a1.23,1.23,0,0,1-1.12,0l-3.86-2.24a.34.34,0,0,1,0-.65"/><path class="cls-95" d="M396.53,256.07l5.18-3a1.25,1.25,0,0,1,1.13,0l3.86,2.25c.31.18.3.47,0,.65l-5.18,3a1.25,1.25,0,0,1-1.13,0l-3.85-2.24c-.32-.18-.32-.47,0-.65"/><path class="cls-95" d="M388.75,260.56l5.18-3a1.25,1.25,0,0,1,1.13,0l3.86,2.24c.31.18.31.47,0,.65l-5.18,3a1.23,1.23,0,0,1-1.12,0l-3.86-2.24c-.31-.18-.32-.47,0-.65"/><path class="cls-95" d="M349.86,283l4.83-2.79.92-.53,1.46-.85,6.32-3.64,1.46-.85,6.31-3.64,1.47-.85,6.31-3.64,7.21-4.17a1.25,1.25,0,0,1,1.13,0l3.86,2.24a.34.34,0,0,1,0,.65l-7.22,4.16-6.31,3.65-1.46.84-6.32,3.65-1.46.84-6.31,3.65-1.47.84-.92.54-4.83,2.78a1.23,1.23,0,0,1-1.12,0l-3.86-2.24a.34.34,0,0,1,0-.65"/><path class="cls-95" d="M342.09,287.5l5.18-3a1.22,1.22,0,0,1,1.13,0l3.85,2.24a.34.34,0,0,1,0,.65l-5.18,3a1.22,1.22,0,0,1-1.13,0l-3.86-2.24c-.31-.18-.31-.47,0-.65"/><path class="cls-95" d="M334.3,292l5.19-3a1.22,1.22,0,0,1,1.13,0l3.85,2.24c.32.18.32.47,0,.65l-5.19,3a1.2,1.2,0,0,1-1.12,0l-3.85-2.24c-.32-.18-.32-.47,0-.65"/><path class="cls-95" d="M326.53,296.48l5.18-3a1.25,1.25,0,0,1,1.13,0l3.86,2.24c.31.18.3.47,0,.65l-5.18,3a1.22,1.22,0,0,1-1.13,0l-3.85-2.24a.34.34,0,0,1,0-.65"/><path class="cls-95" d="M318.75,301l5.19-3a1.25,1.25,0,0,1,1.13,0l.86.5a.34.34,0,0,1,0,.65l-5.19,3a1.23,1.23,0,0,1-1.12,0l-.87-.51a.34.34,0,0,1,0-.65"/><path class="cls-95" d="M321.74,302.71l5.19-3a1.29,1.29,0,0,1,1.12,0l.87.51a.34.34,0,0,1,0,.65l-5.19,3a1.2,1.2,0,0,1-1.12,0l-.87-.5a.34.34,0,0,1,0-.65"/><path class="cls-95" d="M311,305.46l5.19-3a1.25,1.25,0,0,1,1.13,0l3.85,2.24c.32.18.31.47,0,.65l-5.18,3a1.22,1.22,0,0,1-1.13,0L311,306.11c-.32-.18-.32-.47,0-.65"/><path class="cls-95" d="M357.19,294.07l41-23.69a3.71,3.71,0,0,1,3.37,0L423,282.79a1,1,0,0,1,0,2l-41,23.69a3.74,3.74,0,0,1-3.37,0L357.18,296a1,1,0,0,1,0-2"/></g></g><path class="cls-96" d="M382.2,132,272.51,195.35a6,6,0,0,0-2.73,4.74l.22,79.45c0,1.73,1.24,2.44,2.76,1.56l109.68-63.33a6,6,0,0,0,2.74-4.73L385,133.6c0-1.75-1.24-2.45-2.75-1.57"/><path class="cls-97" d="M272.76,280.69c-1.32.76-2.39.15-2.39-1.36l-.23-79.45a5.27,5.27,0,0,1,2.37-4.11L382.2,132.45c1.31-.76,2.39-.15,2.39,1.35l.23,79.45a5.26,5.26,0,0,1-2.38,4.11L272.76,280.69M382.2,131.61,272.51,194.94a6.82,6.82,0,0,0-3.09,5.36l.23,79.45c0,2,1.4,2.76,3.11,1.77l109.68-63.33a6.79,6.79,0,0,0,3.1-5.36l-.22-79.45c0-2-1.41-2.75-3.12-1.77"/><polyline class="cls-2" points="340.96 211.67 280.11 246.8 280.12 250.07 340.97 214.94 340.96 211.67"/><polyline class="cls-2" points="320.24 232.16 280.14 255.32 280.14 258.58 320.25 235.43 320.24 232.16"/><polyline class="cls-2" points="306.12 248.85 280.16 263.83 280.17 267.1 306.13 252.11 306.12 248.85"/><path class="cls-2" d="M306.1,211.48l0-11.59,8.76.75-8.73,10.84m34.73-45.84L280,200.77l.11,39.92,60.85-35.13-.11-39.92"/><polyline class="cls-2" points="374.79 146.03 349.29 160.75 349.41 200.67 374.91 185.95 374.79 146.03"/><polyline class="cls-98" points="306.07 199.9 306.1 211.48 314.83 200.64 306.07 199.9"/><path class="cls-99" d="M500.47,204.67c-5.61-3.24-14.66-3.24-20.23,0s-5.54,8.49.07,11.72,14.65,3.24,20.23,0,5.53-8.48-.07-11.71"/><path class="cls-100" d="M498.82,205.84c-4.69-2.6-12.26-2.6-16.92,0s-4.63,6.79.06,9.38,12.25,2.59,16.92,0,4.62-6.79-.06-9.37"/><path class="cls-101" d="M478.83,186.66a1.25,1.25,0,0,0-1.56-.85l-.11,0a1.27,1.27,0,0,0-.85,1.56l12.43,42.08a5.9,5.9,0,0,0,1.3-.22,6,6,0,0,0,1.21-.52Z"/><polygon class="cls-4" points="491.33 233.64 488.74 229.49 491.25 228.74 491.33 233.64"/><path class="cls-4" d="M477.52,186.85a1.32,1.32,0,0,0-.89,1.63l1.41,4.76a5.54,5.54,0,0,0,2.51-.74l-1.4-4.76A1.32,1.32,0,0,0,477.52,186.85Z"/><path class="cls-102" d="M477.21,185.82a1.31,1.31,0,0,0-.88,1.63l1.4,4.77A5.82,5.82,0,0,0,479,192a6.05,6.05,0,0,0,1.22-.52l-1.41-4.76A1.32,1.32,0,0,0,477.21,185.82Z"/><path class="cls-103" d="M491.33,233.64l0-1.36a2.25,2.25,0,0,0-.36.06,2.07,2.07,0,0,0-.34.15Z"/><path class="cls-104" d="M503.15,190.31a5.43,5.43,0,0,0-1.3-.25l-13.1,41.88a1.25,1.25,0,0,0,.82,1.57l.11,0a1.25,1.25,0,0,0,1.57-.82l13.11-41.88A6.25,6.25,0,0,0,503.15,190.31Z"/><polygon class="cls-4" points="504.51 185.94 504.36 190.84 501.85 190.06 504.51 185.94"/><path class="cls-4" d="M490,232.5a1.3,1.3,0,0,0,1.64-.86l1.48-4.73a5.78,5.78,0,0,0-1.21-.54,6.53,6.53,0,0,0-1.29-.25l-1.49,4.74A1.31,1.31,0,0,0,490,232.5Z"/><path class="cls-105" d="M489.63,233.53a1.32,1.32,0,0,0,1.64-.86l1.48-4.74a5.78,5.78,0,0,0-1.21-.54,6.53,6.53,0,0,0-1.29-.25l-1.49,4.74A1.32,1.32,0,0,0,489.63,233.53Z"/><path class="cls-106" d="M504.51,185.94l-.73,1.14a1.68,1.68,0,0,0,.33.16l.36.06Z"/><path class="cls-107" d="M487.57,182.9a5.83,5.83,0,0,0-1.32,0,6.05,6.05,0,0,0-1.29.29l.55,4.94h0l4.92,44.16a1.25,1.25,0,0,0,1.38,1.11h.11A1.26,1.26,0,0,0,493,232Z"/><polygon class="cls-4" points="485.74 178.35 487.57 182.9 484.96 183.19 485.74 178.35"/><path class="cls-4" d="M491.75,232.33a1.31,1.31,0,0,0,1.16-1.45l-.55-4.94a5.83,5.83,0,0,0-1.32,0,6.05,6.05,0,0,0-1.29.29l.55,4.94A1.31,1.31,0,0,0,491.75,232.33Z"/><path class="cls-105" d="M491.87,233.39a1.31,1.31,0,0,0,1.16-1.45l-.55-4.93a5.82,5.82,0,0,0-1.32,0,6.06,6.06,0,0,0-1.29.3l.55,4.93A1.31,1.31,0,0,0,491.87,233.39Z"/><path class="cls-108" d="M485.74,178.35l-.21,1.34a1.45,1.45,0,0,0,.36,0,1.36,1.36,0,0,0,.36-.09Z"/><path class="cls-109" d="M494.32,178.07h-.11a1.25,1.25,0,0,0-1.31,1.2L491,223.66h0l-.22,5a5.69,5.69,0,0,0,1.31.21,6.42,6.42,0,0,0,1.32-.09l2.12-49.36A1.26,1.26,0,0,0,494.32,178.07Z"/><polygon class="cls-4" points="491.88 233.4 490.77 228.62 493.4 228.74 491.88 233.4"/><path class="cls-4" d="M494.22,179.14a1.31,1.31,0,0,0-1.37,1.26l-.21,5a6.18,6.18,0,0,0,1.3.2,5.79,5.79,0,0,0,1.32-.09l.21-5A1.32,1.32,0,0,0,494.22,179.14Z"/><path class="cls-110" d="M494.26,178.07a1.31,1.31,0,0,0-1.36,1.26l-.22,5a6.28,6.28,0,0,0,1.31.2,5.79,5.79,0,0,0,1.32-.09l.21-5A1.31,1.31,0,0,0,494.26,178.07Z"/><path class="cls-103" d="M491.88,233.4l.42-1.29a1.35,1.35,0,0,0-.36-.07,2.1,2.1,0,0,0-.36,0Z"/><path class="cls-99" d="M498.88,215c-4.67,2.71-12.24,2.71-16.92,0-2.35-1.36-3.52-3.13-3.53-4.9v27.38c0,1.78,1.18,3.55,3.53,4.9,4.68,2.71,12.25,2.71,16.92,0,2.32-1.35,3.48-3.12,3.47-4.9V210.14C502.36,211.91,501.2,213.68,498.88,215Z"/><path class="cls-111" d="M500.54,216.38c-5.58,3.24-14.63,3.24-20.23,0-2.81-1.62-4.22-3.74-4.23-5.86v32.76c0,2.12,1.42,4.24,4.23,5.86,5.6,3.24,14.65,3.24,20.23,0,2.78-1.62,4.17-3.74,4.15-5.86V210.52C504.71,212.64,503.32,214.76,500.54,216.38Z"/><path class="cls-112" d="M201.31,264.14l35.87,20.72,9.33-5.39-36.82-21.25a.93.93,0,0,0-.94,0l-7.44,4.3A.93.93,0,0,0,201.31,264.14Z"/><path class="cls-113" d="M237.18,284.86l-.45-.27v-.69l-35.88-20.71v64.57h0a.91.91,0,0,0,.45.94h0l35.87,20.71h0Z"/><polygon class="cls-114" points="244.3 279.48 244.3 279.47 237.19 283.58 237.19 348.16 246.51 342.77 246.5 279.48 244.3 279.48"/><polygon class="cls-115" points="237.19 284.86 238.29 284.22 238.29 348.8 237.19 349.43 237.19 284.86"/><polygon class="cls-116" points="245.4 280.11 246.5 279.48 246.51 344.05 245.4 344.69 245.4 280.11"/><polygon class="cls-117" points="245.4 280.11 244.3 279.48 244.3 344.05 245.4 344.69 245.4 280.11"/><path class="cls-118" d="M245.4,280.11l1.11-.64L210.4,258.63h0l-.71-.41a.93.93,0,0,0-.94,0l-7.44,4.3a1,1,0,0,0-.23.22h0l0,0a.91.91,0,0,0-.11.22.94.94,0,0,0-.06.15,1.62,1.62,0,0,0,0,.22,1.23,1.23,0,0,0,0,.19,1.34,1.34,0,0,0,.07.18.76.76,0,0,0,.12.19s0,.05,0,.07h0a.69.69,0,0,0,.18.16l35.87,20.72,1.11-.64-36.11-20.85,7.12-4.1Z"/><path class="cls-119" d="M191.18,270l35.88,20.71,9.32-5.38-36.81-21.25a.93.93,0,0,0-.94,0l-7.45,4.3A.94.94,0,0,0,191.18,270Z"/><path class="cls-120" d="M227.06,290.71l-.46-.26v-.69L190.73,269v64.58h0a.92.92,0,0,0,.44.95h0l35.88,20.72h0Z"/><polygon class="cls-121" points="234.18 285.33 234.18 285.32 227.06 289.43 227.06 354.01 236.38 348.63 236.38 285.33 234.18 285.33"/><polygon class="cls-122" points="227.06 290.71 228.16 290.08 228.17 354.65 227.06 355.29 227.06 290.71"/><polygon class="cls-123" points="235.28 285.97 236.38 285.33 236.38 349.91 235.28 350.54 235.28 285.97"/><polygon class="cls-124" points="235.28 285.97 234.18 285.33 234.17 349.91 235.28 350.54 235.28 285.97"/><path class="cls-125" d="M235.28,286l1.1-.64-36.1-20.84h0l-.71-.41a.93.93,0,0,0-.94,0l-7.45,4.3a1,1,0,0,0-.23.22h0s0,0,0,0a1.55,1.55,0,0,0-.12.22.88.88,0,0,0-.05.15,1.55,1.55,0,0,0,0,.22.65.65,0,0,0,0,.19,1.15,1.15,0,0,0,.06.17,2.12,2.12,0,0,0,.12.2l.05.07h0a1.29,1.29,0,0,0,.17.16l35.88,20.71,1.1-.63-36.1-20.85,7.11-4.11Z"/><path class="cls-126" d="M181.06,275.86l35.88,20.71,9.32-5.38-36.82-21.26a1,1,0,0,0-.93,0l-7.45,4.3A1,1,0,0,0,181.06,275.86Z"/><path class="cls-127" d="M216.94,296.57l-.46-.26v-.7L180.6,274.9v64.57h0a.94.94,0,0,0,.45.95h0l35.88,20.71h0Z"/><polygon class="cls-128" points="224.05 291.19 224.05 291.18 216.94 295.29 216.94 359.87 226.26 354.49 226.26 291.19 224.05 291.19"/><polygon class="cls-129" points="216.94 296.57 218.04 295.93 218.04 360.51 216.94 361.14 216.94 296.57"/><polygon class="cls-130" points="225.16 291.82 226.26 291.19 226.26 355.76 225.16 356.4 225.16 291.82"/><polygon class="cls-131" points="225.16 291.82 224.05 291.19 224.05 355.76 225.16 356.4 225.16 291.82"/><path class="cls-132" d="M225.16,291.82l1.1-.63-36.11-20.85h0l-.71-.41a1,1,0,0,0-.93,0l-7.45,4.3a1,1,0,0,0-.23.22h0l0,.05a.63.63,0,0,0-.12.21,1,1,0,0,0-.05.16.75.75,0,0,0,0,.21c0,.07,0,.13,0,.19a1,1,0,0,0,.07.18.76.76,0,0,0,.12.19s0,.05.05.07h0a.91.91,0,0,0,.17.17l35.88,20.71,1.1-.64-36.11-20.84,7.12-4.11Z"/><path class="cls-133" d="M272.08,340.51l4.8,4.5V316.47h-2.22a6.55,6.55,0,0,0-6.55,6.55v8.34A12.54,12.54,0,0,0,272.08,340.51Z"/><path class="cls-2" d="M274.15,338.11l2.73,2.57V321h-1.26a3.74,3.74,0,0,0-3.74,3.73v8.14A7.12,7.12,0,0,0,274.15,338.11Z"/><path class="cls-134" d="M302.77,344.78v-23.5H274.15v23.5c0,2.12,1.43,4.24,4.23,5.86,5.6,3.23,14.66,3.23,20.23,0C301.4,349,302.78,346.9,302.77,344.78Z"/><path class="cls-135" d="M298.55,315.42c-5.61-3.24-14.67-3.24-20.23,0s-5.55,8.49.06,11.73,14.66,3.23,20.23,0,5.54-8.48-.06-11.71"/><path class="cls-136" d="M296.89,316.59c-4.69-2.59-12.26-2.59-16.91,0s-4.64,6.8,0,9.39,12.26,2.59,16.92,0,4.63-6.78-.06-9.37"/><path class="cls-137" d="M297,326a9.2,9.2,0,0,0,1.86-1.35,8.88,8.88,0,0,0-1.92-1.39c-4.69-2.59-12.26-2.59-16.91,0a8.67,8.67,0,0,0-1.86,1.35A8.91,8.91,0,0,0,280,326C284.72,328.56,292.29,328.56,297,326Z"/><path class="cls-138" d="M285.52,323.64a3.92,3.92,0,0,0-3.44,0c-.95.53-.95,1.38,0,1.91a4,4,0,0,0,3.44,0c1-.53.94-1.38,0-1.91"/><path class="cls-139" d="M289.61,325.3a1.13,1.13,0,0,0-.95,0c-.27.15-.26.39,0,.53a1.06,1.06,0,0,0,.95,0c.27-.14.26-.38,0-.53"/><path class="cls-140" d="M293.39,323.1a1.25,1.25,0,0,0-1.1,0c-.31.17-.31.44,0,.61a1.27,1.27,0,0,0,1.11,0c.3-.17.3-.44,0-.61"/><path class="cls-141" d="M287.21,322.78s-8.78-4.46-2.36-12.63c6.91-8.78,2.36-15.81,2.36-15.81s5.54,8.3,2.08,15.08A22.13,22.13,0,0,0,287.21,322.78Z"/><path class="cls-141" d="M289,306.48s3.43,5.69-1.1,13C287.87,319.5,295.81,313.31,289,306.48Z"/></g></g></svg>