<?xml version="1.0"?>
<svg xmlns="http://www.w3.org/2000/svg" xmlns:xlink="http://www.w3.org/1999/xlink" version="1.1" id="Capa_1" x="0px" y="0px" viewBox="0 0 512.024 512.024" style="enable-background:new 0 0 512.024 512.024;" xml:space="preserve" width="512px" height="512px" class=""><g><path style="fill:#CFD8DC" d="M366.24,332.3L242.752,112.716l58.56-87.84c4.895-7.357,2.9-17.289-4.456-22.184  c-2.624-1.746-5.704-2.678-8.856-2.68H96C87.163,0.017,80.004,7.184,80.008,16.02c0.002,3.151,0.934,6.232,2.68,8.856l58.56,87.84  L17.728,332.3C6.123,352.982,0.019,376.296,0,400.012c0,61.856,50.144,112,112,112h160c61.856,0,112-50.144,112-112  C384,376.29,377.883,352.968,366.24,332.3z" data-original="#009688" class="active-path" data-old_color="#009688"/><path style="fill:#FFD54F;" d="M511.168,490.956l-32-96c-2.175-6.531-8.284-10.939-15.168-10.944h-96  c-6.896-0.009-13.021,4.402-15.2,10.944l-32,96c-2.792,8.384,1.74,17.444,10.124,20.236c1.637,0.545,3.351,0.822,5.076,0.82h160  c8.837-0.007,15.995-7.176,15.988-16.012C511.987,494.286,511.71,492.583,511.168,490.956z" data-original="#FFD54F" class=""/><path style="fill:#FFC107;" d="M383.2,490.956l-32-96c-2.179-6.542-8.304-10.953-15.2-10.944h-96  c-6.896-0.009-13.021,4.402-15.2,10.944l-32,96c-2.792,8.384,1.74,17.444,10.124,20.236c1.637,0.545,3.351,0.822,5.076,0.82h160  c8.837,0.011,16.009-7.144,16.02-15.98C384.022,494.307,383.745,492.593,383.2,490.956z" data-original="#FFC107" class=""/><path style="fill:#FFB300;" d="M447.2,394.956l-32-96c-2.179-6.542-8.304-10.953-15.2-10.944h-96  c-6.896-0.009-13.021,4.402-15.2,10.944l-32,96c-2.792,8.384,1.74,17.444,10.124,20.236c1.637,0.545,3.351,0.822,5.076,0.82h160  c8.837,0.011,16.009-7.144,16.02-15.98C448.022,398.307,447.745,396.593,447.2,394.956z" data-original="#FFB300" class=""/><path d="M144,512.012h-32c-61.856,0-112-50.144-112-112c0.008-23.711,6.125-47.02,17.76-67.68l123.488-219.616l-58.56-87.84  c-4.895-7.357-2.9-17.289,4.456-22.184c2.624-1.746,5.704-2.678,8.856-2.68h192c8.837,0.005,15.996,7.172,15.992,16.008  c-0.002,3.151-0.934,6.232-2.68,8.856l-58.56,87.84l67.2,119.456c4.33,7.705,1.593,17.462-6.112,21.792s-17.462,1.593-21.792-6.112  l-72-128c-2.943-5.246-2.696-11.699,0.64-16.704l47.392-71.136H125.92l47.392,71.136c3.336,5.005,3.583,11.458,0.64,16.704  l-128.32,228.16c-8.921,15.88-13.615,33.785-13.632,52c0,44.183,35.817,80,80,80h32c8.837,0,16,7.163,16,16  S152.837,512.012,144,512.012z" data-original="#000000" class="" style="fill:#000000"/><path d="M256,128.012H128c-8.837,0-16-7.163-16-16s7.163-16,16-16h128c8.837,0,16,7.163,16,16S264.837,128.012,256,128.012z" data-original="#000000" class="" style="fill:#000000"/><path d="M432,416.012H272c-8.837,0.011-16.009-7.144-16.02-15.98c-0.002-1.725,0.275-3.439,0.82-5.076l32-96  c2.179-6.542,8.304-10.953,15.2-10.944h96c6.896-0.009,13.021,4.402,15.2,10.944l32,96c2.792,8.384-1.74,17.444-10.124,20.236  C435.439,415.737,433.725,416.014,432,416.012z M294.176,384.012h115.648l-21.344-64h-72.96L294.176,384.012z" data-original="#000000" class="" style="fill:#000000"/><path d="M368,512.012H208c-8.837,0.011-16.009-7.144-16.02-15.98c-0.002-1.725,0.275-3.439,0.82-5.076l32-96  c2.179-6.542,8.304-10.953,15.2-10.944h96c6.896-0.009,13.021,4.402,15.2,10.944l32,96c2.792,8.384-1.74,17.444-10.124,20.236  C371.439,511.737,369.725,512.014,368,512.012z M230.176,480.012h115.648l-21.344-64h-72.96L230.176,480.012z" data-original="#000000" class="" style="fill:#000000"/><path d="M496,512.012H368c-8.837,0-16-7.163-16-16s7.163-16,16-16h105.824l-21.344-64h-72.96l-12.32,37.056  c-2.792,8.395-11.861,12.936-20.256,10.144c-8.395-2.792-12.936-11.861-10.144-20.256l16-48c2.179-6.542,8.304-10.953,15.2-10.944  h96c6.896-0.009,13.021,4.402,15.2,10.944l32,96c2.792,8.384-1.74,17.444-10.124,20.236  C499.439,511.737,497.725,512.014,496,512.012z" data-original="#000000" class="" style="fill:#000000"/></g> </svg>
