<?xml version="1.0"?>
<svg xmlns="http://www.w3.org/2000/svg" height="512px" viewBox="-96 0 512 512" width="512px"><g><path d="m202.667969 0h-85.335938c-58.410156 0-117.332031 23.082031-117.332031 74.667969v373.332031c0 64 88.320312 64 117.332031 64h85.335938c29.011719 0 117.332031 0 117.332031-64v-373.332031c0-51.585938-58.921875-74.667969-117.332031-74.667969zm0 0" fill="#455a64" data-original="#455A64"/><path d="m21.332031 106.667969h277.335938v320h-277.335938zm0 0" fill="#00bcd4" data-original="#00BCD4" class="active-path" style="fill:#FFC107" data-old_color="#00bcd4"/><path d="m202.667969 512h-85.335938c-29.011719 0-117.332031 0-117.332031-64v-373.332031c0-51.585938 58.921875-74.667969 117.332031-74.667969h85.335938c58.410156 0 117.332031 23.082031 117.332031 74.667969v373.332031c0 64-88.320312 64-117.332031 64zm-85.335938-490.667969c-35.648437 0-96 11.222657-96 53.335938v373.332031c0 29.097656 30.507813 42.667969 96 42.667969h85.335938c65.492187 0 96-13.570313 96-42.667969v-373.332031c0-42.113281-60.351563-53.335938-96-53.335938zm0 0" data-original="#000000" class="" style="fill:#000000"/><path d="m309.332031 106.667969h-298.664062c-5.890625 0-10.667969-4.78125-10.667969-10.667969s4.777344-10.667969 10.667969-10.667969h298.664062c5.890625 0 10.667969 4.78125 10.667969 10.667969s-4.777344 10.667969-10.667969 10.667969zm0 0" data-original="#000000" class="" style="fill:#000000"/><path d="m309.332031 448h-298.664062c-5.890625 0-10.667969-4.777344-10.667969-10.667969 0-5.886719 4.777344-10.664062 10.667969-10.664062h298.664062c5.890625 0 10.667969 4.777343 10.667969 10.664062 0 5.890625-4.777344 10.667969-10.667969 10.667969zm0 0" data-original="#000000" class="" style="fill:#000000"/><path d="m181.332031 64h-42.664062c-5.890625 0-10.667969-4.777344-10.667969-10.667969 0-5.886719 4.777344-10.664062 10.667969-10.664062h42.664062c5.890625 0 10.667969 4.777343 10.667969 10.664062 0 5.890625-4.777344 10.667969-10.667969 10.667969zm0 0" data-original="#000000" class="" style="fill:#000000"/></g> </svg>
